<svg xmlns="http://www.w3.org/2000/svg" xmlns:xlink="http://www.w3.org/1999/xlink" width="80" height="80" viewBox="0 0 80 80" fill="none" class="lm-w-10 sm:lm-w-12 lm-h-auto"><path d="M67.612 16.936a1.578 1.578 0 100-3.157 1.578 1.578 0 000 3.157z" fill="#6245B5"></path><path d="M36.006 12.78s10.4 1.184 6.644 8.286c0 0-11.047 3.787-6.123 16.097 4.923 12.31 15.939 4.734 15.939 4.734s5.855 9.721 0 11.173-18.449-.615-19.49-3.724c-1.042-3.109-17.88-17.628 3.03-36.565z" fill="#FDD8F5"></path><path d="M28.373 65.013c15.67 10.008 32.917 11.009 38.521 2.234 5.604-8.774-2.556-24.001-18.226-34.01-15.67-10.008-32.916-11.009-38.52-2.234-5.605 8.775 2.555 24.001 18.225 34.01z" fill="#E7EDF5"></path><path d="M31.303 17.405c.212-.108.442-.177.678-.205 1.5-.158 2.636 1.578 2.541 3.045a10.573 10.573 0 01-1.657 4.12 18.021 18.021 0 00-2.083 10.51 14.487 14.487 0 004.987 9.374c1.31 1.089 6.313 4.466 4.734 6.612-1.91 2.572-7.654-2.888-8.948-4.324-6.47-7.26-6.785-18.796-1.972-27.238a4.592 4.592 0 011.72-1.894z" fill="#FE86E3"></path><path d="M55.449 22.186c5.342 4.274 6.209 12.07 1.935 17.413-4.274 5.343-12.07 6.21-17.413 1.935-5.342-4.274-6.209-12.07-1.935-17.412a12.388 12.388 0 019.68-4.65c.584 0 2.114.505 1.72.11-2.651-2.509-1.925-7.606-.11-10.368h-1.579a22.457 22.457 0 00-8.648 1.72 9.358 9.358 0 002.289 10.274 12.372 12.372 0 016.312-1.72l7.749 2.698zm6.312-8.143a22.583 22.583 0 00-12.483-4.845H47.7C35.167 9.19 25 19.343 24.99 31.876v.142c.38 12.528 10.842 22.376 23.37 21.998 12.068-.365 22.002-9.034 22.002-22.187v-4.501l-1.865-4.516-1.642-3.23-2.053-2.518-3.041-3.02z" stroke="#6245B5" stroke-width="3" stroke-linecap="round" stroke-linejoin="round"></path><path d="M37.032 38.126a9.358 9.358 0 01-10.32 2.35 22.457 22.457 0 01-1.721-8.647V30.25a9.249 9.249 0 005.097 1.578M57.027 49.346a9.248 9.248 0 01-.71 3.425 22.472 22.472 0 01-8.649 1.72H46.09a9.295 9.295 0 00-.11-10.416c.57.076 1.145.112 1.72.11" stroke="#6245B5" stroke-width="3" stroke-linecap="round" stroke-linejoin="round"></path><path d="M58.048 29.38c.088-.55.131-1.105.129-1.661.004-2.146-.686-4.253-1.997-6.1 2.047-1.86 4.94-2.916 7.969-2.913h.22c2.23.04 4.175 1.272 4.818 3.05.637 1.912.957 3.887.952 5.871v1.525c-3.665-2.003-8.422-1.961-12.035.107l-.056.122z" stroke="#6245B5" stroke-width="3" stroke-linecap="square" stroke-linejoin="round"></path><path d="M19.483 27.347a6.597 6.597 0 014.734-11.489M42.65 60.33a6.597 6.597 0 01-11.49-4.735" stroke="#F8AAE7" stroke-width="4" stroke-linecap="round" stroke-linejoin="round"></path><path d="M75.633 37.163a6.597 6.597 0 01-4.735 11.489" stroke="#F8AAE7" stroke-width="4" stroke-linecap="round"></path><path d="M52.465 4.18a6.597 6.597 0 0111.49 4.734" stroke="#F8AAE7" stroke-width="4" stroke-linecap="round" stroke-linejoin="round"></path></svg>