<svg width="20" xmlns="http://www.w3.org/2000/svg" xmlns:xlink="http://www.w3.org/1999/xlink" height="23" viewBox="0 0 20 23" fill="none"><g clip-path="url(#security_svg__clip0)" fill="#10BF8D"><path fill-rule="evenodd" clip-rule="evenodd" d="M10.217.023l9 2A1 1 0 0120 3v10c0 5.523-4.477 10-10 10S0 18.523 0 13V3a1 1 0 01.783-.977l9-2c.143-.031.291-.031.434 0zM14 17a1 1 0 001-1v-5a1 1 0 00-1-1h-1V8a3 3 0 10-6 0v2H6a1 1 0 00-1 1v5a1 1 0 001 1h8z"></path><path d="M10 7a1 1 0 00-1 1v2h2V8a1 1 0 00-1-1z"></path></g><defs><clipPath id="security_svg__clip0"><path fill="#fff" d="M0 0h20v23H0z"></path></clipPath></defs></svg>