<?xml version="1.0" encoding="UTF-8"?>
<svg width="24px" height="18px" viewBox="0 0 24 18" version="1.1" xmlns="http://www.w3.org/2000/svg" xmlns:xlink="http://www.w3.org/1999/xlink">
    <!-- Generator: sketchtool 51.1 (57501) - http://www.bohemiancoding.com/sketch -->
    <title>761C92D5-F259-45FB-9D55-EBD6DC103508-557-000053BD0B5F1ADF</title>
    <desc>Created with sketchtool.</desc>
    <defs></defs>
    <g id="Homepage" stroke="none" stroke-width="1" fill="none" fill-rule="evenodd">
        <g id="010-lumi-home-full-mobile" transform="translate(-331.000000, -32.000000)" fill="#6245B5">
            <g id="HEADER-MOBILE">
                <g id="nav-icon">
                    <path d="M332,40 L354,40 C354.552285,40 355,40.4477153 355,41 L355,41 C355,41.5522847 354.552285,42 354,42 L332,42 C331.447715,42 331,41.5522847 331,41 L331,41 C331,40.4477153 331.447715,40 332,40 Z M337,48 L354,48 C354.552285,48 355,48.4477153 355,49 C355,49.5522847 354.552285,50 354,50 L337,50 C336.447715,50 336,49.5522847 336,49 C336,48.4477153 336.447715,48 337,48 Z M332,48 L333,48 C333.552285,48 334,48.4477153 334,49 C334,49.5522847 333.552285,50 333,50 L332,50 C331.447715,50 331,49.5522847 331,49 C331,48.4477153 331.447715,48 332,48 Z M332,32 L349,32 C349.552285,32 350,32.4477153 350,33 C350,33.5522847 349.552285,34 349,34 L332,34 C331.447715,34 331,33.5522847 331,33 C331,32.4477153 331.447715,32 332,32 Z M353,32 L354,32 C354.552285,32 355,32.4477153 355,33 C355,33.5522847 354.552285,34 354,34 L353,34 C352.447715,34 352,33.5522847 352,33 C352,32.4477153 352.447715,32 353,32 Z"></path>
                </g>
            </g>
        </g>
    </g>
</svg>