<svg xmlns="http://www.w3.org/2000/svg" xmlns:xlink="http://www.w3.org/1999/xlink" width="49" height="48" viewBox="0 0 49 48" fill="none"><path fill-rule="evenodd" clip-rule="evenodd" d="M47.156 11.224a3.218 3.218 0 01-4.537 0 3.217 3.217 0 010-4.538 3.218 3.218 0 014.537 0 3.22 3.22 0 010 4.538zm-12.288 3.213a3.218 3.218 0 014.537 0 3.216 3.216 0 010 4.537L25.113 33.266a3.218 3.218 0 01-4.537 0l-9.64-9.64a3.218 3.218 0 010-4.538 3.216 3.216 0 014.537 0l7.372 7.372 12.023-12.023z" fill="#FD55D8"></path></svg>