<svg xmlns="http://www.w3.org/2000/svg" xmlns:xlink="http://www.w3.org/1999/xlink" viewBox="0 0 951.41 648.94"><defs><style>.cls-1,.cls-12,.cls-15,.cls-17,.cls-18,.cls-19,.cls-2,.cls-20,.cls-22,.cls-23,.cls-24,.cls-25,.cls-26,.cls-28,.cls-31{fill:none;}.cls-1{clip-rule:evenodd;}.cls-3{isolation:isolate;}.cls-4{clip-path:url(#clip-path);}.cls-5{clip-path:url(#clip-path-2);}.cls-27,.cls-6{fill:#ff4eda;}.cls-7{fill:#6240b8;}.cls-16,.cls-8{fill:#f8f9fb;}.cls-8{opacity:0.75;}.cls-32,.cls-33,.cls-8{mix-blend-mode:multiply;}.cls-9{clip-path:url(#clip-path-3);}.cls-10{clip-path:url(#clip-path-4);}.cls-11,.cls-29{fill:#ffbd26;}.cls-12,.cls-22,.cls-23,.cls-24,.cls-28{stroke:#6240b8;}.cls-12,.cls-15,.cls-17,.cls-18,.cls-19,.cls-20,.cls-22,.cls-23,.cls-24,.cls-25,.cls-26,.cls-27,.cls-28,.cls-29,.cls-31{stroke-linecap:round;stroke-linejoin:round;}.cls-12{stroke-width:3px;}.cls-13{clip-path:url(#clip-path-5);}.cls-14,.cls-17,.cls-18{opacity:0.2;}.cls-15,.cls-17,.cls-18,.cls-19,.cls-20{stroke:#5d7287;}.cls-15,.cls-18{stroke-width:1.24px;stroke-dasharray:1.86 1.86 0.62;}.cls-17,.cls-19{stroke-width:2px;}.cls-20{stroke-width:1.86px;stroke-dasharray:0.46 2.32;}.cls-21{fill:#fff;}.cls-22{stroke-width:4px;}.cls-23,.cls-25{stroke-width:4.97px;}.cls-24,.cls-26,.cls-31{stroke-width:3.07px;stroke-dasharray:4.61 4.61 1.54;}.cls-25,.cls-26,.cls-27{stroke:#ff4eda;}.cls-28{stroke-width:4.6px;stroke-dasharray:1.15 5.75;}.cls-29{stroke:#ffbd26;}.cls-30,.cls-32{fill:#e7edf5;}.cls-31{stroke:#e7edf5;}.cls-33{opacity:0.08;}.cls-34{fill:#5d7287;}</style><clipPath id="clip-path"><path class="cls-1" d="M689.31-395.73a.72.72,0,0,0-.35-.57l-6.58-3.46c-.19-.1-.34,0-.34.21V-392a.71.71,0,0,0,.34.57L689-388a.22.22,0,0,0,.35-.21Z"/></clipPath><clipPath id="clip-path-2"><path class="cls-1" d="M661.32-400.56c1.91,4.54.75,8.86-2.6,9.66s-7.6-2.24-9.51-6.78-.75-8.87,2.6-9.66,7.6,2.24,9.51,6.78"/></clipPath><clipPath id="clip-path-3"><path class="cls-1" d="M511.1,133.38a.71.71,0,0,1,.34-.58l6.59-3.46c.19-.1.34,0,.34.21v7.54a.71.71,0,0,1-.34.58l-6.59,3.45c-.19.1-.34,0-.34-.2Z"/></clipPath><clipPath id="clip-path-4"><rect class="cls-2" x="419.54" y="-448.82" width="1440" height="1940"/></clipPath><clipPath id="clip-path-5"><path class="cls-1" d="M539.09,128.55c-1.91,4.54-.75,8.86,2.59,9.65s7.61-2.24,9.52-6.78.74-8.86-2.6-9.65-7.6,2.24-9.51,6.78"/></clipPath></defs><title>Artboard 19 copy</title><g class="cls-3"><g id="Lumi_-_Hero" data-name="Lumi - Hero"><path class="cls-6" d="M705.19,303a17.05,17.05,0,0,1,15.43,0l28.14,16.3c4.24,2.45,4.24,6.47,0,8.93l-28.14,16.3a17.11,17.11,0,0,1-15.43,0l-28.14-16.3c-4.24-2.46-4.24-6.48,0-8.93Z"/><path class="cls-7" d="M432.83,516.42a17,17,0,0,1,15.42,0l28.15,16.3c4.24,2.46,4.24,6.48,0,8.93L448.25,558a17,17,0,0,1-15.42,0l-28.15-16.3c-4.24-2.45-4.24-6.47,0-8.93Z"/><path class="cls-8" d="M438.73,236.6c36.47-21.12,96.14-21.12,132.6,0L813.26,376.7c36.46,21.12,36.46,55.67,0,76.79L571.33,593.59c-36.46,21.12-96.13,21.12-132.6,0L196.8,453.49c-36.46-21.12-36.46-55.67,0-76.79Z"/><g class="cls-9"><g class="cls-10"><rect class="cls-11" x="506.1" y="124.3" width="17.27" height="21.86"/></g></g><path class="cls-12" d="M524.64,148c-1,2.44-.4,4.77,1.4,5.2s4.09-1.21,5.12-3.66.4-4.77-1.4-5.19S525.67,145.57,524.64,148Z"/><g class="cls-13"><g class="cls-10"><rect class="cls-6" x="533.17" y="116.64" width="23.95" height="26.69"/></g></g><g class="cls-14"><line class="cls-15" x1="693.03" y1="469.42" x2="551.11" y2="551.61"/><line class="cls-15" x1="814.85" y1="398.87" x2="730.43" y2="447.76"/><line class="cls-15" x1="621.88" y1="457.41" x2="459.2" y2="551.61"/><line class="cls-15" x1="738.61" y1="389.8" x2="574.14" y2="485.05"/><line class="cls-15" x1="804.58" y1="351.6" x2="783.31" y2="363.92"/><line class="cls-15" x1="650.03" y1="388.08" x2="382.42" y2="546.1"/><line class="cls-15" x1="662.04" y1="380.92" x2="651.89" y2="386.8"/><line class="cls-15" x1="745.03" y1="332.86" x2="674.33" y2="373.81"/><line class="cls-15" x1="511.62" y1="414.81" x2="320.19" y2="525.66"/><line class="cls-15" x1="734.42" y1="285.79" x2="511.62" y2="414.81"/><line class="cls-15" x1="315.17" y1="475.35" x2="268.32" y2="502.48"/><line class="cls-15" x1="429.88" y1="408.92" x2="315.17" y2="475.35"/><line class="cls-15" x1="656.25" y1="277.83" x2="435.43" y2="405.71"/><line class="cls-15" x1="309.02" y1="425.69" x2="292.82" y2="435.07"/><line class="cls-15" x1="504.13" y1="312.7" x2="309.02" y2="425.69"/><line class="cls-15" x1="658.01" y1="223.58" x2="504.13" y2="312.7"/><line class="cls-15" x1="309.02" y1="372.46" x2="296.45" y2="379.74"/><line class="cls-15" x1="560.84" y1="226.63" x2="494.43" y2="265.09"/><line class="cls-15" x1="317.72" y1="492.41" x2="410.43" y2="546.1"/><line class="cls-15" x1="293.14" y1="478.18" x2="317.72" y2="492.41"/><line class="cls-15" x1="375.88" y1="472.87" x2="494.77" y2="541.72"/><polyline class="cls-15" points="291.98 424.28 301.33 429.7 375.88 472.87"/><line class="cls-15" x1="376.54" y1="420.03" x2="635.36" y2="583.25"/><line class="cls-15" x1="293.14" y1="371.73" x2="376.54" y2="420.03"/><polyline class="cls-15" points="585.86 488.02 655.39 528.29 669.03 536.18"/><line class="cls-15" x1="312.46" y1="329.7" x2="581.15" y2="485.29"/><line class="cls-15" x1="303.22" y1="324.35" x2="309.63" y2="328.06"/><line class="cls-15" x1="605.96" y1="446.44" x2="759.84" y2="535.55"/><line class="cls-15" x1="490.79" y1="379.74" x2="601.15" y2="443.65"/><line class="cls-15" x1="378.56" y1="314.75" x2="479.83" y2="373.4"/><line class="cls-15" x1="747.96" y1="475.45" x2="760.43" y2="482.67"/><line class="cls-15" x1="513.41" y1="339.62" x2="693.95" y2="444.17"/><line class="cls-15" x1="435.46" y1="294.48" x2="513.41" y2="339.62"/><line class="cls-15" x1="385.86" y1="265.75" x2="431.38" y2="292.12"/><polyline class="cls-15" points="516.23 289.2 813.3 461.24 835.96 474.36 850.3 482.67"/><line class="cls-15" x1="493.71" y1="276.16" x2="512.09" y2="286.8"/><line class="cls-15" x1="435.43" y1="242.41" x2="441.35" y2="245.84"/><line class="cls-15" x1="783.71" y1="392.05" x2="849.69" y2="430.27"/><line class="cls-15" x1="553.35" y1="258.65" x2="739.77" y2="366.61"/><line class="cls-15" x1="488.83" y1="221.29" x2="549.54" y2="256.45"/></g><polygon class="cls-16" points="685.13 306.59 685.13 259.13 712.91 252.97 712.91 289.77 685.13 306.59"/><polygon class="cls-16" points="574.66 252.97 571.81 199.16 613.92 154.8 613.92 231.05 574.66 252.97"/><polyline class="cls-17" points="716.5 251.09 716.5 287.24 688.29 303.57"/><polyline class="cls-18" points="709.74 254.96 688.29 257.02 660.86 240.31 660.86 287.86 688.29 303.57 688.29 262.46"/><polyline class="cls-17" points="716.5 251.09 689.07 234.39 668.1 236.16"/><g class="cls-14"><line class="cls-19" x1="585.52" y1="251.05" x2="574.66" y2="257.24"/><line class="cls-20" x1="608.5" y1="237.93" x2="588.75" y2="249.2"/><polyline class="cls-19" points="612.13 155.47 612.13 231.63 612.13 235.86"/><line class="cls-20" x1="587.83" y1="178.73" x2="604.96" y2="159.57"/><line class="cls-19" x1="574.66" y1="193.45" x2="585.52" y2="181.31"/><line class="cls-15" x1="574.66" y1="247.78" x2="574.66" y2="199.48"/><polyline class="cls-19" points="574.66 193.45 559.58 184.96 559.58 248.75 574.66 257.24"/><polyline class="cls-19" points="612.13 155.47 597.05 146.97 565.88 178.33"/></g><polygon class="cls-21" points="727.97 502.83 727.97 478.06 745.97 467.26 745.97 491.79 727.97 502.83"/><ellipse class="cls-16" cx="758.14" cy="362.8" rx="17.76" ry="9.02"/><g class="cls-14"><path class="cls-19" d="M779.3,360.2v41.44c0,4.95-8.06,8.95-18,8.95-6.75,0-12.63-1.84-15.72-4.58a5.93,5.93,0,0,1-2.28-4.37V371.57"/><path class="cls-20" d="M746.86,365.55c3.28,2.19,8.52,3.6,14.43,3.6A30.27,30.27,0,0,0,773,367"/><path class="cls-19" d="M779.3,360.2c0-4.94-8.06-8.95-18-8.95s-18,4-18,8.95a4.71,4.71,0,0,0,.42,1.94"/></g><g class="cls-14"><path class="cls-19" d="M353.26,480.65v14.74c0,1.75-2.86,3.18-6.4,3.18a8.84,8.84,0,0,1-5.59-1.63,2.13,2.13,0,0,1-.81-1.55v-8.05"/><path class="cls-19" d="M340.46,480.65a2.13,2.13,0,0,0,.81,1.56,8.84,8.84,0,0,0,5.59,1.62c3.54,0,6.4-1.42,6.4-3.18s-2.86-3.18-6.4-3.18S340.46,478.9,340.46,480.65Z"/></g><path class="cls-22" d="M533.18,506.5v20.79c0,2.48-4,4.49-9,4.49-3.39,0-6.34-.93-7.89-2.3a3,3,0,0,1-1.14-2.19V515.94"/><path class="cls-22" d="M515.12,506.5a3,3,0,0,0,1.14,2.2c1.55,1.37,4.5,2.29,7.89,2.29,5,0,9-2,9-4.49s-4-4.49-9-4.49S515.12,504,515.12,506.5Z"/><polyline class="cls-17" points="743.29 467.05 743.29 490.92 724.86 501.48"/><polyline class="cls-17" points="703.04 454.55 697.43 448.62 697.43 485.77 724.86 501.48 724.86 483.05"/><polyline class="cls-18" points="705.87 457.53 724.86 477.61 736.53 470.92"/><polyline class="cls-17" points="743.29 467.05 715.86 438.07 704.67 444.47"/><polygon class="cls-11" points="504.26 352.67 479.88 367.47 445.27 347.34 469.8 332.13 504.26 352.67"/><path class="cls-11" d="M470.48,433.42A3,3,0,0,0,469,431l-23.1-12.72a.91.91,0,0,0-1.45.87l.63,54.93a3,3,0,0,0,1.44,2.39l23.1,12.72a.91.91,0,0,0,1.45-.87Z"/><polyline class="cls-23" points="492.53 420.6 492.53 478.5 474.77 488.68"/><line class="cls-23" x1="474.77" y1="430.78" x2="486.02" y2="424.33"/><polyline class="cls-23" points="462.93 481.89 474.77 488.68 474.77 441.04"/><polyline class="cls-24" points="460.09 422.37 448.33 415.63 448.33 473.53 459.11 479.7"/><line class="cls-23" x1="474.77" y1="430.78" x2="465.09" y2="425.24"/><polyline class="cls-23" points="492.53 420.6 466.09 405.46 455.31 411.64"/><polyline class="cls-23" points="605.17 453.83 605.17 511.73 587.41 521.9"/><polyline class="cls-23" points="575.57 515.12 587.41 521.9 587.41 474.27"/><polyline class="cls-23" points="510.14 415.1 510.14 430.9 499.04 437.26"/><line class="cls-23" x1="486.06" y1="366.22" x2="501.31" y2="357.48"/><line class="cls-23" x1="486.06" y1="406" x2="486.06" y2="380.13"/><polyline class="cls-23" points="486.06 366.21 450.23 345.69 450.23 404"/><polyline class="cls-23" points="495.82 344.22 474.31 331.9 459.69 340.27"/><polyline class="cls-24" points="499.92 346.57 510.14 352.43 510.14 409.41"/><line class="cls-24" x1="546.25" y1="384.43" x2="546.25" y2="343.33"/><path class="cls-23" d="M568.2,361.67v69.87c0,3-4.92,5.45-11,5.45-4.11,0-7.69-1.12-9.57-2.79a3.61,3.61,0,0,1-1.4-2.66V389.67"/><line class="cls-25" x1="568.2" y1="331.87" x2="568.2" y2="354.67"/><path class="cls-25" d="M546.25,331.87a3.63,3.63,0,0,0,1.4,2.67c1.88,1.66,5.46,2.79,9.57,2.79,6.06,0,11-2.44,11-5.46s-4.92-5.45-11-5.45S546.25,328.86,546.25,331.87Z"/><path class="cls-23" d="M613.3,407.42V430.8c0,2.79-4.55,5.05-10.16,5.05-3.81,0-7.13-1-8.87-2.59A3.33,3.33,0,0,1,593,430.8V418"/><path class="cls-23" d="M613.3,407.42c0-2.79-4.55-5.05-10.16-5.05S593,404.63,593,407.42a3.35,3.35,0,0,0,1.29,2.47c1.74,1.54,5.06,2.58,8.87,2.58.48,0,1,0,1.43-.05"/><path class="cls-26" d="M546.25,277.91a3.59,3.59,0,0,0,1.4,2.66c1.88,1.67,5.46,2.79,9.57,2.79,6.06,0,11-2.44,11-5.45s-4.92-5.45-11-5.45S546.25,274.9,546.25,277.91Z"/><line class="cls-26" x1="568.09" y1="319.35" x2="568.09" y2="287.36"/><line class="cls-26" x1="546.25" y1="319.35" x2="546.25" y2="287.36"/><polygon class="cls-27" points="416.55 368.08 429.47 375.45 397.8 408.41 384.7 401.56 416.55 368.08"/><line class="cls-23" x1="403.96" y1="455.39" x2="396.71" y2="459.53"/><line class="cls-28" x1="410.3" y1="451.94" x2="426.3" y2="442.64"/><polyline class="cls-23" points="429.47 370.55 429.47 437.14 429.47 440.83"/><line class="cls-28" x1="408.22" y1="390.89" x2="423.2" y2="374.14"/><line class="cls-23" x1="396.71" y1="403.75" x2="403.58" y2="396.07"/><line class="cls-24" x1="396.71" y1="451.26" x2="396.71" y2="409.03"/><polyline class="cls-23" points="396.71 403.75 383.52 396.33 383.52 452.11 396.71 459.53"/><polyline class="cls-23" points="429.47 370.55 416.29 363.12 389.03 390.54"/><polygon class="cls-29" points="606.68 301.93 593.76 309.3 625.44 342.26 638.53 335.4 606.68 301.93"/><path class="cls-6" d="M573.25,440.57l-10,6.22a2.32,2.32,0,0,0,0,3.95L584.68,464a2.31,2.31,0,0,0,2.29.09l11.59-6a2.31,2.31,0,0,0,.11-4.06l-23-13.49A2.33,2.33,0,0,0,573.25,440.57Z"/><line class="cls-23" x1="619.27" y1="389.24" x2="626.52" y2="393.38"/><line class="cls-28" x1="612.93" y1="385.79" x2="596.94" y2="376.49"/><polyline class="cls-23" points="593.76 304.39 593.76 370.99 593.76 374.68"/><line class="cls-28" x1="615.01" y1="324.74" x2="600.03" y2="307.99"/><line class="cls-23" x1="626.52" y1="337.6" x2="619.65" y2="329.91"/><line class="cls-24" x1="626.52" y1="385.11" x2="626.52" y2="342.88"/><polyline class="cls-23" points="626.52 337.6 639.71 330.18 639.71 385.95 626.52 393.38"/><polyline class="cls-23" points="593.76 304.39 606.95 296.97 634.2 324.39"/><path class="cls-11" d="M223.74,314.3l38.53-21.83,2.22-1.25,8.29-4.7L275.54,374,268,378.25l-2,1.14L233.81,397.6,227.74,401l-1.24.7c-2,1.12-3.64.18-3.71-2.08L221,343.18l-.08-2.57-.64-20.18A7.48,7.48,0,0,1,223.74,314.3Z"/><path class="cls-23" d="M248.25,439.24l-.86-27.3a2.58,2.58,0,0,1,1.19-2.11L272,396.56a.79.79,0,0,1,1.28.71l.86,27.3a2.55,2.55,0,0,1-1.19,2.11l-17.88,10.13"/><ellipse class="cls-23" cx="219.44" cy="293.64" rx="4.86" ry="3.26" transform="translate(-143.9 342.18) rotate(-60.84)"/><path class="cls-30" d="M444.35,169.74a14.61,14.61,0,0,1-9.24,4.39,10.79,10.79,0,0,1-9.2-4c-2.23-3-2.64-7.15-5.36-9.67s-7.16-2.55-10.81-3.8a17.62,17.62,0,0,1-9.11-7.63,26.55,26.55,0,0,1-3.52-11.5,3.83,3.83,0,0,0-3.4,1.12A7.17,7.17,0,0,0,392,141.9a24.89,24.89,0,0,0-.59,6.27,276.07,276.07,0,0,0,3.47,48.75c.26,1.5,1,3.39,2.54,3.24a3.07,3.07,0,0,0,1.11-.42q20.73-11.15,40.92-23.26a15.55,15.55,0,0,0,3.71-2.77,5.32,5.32,0,0,0,1.48-4.24"/><ellipse class="cls-6" cx="444.19" cy="258.17" rx="10.76" ry="7.23" transform="translate(2.3 520.25) rotate(-60.84)"/><path class="cls-6" d="M409.92,270.46c-2.1,5.48-.55,10.59,3.46,11.41s9-3,11.08-8.44"/><path class="cls-6" d="M390.74,294.51c4,.82,9-3,11.08-8.45s.55-10.59-3.46-11.41"/><ellipse class="cls-6" cx="366.34" cy="304.89" rx="10.76" ry="7.23" transform="translate(-78.41 476.23) rotate(-60.84)"/><ellipse class="cls-6" cx="340.08" cy="314.05" rx="10.76" ry="7.23" transform="translate(-99.87 457.99) rotate(-60.84)"/><path class="cls-24" d="M288.07,218.6l-1.55-49.1c-.18-5.5,3.6-12.21,8.38-14.92l93.77-53.11"/><path class="cls-23" d="M304.63,365.64l-3,1.71c-4.79,2.71-8.84.43-9-5.07l-4.34-137.44"/><line class="cls-23" x1="397.65" y1="312.96" x2="319.42" y2="357.27"/><path class="cls-24" d="M475,241.55l.54,17.13c.17,5.5-3.6,12.21-8.39,14.92l-64.58,36.58"/><line class="cls-23" x1="470.14" y1="88.13" x2="474.75" y2="234.08"/><path class="cls-23" d="M394.06,98.42l66.36-37.59c4.79-2.71,8.85-.43,9,5.07l.15,4.74"/><path class="cls-31" d="M305.44,182.74c-.17-5.49,3.6-12.21,8.39-14.92L479.35,74.07c4.79-2.71,8.84-.43,9,5.07l6.08,192.78c.18,5.5-3.6,12.22-8.38,14.93L320.55,380.59c-4.79,2.71-8.85.43-9-5.06Z"/><path class="cls-28" d="M396.41,173.08l-.91-28.84a13.17,13.17,0,0,1,5.79-10.59L415.82,125"/><path class="cls-23" d="M421.49,121.59l21.7-13c3.31-2,6.11-.44,6.23,3.4l1.66,52.37A13.16,13.16,0,0,1,445.29,175l-41.9,25c-3.31,2-6.11.44-6.23-3.41L396.6,179"/><path class="cls-23" d="M317.63,192.3l0-1.25a11.3,11.3,0,0,1,5-9.08l49.55-29.79c2.83-1.7,5.23-.39,5.34,2.91l0,1.24a11.33,11.33,0,0,1-5,9.09"/><line class="cls-24" x1="368.48" y1="167.84" x2="322.96" y2="195.2"/><path class="cls-23" d="M394,223.93,429,202.85c2.83-1.7,5.23-.39,5.34,2.91l0,1.24a11.33,11.33,0,0,1-5,9.09l-17.35,10.43"/><path class="cls-24" d="M407.53,229.27l-27.64,16.61c-2.83,1.7-5.23.39-5.33-2.91l0-1.24a11.3,11.3,0,0,1,5-9.09l8.83-5.31"/><path class="cls-23" d="M352.06,204.73c-2.82,1.7-5.22.39-5.33-2.91l0-1.24a11.33,11.33,0,0,1,5-9.09l21.28-12.81c2.83-1.7,5.23-.39,5.33,2.91l0,1.24a11.3,11.3,0,0,1-4.95,9.09l-14.42,8.68"/><polyline class="cls-25" points="411.4 159.36 423.13 168.91 436.29 142.02"/><path class="cls-23" d="M442.25,266c4.31.88,9.63-3.17,11.89-9.06s.6-11.36-3.71-12.24"/><path class="cls-28" d="M443.82,246.6a16.26,16.26,0,0,0-5.28,7.14c-1.32,3.45-1.3,6.76-.18,9.08"/><ellipse class="cls-23" cx="446.7" cy="200.84" rx="7.15" ry="4.8" transform="translate(53.65 493.06) rotate(-60.84)"/><ellipse class="cls-23" cx="308.98" cy="108.03" rx="7.15" ry="4.8" transform="translate(64.09 325.21) rotate(-60.84)"/><path class="cls-23" d="M428.32,271.85c2.25-5.88.59-11.36-3.71-12.24s-9.63,3.17-11.89,9.05a12.68,12.68,0,0,0-.68,7.74"/><path class="cls-28" d="M416.43,280.91c3.25.66,7.09-1.49,9.75-5.13"/><path class="cls-28" d="M396.72,293.38c-2.3,2-5,3-7.33,2.49-3-.61-4.74-3.5-4.72-7.19"/><path class="cls-23" d="M401.28,286.82c2.25-5.88.59-11.36-3.71-12.25s-9.63,3.18-11.89,9.06"/><path class="cls-23" d="M363.7,312.7c4.3.88,9.62-3.17,11.88-9.05s.6-11.36-3.71-12.24"/><path class="cls-28" d="M364.92,293.58a16.38,16.38,0,0,0-4.93,6.88c-1.29,3.36-1.31,6.58-.28,8.9"/><path class="cls-23" d="M348.39,315.57c.33-4.11-1.42-7.41-4.68-8.08-4.3-.88-9.63,3.18-11.88,9.06"/><path class="cls-28" d="M330.87,322.73c.3,3.14,2,5.51,4.66,6.06,4.31.88,9.63-3.17,11.89-9.06"/><path class="cls-32" d="M336.94,218.06a.64.64,0,1,0-.62.66A.64.64,0,0,0,336.94,218.06Zm-4.81.15a.64.64,0,1,0-.62.66A.64.64,0,0,0,332.13,218.21Zm9.77,4.48a.64.64,0,0,0-1.27,0,.64.64,0,1,0,1.27,0Zm-4.81.16a.63.63,0,0,0-.66-.62.64.64,0,1,0,0,1.27A.63.63,0,0,0,337.09,222.85Zm-4.81.15a.64.64,0,1,0-.62.66A.64.64,0,0,0,332.28,223Zm-4.81.15a.65.65,0,0,0-.66-.62.64.64,0,0,0-.62.66.64.64,0,0,0,1.28,0Zm19.4,4.18a.64.64,0,1,0-.62.66A.64.64,0,0,0,346.87,227.33Zm-4.82.15a.64.64,0,1,0-.61.66A.64.64,0,0,0,342.05,227.48Zm-4.81.15a.64.64,0,1,0-1.27,0,.63.63,0,0,0,.65.62A.64.64,0,0,0,337.24,227.63Zm-4.81.15a.64.64,0,0,0-1.28,0,.64.64,0,0,0,1.28,0Zm29,3.88a.65.65,0,0,0-.66-.62.64.64,0,1,0,0,1.28A.64.64,0,0,0,361.46,231.66Zm-4.82.15a.64.64,0,1,0-.62.66A.64.64,0,0,0,356.64,231.81Zm-4.81.15a.64.64,0,0,0-1.28,0,.64.64,0,1,0,1.28,0Zm-4.81.15a.64.64,0,1,0-.62.66A.64.64,0,0,0,347,232.11Zm-4.81.16a.64.64,0,0,0-.66-.62.63.63,0,0,0-.62.66.64.64,0,0,0,.66.62A.65.65,0,0,0,342.21,232.27Zm-4.82.15a.64.64,0,1,0-.62.66A.64.64,0,0,0,337.39,232.42Zm-4.81.15a.64.64,0,1,0-.62.66A.64.64,0,0,0,332.58,232.57Zm29,3.88a.64.64,0,0,0-1.28,0,.64.64,0,0,0,1.28,0Zm-4.82.15a.63.63,0,0,0-.65-.62.64.64,0,1,0,.65.62Zm-4.81.15a.64.64,0,1,0-1.28,0,.65.65,0,0,0,.66.62A.64.64,0,0,0,352,236.75Zm-4.81.15a.64.64,0,1,0-.62.66A.64.64,0,0,0,347.17,236.9Zm-4.81.15a.64.64,0,1,0-1.28,0,.64.64,0,0,0,1.28,0Zm-4.82.15a.64.64,0,1,0-.61.66A.63.63,0,0,0,337.54,237.2Zm-4.81.16a.63.63,0,0,0-.66-.62.62.62,0,0,0-.61.66.64.64,0,0,0,.65.62A.64.64,0,0,0,332.73,237.36Zm-4.81.15a.64.64,0,1,0-.62.66A.64.64,0,0,0,327.92,237.51Zm29,3.87a.64.64,0,0,0-.66-.61.64.64,0,1,0,0,1.27A.64.64,0,0,0,357,241.38Zm-4.82.16a.63.63,0,0,0-.66-.62.64.64,0,1,0,.66.62Zm-4.81.15a.64.64,0,1,0-.62.66A.64.64,0,0,0,347.32,241.69Zm-4.81.15a.64.64,0,1,0-.62.66A.64.64,0,0,0,342.51,241.84Zm-4.81.15a.65.65,0,0,0-.66-.62.64.64,0,1,0,0,1.28A.64.64,0,0,0,337.7,242Zm-4.82.15a.64.64,0,1,0-.62.66A.63.63,0,0,0,332.88,242.14Zm-4.81.16a.64.64,0,0,0-1.28,0,.64.64,0,0,0,1.28,0Zm-4.81.15a.64.64,0,0,0-.66-.62.64.64,0,1,0,.66.62Zm24.21,4a.62.62,0,0,0-.66-.61.64.64,0,0,0-.62.65.64.64,0,0,0,.66.62A.63.63,0,0,0,347.47,246.47Zm-4.81.16a.64.64,0,1,0-1.28,0,.64.64,0,0,0,1.28,0Zm-4.81.15a.64.64,0,1,0-.62.66A.64.64,0,0,0,337.85,246.78Zm-4.82.15a.64.64,0,1,0-.61.66A.64.64,0,0,0,333,246.93Zm-4.81.15a.64.64,0,1,0-1.28,0,.65.65,0,0,0,.66.62A.64.64,0,0,0,328.22,247.08Zm-4.81.15a.64.64,0,0,0-1.28,0,.64.64,0,1,0,1.28,0Zm-4.81.16a.64.64,0,0,0-1.28,0,.64.64,0,0,0,1.28,0Zm-4.82.15a.64.64,0,1,0-.61.66A.64.64,0,0,0,313.78,247.54Zm24.22,4a.64.64,0,0,0-1.28,0,.64.64,0,1,0,1.28,0Zm-4.81.16a.64.64,0,0,0-.66-.62.63.63,0,0,0-.62.66.62.62,0,0,0,.66.61A.64.64,0,0,0,333.19,251.72Zm-4.82.15a.64.64,0,0,0-.66-.62.64.64,0,0,0,0,1.28A.64.64,0,0,0,328.37,251.87Zm-4.81.15a.64.64,0,1,0-.62.66A.64.64,0,0,0,323.56,252Zm-4.81.15a.64.64,0,1,0-.62.66A.64.64,0,0,0,318.75,252.17Zm-4.81.15a.64.64,0,0,0-.66-.61.64.64,0,1,0,0,1.27A.64.64,0,0,0,313.94,252.32Zm14.58,4.33a.62.62,0,0,0-.65-.61.64.64,0,1,0,.65.61Zm-4.81.16a.63.63,0,0,0-.66-.62.64.64,0,1,0,0,1.27A.63.63,0,0,0,323.71,256.81Zm-4.81.15a.64.64,0,1,0-.62.66A.64.64,0,0,0,318.9,257Zm-4.81.15a.64.64,0,1,0-.62.66A.64.64,0,0,0,314.09,257.11Zm9.77,4.48a.64.64,0,1,0-1.27,0,.64.64,0,1,0,1.27,0Zm-4.81.15a.64.64,0,1,0-.62.66A.64.64,0,0,0,319.05,261.74Zm5,4.64a.64.64,0,1,0-.61.66A.64.64,0,0,0,324,266.38Zm-4.81.15a.64.64,0,1,0-1.28,0,.65.65,0,0,0,.66.62A.64.64,0,0,0,319.2,266.53Zm.15,4.79a.64.64,0,1,0-.62.66A.64.64,0,0,0,319.35,271.32Zm9.78,4.48a.64.64,0,1,0-.62.66A.64.64,0,0,0,329.13,275.8Zm-4.81.15a.65.65,0,0,0-.66-.62.64.64,0,0,0-.62.66.64.64,0,0,0,1.28,0Zm19.4,4.18a.64.64,0,1,0-.62.66A.64.64,0,0,0,343.72,280.13Zm-4.82.15a.64.64,0,1,0-.61.66A.64.64,0,0,0,338.9,280.28Zm-4.81.15a.64.64,0,1,0-.62.66A.63.63,0,0,0,334.09,280.43Zm-4.81.16a.64.64,0,1,0-1.28,0,.64.64,0,0,0,1.28,0Zm-4.81.15a.64.64,0,1,0-.62.66A.64.64,0,0,0,324.47,280.74Zm24.21,4a.64.64,0,0,0-1.28,0,.64.64,0,0,0,1.28,0Zm-4.81.16a.64.64,0,1,0-1.28,0,.64.64,0,0,0,1.28,0Zm-4.81.15a.65.65,0,0,0-.66-.62.64.64,0,1,0,0,1.28A.64.64,0,0,0,339.06,285.07Zm-4.82.15a.64.64,0,1,0-.62.66A.64.64,0,0,0,334.24,285.22Zm-4.81.15a.64.64,0,1,0-.62.66A.64.64,0,0,0,329.43,285.37Zm-4.81.15a.64.64,0,0,0-1.28,0,.64.64,0,0,0,1.28,0ZM344,289.7a.64.64,0,1,0-1.28,0,.64.64,0,0,0,1.28,0Zm-4.81.15a.64.64,0,1,0-.62.66A.64.64,0,0,0,339.21,289.85Zm-4.82.16a.64.64,0,1,0-1.27,0,.64.64,0,1,0,1.27,0Zm-4.81.15a.64.64,0,0,0-.66-.62.64.64,0,0,0,0,1.28A.64.64,0,0,0,329.58,290.16Zm-4.81.15a.64.64,0,1,0-.62.66A.64.64,0,0,0,324.77,290.31Zm-4.81.15a.64.64,0,1,0-1.28,0,.64.64,0,0,0,.66.62A.64.64,0,0,0,320,290.46Zm19.4,4.18a.64.64,0,1,0-.62.66A.64.64,0,0,0,339.36,294.64Zm-4.81.15a.65.65,0,0,0-.66-.62.64.64,0,0,0-.62.66.63.63,0,0,0,.66.62A.64.64,0,0,0,334.55,294.79Zm-4.82.15a.64.64,0,1,0-.62.66A.63.63,0,0,0,329.73,294.94Zm-4.81.16a.64.64,0,1,0-1.28,0,.64.64,0,0,0,1.28,0Zm-4.81.15a.64.64,0,1,0-.62.66A.64.64,0,0,0,320.11,295.25Zm-4.81.15a.65.65,0,0,0-.66-.62.64.64,0,1,0,0,1.28A.64.64,0,0,0,315.3,295.4Zm14.58,4.33a.64.64,0,1,0-.61.66A.64.64,0,0,0,329.88,299.73Zm-4.81.15a.64.64,0,0,0-.66-.62.65.65,0,0,0-.62.66.64.64,0,0,0,.66.62A.63.63,0,0,0,325.07,299.88Zm-4.81.15a.64.64,0,1,0-.62.66A.64.64,0,0,0,320.26,300Zm-4.81.16a.64.64,0,1,0-1.28,0,.64.64,0,1,0,1.28,0Zm5,4.63a.64.64,0,1,0-.62.66A.64.64,0,0,0,320.41,304.82Zm-4.81.15a.64.64,0,0,0-1.28,0,.64.64,0,0,0,1.28,0Z"/><g class="cls-33"><path class="cls-34" d="M104.77,183.78a2.1,2.1,0,0,0,.46.57c26.79,23.28,67.26,58.46,109,133.08C282.83,440,421,391.23,519,343.91a2.09,2.09,0,1,0-1.82-3.77C449.11,373,396.38,389,351.26,390.46c-60.38,1.94-104-22.62-133.35-75.07C175.79,240.13,135,204.67,108,181.2a2.09,2.09,0,0,0-3.21,2.58Z"/><path class="cls-34" d="M90.05,189.46a2,2,0,0,0,.47.57l3.79,3.27c32.49,28,72.9,62.77,114,139.09,29.35,54.48,75.79,81.36,137.92,79.64a2.1,2.1,0,0,0-.12-4.19C285.5,409.52,241.89,384.71,212.91,332c-.29-.54-.58-1.08-.88-1.62-41.53-77-82.23-112.1-115-140.28l-3.79-3.27a2.1,2.1,0,0,0-3.2,2.6Z"/><path class="cls-34" d="M396.21,404a2.09,2.09,0,0,0,2.29,1c35.1-8,73.56-22.31,121-45a2.1,2.1,0,0,0-1.81-3.78c-47.19,22.55-85.38,36.75-120.17,44.69a2.08,2.08,0,0,0-1.57,2.5A1.74,1.74,0,0,0,396.21,404Z"/><path class="cls-34" d="M76.12,195.88a2.1,2.1,0,0,0,.46.57c3.36,2.93,6.84,5.89,10.41,8.94,33.5,28.59,75.16,64.18,115.45,142,26.45,51.06,67.61,78.61,122.35,81.86A2.09,2.09,0,0,0,325,425c-53.92-3.2-92.83-29.22-118.88-79.6C165.52,266.93,123.48,231,89.71,202.21q-5.35-4.56-10.38-8.91a2.09,2.09,0,0,0-3.21,2.58Z"/><path class="cls-34" d="M436.43,408.83a2.1,2.1,0,0,0,2.51,1c23-7.83,48-18.06,76.31-31.29a2.1,2.1,0,0,0,1-2.78,2.15,2.15,0,0,0-2.79-1c-28.19,13.16-53,23.34-75.89,31.12a2.09,2.09,0,0,0-1.31,2.65A2.07,2.07,0,0,0,436.43,408.83Z"/><path class="cls-34" d="M64.45,204.28a2.13,2.13,0,0,0,.45.56c4.71,4.14,9.6,8.28,14.78,12.66,34.52,29.24,77.48,65.61,116.86,144.81,25.36,51,65.17,79.22,118.38,84a2.09,2.09,0,0,0,.37-4.17c-52.39-4.69-90-31.42-115-81.68-39.76-79.95-83.1-116.66-117.91-146.14-5.16-4.37-10-8.5-14.72-12.62a2.09,2.09,0,0,0-3.21,2.59Z"/><path class="cls-34" d="M473.75,411.21a2.09,2.09,0,0,0,2.63.92c6-2.45,12.21-5.09,18.54-7.85a2.09,2.09,0,0,0-1.68-3.83c-6.29,2.74-12.5,5.37-18.45,7.81a2.09,2.09,0,0,0-1.14,2.73A1.47,1.47,0,0,0,473.75,411.21Z"/><path class="cls-34" d="M54.6,214.29a1.85,1.85,0,0,0,.45.56c5.48,4.84,11.22,9.66,17.3,14.77,28.53,24,64,53.79,96.77,107.7a2.1,2.1,0,0,0,2.88.7,2.08,2.08,0,0,0,.7-2.88C139.6,280.65,103.8,250.58,75,226.42c-6.05-5.09-11.78-9.9-17.22-14.7a2.09,2.09,0,0,0-3.22,2.57Z"/><path class="cls-34" d="M196,387.75c23.87,43.41,59.48,68.68,106,75.16a2.1,2.1,0,1,0,.58-4.15c-48.61-6.77-83.68-33.32-107.13-81.21-.34-.69-.68-1.38-1-2.08a2.09,2.09,0,0,0-3.78,1.8c.34.71.68,1.42,1,2.12Q193.76,383.68,196,387.75Z"/><path class="cls-34" d="M49.39,228.39a2.06,2.06,0,0,0,.46.57c4.86,4.2,9.88,8.38,15.18,12.8,25.36,21.13,54.1,45.09,81.85,84.16a2.09,2.09,0,0,0,3.42-2.42c-28.08-39.52-57-63.66-82.59-85-5.29-4.41-10.29-8.58-15.12-12.75a2.1,2.1,0,0,0-3.2,2.6Z"/><path class="cls-34" d="M196.74,414.7l.06.1c19.73,31.59,46.81,52.31,80.5,61.62a2.09,2.09,0,0,0,1.11-4c-32.64-9-58.9-29.13-78.06-59.79a2.09,2.09,0,0,0-3.61,2.11Z"/><path class="cls-34" d="M51.17,248.3a2.15,2.15,0,0,0,.49.6l6.06,5C79.56,272,104.3,292.43,128.24,322.3a2.1,2.1,0,0,0,3.27-2.62c-24.21-30.2-49.13-50.81-71.12-69l-6-5a2.09,2.09,0,0,0-3.17,2.62Z"/><path class="cls-34" d="M218,464a2.13,2.13,0,0,0,.42.54,130.71,130.71,0,0,0,19.86,14.88,2.1,2.1,0,1,0,2.18-3.58,125.94,125.94,0,0,1-19.22-14.4A2.09,2.09,0,0,0,218,464Z"/><path class="cls-34" d="M76.71,288.06a2.36,2.36,0,0,0,.45.55c9.18,8.11,17.29,15.85,24.79,23.66a2.09,2.09,0,1,0,3-2.9c-7.57-7.89-15.76-15.71-25-23.89a2.08,2.08,0,0,0-3,.18A2.11,2.11,0,0,0,76.71,288.06Z"/></g><line class="cls-23" x1="587.41" y1="464" x2="598.66" y2="457.56"/><polyline class="cls-24" points="572.73 455.6 560.97 448.86 560.97 506.76 571.75 512.93"/><line class="cls-23" x1="587.41" y1="464" x2="577.73" y2="458.46"/><polyline class="cls-23" points="605.17 453.83 578.73 438.69 567.95 444.86"/><path class="cls-11" d="M850.32,388.73a1.62,1.62,0,0,0-.79-1.32l-15.14-8c-.44-.23-.79,0-.79.48v17.34a1.62,1.62,0,0,0,.79,1.31l15.14,8a.5.5,0,0,0,.79-.48Z"/><ellipse class="cls-30" cx="871.62" cy="381.49" rx="5.49" ry="8.16" transform="translate(-72.05 502.92) rotate(-30.97)"/><ellipse class="cls-23" cx="845.73" cy="342.81" rx="4.42" ry="6.58" transform="translate(-55.84 484.08) rotate(-30.97)"/></g></g></svg>