<svg width="619" height="872" viewBox="0 0 619 872" fill="none" xmlns="http://www.w3.org/2000/svg">
<path fill-rule="evenodd" clip-rule="evenodd" d="M550.223 358.227C550.223 339.148 565.62 323.681 584.618 323.681C603.616 323.681 619 339.148 619 358.227V461.893C619 480.972 603.616 496.452 584.618 496.452C565.62 496.452 550.223 480.972 550.223 461.893V358.227ZM619 600.118C619 619.197 603.616 634.678 584.618 634.678C565.62 634.678 550.223 619.197 550.223 600.118C550.223 581.039 565.62 565.559 584.618 565.559C603.616 565.559 619 581.039 619 600.118Z" fill="#FD55D8"/>
<path fill-rule="evenodd" clip-rule="evenodd" d="M412.667 34.5596C412.667 15.4677 428.064 0 447.049 0C466.047 0 481.444 15.4677 481.444 34.5596C481.444 53.6385 466.047 69.1062 447.049 69.1062C428.064 69.1062 412.667 53.6385 412.667 34.5596ZM412.667 172.772C412.667 153.68 428.064 138.212 447.049 138.212C466.047 138.212 481.444 153.68 481.444 172.772V518.303C481.444 537.395 466.047 552.862 447.049 552.862C428.064 552.862 412.667 537.395 412.667 518.303V172.772Z" fill="#FD55D8"/>
<path opacity="0.9" fill-rule="evenodd" clip-rule="evenodd" d="M309.507 872C290.509 872 275.111 856.532 275.111 837.44V215.472C275.111 196.393 290.509 180.913 309.507 180.913C328.491 180.913 343.889 196.393 343.889 215.472V837.44C343.889 856.532 328.491 872 309.507 872" fill="#FD55D8"/>
<path fill-rule="evenodd" clip-rule="evenodd" d="M137.556 284.591C137.556 265.512 152.94 250.032 171.938 250.032C190.936 250.032 206.333 265.512 206.333 284.591V630.135C206.333 649.214 190.936 664.682 171.938 664.682C152.94 664.682 137.556 649.214 137.556 630.135V284.591ZM171.938 802.894C190.936 802.894 206.333 787.426 206.333 768.347C206.333 749.255 190.936 733.788 171.938 733.788C152.94 733.788 137.556 749.255 137.556 768.347C137.556 787.426 152.94 802.894 171.938 802.894Z" fill="#FD55D8"/>
<path fill-rule="evenodd" clip-rule="evenodd" d="M0 208.221C0 189.142 15.3976 173.662 34.3824 173.662C53.3801 173.662 68.7648 189.142 68.7648 208.221C68.7648 227.3 53.3801 242.781 34.3824 242.781C15.3976 242.781 0 227.3 0 208.221ZM0 346.099C0 327.02 15.3976 311.54 34.3954 311.54C53.3802 311.54 68.7648 327.02 68.7648 346.099V449.765C68.7648 468.844 53.3802 484.312 34.3954 484.312C15.3976 484.312 0 468.844 0 449.765V346.099Z" fill="#FD55D8"/>
</svg>