<svg  xmlns="http://www.w3.org/2000/svg" xmlns:xlink="http://www.w3.org/1999/xlink" id="lumi-v_svg__Layer_1" x="0" y="0" viewBox="0 0 138.5 213.8" xml:space="preserve" class="lm-h-20"><style>.lumi-v_svg__st1{fill:#fd55d8}</style><path d="M15.9 201.7c.7 0 1.4-.1 1.4-.1v10.2s-1.6.2-3.5.2C7.6 212 1 210.5 1 198.8v-35.6h11.7v34c-.1 3.4.5 4.5 3.2 4.5zm28.6-9.5c0 5.2-2.4 9.6-7.3 9.6-2.4 0-3.7-1.4-3.7-4.6v-20.5H21.8v22.6c0 9.8 5.5 13.1 12.3 13.1 4.7 0 9-2.3 10.9-6h.1s-.1 1-.1 2.2v3h11.2v-34.9H44.5v15.5zm80.4-15.4v34.9h11.7v-34.9h-11.7zm-18.7-.8c-5.2 0-9.3 3-11.1 5.9H95c-1.8-3.9-5.3-5.9-9.7-5.9-5.5 0-8.7 3.6-10.3 6h-.1s.1-1 .1-2.2v-3H63.8v34.9h11.7v-14.4c0-1.5.1-3 .3-4.3.8-3.7 2.7-6.3 6.3-6.3 2.2 0 2.7 1.8 2.7 4.4v20.7h11.7v-14.4c0-1.4 0-2.8.3-4.1.7-3.9 2.7-6.6 6.4-6.6 2.2 0 2.7 1.8 2.7 4.4v20.7h11.7V189c-.1-9.6-5-13-11.4-13z" fill="#00234b"></path><path class="lumi-v_svg__st1" d="M130.7 168.7c3.7 0 6.8-2.8 6.8-6.6 0-3.7-3-6.5-6.8-6.5-3.7 0-6.8 2.8-6.8 6.5.1 3.8 3.1 6.6 6.8 6.6zM94.5 14.3c3.5 0 6.3 2.8 6.3 6.3s-2.8 6.3-6.3 6.3-6.3-2.8-6.3-6.3 2.8-6.3 6.3-6.3zm-6.3 28.8V109c0 3.5 2.8 6.3 6.3 6.3s6.3-2.8 6.3-6.3V43.1c0-3.5-2.8-6.3-6.3-6.3s-6.3 2.8-6.3 6.3zM37.7 109c0 3.5 2.8 6.3 6.3 6.3s6.3-2.8 6.3-6.3-2.8-6.3-6.3-6.3-6.3 2.8-6.3 6.3zm0-88.4v65.9c0 3.5 2.8 6.3 6.3 6.3s6.3-2.8 6.3-6.3V20.6c0-3.5-2.8-6.3-6.3-6.3s-6.3 2.8-6.3 6.3zm75.7 66.3c0 3.5 2.8 6.3 6.3 6.3s6.3-2.8 6.3-6.3-2.8-6.3-6.3-6.3c-3.4 0-6.3 2.8-6.3 6.3zm0-44.2v21.7c0 3.5 2.8 6.3 6.3 6.3s6.3-2.8 6.3-6.3V42.7c0-3.5-2.8-6.3-6.3-6.3-3.4 0-6.3 2.8-6.3 6.3zm-88.4 0c0-3.5-2.8-6.3-6.3-6.3s-6.3 2.8-6.3 6.3 2.8 6.3 6.3 6.3 6.3-2.8 6.3-6.3zM12.4 65.2v21.7c0 3.5 2.8 6.3 6.3 6.3s6.3-2.8 6.3-6.3V65.2c0-3.5-2.8-6.3-6.3-6.3s-6.3 2.8-6.3 6.3zM62.9 7.9v113.7c0 3.5 2.8 6.3 6.3 6.3s6.3-2.8 6.3-6.3V7.9c0-3.5-2.8-6.3-6.3-6.3-3.4 0-6.3 2.8-6.3 6.3z"></path></svg>