<svg width="48" height="54" viewBox="0 0 48 54" fill="none" xmlns="http://www.w3.org/2000/svg">
<path fill-rule="evenodd" clip-rule="evenodd" d="M21.3331 2.69981V51.2998C21.3331 52.791 22.5272 54 23.9996 54C25.4724 54 26.6665 52.791 26.6665 51.2998V2.69981C26.6665 1.20861 25.4724 0 23.9996 0C22.5272 0 21.3331 1.20861 21.3331 2.69981ZM0 27.1764V36.4498C0 37.941 1.19369 39.1496 2.66648 39.1496C4.13927 39.1496 5.33296 37.941 5.33296 36.4498V27.1764C5.33296 25.6852 4.13927 24.4766 2.66648 24.4766C1.19369 24.4766 0 25.6852 0 27.1764ZM5.33296 17.5498C5.33296 16.0586 4.13927 14.8496 2.66648 14.8496C1.19369 14.8496 0 16.0586 0 17.5498C0 19.041 1.19369 20.2497 2.66648 20.2497C4.13927 20.2497 5.33296 19.041 5.33296 17.5498ZM42.6662 17.5498V26.8232C42.6662 28.3144 43.8603 29.5235 45.3327 29.5235C46.8059 29.5235 48 28.3144 48 26.8232V17.5498C48 16.0586 46.8059 14.8496 45.3327 14.8496C43.8603 14.8496 42.6662 16.0586 42.6662 17.5498ZM42.6662 36.4497C42.6662 37.9409 43.8603 39.1496 45.3331 39.1496C46.8059 39.1496 48 37.9409 48 36.4497C48 34.9585 46.8059 33.7495 45.3331 33.7495C43.8603 33.7495 42.6662 34.9585 42.6662 36.4497ZM10.6667 8.09965V36.273C10.6667 37.7642 11.8604 38.9732 13.3332 38.9732C14.806 38.9732 15.9997 37.7642 15.9997 36.273V8.09965C15.9997 6.60845 14.806 5.39941 13.3332 5.39941C11.8604 5.39941 10.6667 6.60845 10.6667 8.09965ZM10.6667 45.8999C10.6667 47.3911 11.8604 48.5998 13.3332 48.5998C14.806 48.5998 15.9997 47.3911 15.9997 45.8999C15.9997 44.4087 14.806 43.1997 13.3332 43.1997C11.8604 43.1997 10.6667 44.4087 10.6667 45.8999ZM31.9999 17.7262V45.8995C31.9999 47.3907 33.1936 48.5993 34.6668 48.5993C36.1391 48.5993 37.3333 47.3907 37.3333 45.8995V17.7262C37.3333 16.235 36.1391 15.0264 34.6668 15.0264C33.1936 15.0264 31.9999 16.235 31.9999 17.7262ZM34.6667 5.39941C36.1391 5.39941 37.3332 6.60845 37.3332 8.09965C37.3332 9.59085 36.1391 10.7995 34.6667 10.7995C33.1935 10.7995 31.9994 9.59085 31.9994 8.09965C31.9994 6.60845 33.1935 5.39941 34.6667 5.39941Z" fill="#FD55D8"/>
</svg>
