<svg width="16" xmlns="http://www.w3.org/2000/svg" xmlns:xlink="http://www.w3.org/1999/xlink" height="12" viewBox="0 0 16 12" fill="#5D7287"><path fill-rule="evenodd" clip-rule="evenodd" d="M15.871 6.492C15.744 6.716 12.707 12 8.001 12 3.268 12 .253 6.713.127 6.489a.998.998 0 01-.002-.975C.251 5.289 3.246 0 8 0c4.731 0 7.746 5.287 7.872 5.512a1 1 0 010 .98zM13.818 6C13.036 4.835 10.84 2 8 2 5.146 2 2.958 4.835 2.181 5.999 2.962 7.162 5.16 10 8.001 10c2.836 0 5.033-2.834 5.817-4z" fill="#5D7287"></path><circle cx="8" cy="6" r="2" fill="#5D7287"></circle></svg>