<svg width="100" height="100" viewBox="0 0 100 100" fill="none" xmlns="http://www.w3.org/2000/svg">
<circle cx="50" cy="50" r="50" fill="#FD55D8"/>
<path fill-rule="evenodd" clip-rule="evenodd" d="M71.3264 39.5296C69.8383 41.0177 67.4021 41.0177 65.9139 39.5296C64.4244 38.0401 64.4244 35.6052 65.9139 34.1157C67.4021 32.6276 69.8383 32.6276 71.3264 34.1157C72.8146 35.6052 72.8146 38.0401 71.3264 39.5296ZM56.6671 43.3633C58.1552 41.8752 60.5915 41.8752 62.0796 43.3633C63.5691 44.8515 63.5691 47.2877 62.0796 48.7759L45.0299 65.8256C43.5418 67.3137 41.1055 67.3137 39.6174 65.8256L28.1162 54.3244C26.6281 52.8362 26.6281 50.4 28.1162 48.9119C29.6057 47.4224 32.0406 47.4224 33.5288 48.9119L42.3243 57.7061L56.6671 43.3633Z" fill="white"/>
</svg>
