<svg width="304" height="432" viewBox="0 0 304 432" fill="none" xmlns="http://www.w3.org/2000/svg">
<g clip-path="url(#clip0)">
<path d="M88.47 410.22H91.25V425.8H88.47V410.22ZM93 417.35V415.24H94.85V412.18H97.45V415.24H100.09V417.35H97.48V422.26C97.4647 422.66 97.5471 423.059 97.72 423.42C97.8504 423.593 98.0251 423.728 98.2256 423.811C98.4262 423.894 98.6453 423.921 98.86 423.89C99.0543 423.887 99.2481 423.87 99.44 423.84C99.6284 423.801 99.8125 423.744 99.99 423.67L100.07 425.73C99.8026 425.831 99.5238 425.898 99.24 425.93C98.9335 425.989 98.6221 426.019 98.31 426.02C97.7263 426.039 97.1448 425.941 96.6 425.73C96.1866 425.549 95.8229 425.272 95.54 424.92C95.2898 424.56 95.11 424.157 95.01 423.73C94.9244 423.251 94.8809 422.766 94.88 422.28V417.35H93ZM102.39 410.22H104.64V416H102.39V410.22ZM113.99 418.06C113.722 417.721 113.38 417.447 112.99 417.26C112.578 417.029 112.113 416.908 111.64 416.91C111.237 416.906 110.839 416.998 110.48 417.18C110.312 417.254 110.17 417.378 110.075 417.536C109.98 417.693 109.937 417.877 109.95 418.06C109.943 418.248 109.993 418.433 110.096 418.59C110.198 418.748 110.346 418.87 110.52 418.94C111.08 419.15 111.655 419.317 112.24 419.44C112.643 419.535 113.04 419.652 113.43 419.79C113.825 419.933 114.196 420.136 114.53 420.39C114.864 420.625 115.141 420.933 115.34 421.29C115.556 421.689 115.663 422.137 115.65 422.59C115.664 423.163 115.533 423.731 115.27 424.24C115.034 424.679 114.69 425.051 114.27 425.32C113.841 425.604 113.363 425.804 112.86 425.91C111.533 426.232 110.139 426.149 108.86 425.67C108.123 425.389 107.46 424.944 106.92 424.37L108.66 422.74C108.969 423.133 109.357 423.457 109.8 423.69C110.285 423.941 110.824 424.068 111.37 424.06C111.582 424.064 111.793 424.044 112 424C112.192 423.959 112.377 423.892 112.55 423.8C112.718 423.699 112.861 423.562 112.97 423.4C113.075 423.221 113.127 423.017 113.12 422.81C113.125 422.608 113.068 422.408 112.958 422.239C112.847 422.069 112.687 421.937 112.5 421.86C111.921 421.609 111.318 421.418 110.7 421.29C110.308 421.2 109.921 421.09 109.54 420.96C109.185 420.819 108.849 420.634 108.54 420.41C108.249 420.175 108.011 419.882 107.84 419.55C107.656 419.16 107.567 418.731 107.58 418.3C107.561 417.771 107.681 417.247 107.93 416.78C108.179 416.372 108.522 416.029 108.93 415.78C109.334 415.492 109.789 415.282 110.27 415.16C110.773 415.028 111.29 414.961 111.81 414.96C112.568 414.958 113.32 415.094 114.03 415.36C114.714 415.588 115.318 416.008 115.77 416.57L113.99 418.06ZM121.99 417.35V415.24H123.83V412.18H126.43V415.24H129.07V417.35H126.43V422.26C126.415 422.66 126.497 423.059 126.67 423.42C126.8 423.593 126.975 423.728 127.176 423.811C127.376 423.894 127.595 423.921 127.81 423.89C128.004 423.887 128.198 423.87 128.39 423.84C128.579 423.803 128.763 423.746 128.94 423.67L129.03 425.73C128.759 425.829 128.477 425.896 128.19 425.93C127.887 425.988 127.579 426.018 127.27 426.02C126.683 426.04 126.098 425.941 125.55 425.73C125.137 425.549 124.773 425.272 124.49 424.92C124.24 424.56 124.06 424.157 123.96 423.73C123.874 423.251 123.831 422.766 123.83 422.28V417.35H121.99ZM136.85 414.93C137.459 414.913 138.063 415.043 138.61 415.31C139.082 415.523 139.497 415.845 139.82 416.25C140.15 416.652 140.391 417.119 140.53 417.62C140.673 418.135 140.747 418.666 140.75 419.2V425.8H138.11V420C138.111 419.685 138.088 419.371 138.04 419.06C138.004 418.74 137.906 418.431 137.75 418.15C137.611 417.849 137.383 417.598 137.097 417.43C136.811 417.262 136.481 417.185 136.15 417.21C135.769 417.2 135.392 417.282 135.05 417.45C134.744 417.605 134.48 417.831 134.28 418.11C134.068 418.376 133.912 418.682 133.82 419.01C133.716 419.333 133.662 419.67 133.66 420.01V425.77H131V409.17H133.64V416.71H133.69C133.801 416.477 133.949 416.264 134.13 416.08C134.338 415.858 134.573 415.663 134.83 415.5C135.109 415.322 135.412 415.184 135.73 415.09C136.096 414.976 136.477 414.922 136.86 414.93H136.85ZM150.38 424.46H150.32C150.016 424.964 149.571 425.367 149.04 425.62C148.418 425.924 147.732 426.075 147.04 426.06C146.588 426.06 146.138 426.003 145.7 425.89C145.246 425.789 144.813 425.61 144.42 425.36C144.024 425.096 143.684 424.756 143.42 424.36C143.16 423.882 143.032 423.344 143.05 422.8C143.013 422.105 143.25 421.423 143.71 420.9C144.197 420.41 144.793 420.044 145.45 419.83C146.203 419.571 146.986 419.406 147.78 419.34C148.621 419.253 149.465 419.209 150.31 419.21V418.95C150.331 418.664 150.274 418.377 150.145 418.12C150.017 417.863 149.822 417.645 149.58 417.49C149.079 417.16 148.489 416.993 147.89 417.01C147.335 417.011 146.786 417.131 146.28 417.36C145.808 417.568 145.378 417.859 145.01 418.22L143.64 416.61C144.239 416.059 144.943 415.634 145.71 415.36C146.48 415.084 147.292 414.941 148.11 414.94C148.899 414.911 149.686 415.047 150.42 415.34C150.975 415.555 151.472 415.898 151.87 416.34C152.218 416.756 152.467 417.244 152.6 417.77C152.742 418.288 152.816 418.823 152.82 419.36V425.78H150.35L150.38 424.46ZM150.38 420.98H149.79C149.339 420.979 148.888 421.003 148.44 421.05C148.001 421.074 147.568 421.155 147.15 421.29C146.782 421.391 146.44 421.572 146.15 421.82C146.019 421.934 145.916 422.076 145.849 422.235C145.781 422.394 145.751 422.567 145.76 422.74C145.754 422.963 145.806 423.183 145.91 423.38C146.032 423.538 146.181 423.674 146.35 423.78C146.539 423.882 146.741 423.956 146.95 424C147.168 424.04 147.389 424.06 147.61 424.06C147.979 424.105 148.352 424.067 148.704 423.948C149.056 423.83 149.377 423.634 149.643 423.374C149.908 423.115 150.113 422.8 150.24 422.451C150.368 422.102 150.416 421.73 150.38 421.36V420.98ZM154.23 417.35V415.24H156.08V412.18H158.67V415.24H161.31V417.35H158.67V422.26C158.653 422.662 158.739 423.061 158.92 423.42C159.09 423.73 159.47 423.89 160.06 423.89C160.251 423.887 160.441 423.871 160.63 423.84C160.819 423.804 161.004 423.747 161.18 423.67L161.27 425.73C160.999 425.832 160.717 425.899 160.43 425.93C160.127 425.988 159.819 426.018 159.51 426.02C158.923 426.039 158.338 425.941 157.79 425.73C157.396 425.545 157.053 425.267 156.79 424.92C156.536 424.563 156.356 424.158 156.26 423.73C156.169 423.252 156.126 422.766 156.13 422.28V417.35H154.23ZM176.16 419.46C176.166 419.121 176.115 418.783 176.01 418.46C175.922 418.159 175.772 417.88 175.57 417.64C175.349 417.397 175.076 417.209 174.77 417.09C174.424 416.938 174.048 416.862 173.67 416.87C172.937 416.861 172.225 417.12 171.67 417.6C171.406 417.828 171.19 418.106 171.035 418.419C170.88 418.731 170.79 419.072 170.77 419.42L176.16 419.46ZM178.8 420.65V421C178.8 421.12 178.8 421.24 178.8 421.36H170.8C170.824 421.725 170.919 422.081 171.08 422.41C171.262 422.721 171.495 422.998 171.77 423.23C172.053 423.454 172.37 423.629 172.71 423.75C173.061 423.886 173.434 423.954 173.81 423.95C174.386 423.967 174.959 423.847 175.48 423.6C175.928 423.358 176.315 423.016 176.61 422.6L178.37 424.01C177.844 424.707 177.155 425.263 176.363 425.631C175.572 425.999 174.702 426.167 173.83 426.12C173.06 426.127 172.295 425.998 171.57 425.74C170.903 425.491 170.288 425.118 169.76 424.64C169.256 424.155 168.855 423.573 168.58 422.93C168.291 422.188 168.148 421.397 168.16 420.6C168.149 419.81 168.291 419.026 168.58 418.29C168.849 417.62 169.25 417.011 169.76 416.5C170.263 416.004 170.862 415.616 171.52 415.36C172.229 415.076 172.986 414.933 173.75 414.94C174.435 414.937 175.114 415.066 175.75 415.32C176.369 415.546 176.927 415.912 177.38 416.39C177.855 416.904 178.213 417.515 178.43 418.18C178.692 418.976 178.808 419.813 178.77 420.65H178.8ZM187.8 424.46H187.74C187.436 424.964 186.991 425.367 186.46 425.62C185.839 425.926 185.152 426.077 184.46 426.06C184.008 426.06 183.558 426.002 183.12 425.89C182.666 425.789 182.233 425.61 181.84 425.36C181.444 425.096 181.104 424.756 180.84 424.36C180.58 423.882 180.452 423.344 180.47 422.8C180.433 422.105 180.67 421.423 181.13 420.9C181.619 420.412 182.214 420.046 182.87 419.83C183.623 419.571 184.406 419.406 185.2 419.34C186.041 419.253 186.885 419.21 187.73 419.21V418.95C187.751 418.664 187.694 418.377 187.565 418.12C187.437 417.863 187.242 417.645 187 417.49C186.499 417.16 185.909 416.993 185.31 417.01C184.755 417.011 184.206 417.131 183.7 417.36C183.23 417.571 182.8 417.862 182.43 418.22L181 416.6C181.602 416.053 182.305 415.628 183.07 415.35C183.84 415.074 184.652 414.931 185.47 414.93C186.259 414.901 187.046 415.037 187.78 415.33C188.336 415.542 188.834 415.885 189.23 416.33C189.578 416.746 189.827 417.234 189.96 417.76C190.107 418.277 190.181 418.812 190.18 419.35V425.77H187.71L187.8 424.46ZM187.8 420.98H187.21C186.759 420.979 186.308 421.003 185.86 421.05C185.421 421.074 184.988 421.155 184.57 421.29C184.2 421.387 183.858 421.568 183.57 421.82C183.436 421.932 183.331 422.073 183.261 422.233C183.192 422.392 183.161 422.566 183.17 422.74C183.164 422.963 183.216 423.183 183.32 423.38C183.442 423.538 183.591 423.674 183.76 423.78C183.949 423.882 184.151 423.956 184.36 424C184.578 424.04 184.799 424.06 185.02 424.06C185.396 424.087 185.773 424.037 186.129 423.913C186.485 423.79 186.812 423.595 187.09 423.34C187.334 423.07 187.521 422.754 187.641 422.41C187.761 422.067 187.812 421.703 187.79 421.34L187.8 420.98ZM199.17 418.06C198.901 417.722 198.559 417.449 198.17 417.26C197.761 417.029 197.299 416.909 196.83 416.91C196.424 416.907 196.023 416.999 195.66 417.18C195.504 417.27 195.374 417.401 195.286 417.558C195.198 417.716 195.154 417.894 195.16 418.075C195.165 418.255 195.219 418.431 195.315 418.583C195.412 418.736 195.549 418.859 195.71 418.94C196.266 419.15 196.838 419.317 197.42 419.44C197.823 419.532 198.221 419.649 198.61 419.79C199.006 419.931 199.377 420.134 199.71 420.39C200.05 420.622 200.331 420.93 200.53 421.29C200.742 421.69 200.846 422.138 200.83 422.59C200.847 423.162 200.72 423.73 200.46 424.24C200.22 424.676 199.877 425.047 199.46 425.32C199.033 425.607 198.554 425.808 198.05 425.91C196.723 426.234 195.329 426.151 194.05 425.67C193.312 425.391 192.648 424.946 192.11 424.37L193.85 422.74C194.157 423.136 194.546 423.46 194.99 423.69C195.471 423.941 196.007 424.068 196.55 424.06C196.745 424.06 196.939 424.04 197.13 424C197.321 423.958 197.506 423.891 197.68 423.8C197.847 423.701 197.987 423.564 198.09 423.4C198.204 423.225 198.26 423.019 198.25 422.81C198.255 422.608 198.198 422.408 198.088 422.239C197.977 422.069 197.817 421.937 197.63 421.86C197.051 421.609 196.448 421.418 195.83 421.29C195.434 421.201 195.044 421.091 194.66 420.96C194.306 420.818 193.97 420.633 193.66 420.41C193.366 420.178 193.127 419.885 192.96 419.55C192.769 419.162 192.676 418.733 192.69 418.3C192.67 417.797 192.781 417.297 193.012 416.85C193.244 416.403 193.588 416.024 194.01 415.75C194.419 415.464 194.876 415.254 195.36 415.13C195.863 414.997 196.38 414.93 196.9 414.93C197.658 414.928 198.41 415.064 199.12 415.33C199.803 415.56 200.406 415.98 200.86 416.54L199.17 418.06ZM201.58 415.24H204.5L207.5 422.92L210.12 415.24H212.87L207.87 428.07C207.7 428.51 207.492 428.935 207.25 429.34C207.053 429.721 206.785 430.06 206.46 430.34C206.138 430.61 205.763 430.811 205.36 430.93C204.873 431.072 204.367 431.14 203.86 431.13C203.634 431.144 203.406 431.144 203.18 431.13C202.951 431.107 202.724 431.07 202.5 431.02L202.72 428.73C202.882 428.785 203.05 428.822 203.22 428.84C203.383 428.854 203.547 428.854 203.71 428.84C203.948 428.85 204.186 428.812 204.41 428.73C204.599 428.674 204.769 428.567 204.9 428.42C205.042 428.273 205.161 428.104 205.25 427.92C205.35 427.71 205.46 427.47 205.58 427.19L206.11 425.85L201.58 415.24ZM217.91 420.92H215.27V410.22H217.91V420.92ZM214.83 424.26C214.828 424.034 214.872 423.81 214.959 423.602C215.047 423.394 215.177 423.206 215.34 423.05C215.505 422.885 215.702 422.755 215.918 422.667C216.135 422.579 216.367 422.536 216.6 422.54C217.057 422.542 217.497 422.717 217.83 423.03C217.998 423.179 218.131 423.362 218.221 423.568C218.31 423.773 218.355 423.996 218.35 424.22C218.353 424.447 218.308 424.672 218.219 424.88C218.129 425.089 217.997 425.276 217.83 425.43C217.669 425.591 217.477 425.718 217.266 425.804C217.054 425.89 216.828 425.933 216.6 425.93C216.364 425.932 216.129 425.888 215.91 425.8C215.711 425.711 215.525 425.593 215.36 425.45C215.197 425.3 215.065 425.12 214.97 424.92C214.847 424.719 214.769 424.494 214.74 424.26H214.83Z" fill="#6245B5"/>
<path fill-rule="evenodd" clip-rule="evenodd" d="M154 72C161.12 72 168.08 69.8887 174.001 65.9329C179.921 61.9772 184.535 56.3548 187.26 49.7766C189.984 43.1985 190.697 35.9601 189.308 28.9768C187.919 21.9934 184.491 15.5789 179.456 10.5442C174.421 5.50948 168.007 2.08081 161.023 0.691746C154.04 -0.697322 146.802 0.0155983 140.223 2.74035C133.645 5.46511 128.023 10.0793 124.067 15.9995C120.111 21.9197 118 28.8799 118 36C118 45.5478 121.793 54.7046 128.544 61.4559C135.295 68.2072 144.452 72 154 72V72Z" fill="#FD55D8"/>
<path d="M163.23 41.33C163.26 42.595 162.961 43.8461 162.36 44.96C161.826 45.9519 161.078 46.8127 160.17 47.48C159.23 48.14 158.181 48.6276 157.07 48.92C155.948 49.259 154.782 49.4309 153.61 49.43C152.471 49.4332 151.336 49.2989 150.23 49.03C149.177 48.7821 148.166 48.3812 147.23 47.84C145.313 46.6891 143.929 44.8271 143.38 42.66L149 41.18C149.261 42.0542 149.772 42.8329 150.47 43.42C151.278 44.061 152.289 44.391 153.32 44.35C153.756 44.3491 154.19 44.2885 154.61 44.17C155.036 44.0638 155.439 43.8809 155.8 43.63C156.162 43.3696 156.457 43.0268 156.66 42.63C156.915 42.1685 157.039 41.6466 157.02 41.12C157.043 40.5447 156.882 39.9771 156.56 39.5C156.26 39.0659 155.849 38.7205 155.37 38.5C154.851 38.2266 154.29 38.044 153.71 37.96C153.094 37.8406 152.468 37.7804 151.84 37.78H150.22V33.34H152C152.555 33.3398 153.11 33.3031 153.66 33.23C154.148 33.1479 154.621 32.9893 155.06 32.76C155.471 32.541 155.816 32.2166 156.06 31.82C156.348 31.3709 156.488 30.8427 156.46 30.31C156.478 29.9063 156.396 29.5044 156.221 29.1399C156.047 28.7753 155.786 28.4594 155.46 28.22C154.812 27.7413 154.025 27.4884 153.22 27.5C152.398 27.4958 151.6 27.778 150.963 28.298C150.326 28.818 149.89 29.5435 149.73 30.35L144.12 29.05C144.402 28.0322 144.878 27.0782 145.52 26.24C146.129 25.4478 146.874 24.7705 147.72 24.24C148.585 23.6888 149.529 23.274 150.52 23.01C151.529 22.7265 152.572 22.5819 153.62 22.58C154.727 22.5806 155.83 22.7251 156.9 23.01C157.933 23.2797 158.908 23.7336 159.78 24.35C160.61 24.9417 161.294 25.7145 161.78 26.61C162.327 27.575 162.6 28.6711 162.57 29.78C162.612 31.088 162.179 32.367 161.35 33.38C160.57 34.3569 159.498 35.0579 158.29 35.38V35.48C158.999 35.6418 159.675 35.9224 160.29 36.31C160.879 36.6614 161.403 37.1113 161.84 37.64C162.272 38.1537 162.61 38.7393 162.84 39.37C163.086 39.9947 163.218 40.6585 163.23 41.33Z" fill="white"/>
<path d="M261.49 214.86C261.49 277.53 246.34 306.14 183.66 306.14C120.98 306.14 34.52 277.53 34.52 214.86C34.52 152.19 74.23 136.19 136.91 136.19C199.59 136.19 261.49 152.18 261.49 214.86Z" fill="white"/>
<path d="M159 302.82L158.53 303.47C159.739 302.852 160.911 302.164 162.04 301.41C161 301.87 160 302.36 159 302.82Z" fill="#E7EDF5"/>
<path d="M198.43 240C197.5 240.62 196.58 241.26 195.7 241.95C188.839 247.389 184.181 255.13 182.59 263.74C181.59 269.41 181.9 275.35 179.97 280.74C178.24 285.6 174.81 289.66 171.22 293.37C168.439 296.352 165.352 299.033 162.01 301.37C174.403 295.65 186.543 289.42 198.43 282.68V240Z" fill="#E7EDF5"/>
<path d="M223.76 265.82L222.25 219C221.13 223.37 218.19 227 214.67 229.88V273.12C217.27 271.513 219.853 269.877 222.42 268.21C222.938 267.947 223.364 267.531 223.64 267.02C223.761 266.632 223.802 266.224 223.76 265.82V265.82Z" fill="#E7EDF5"/>
<path d="M148 257.6C148 257.6 152 255.92 152.17 255.16C152.34 254.4 152.33 235.61 152.33 233.53C152.33 231.45 152.33 229.45 149.52 227.87L132.64 218.2C132.09 217.89 131.24 217 129.99 217.66C128.74 218.32 125.3 219.27 126.76 219.94C128.22 220.61 145.07 229.48 146 230C146.93 230.52 148.68 231.21 148.76 235.25C148.84 239.29 148 257.6 148 257.6Z" fill="#FF4EDA"/>
<path d="M134.56 314.83V303.5L126.33 298.56V309.78L134.56 314.83Z" fill="#FFBD26"/>
<path d="M188.76 177.78L188.33 177.46C180.74 173.58 172.87 176.46 172.87 176.46C170.465 177.219 168.124 178.169 165.87 179.3V150.1C167.96 149.1 172.14 148.1 174.87 155.03L192.8 142.43C192.8 142.43 189.86 132.59 181.58 130.11L181.08 129.97C177.697 129.28 174.185 129.596 170.98 130.88C169.207 131.543 167.508 132.387 165.91 133.4V125.2L156.3 131.9V139.78C150.94 142.86 130.62 156.55 130.62 187.54C130.62 207.09 148.28 204.54 156.3 202.42V221.5L165.91 216.66V200.19C171.31 197.52 177.41 193.96 178.18 205.55C178.18 206.18 177.91 209.94 177.89 210.55L193.17 201.87C193.54 198.7 193.93 192.99 193.93 190.52C193.94 185.16 192.27 180.5 188.76 177.78ZM156.31 183C153.2 183.92 145.89 184.93 145.89 173.86C145.89 164.74 152.01 159.2 156.31 156.43V183Z" fill="#FF4EDA"/>
<path d="M62.89 229.7L53.85 234.85L76 257.9L85.16 253.11L62.89 229.7Z" fill="#FFBD26" stroke="#FFBD26" stroke-width="2" stroke-linecap="round" stroke-linejoin="round"/>
<path d="M233.11 220.62C233.128 220.281 233.228 219.952 233.403 219.661C233.577 219.37 233.82 219.126 234.11 218.95L250.25 210.06C250.351 209.984 250.472 209.94 250.598 209.934C250.724 209.928 250.849 209.96 250.957 210.025C251.065 210.091 251.151 210.188 251.203 210.303C251.255 210.418 251.271 210.546 251.25 210.67L250.81 249.05C250.791 249.389 250.691 249.718 250.516 250.008C250.342 250.299 250.1 250.544 249.81 250.72L233.67 259.6C233.569 259.676 233.448 259.72 233.322 259.726C233.196 259.732 233.071 259.7 232.963 259.635C232.855 259.569 232.769 259.472 232.717 259.357C232.665 259.242 232.649 259.114 232.67 258.99L233.11 220.62Z" fill="#FFBD26"/>
<path d="M208.78 262.4C211.762 262.4 214.18 261.169 214.18 259.65C214.18 258.131 211.762 256.9 208.78 256.9C205.798 256.9 203.38 258.131 203.38 259.65C203.38 261.169 205.798 262.4 208.78 262.4Z" fill="#FFBD26"/>
<path d="M112.24 279.08C116.294 279.08 119.58 277.41 119.58 275.35C119.58 273.29 116.294 271.62 112.24 271.62C108.186 271.62 104.9 273.29 104.9 275.35C104.9 277.41 108.186 279.08 112.24 279.08Z" fill="#FF4EDA"/>
<path d="M148.97 204.74V212.23" stroke="#6240B8" stroke-width="2" stroke-linecap="round" stroke-linejoin="round"/>
<path d="M123.35 182.64C123.447 185.508 124.243 188.31 125.67 190.8L131.67 194.35" stroke="#6240B8" stroke-width="2" stroke-linecap="round" stroke-linejoin="round"/>
<path d="M143.43 136.74C135.53 143.04 123.54 156.45 123.3 179.96C123.3 180.11 123.3 180.26 123.3 180.41" stroke="#6240B8" stroke-width="1.24" stroke-linecap="round" stroke-linejoin="round" stroke-dasharray="1.86 1.86 0.62 1.86 1.86 0.62"/>
<path d="M168 123.12L158.55 118.36L148.94 125.06V132.94C148.08 133.44 146.84 134.2 145.35 135.27" stroke="#6240B8" stroke-width="2" stroke-linecap="round" stroke-linejoin="round"/>
<path d="M182.1 171.2L176.51 168.5L170.5 169.31" stroke="#6240B8" stroke-width="2" stroke-linecap="round" stroke-linejoin="round"/>
<path d="M195.58 197C195.898 194.171 196.055 191.327 196.05 188.48C196.05 182.78 194.4 178.05 190.44 175.41" stroke="#6240B8" stroke-width="2" stroke-linecap="round" stroke-linejoin="round"/>
<path d="M183.2 127.94C179.816 127.247 176.303 127.567 173.1 128.86C171.329 129.521 169.63 130.362 168.03 131.37V123.12L158.42 129.82V137.71C153.06 140.78 132.74 154.48 132.74 185.46C132.74 205.01 150.41 202.46 158.42 200.34V216" stroke="#6240B8" stroke-width="2" stroke-linecap="round" stroke-linejoin="round"/>
<path d="M185.37 128.7C184.279 128.217 183.129 127.881 181.95 127.7" stroke="#6240B8" stroke-width="2" stroke-linecap="round" stroke-linejoin="round"/>
<path d="M190.44 175.38C182.85 171.5 174.98 174.43 174.98 174.43C172.594 175.196 170.27 176.146 168.03 177.27V148.08C170.12 147.08 174.3 146.08 177.03 153L194.96 140.4C194.426 138.79 193.715 137.244 192.84 135.79" stroke="#6240B8" stroke-width="2" stroke-linecap="round" stroke-linejoin="round"/>
<path d="M158.42 173.35V180.87C155.31 181.8 148 182.8 148 171.74C148 162.62 154.12 157.07 158.42 154.3" stroke="#6240B8" stroke-width="2" stroke-linecap="round" stroke-linejoin="round"/>
<path d="M158.42 157.49V171.28" stroke="#6240B8" stroke-width="1.24" stroke-linecap="round" stroke-linejoin="round" stroke-dasharray="1.86 1.86 0.62 1.86 1.86 0.62"/>
<path d="M168 198.11C173.4 195.45 179.5 191.88 180.27 203.47C180.305 204.093 180.305 204.717 180.27 205.34" stroke="#6240B8" stroke-width="2" stroke-linecap="round" stroke-linejoin="round"/>
<path d="M168.03 211.93V200.43" stroke="#6240B8" stroke-width="1.24" stroke-linecap="round" stroke-linejoin="round" stroke-dasharray="1.86 1.86 0.62 1.86 1.86 0.62"/>
<path d="M120 153.46C119.997 153.407 119.981 153.355 119.953 153.31C119.925 153.264 119.886 153.227 119.84 153.2L116.84 151.64C116.75 151.64 116.68 151.64 116.68 151.73V155.14C116.682 155.193 116.698 155.246 116.726 155.291C116.754 155.337 116.793 155.374 116.84 155.4L119.84 156.97C119.93 156.97 120 156.97 120 156.87V153.46Z" stroke="#6240B8" stroke-width="2" stroke-linecap="round" stroke-linejoin="round"/>
<path d="M120.88 130.94C120.878 130.887 120.862 130.834 120.834 130.789C120.806 130.743 120.767 130.706 120.72 130.68L117.72 129.11C117.63 129.11 117.56 129.11 117.56 129.21V132.62C117.563 132.673 117.579 132.725 117.607 132.77C117.635 132.816 117.674 132.853 117.72 132.88L120.72 134.44C120.81 134.49 120.88 134.44 120.88 134.35V130.94Z" fill="#FFBD26"/>
<path d="M116.427 188.876C117.261 188.376 117.333 186.965 116.588 185.724C115.844 184.484 114.564 183.883 113.731 184.383C112.897 184.884 112.825 186.295 113.57 187.536C114.315 188.776 115.594 189.377 116.427 188.876Z" fill="#E7EDF5"/>
<path d="M137.04 208.87L159.06 220.27L224.05 185.32V266.25L215.46 271.22" stroke="#6240B8" stroke-width="2" stroke-linecap="round" stroke-linejoin="round"/>
<path d="M94.36 186.84L134.69 207.66" stroke="#6240B8" stroke-width="1.86" stroke-linecap="round" stroke-linejoin="round" stroke-dasharray="0.46 2.32"/>
<path d="M91.42 239.65V198.47" stroke="#6240B8" stroke-width="1.86" stroke-linecap="round" stroke-linejoin="round" stroke-dasharray="0.46 2.32"/>
<path d="M100.68 271.62L91.42 266.25V242.55" stroke="#6240B8" stroke-width="2" stroke-linecap="round" stroke-linejoin="round"/>
<path d="M126.69 286.68L121.44 283.64" stroke="#6240B8" stroke-width="2" stroke-linecap="round" stroke-linejoin="round"/>
<path d="M199.22 280.63L157.73 304.67L148.7 299.44" stroke="#6240B8" stroke-width="2" stroke-linecap="round" stroke-linejoin="round"/>
<path d="M159.06 253.64V298.95" stroke="#6240B8" stroke-width="1.24" stroke-linecap="round" stroke-linejoin="round" stroke-dasharray="1.86 1.86 0.62 1.86 1.86 0.62"/>
<path d="M159.06 226.19V250.97" stroke="#6240B8" stroke-width="2" stroke-linecap="round" stroke-linejoin="round"/>
<path d="M81.4 238.53L75.06 230.07L80.61 227.09" stroke="#6240B8" stroke-width="2" stroke-linecap="round" stroke-linejoin="round"/>
<path d="M91.42 185.32L81.4 238.53L88.36 234.79" stroke="#6240B8" stroke-width="2" stroke-linecap="round" stroke-linejoin="round"/>
<path d="M218.62 182.4L224.05 185.32" stroke="#6240B8" stroke-width="2" stroke-linecap="round" stroke-linejoin="round"/>
<path d="M170.93 156.76L207.29 176.31" stroke="#6240B8" stroke-width="2" stroke-linecap="round" stroke-linejoin="round"/>
<path d="M91.42 185.32L121.44 169.81" stroke="#6240B8" stroke-width="2" stroke-linecap="round" stroke-linejoin="round"/>
<path d="M184.07 128.2L175.13 123.77C173.495 123.981 171.872 124.281 170.27 124.67" stroke="#6240B8" stroke-width="2" stroke-linecap="round" stroke-linejoin="round"/>
<path d="M226.94 257.6L230.51 259.65" stroke="#6240B8" stroke-width="2" stroke-linecap="round" stroke-linejoin="round"/>
<path d="M230.51 218.93L226.56 216.67" stroke="#6240B8" stroke-width="2" stroke-linecap="round" stroke-linejoin="round"/>
<path d="M230.51 259.65V226.15" stroke="#6240B8" stroke-width="2" stroke-linecap="round" stroke-linejoin="round"/>
<path d="M242.91 252.55L233.62 257.87" stroke="#6240B8" stroke-width="2" stroke-linecap="round" stroke-linejoin="round"/>
<path d="M249.1 208.28V249L244.6 251.58" stroke="#6240B8" stroke-width="1.24" stroke-linecap="round" stroke-linejoin="round" stroke-dasharray="1.86 1.86 0.62 1.86 1.86 0.62"/>
<path d="M230.51 218.93L246.64 209.7" stroke="#6240B8" stroke-width="2" stroke-linecap="round" stroke-linejoin="round"/>
<path d="M226.93 206.67L236.61 201.13L244.2 205.47" stroke="#6240B8" stroke-width="2" stroke-linecap="round" stroke-linejoin="round"/>
<path d="M67.7 295.48L74.63 299.44" stroke="#6240B8" stroke-width="2" stroke-linecap="round" stroke-linejoin="round"/>
<path d="M53.03 287.11L65.64 294.31" stroke="#6240B8" stroke-width="1.86" stroke-linecap="round" stroke-linejoin="round" stroke-dasharray="0.46 2.32"/>
<path d="M50.71 234.48V283.09V285.79" stroke="#6240B8" stroke-width="2" stroke-linecap="round" stroke-linejoin="round"/>
<path d="M66.23 249.33L55.29 237.1" stroke="#6240B8" stroke-width="1.86" stroke-linecap="round" stroke-linejoin="round" stroke-dasharray="0.46 2.32"/>
<path d="M74.63 258.72L67.7 250.97" stroke="#6240B8" stroke-width="2" stroke-linecap="round" stroke-linejoin="round"/>
<path d="M74.63 293.4V262.57" stroke="#6240B8" stroke-width="1.24" stroke-linecap="round" stroke-linejoin="round" stroke-dasharray="1.86 1.86 0.62 1.86 1.86 0.62"/>
<path d="M74.63 258.72L84.26 253.3V294.02L74.63 299.44" stroke="#6240B8" stroke-width="2" stroke-linecap="round" stroke-linejoin="round"/>
<path d="M50.71 234.48L60.34 229.06L80.24 249.07" stroke="#6240B8" stroke-width="2" stroke-linecap="round" stroke-linejoin="round"/>
<path d="M202.08 308.08C202.08 309.51 204.42 310.66 207.29 310.66C208.912 310.747 210.516 310.281 211.84 309.34C212.034 309.189 212.193 308.999 212.306 308.781C212.42 308.564 212.486 308.325 212.5 308.08V266.21" stroke="#6240B8" stroke-width="2" stroke-linecap="round" stroke-linejoin="round"/>
<path d="M202.08 271.62V305.58" stroke="#6240B8" stroke-width="1.86" stroke-linecap="round" stroke-linejoin="round" stroke-dasharray="0.46 2.32"/>
<path d="M202.08 260.78V269.3" stroke="#6240B8" stroke-width="2" stroke-linecap="round" stroke-linejoin="round"/>
<path d="M204.08 258.74C205.107 258.36 206.195 258.174 207.29 258.19C210.17 258.19 212.5 259.35 212.5 260.78C212.486 261.025 212.42 261.264 212.306 261.481C212.193 261.699 212.034 261.889 211.84 262.04C210.516 262.981 208.912 263.447 207.29 263.36C204.42 263.36 202.08 262.2 202.08 260.78" stroke="#6240B8" stroke-width="2" stroke-linecap="round" stroke-linejoin="round"/>
<path d="M212.5 235.16C212.486 235.406 212.42 235.647 212.307 235.866C212.193 236.085 212.034 236.277 211.84 236.43C210.516 237.371 208.912 237.837 207.29 237.75C204.42 237.75 202.08 236.59 202.08 235.16C202.08 233.73 204.42 232.58 207.29 232.58C210.16 232.58 212.5 233.74 212.5 235.16Z" stroke="#FFBD26" stroke-width="1.24" stroke-linecap="round" stroke-linejoin="round" stroke-dasharray="1.86 1.86 0.62 1.86 1.86 0.62"/>
<path d="M202.13 258.52V238.24" stroke="#FFBD26" stroke-width="1.24" stroke-linecap="round" stroke-linejoin="round" stroke-dasharray="1.86 1.86 0.62 1.86 1.86 0.62"/>
<path d="M212.5 255.93V239.65" stroke="#FFBD26" stroke-width="1.24" stroke-linecap="round" stroke-linejoin="round" stroke-dasharray="1.86 1.86 0.62 1.86 1.86 0.62"/>
<path d="M103.49 274.27V291.4C103.49 293.4 106.83 295.1 110.93 295.1C113.72 295.1 116.16 294.33 117.43 293.2C117.708 292.986 117.937 292.714 118.101 292.403C118.265 292.093 118.36 291.751 118.38 291.4V279" stroke="#6240B8" stroke-width="2" stroke-linecap="round" stroke-linejoin="round"/>
<path d="M103.49 274.27C103.49 272.27 106.83 270.57 110.93 270.57C115.03 270.57 118.38 272.23 118.38 274.27C118.36 274.622 118.265 274.966 118.101 275.278C117.937 275.59 117.708 275.864 117.43 276.08C116.16 277.21 113.72 277.97 110.93 277.97C109.27 277.994 107.621 277.688 106.08 277.07" stroke="#6240B8" stroke-width="2" stroke-linecap="round" stroke-linejoin="round"/>
<path d="M108.15 303.74V310.38C108.15 311.5 109.98 312.38 112.24 312.38C113.506 312.46 114.761 312.108 115.8 311.38C115.956 311.263 116.083 311.112 116.173 310.939C116.263 310.766 116.313 310.575 116.32 310.38V308" stroke="#6240B8" stroke-width="2" stroke-linecap="round" stroke-linejoin="round"/>
<path d="M116.32 303.74C116.311 303.934 116.26 304.125 116.17 304.297C116.08 304.47 115.954 304.621 115.8 304.74C114.761 305.468 113.506 305.82 112.24 305.74C109.98 305.74 108.15 304.84 108.15 303.74C108.15 302.64 109.98 301.74 112.24 301.74C114.5 301.74 116.32 302.62 116.32 303.74Z" stroke="#6240B8" stroke-width="2" stroke-linecap="round" stroke-linejoin="round"/>
<path d="M124.68 297.7V308.62L133.11 313.45" stroke="#6240B8" stroke-width="2" stroke-linecap="round" stroke-linejoin="round"/>
<path d="M143.09 291.98L145.66 289.27V306.26L133.11 313.45V305.02" stroke="#6240B8" stroke-width="2" stroke-linecap="round" stroke-linejoin="round"/>
<path d="M141.8 293.35L133.11 302.53L127.77 299.47" stroke="#6240B8" stroke-width="1.24" stroke-linecap="round" stroke-linejoin="round" stroke-dasharray="1.86 1.86 0.62 1.86 1.86 0.62"/>
<path d="M124.68 297.7L137.23 284.44L142.35 287.37" stroke="#6240B8" stroke-width="2" stroke-linecap="round" stroke-linejoin="round"/>
<path d="M130.22 218.47L146.92 228.04C147.46 228.389 147.91 228.861 148.234 229.417C148.557 229.973 148.744 230.598 148.78 231.24V254C148.803 254.23 148.765 254.462 148.67 254.672C148.575 254.883 148.427 255.065 148.24 255.2C148.03 255.301 147.796 255.344 147.563 255.323C147.331 255.301 147.109 255.218 146.92 255.08L128.06 244.28C127.519 243.929 127.069 243.455 126.746 242.897C126.423 242.34 126.236 241.714 126.2 241.07V218.31C126.174 218.068 126.218 217.824 126.326 217.606C126.434 217.388 126.602 217.206 126.81 217.08L130.55 215.08C130.761 214.985 130.992 214.947 131.222 214.97C131.452 214.993 131.672 215.076 131.86 215.21L150.71 226C151.251 226.351 151.701 226.825 152.024 227.383C152.347 227.94 152.534 228.566 152.57 229.21V252C152.584 252.2 152.555 252.4 152.486 252.588C152.418 252.776 152.31 252.947 152.17 253.09L151.62 253.41" stroke="#6240B8" stroke-width="2" stroke-linecap="round" stroke-linejoin="round"/>
<path d="M130.63 240.49C131.16 240.674 131.734 240.697 132.277 240.554C132.82 240.412 133.308 240.111 133.68 239.69C134.509 238.76 135.142 237.671 135.54 236.49C136.042 235.359 136.331 234.146 136.39 232.91C136.457 231.588 135.996 230.293 135.11 229.31C134.9 229.11 134.64 228.94 134.41 229.02C134.18 229.1 134.01 229.48 133.92 229.82C133.8 230.237 133.706 230.661 133.64 231.09C133.584 232.079 133.682 233.071 133.93 234.03C134.09 234.953 134.372 235.851 134.77 236.7C135.494 237.998 136.597 239.044 137.93 239.7C138.299 239.971 138.722 240.162 139.17 240.258C139.618 240.355 140.082 240.355 140.53 240.26C140.911 240.086 141.252 239.834 141.53 239.52C142.252 238.834 142.798 237.983 143.12 237.04C143.28 236.56 143.44 235.97 143.86 235.96C144.28 235.95 144.41 236.25 144.59 236.57C144.77 236.89 144.88 237.26 145.07 237.57" stroke="#6240B8" stroke-width="2" stroke-linecap="round" stroke-linejoin="round"/>
<path d="M137.12 108.22C137.124 108.146 137.146 108.075 137.184 108.012C137.222 107.949 137.276 107.897 137.34 107.86L141.44 105.7C141.56 105.64 141.65 105.7 141.65 105.83V110.53C141.648 110.603 141.628 110.674 141.592 110.737C141.555 110.8 141.503 110.853 141.44 110.89L137.34 113.05C137.22 113.11 137.12 113.05 137.12 112.91V108.22Z" fill="#E7EDF5"/>
<path d="M178.8 183.1C178.807 183.048 178.824 182.998 178.852 182.953C178.88 182.908 178.916 182.87 178.96 182.84L181.96 181.28C181.976 181.268 181.994 181.261 182.014 181.26C182.033 181.259 182.053 181.263 182.07 181.272C182.087 181.282 182.1 181.296 182.109 181.314C182.118 181.331 182.122 181.351 182.12 181.37V184.79C182.117 184.842 182.101 184.892 182.073 184.936C182.045 184.98 182.006 185.016 181.96 185.04L178.96 186.61C178.944 186.622 178.926 186.629 178.906 186.63C178.887 186.632 178.867 186.627 178.85 186.618C178.833 186.608 178.82 186.594 178.811 186.576C178.802 186.559 178.798 186.539 178.8 186.52V183.1Z" fill="#F8F9FB"/>
<path d="M179.83 184.48C179.833 184.428 179.849 184.378 179.875 184.333C179.901 184.288 179.937 184.249 179.98 184.22L182.98 182.66C183.07 182.66 183.14 182.66 183.14 182.75V186.16C183.138 186.213 183.122 186.266 183.094 186.311C183.066 186.357 183.027 186.394 182.98 186.42L180 188C179.92 188 179.85 188 179.85 187.9L179.83 184.48Z" stroke="#6240B8" stroke-width="2" stroke-linecap="round" stroke-linejoin="round"/>
<path d="M193.67 155.14C193.674 155.063 193.697 154.987 193.737 154.921C193.777 154.855 193.833 154.799 193.9 154.76L198.2 152.5C198.33 152.44 198.43 152.5 198.43 152.64V157.57C198.427 157.646 198.404 157.721 198.364 157.785C198.324 157.85 198.267 157.904 198.2 157.94L193.9 160.2C193.77 160.27 193.67 160.2 193.67 160.07V155.14Z" fill="#FFBD26"/>
<path d="M214.964 181.886C216.184 179.855 216.066 177.544 214.703 176.726C213.339 175.907 211.245 176.891 210.026 178.922C208.806 180.954 208.924 183.264 210.287 184.083C211.651 184.901 213.745 183.918 214.964 181.886Z" stroke="#6240B8" stroke-width="2" stroke-linecap="round" stroke-linejoin="round"/>
<path d="M206.3 147.579C206.951 146.495 206.887 145.261 206.158 144.823C205.429 144.385 204.31 144.91 203.659 145.994C203.008 147.079 203.072 148.312 203.801 148.75C204.531 149.188 205.649 148.663 206.3 147.579Z" fill="#FF4EDA"/>
<path d="M137.979 130.14C138.711 129.706 138.781 128.472 138.136 127.385C137.491 126.297 136.375 125.767 135.644 126.201C134.912 126.635 134.842 127.868 135.487 128.956C136.132 130.043 137.248 130.573 137.979 130.14Z" fill="#FF4EDA"/>
<path d="M190.829 132.681C191.573 131.44 191.501 130.029 190.668 129.529C189.834 129.028 188.555 129.629 187.811 130.869C187.066 132.11 187.138 133.521 187.971 134.022C188.805 134.522 190.084 133.922 190.829 132.681Z" stroke="#6240B8" stroke-width="2" stroke-linecap="round" stroke-linejoin="round"/>
<path d="M169.33 231.14L171.95 226.15L174.58 221.16L177.2 222.97L179.83 224.77" stroke="#6240B8" stroke-width="2" stroke-linecap="round" stroke-linejoin="round"/>
<path d="M174.58 221.5V254.34" stroke="#6240B8" stroke-width="2" stroke-linecap="round" stroke-linejoin="round"/>
<path d="M194.05 220.29L186.54 224.41L192.46 215.24C193.241 214.205 193.715 212.972 193.83 211.68C193.83 210.25 192.83 209.79 191.28 210.68C189.83 211.566 188.653 212.836 187.88 214.35" stroke="#FF4EDA" stroke-width="2" stroke-linecap="round" stroke-linejoin="round"/>
<path d="M204.98 210.99L196.2 215.82L200.15 206.2" stroke="#FF4EDA" stroke-width="2" stroke-linecap="round" stroke-linejoin="round"/>
<path d="M201.19 216.63V209.7" stroke="#FF4EDA" stroke-width="2" stroke-linecap="round" stroke-linejoin="round"/>
<path d="M208.49 212.62V198.97" stroke="#FF4EDA" stroke-width="2" stroke-linecap="round" stroke-linejoin="round"/>
<path d="M213.2 210V207C213.2 205.37 212.37 204.93 210.94 205.71C210.226 206.088 209.623 206.648 209.193 207.332C208.763 208.017 208.521 208.802 208.49 209.61" stroke="#FF4EDA" stroke-width="2" stroke-linecap="round" stroke-linejoin="round"/>
<path d="M220.15 200.94C219.485 201.055 218.846 201.285 218.26 201.62C217.54 201.985 216.932 202.538 216.502 203.222C216.072 203.905 215.836 204.693 215.82 205.5V208.59" stroke="#FF4EDA" stroke-width="2" stroke-linecap="round" stroke-linejoin="round"/>
<path d="M97.9 195.7L110.93 202.54" stroke="#6240B8" stroke-width="1.24" stroke-linecap="round" stroke-linejoin="round" stroke-dasharray="1.86 1.86 0.62 1.86 1.86 0.62"/>
<path d="M97.9 201.34L107.92 206.61" stroke="#6240B8" stroke-width="1.24" stroke-linecap="round" stroke-linejoin="round" stroke-dasharray="1.86 1.86 0.62 1.86 1.86 0.62"/>
<path d="M97.9 206.99L110.29 213.5" stroke="#6240B8" stroke-width="1.24" stroke-linecap="round" stroke-linejoin="round" stroke-dasharray="1.86 1.86 0.62 1.86 1.86 0.62"/>
<path d="M105.62 216.7L97.9 212.64" stroke="#6240B8" stroke-width="1.24" stroke-linecap="round" stroke-linejoin="round" stroke-dasharray="1.86 1.86 0.62 1.86 1.86 0.62"/>
<path d="M151.27 133.87L155.52 136.15" stroke="#6240B8" stroke-width="1.24" stroke-linecap="round" stroke-linejoin="round" stroke-dasharray="1.86 1.86 0.62 1.86 1.86 0.62"/>
<path d="M151.27 126.81L155.52 129.1" stroke="#6240B8" stroke-width="1.24" stroke-linecap="round" stroke-linejoin="round" stroke-dasharray="1.86 1.86 0.62 1.86 1.86 0.62"/>
<path d="M59.2056 363.186C58.4136 363.567 57.5409 363.861 56.5876 364.066C55.6489 364.286 54.5636 364.396 53.3316 364.396C52.0703 364.396 50.9189 364.198 49.8776 363.802C48.8363 363.391 47.9416 362.827 47.1936 362.108C46.4456 361.375 45.8589 360.509 45.4336 359.512C45.0229 358.5 44.8176 357.385 44.8176 356.168C44.8176 354.921 45.0303 353.799 45.4556 352.802C45.8956 351.79 46.4896 350.932 47.2376 350.228C48.0003 349.524 48.8949 348.981 49.9216 348.6C50.9483 348.219 52.0629 348.028 53.2656 348.028C54.5123 348.028 55.6489 348.211 56.6756 348.578C57.7169 348.93 58.5529 349.399 59.1836 349.986L57.2696 352.054C56.8736 351.614 56.3163 351.24 55.5976 350.932C54.8936 350.624 54.1236 350.47 53.2876 350.47C52.4663 350.47 51.7183 350.617 51.0436 350.91C50.3836 351.203 49.8189 351.607 49.3496 352.12C48.8803 352.633 48.5136 353.235 48.2496 353.924C48.0003 354.613 47.8756 355.361 47.8756 356.168C47.8756 357.004 48.0003 357.774 48.2496 358.478C48.5136 359.167 48.8803 359.769 49.3496 360.282C49.8336 360.795 50.4129 361.199 51.0876 361.492C51.7769 361.771 52.5543 361.91 53.4196 361.91C54.6076 361.91 55.6416 361.727 56.5216 361.36V357.4H53.2436V355.112H59.2056V363.186ZM69.8852 357.664C69.8852 357.327 69.8339 357.004 69.7312 356.696C69.6432 356.388 69.4966 356.117 69.2912 355.882C69.0859 355.647 68.8219 355.464 68.4992 355.332C68.1912 355.185 67.8246 355.112 67.3992 355.112C66.6072 355.112 65.9326 355.354 65.3752 355.838C64.8326 356.307 64.5319 356.916 64.4732 357.664H69.8852ZM72.5252 358.852C72.5252 358.969 72.5252 359.087 72.5252 359.204C72.5252 359.321 72.5179 359.439 72.5032 359.556H64.4732C64.5026 359.937 64.5979 360.289 64.7592 360.612C64.9352 360.92 65.1626 361.191 65.4412 361.426C65.7199 361.646 66.0352 361.822 66.3872 361.954C66.7392 362.086 67.1059 362.152 67.4872 362.152C68.1472 362.152 68.7046 362.035 69.1592 361.8C69.6139 361.551 69.9879 361.213 70.2812 360.788L72.0412 362.196C70.9999 363.604 69.4892 364.308 67.5092 364.308C66.6879 364.308 65.9326 364.183 65.2432 363.934C64.5539 363.67 63.9526 363.303 63.4392 362.834C62.9406 362.365 62.5446 361.793 62.2512 361.118C61.9726 360.429 61.8332 359.651 61.8332 358.786C61.8332 357.935 61.9726 357.165 62.2512 356.476C62.5446 355.772 62.9406 355.178 63.4392 354.694C63.9379 354.195 64.5246 353.814 65.1992 353.55C65.8886 353.271 66.6292 353.132 67.4212 353.132C68.1546 353.132 68.8292 353.257 69.4452 353.506C70.0759 353.741 70.6186 354.1 71.0732 354.584C71.5279 355.053 71.8799 355.647 72.1292 356.366C72.3932 357.07 72.5252 357.899 72.5252 358.852ZM73.564 355.552V353.44H75.412V350.382H78.008V353.44H80.648V355.552H78.008V360.458C78.008 360.927 78.0887 361.316 78.25 361.624C78.426 361.932 78.8074 362.086 79.394 362.086C79.57 362.086 79.7607 362.071 79.966 362.042C80.1714 361.998 80.3547 361.939 80.516 361.866L80.604 363.934C80.3694 364.022 80.0907 364.088 79.768 364.132C79.4454 364.191 79.1374 364.22 78.844 364.22C78.14 364.22 77.568 364.125 77.128 363.934C76.688 363.729 76.336 363.457 76.072 363.12C75.8227 362.768 75.6467 362.372 75.544 361.932C75.456 361.477 75.412 360.993 75.412 360.48V355.552H73.564ZM86.4746 353.44H89.4006L92.3486 361.118H92.3926L95.0106 353.44H97.7606L92.7666 366.266C92.5759 366.75 92.3706 367.175 92.1506 367.542C91.9306 367.923 91.6666 368.239 91.3586 368.488C91.0506 368.752 90.6839 368.95 90.2586 369.082C89.8479 369.214 89.3493 369.28 88.7626 369.28C88.5426 369.28 88.3153 369.265 88.0806 369.236C87.8606 369.221 87.6333 369.185 87.3986 369.126L87.6186 366.838C87.7946 366.897 87.9633 366.933 88.1246 366.948C88.3006 366.977 88.4619 366.992 88.6086 366.992C88.8873 366.992 89.1219 366.955 89.3126 366.882C89.5033 366.823 89.6646 366.721 89.7966 366.574C89.9286 366.442 90.0459 366.273 90.1486 366.068C90.2513 365.863 90.3613 365.621 90.4786 365.342L91.0066 364L86.4746 353.44ZM98.7219 358.676C98.7219 357.84 98.8686 357.085 99.1619 356.41C99.4699 355.721 99.8806 355.134 100.394 354.65C100.907 354.166 101.516 353.792 102.22 353.528C102.924 353.264 103.672 353.132 104.464 353.132C105.256 353.132 106.004 353.264 106.708 353.528C107.412 353.792 108.021 354.166 108.534 354.65C109.047 355.134 109.451 355.721 109.744 356.41C110.052 357.085 110.206 357.84 110.206 358.676C110.206 359.512 110.052 360.275 109.744 360.964C109.451 361.653 109.047 362.247 108.534 362.746C108.021 363.23 107.412 363.611 106.708 363.89C106.004 364.169 105.256 364.308 104.464 364.308C103.672 364.308 102.924 364.169 102.22 363.89C101.516 363.611 100.907 363.23 100.394 362.746C99.8806 362.247 99.4699 361.653 99.1619 360.964C98.8686 360.275 98.7219 359.512 98.7219 358.676ZM101.406 358.676C101.406 359.087 101.465 359.497 101.582 359.908C101.714 360.319 101.905 360.685 102.154 361.008C102.403 361.331 102.719 361.595 103.1 361.8C103.481 362.005 103.936 362.108 104.464 362.108C104.992 362.108 105.447 362.005 105.828 361.8C106.209 361.595 106.525 361.331 106.774 361.008C107.023 360.685 107.207 360.319 107.324 359.908C107.456 359.497 107.522 359.087 107.522 358.676C107.522 358.265 107.456 357.862 107.324 357.466C107.207 357.055 107.023 356.689 106.774 356.366C106.525 356.043 106.209 355.787 105.828 355.596C105.447 355.391 104.992 355.288 104.464 355.288C103.936 355.288 103.481 355.391 103.1 355.596C102.719 355.787 102.403 356.043 102.154 356.366C101.905 356.689 101.714 357.055 101.582 357.466C101.465 357.862 101.406 358.265 101.406 358.676ZM122.402 364H119.894V362.306H119.85C119.615 362.834 119.204 363.303 118.618 363.714C118.046 364.11 117.364 364.308 116.572 364.308C115.882 364.308 115.288 364.191 114.79 363.956C114.306 363.707 113.902 363.384 113.58 362.988C113.272 362.592 113.044 362.137 112.898 361.624C112.751 361.111 112.678 360.583 112.678 360.04V353.44H115.318V359.292C115.318 359.6 115.34 359.923 115.384 360.26C115.428 360.597 115.523 360.905 115.67 361.184C115.816 361.448 116.014 361.668 116.264 361.844C116.528 362.02 116.872 362.108 117.298 362.108C117.708 362.108 118.068 362.027 118.376 361.866C118.698 361.69 118.955 361.47 119.146 361.206C119.351 360.942 119.505 360.641 119.608 360.304C119.71 359.952 119.762 359.6 119.762 359.248V353.44H122.402V364ZM125.57 353.44H128.1V355.2H128.144C128.438 354.584 128.848 354.085 129.376 353.704C129.904 353.323 130.52 353.132 131.224 353.132C131.327 353.132 131.437 353.139 131.554 353.154C131.672 353.154 131.774 353.169 131.862 353.198V355.618C131.686 355.574 131.532 355.545 131.4 355.53C131.283 355.515 131.166 355.508 131.048 355.508C130.447 355.508 129.963 355.618 129.596 355.838C129.23 356.058 128.944 356.322 128.738 356.63C128.533 356.938 128.394 357.253 128.32 357.576C128.247 357.899 128.21 358.155 128.21 358.346V364H125.57V353.44ZM139.502 355.552H137.5V353.44H139.502V351.878C139.502 351.247 139.568 350.646 139.7 350.074C139.847 349.487 140.081 348.974 140.404 348.534C140.741 348.094 141.181 347.749 141.724 347.5C142.267 347.236 142.949 347.104 143.77 347.104C144.063 347.104 144.305 347.119 144.496 347.148C144.701 347.163 144.907 347.199 145.112 347.258L144.936 349.502C144.789 349.458 144.628 349.421 144.452 349.392C144.291 349.363 144.115 349.348 143.924 349.348C143.543 349.348 143.235 349.421 143 349.568C142.765 349.715 142.582 349.905 142.45 350.14C142.333 350.375 142.252 350.631 142.208 350.91C142.164 351.189 142.142 351.46 142.142 351.724V353.44H144.584V355.552H142.142V364H139.502V355.552ZM155.853 364H153.345V362.306H153.301C153.066 362.834 152.655 363.303 152.069 363.714C151.497 364.11 150.815 364.308 150.023 364.308C149.333 364.308 148.739 364.191 148.241 363.956C147.757 363.707 147.353 363.384 147.031 362.988C146.723 362.592 146.495 362.137 146.349 361.624C146.202 361.111 146.129 360.583 146.129 360.04V353.44H148.769V359.292C148.769 359.6 148.791 359.923 148.835 360.26C148.879 360.597 148.974 360.905 149.121 361.184C149.267 361.448 149.465 361.668 149.715 361.844C149.979 362.02 150.323 362.108 150.749 362.108C151.159 362.108 151.519 362.027 151.827 361.866C152.149 361.69 152.406 361.47 152.597 361.206C152.802 360.942 152.956 360.641 153.059 360.304C153.161 359.952 153.213 359.6 153.213 359.248V353.44H155.853V364ZM159.022 353.44H161.53V355.134H161.574C161.808 354.606 162.212 354.144 162.784 353.748C163.37 353.337 164.06 353.132 164.852 353.132C165.541 353.132 166.128 353.257 166.612 353.506C167.11 353.741 167.514 354.056 167.822 354.452C168.144 354.848 168.379 355.303 168.526 355.816C168.672 356.329 168.745 356.857 168.745 357.4V364H166.106V358.148C166.106 357.84 166.084 357.517 166.04 357.18C165.996 356.843 165.9 356.542 165.754 356.278C165.607 355.999 165.402 355.772 165.138 355.596C164.888 355.42 164.551 355.332 164.126 355.332C163.7 355.332 163.334 355.42 163.026 355.596C162.718 355.757 162.461 355.97 162.256 356.234C162.065 356.498 161.918 356.806 161.816 357.158C161.713 357.495 161.662 357.84 161.662 358.192V364H159.022V353.44ZM182.562 364H180.054V362.416H180.01C179.644 363.032 179.13 363.501 178.47 363.824C177.825 364.147 177.128 364.308 176.38 364.308C175.574 364.308 174.848 364.161 174.202 363.868C173.572 363.56 173.029 363.157 172.574 362.658C172.134 362.145 171.79 361.551 171.54 360.876C171.306 360.187 171.188 359.453 171.188 358.676C171.188 357.899 171.313 357.173 171.562 356.498C171.812 355.823 172.164 355.237 172.618 354.738C173.073 354.239 173.616 353.851 174.246 353.572C174.877 353.279 175.566 353.132 176.314 353.132C176.798 353.132 177.231 353.191 177.612 353.308C177.994 353.411 178.324 353.543 178.602 353.704C178.896 353.865 179.145 354.041 179.35 354.232C179.556 354.423 179.724 354.606 179.856 354.782H179.922V347.368H182.562V364ZM173.872 358.676C173.872 359.087 173.931 359.497 174.048 359.908C174.18 360.319 174.371 360.685 174.62 361.008C174.87 361.331 175.185 361.595 175.566 361.8C175.948 362.005 176.395 362.108 176.908 362.108C177.392 362.108 177.825 362.013 178.206 361.822C178.588 361.617 178.91 361.353 179.174 361.03C179.453 360.707 179.658 360.348 179.79 359.952C179.937 359.541 180.01 359.131 180.01 358.72C180.01 358.309 179.937 357.899 179.79 357.488C179.658 357.077 179.453 356.711 179.174 356.388C178.91 356.065 178.588 355.801 178.206 355.596C177.825 355.391 177.392 355.288 176.908 355.288C176.395 355.288 175.948 355.391 175.566 355.596C175.185 355.787 174.87 356.043 174.62 356.366C174.371 356.689 174.18 357.055 174.048 357.466C173.931 357.862 173.872 358.265 173.872 358.676ZM191.556 356.256C191.321 355.948 190.998 355.684 190.588 355.464C190.177 355.229 189.73 355.112 189.246 355.112C188.82 355.112 188.432 355.2 188.08 355.376C187.728 355.552 187.552 355.845 187.552 356.256C187.552 356.667 187.742 356.96 188.124 357.136C188.52 357.297 189.092 357.466 189.84 357.642C190.236 357.73 190.632 357.847 191.028 357.994C191.438 358.141 191.805 358.339 192.128 358.588C192.465 358.823 192.736 359.123 192.942 359.49C193.147 359.842 193.25 360.275 193.25 360.788C193.25 361.433 193.125 361.983 192.876 362.438C192.641 362.878 192.318 363.237 191.908 363.516C191.512 363.795 191.042 363.993 190.5 364.11C189.972 364.242 189.422 364.308 188.85 364.308C188.028 364.308 187.229 364.161 186.452 363.868C185.674 363.56 185.029 363.127 184.516 362.57L186.254 360.942C186.547 361.323 186.928 361.639 187.398 361.888C187.867 362.137 188.388 362.262 188.96 362.262C189.15 362.262 189.341 362.24 189.532 362.196C189.737 362.152 189.92 362.086 190.082 361.998C190.258 361.895 190.397 361.763 190.5 361.602C190.602 361.441 190.654 361.243 190.654 361.008C190.654 360.568 190.448 360.253 190.038 360.062C189.642 359.871 189.04 359.681 188.234 359.49C187.838 359.402 187.449 359.292 187.068 359.16C186.701 359.013 186.371 358.83 186.078 358.61C185.784 358.375 185.55 358.089 185.374 357.752C185.198 357.415 185.11 356.997 185.11 356.498C185.11 355.911 185.227 355.405 185.462 354.98C185.711 354.555 186.034 354.21 186.43 353.946C186.826 353.667 187.273 353.462 187.772 353.33C188.27 353.198 188.784 353.132 189.312 353.132C190.074 353.132 190.815 353.264 191.534 353.528C192.267 353.792 192.846 354.195 193.272 354.738L191.556 356.256ZM200.429 358.676C200.429 357.84 200.576 357.085 200.869 356.41C201.177 355.721 201.588 355.134 202.101 354.65C202.614 354.166 203.223 353.792 203.927 353.528C204.631 353.264 205.379 353.132 206.171 353.132C206.963 353.132 207.711 353.264 208.415 353.528C209.119 353.792 209.728 354.166 210.241 354.65C210.754 355.134 211.158 355.721 211.451 356.41C211.759 357.085 211.913 357.84 211.913 358.676C211.913 359.512 211.759 360.275 211.451 360.964C211.158 361.653 210.754 362.247 210.241 362.746C209.728 363.23 209.119 363.611 208.415 363.89C207.711 364.169 206.963 364.308 206.171 364.308C205.379 364.308 204.631 364.169 203.927 363.89C203.223 363.611 202.614 363.23 202.101 362.746C201.588 362.247 201.177 361.653 200.869 360.964C200.576 360.275 200.429 359.512 200.429 358.676ZM203.113 358.676C203.113 359.087 203.172 359.497 203.289 359.908C203.421 360.319 203.612 360.685 203.861 361.008C204.11 361.331 204.426 361.595 204.807 361.8C205.188 362.005 205.643 362.108 206.171 362.108C206.699 362.108 207.154 362.005 207.535 361.8C207.916 361.595 208.232 361.331 208.481 361.008C208.73 360.685 208.914 360.319 209.031 359.908C209.163 359.497 209.229 359.087 209.229 358.676C209.229 358.265 209.163 357.862 209.031 357.466C208.914 357.055 208.73 356.689 208.481 356.366C208.232 356.043 207.916 355.787 207.535 355.596C207.154 355.391 206.699 355.288 206.171 355.288C205.643 355.288 205.188 355.391 204.807 355.596C204.426 355.787 204.11 356.043 203.861 356.366C203.612 356.689 203.421 357.055 203.289 357.466C203.172 357.862 203.113 358.265 203.113 358.676ZM214.473 353.44H216.981V355.134H217.025C217.259 354.606 217.663 354.144 218.235 353.748C218.821 353.337 219.511 353.132 220.303 353.132C220.992 353.132 221.579 353.257 222.063 353.506C222.561 353.741 222.965 354.056 223.273 354.452C223.595 354.848 223.83 355.303 223.977 355.816C224.123 356.329 224.197 356.857 224.197 357.4V364H221.557V358.148C221.557 357.84 221.535 357.517 221.491 357.18C221.447 356.843 221.351 356.542 221.205 356.278C221.058 355.999 220.853 355.772 220.589 355.596C220.339 355.42 220.002 355.332 219.577 355.332C219.151 355.332 218.785 355.42 218.477 355.596C218.169 355.757 217.912 355.97 217.707 356.234C217.516 356.498 217.369 356.806 217.267 357.158C217.164 357.495 217.113 357.84 217.113 358.192V364H214.473V353.44ZM231.259 355.552V353.44H233.107V350.382H235.703V353.44H238.343V355.552H235.703V360.458C235.703 360.927 235.784 361.316 235.945 361.624C236.121 361.932 236.503 362.086 237.089 362.086C237.265 362.086 237.456 362.071 237.661 362.042C237.867 361.998 238.05 361.939 238.211 361.866L238.299 363.934C238.065 364.022 237.786 364.088 237.463 364.132C237.141 364.191 236.833 364.22 236.539 364.22C235.835 364.22 235.263 364.125 234.823 363.934C234.383 363.729 234.031 363.457 233.767 363.12C233.518 362.768 233.342 362.372 233.239 361.932C233.151 361.477 233.107 360.993 233.107 360.48V355.552H231.259ZM246.128 353.132C246.817 353.132 247.404 353.257 247.888 353.506C248.387 353.741 248.79 354.056 249.098 354.452C249.421 354.848 249.655 355.303 249.802 355.816C249.949 356.329 250.022 356.857 250.022 357.4V364H247.382V358.192C247.382 357.884 247.36 357.569 247.316 357.246C247.272 356.909 247.177 356.608 247.03 356.344C246.898 356.065 246.7 355.838 246.436 355.662C246.187 355.486 245.849 355.398 245.424 355.398C244.999 355.398 244.632 355.479 244.324 355.64C244.016 355.801 243.759 356.021 243.554 356.3C243.349 356.564 243.195 356.865 243.092 357.202C242.989 357.539 242.938 357.884 242.938 358.236V364H240.298V347.368H242.938V354.914H242.982C243.085 354.694 243.231 354.481 243.422 354.276C243.627 354.056 243.862 353.865 244.126 353.704C244.39 353.528 244.691 353.389 245.028 353.286C245.365 353.183 245.732 353.132 246.128 353.132ZM260.538 357.664C260.538 357.327 260.486 357.004 260.384 356.696C260.296 356.388 260.149 356.117 259.944 355.882C259.738 355.647 259.474 355.464 259.152 355.332C258.844 355.185 258.477 355.112 258.052 355.112C257.26 355.112 256.585 355.354 256.028 355.838C255.485 356.307 255.184 356.916 255.126 357.664H260.538ZM263.178 358.852C263.178 358.969 263.178 359.087 263.178 359.204C263.178 359.321 263.17 359.439 263.156 359.556H255.126C255.155 359.937 255.25 360.289 255.412 360.612C255.588 360.92 255.815 361.191 256.094 361.426C256.372 361.646 256.688 361.822 257.04 361.954C257.392 362.086 257.758 362.152 258.14 362.152C258.8 362.152 259.357 362.035 259.812 361.8C260.266 361.551 260.64 361.213 260.934 360.788L262.694 362.196C261.652 363.604 260.142 364.308 258.162 364.308C257.34 364.308 256.585 364.183 255.896 363.934C255.206 363.67 254.605 363.303 254.092 362.834C253.593 362.365 253.197 361.793 252.904 361.118C252.625 360.429 252.486 359.651 252.486 358.786C252.486 357.935 252.625 357.165 252.904 356.476C253.197 355.772 253.593 355.178 254.092 354.694C254.59 354.195 255.177 353.814 255.852 353.55C256.541 353.271 257.282 353.132 258.074 353.132C258.807 353.132 259.482 353.257 260.098 353.506C260.728 353.741 261.271 354.1 261.726 354.584C262.18 355.053 262.532 355.647 262.782 356.366C263.046 357.07 263.178 357.899 263.178 358.852ZM66.4628 386.256C66.2281 385.948 65.9054 385.684 65.4948 385.464C65.0841 385.229 64.6368 385.112 64.1528 385.112C63.7274 385.112 63.3388 385.2 62.9868 385.376C62.6348 385.552 62.4588 385.845 62.4588 386.256C62.4588 386.667 62.6494 386.96 63.0308 387.136C63.4268 387.297 63.9988 387.466 64.7468 387.642C65.1428 387.73 65.5388 387.847 65.9348 387.994C66.3454 388.141 66.7121 388.339 67.0348 388.588C67.3721 388.823 67.6434 389.123 67.8488 389.49C68.0541 389.842 68.1568 390.275 68.1568 390.788C68.1568 391.433 68.0321 391.983 67.7828 392.438C67.5481 392.878 67.2254 393.237 66.8148 393.516C66.4188 393.795 65.9494 393.993 65.4068 394.11C64.8788 394.242 64.3288 394.308 63.7568 394.308C62.9354 394.308 62.1361 394.161 61.3588 393.868C60.5814 393.56 59.9361 393.127 59.4228 392.57L61.1608 390.942C61.4541 391.323 61.8354 391.639 62.3048 391.888C62.7741 392.137 63.2948 392.262 63.8668 392.262C64.0574 392.262 64.2481 392.24 64.4388 392.196C64.6441 392.152 64.8274 392.086 64.9888 391.998C65.1648 391.895 65.3041 391.763 65.4068 391.602C65.5094 391.441 65.5608 391.243 65.5608 391.008C65.5608 390.568 65.3554 390.253 64.9448 390.062C64.5488 389.871 63.9474 389.681 63.1408 389.49C62.7448 389.402 62.3561 389.292 61.9748 389.16C61.6081 389.013 61.2781 388.83 60.9848 388.61C60.6914 388.375 60.4568 388.089 60.2808 387.752C60.1048 387.415 60.0168 386.997 60.0168 386.498C60.0168 385.911 60.1341 385.405 60.3688 384.98C60.6181 384.555 60.9408 384.21 61.3368 383.946C61.7328 383.667 62.1801 383.462 62.6788 383.33C63.1774 383.198 63.6908 383.132 64.2188 383.132C64.9814 383.132 65.7221 383.264 66.4408 383.528C67.1741 383.792 67.7534 384.195 68.1788 384.738L66.4628 386.256ZM77.0082 392.658H76.9422C76.6782 393.127 76.2528 393.516 75.6662 393.824C75.0795 394.117 74.4122 394.264 73.6642 394.264C73.2388 394.264 72.7915 394.205 72.3222 394.088C71.8675 393.985 71.4422 393.809 71.0462 393.56C70.6648 393.296 70.3422 392.959 70.0782 392.548C69.8288 392.123 69.7042 391.602 69.7042 390.986C69.7042 390.194 69.9242 389.563 70.3642 389.094C70.8188 388.625 71.3982 388.265 72.1022 388.016C72.8062 387.767 73.5835 387.605 74.4342 387.532C75.2995 387.444 76.1428 387.4 76.9642 387.4V387.136C76.9642 386.476 76.7222 385.992 76.2382 385.684C75.7688 385.361 75.2042 385.2 74.5442 385.2C73.9868 385.2 73.4515 385.317 72.9382 385.552C72.4248 385.787 71.9995 386.073 71.6622 386.41L70.2982 384.804C70.8995 384.247 71.5888 383.829 72.3662 383.55C73.1582 383.271 73.9575 383.132 74.7642 383.132C75.7028 383.132 76.4728 383.264 77.0742 383.528C77.6902 383.792 78.1742 384.137 78.5262 384.562C78.8782 384.987 79.1202 385.464 79.2522 385.992C79.3988 386.52 79.4722 387.048 79.4722 387.576V394H77.0082V392.658ZM76.9642 389.182H76.3702C75.9448 389.182 75.4975 389.204 75.0282 389.248C74.5588 389.277 74.1262 389.358 73.7302 389.49C73.3342 389.607 73.0042 389.783 72.7402 390.018C72.4762 390.238 72.3442 390.546 72.3442 390.942C72.3442 391.191 72.3955 391.404 72.4982 391.58C72.6155 391.741 72.7622 391.873 72.9382 391.976C73.1142 392.079 73.3122 392.152 73.5322 392.196C73.7522 392.24 73.9722 392.262 74.1922 392.262C75.1015 392.262 75.7908 392.02 76.2602 391.536C76.7295 391.052 76.9642 390.392 76.9642 389.556V389.182ZM95.1539 383.132C95.8432 383.132 96.4299 383.257 96.9139 383.506C97.4125 383.741 97.8159 384.056 98.1239 384.452C98.4465 384.848 98.6812 385.303 98.8279 385.816C98.9745 386.329 99.0479 386.857 99.0479 387.4V394H96.4079V388.148C96.4079 387.84 96.3859 387.517 96.3419 387.18C96.2979 386.843 96.2025 386.542 96.0559 386.278C95.9092 385.999 95.7039 385.772 95.4399 385.596C95.1905 385.42 94.8532 385.332 94.4279 385.332C94.0172 385.332 93.6652 385.42 93.3719 385.596C93.0785 385.772 92.8365 385.999 92.6459 386.278C92.4552 386.557 92.3159 386.872 92.2279 387.224C92.1399 387.561 92.0959 387.899 92.0959 388.236V394H89.4559V387.62C89.4559 386.96 89.2945 386.417 88.9719 385.992C88.6639 385.552 88.1725 385.332 87.4979 385.332C87.1019 385.332 86.7572 385.42 86.4639 385.596C86.1705 385.757 85.9285 385.97 85.7379 386.234C85.5619 386.498 85.4225 386.806 85.3199 387.158C85.2319 387.495 85.1879 387.84 85.1879 388.192V394H82.5479V383.44H85.0559V385.134H85.0999C85.2172 384.87 85.3712 384.621 85.5619 384.386C85.7672 384.151 86.0019 383.939 86.2659 383.748C86.5445 383.557 86.8599 383.411 87.2119 383.308C87.5639 383.191 87.9525 383.132 88.3779 383.132C89.1992 383.132 89.8812 383.315 90.4239 383.682C90.9665 384.049 91.3845 384.533 91.6779 385.134C92.0299 384.489 92.4992 383.997 93.0859 383.66C93.6725 383.308 94.3619 383.132 95.1539 383.132ZM109.556 387.664C109.556 387.327 109.505 387.004 109.402 386.696C109.314 386.388 109.167 386.117 108.962 385.882C108.757 385.647 108.493 385.464 108.17 385.332C107.862 385.185 107.495 385.112 107.07 385.112C106.278 385.112 105.603 385.354 105.046 385.838C104.503 386.307 104.203 386.916 104.144 387.664H109.556ZM112.196 388.852C112.196 388.969 112.196 389.087 112.196 389.204C112.196 389.321 112.189 389.439 112.174 389.556H104.144C104.173 389.937 104.269 390.289 104.43 390.612C104.606 390.92 104.833 391.191 105.112 391.426C105.391 391.646 105.706 391.822 106.058 391.954C106.41 392.086 106.777 392.152 107.158 392.152C107.818 392.152 108.375 392.035 108.83 391.8C109.285 391.551 109.659 391.213 109.952 390.788L111.712 392.196C110.671 393.604 109.16 394.308 107.18 394.308C106.359 394.308 105.603 394.183 104.914 393.934C104.225 393.67 103.623 393.303 103.11 392.834C102.611 392.365 102.215 391.793 101.922 391.118C101.643 390.429 101.504 389.651 101.504 388.786C101.504 387.935 101.643 387.165 101.922 386.476C102.215 385.772 102.611 385.178 103.11 384.694C103.609 384.195 104.195 383.814 104.87 383.55C105.559 383.271 106.3 383.132 107.092 383.132C107.825 383.132 108.5 383.257 109.116 383.506C109.747 383.741 110.289 384.1 110.744 384.584C111.199 385.053 111.551 385.647 111.8 386.366C112.064 387.07 112.196 387.899 112.196 388.852ZM122.937 377.368V384.782H123.003C123.135 384.606 123.304 384.423 123.509 384.232C123.714 384.041 123.956 383.865 124.235 383.704C124.528 383.543 124.866 383.411 125.247 383.308C125.628 383.191 126.061 383.132 126.545 383.132C127.293 383.132 127.982 383.279 128.613 383.572C129.244 383.851 129.786 384.239 130.241 384.738C130.696 385.237 131.048 385.823 131.297 386.498C131.546 387.173 131.671 387.899 131.671 388.676C131.671 389.453 131.546 390.187 131.297 390.876C131.062 391.551 130.718 392.145 130.263 392.658C129.823 393.157 129.28 393.56 128.635 393.868C128.004 394.161 127.286 394.308 126.479 394.308C125.731 394.308 125.027 394.147 124.367 393.824C123.722 393.501 123.216 393.032 122.849 392.416H122.805V394H120.297V377.368H122.937ZM128.987 388.676C128.987 388.265 128.921 387.862 128.789 387.466C128.672 387.055 128.488 386.689 128.239 386.366C127.99 386.043 127.674 385.787 127.293 385.596C126.912 385.391 126.464 385.288 125.951 385.288C125.467 385.288 125.034 385.391 124.653 385.596C124.272 385.801 123.942 386.065 123.663 386.388C123.399 386.711 123.194 387.077 123.047 387.488C122.915 387.899 122.849 388.309 122.849 388.72C122.849 389.131 122.915 389.541 123.047 389.952C123.194 390.348 123.399 390.707 123.663 391.03C123.942 391.353 124.272 391.617 124.653 391.822C125.034 392.013 125.467 392.108 125.951 392.108C126.464 392.108 126.912 392.005 127.293 391.8C127.674 391.595 127.99 391.331 128.239 391.008C128.488 390.685 128.672 390.319 128.789 389.908C128.921 389.497 128.987 389.087 128.987 388.676ZM143.854 394H141.346V392.306H141.302C141.067 392.834 140.656 393.303 140.07 393.714C139.498 394.11 138.816 394.308 138.024 394.308C137.334 394.308 136.74 394.191 136.242 393.956C135.758 393.707 135.354 393.384 135.032 392.988C134.724 392.592 134.496 392.137 134.35 391.624C134.203 391.111 134.13 390.583 134.13 390.04V383.44H136.77V389.292C136.77 389.6 136.792 389.923 136.836 390.26C136.88 390.597 136.975 390.905 137.122 391.184C137.268 391.448 137.466 391.668 137.716 391.844C137.98 392.02 138.324 392.108 138.75 392.108C139.16 392.108 139.52 392.027 139.828 391.866C140.15 391.69 140.407 391.47 140.598 391.206C140.803 390.942 140.957 390.641 141.06 390.304C141.162 389.952 141.214 389.6 141.214 389.248V383.44H143.854V394ZM152.808 386.256C152.574 385.948 152.251 385.684 151.84 385.464C151.43 385.229 150.982 385.112 150.498 385.112C150.073 385.112 149.684 385.2 149.332 385.376C148.98 385.552 148.804 385.845 148.804 386.256C148.804 386.667 148.995 386.96 149.376 387.136C149.772 387.297 150.344 387.466 151.092 387.642C151.488 387.73 151.884 387.847 152.28 387.994C152.691 388.141 153.058 388.339 153.38 388.588C153.718 388.823 153.989 389.123 154.194 389.49C154.4 389.842 154.502 390.275 154.502 390.788C154.502 391.433 154.378 391.983 154.128 392.438C153.894 392.878 153.571 393.237 153.16 393.516C152.764 393.795 152.295 393.993 151.752 394.11C151.224 394.242 150.674 394.308 150.102 394.308C149.281 394.308 148.482 394.161 147.704 393.868C146.927 393.56 146.282 393.127 145.768 392.57L147.506 390.942C147.8 391.323 148.181 391.639 148.65 391.888C149.12 392.137 149.64 392.262 150.212 392.262C150.403 392.262 150.594 392.24 150.784 392.196C150.99 392.152 151.173 392.086 151.334 391.998C151.51 391.895 151.65 391.763 151.752 391.602C151.855 391.441 151.906 391.243 151.906 391.008C151.906 390.568 151.701 390.253 151.29 390.062C150.894 389.871 150.293 389.681 149.486 389.49C149.09 389.402 148.702 389.292 148.32 389.16C147.954 389.013 147.624 388.83 147.33 388.61C147.037 388.375 146.802 388.089 146.626 387.752C146.45 387.415 146.362 386.997 146.362 386.498C146.362 385.911 146.48 385.405 146.714 384.98C146.964 384.555 147.286 384.21 147.682 383.946C148.078 383.667 148.526 383.462 149.024 383.33C149.523 383.198 150.036 383.132 150.564 383.132C151.327 383.132 152.068 383.264 152.786 383.528C153.52 383.792 154.099 384.195 154.524 384.738L152.808 386.256ZM156.842 383.44H159.482V394H156.842V383.44ZM156.468 379.854C156.468 379.429 156.622 379.062 156.93 378.754C157.253 378.431 157.656 378.27 158.14 378.27C158.624 378.27 159.027 378.424 159.35 378.732C159.687 379.025 159.856 379.399 159.856 379.854C159.856 380.309 159.687 380.69 159.35 380.998C159.027 381.291 158.624 381.438 158.14 381.438C157.656 381.438 157.253 381.284 156.93 380.976C156.622 380.653 156.468 380.279 156.468 379.854ZM162.685 383.44H165.193V385.134H165.237C165.471 384.606 165.875 384.144 166.447 383.748C167.033 383.337 167.723 383.132 168.515 383.132C169.204 383.132 169.791 383.257 170.275 383.506C170.773 383.741 171.177 384.056 171.485 384.452C171.807 384.848 172.042 385.303 172.189 385.816C172.335 386.329 172.409 386.857 172.409 387.4V394H169.769V388.148C169.769 387.84 169.747 387.517 169.703 387.18C169.659 386.843 169.563 386.542 169.417 386.278C169.27 385.999 169.065 385.772 168.801 385.596C168.551 385.42 168.214 385.332 167.789 385.332C167.363 385.332 166.997 385.42 166.689 385.596C166.381 385.757 166.124 385.97 165.919 386.234C165.728 386.498 165.581 386.806 165.479 387.158C165.376 387.495 165.325 387.84 165.325 388.192V394H162.685V383.44ZM182.925 387.664C182.925 387.327 182.874 387.004 182.771 386.696C182.683 386.388 182.537 386.117 182.331 385.882C182.126 385.647 181.862 385.464 181.539 385.332C181.231 385.185 180.865 385.112 180.439 385.112C179.647 385.112 178.973 385.354 178.415 385.838C177.873 386.307 177.572 386.916 177.513 387.664H182.925ZM185.565 388.852C185.565 388.969 185.565 389.087 185.565 389.204C185.565 389.321 185.558 389.439 185.543 389.556H177.513C177.543 389.937 177.638 390.289 177.799 390.612C177.975 390.92 178.203 391.191 178.481 391.426C178.76 391.646 179.075 391.822 179.427 391.954C179.779 392.086 180.146 392.152 180.527 392.152C181.187 392.152 181.745 392.035 182.199 391.8C182.654 391.551 183.028 391.213 183.321 390.788L185.081 392.196C184.04 393.604 182.529 394.308 180.549 394.308C179.728 394.308 178.973 394.183 178.283 393.934C177.594 393.67 176.993 393.303 176.479 392.834C175.981 392.365 175.585 391.793 175.291 391.118C175.013 390.429 174.873 389.651 174.873 388.786C174.873 387.935 175.013 387.165 175.291 386.476C175.585 385.772 175.981 385.178 176.479 384.694C176.978 384.195 177.565 383.814 178.239 383.55C178.929 383.271 179.669 383.132 180.461 383.132C181.195 383.132 181.869 383.257 182.485 383.506C183.116 383.741 183.659 384.1 184.113 384.584C184.568 385.053 184.92 385.647 185.169 386.366C185.433 387.07 185.565 387.899 185.565 388.852ZM193.908 386.256C193.673 385.948 193.351 385.684 192.94 385.464C192.529 385.229 192.082 385.112 191.598 385.112C191.173 385.112 190.784 385.2 190.432 385.376C190.08 385.552 189.904 385.845 189.904 386.256C189.904 386.667 190.095 386.96 190.476 387.136C190.872 387.297 191.444 387.466 192.192 387.642C192.588 387.73 192.984 387.847 193.38 387.994C193.791 388.141 194.157 388.339 194.48 388.588C194.817 388.823 195.089 389.123 195.294 389.49C195.499 389.842 195.602 390.275 195.602 390.788C195.602 391.433 195.477 391.983 195.228 392.438C194.993 392.878 194.671 393.237 194.26 393.516C193.864 393.795 193.395 393.993 192.852 394.11C192.324 394.242 191.774 394.308 191.202 394.308C190.381 394.308 189.581 394.161 188.804 393.868C188.027 393.56 187.381 393.127 186.868 392.57L188.606 390.942C188.899 391.323 189.281 391.639 189.75 391.888C190.219 392.137 190.74 392.262 191.312 392.262C191.503 392.262 191.693 392.24 191.884 392.196C192.089 392.152 192.273 392.086 192.434 391.998C192.61 391.895 192.749 391.763 192.852 391.602C192.955 391.441 193.006 391.243 193.006 391.008C193.006 390.568 192.801 390.253 192.39 390.062C191.994 389.871 191.393 389.681 190.586 389.49C190.19 389.402 189.801 389.292 189.42 389.16C189.053 389.013 188.723 388.83 188.43 388.61C188.137 388.375 187.902 388.089 187.726 387.752C187.55 387.415 187.462 386.997 187.462 386.498C187.462 385.911 187.579 385.405 187.814 384.98C188.063 384.555 188.386 384.21 188.782 383.946C189.178 383.667 189.625 383.462 190.124 383.33C190.623 383.198 191.136 383.132 191.664 383.132C192.427 383.132 193.167 383.264 193.886 383.528C194.619 383.792 195.199 384.195 195.624 384.738L193.908 386.256ZM203.683 386.256C203.449 385.948 203.126 385.684 202.715 385.464C202.305 385.229 201.857 385.112 201.373 385.112C200.948 385.112 200.559 385.2 200.207 385.376C199.855 385.552 199.679 385.845 199.679 386.256C199.679 386.667 199.87 386.96 200.251 387.136C200.647 387.297 201.219 387.466 201.967 387.642C202.363 387.73 202.759 387.847 203.155 387.994C203.566 388.141 203.933 388.339 204.255 388.588C204.593 388.823 204.864 389.123 205.069 389.49C205.275 389.842 205.377 390.275 205.377 390.788C205.377 391.433 205.253 391.983 205.003 392.438C204.769 392.878 204.446 393.237 204.035 393.516C203.639 393.795 203.17 393.993 202.627 394.11C202.099 394.242 201.549 394.308 200.977 394.308C200.156 394.308 199.357 394.161 198.579 393.868C197.802 393.56 197.157 393.127 196.643 392.57L198.381 390.942C198.675 391.323 199.056 391.639 199.525 391.888C199.995 392.137 200.515 392.262 201.087 392.262C201.278 392.262 201.469 392.24 201.659 392.196C201.865 392.152 202.048 392.086 202.209 391.998C202.385 391.895 202.525 391.763 202.627 391.602C202.73 391.441 202.781 391.243 202.781 391.008C202.781 390.568 202.576 390.253 202.165 390.062C201.769 389.871 201.168 389.681 200.361 389.49C199.965 389.402 199.577 389.292 199.195 389.16C198.829 389.013 198.499 388.83 198.205 388.61C197.912 388.375 197.677 388.089 197.501 387.752C197.325 387.415 197.237 386.997 197.237 386.498C197.237 385.911 197.355 385.405 197.589 384.98C197.839 384.555 198.161 384.21 198.557 383.946C198.953 383.667 199.401 383.462 199.899 383.33C200.398 383.198 200.911 383.132 201.439 383.132C202.202 383.132 202.943 383.264 203.661 383.528C204.395 383.792 204.974 384.195 205.399 384.738L203.683 386.256ZM223.909 394H221.401V392.416H221.357C220.99 393.032 220.477 393.501 219.817 393.824C219.172 394.147 218.475 394.308 217.727 394.308C216.92 394.308 216.194 394.161 215.549 393.868C214.918 393.56 214.376 393.157 213.921 392.658C213.481 392.145 213.136 391.551 212.887 390.876C212.652 390.187 212.535 389.453 212.535 388.676C212.535 387.899 212.66 387.173 212.909 386.498C213.158 385.823 213.51 385.237 213.965 384.738C214.42 384.239 214.962 383.851 215.593 383.572C216.224 383.279 216.913 383.132 217.661 383.132C218.145 383.132 218.578 383.191 218.959 383.308C219.34 383.411 219.67 383.543 219.949 383.704C220.242 383.865 220.492 384.041 220.697 384.232C220.902 384.423 221.071 384.606 221.203 384.782H221.269V377.368H223.909V394ZM215.219 388.676C215.219 389.087 215.278 389.497 215.395 389.908C215.527 390.319 215.718 390.685 215.967 391.008C216.216 391.331 216.532 391.595 216.913 391.8C217.294 392.005 217.742 392.108 218.255 392.108C218.739 392.108 219.172 392.013 219.553 391.822C219.934 391.617 220.257 391.353 220.521 391.03C220.8 390.707 221.005 390.348 221.137 389.952C221.284 389.541 221.357 389.131 221.357 388.72C221.357 388.309 221.284 387.899 221.137 387.488C221.005 387.077 220.8 386.711 220.521 386.388C220.257 386.065 219.934 385.801 219.553 385.596C219.172 385.391 218.739 385.288 218.255 385.288C217.742 385.288 217.294 385.391 216.913 385.596C216.532 385.787 216.216 386.043 215.967 386.366C215.718 386.689 215.527 387.055 215.395 387.466C215.278 387.862 215.219 388.265 215.219 388.676ZM233.672 392.658H233.606C233.342 393.127 232.917 393.516 232.33 393.824C231.744 394.117 231.076 394.264 230.328 394.264C229.903 394.264 229.456 394.205 228.986 394.088C228.532 393.985 228.106 393.809 227.71 393.56C227.329 393.296 227.006 392.959 226.742 392.548C226.493 392.123 226.368 391.602 226.368 390.986C226.368 390.194 226.588 389.563 227.028 389.094C227.483 388.625 228.062 388.265 228.766 388.016C229.47 387.767 230.248 387.605 231.098 387.532C231.964 387.444 232.807 387.4 233.628 387.4V387.136C233.628 386.476 233.386 385.992 232.902 385.684C232.433 385.361 231.868 385.2 231.208 385.2C230.651 385.2 230.116 385.317 229.602 385.552C229.089 385.787 228.664 386.073 228.326 386.41L226.962 384.804C227.564 384.247 228.253 383.829 229.03 383.55C229.822 383.271 230.622 383.132 231.428 383.132C232.367 383.132 233.137 383.264 233.738 383.528C234.354 383.792 234.838 384.137 235.19 384.562C235.542 384.987 235.784 385.464 235.916 385.992C236.063 386.52 236.136 387.048 236.136 387.576V394H233.672V392.658ZM233.628 389.182H233.034C232.609 389.182 232.162 389.204 231.692 389.248C231.223 389.277 230.79 389.358 230.394 389.49C229.998 389.607 229.668 389.783 229.404 390.018C229.14 390.238 229.008 390.546 229.008 390.942C229.008 391.191 229.06 391.404 229.162 391.58C229.28 391.741 229.426 391.873 229.602 391.976C229.778 392.079 229.976 392.152 230.196 392.196C230.416 392.24 230.636 392.262 230.856 392.262C231.766 392.262 232.455 392.02 232.924 391.536C233.394 391.052 233.628 390.392 233.628 389.556V389.182ZM237.628 383.44H240.554L243.502 391.118H243.546L246.164 383.44H248.914L243.92 396.266C243.729 396.75 243.524 397.175 243.304 397.542C243.084 397.923 242.82 398.239 242.512 398.488C242.204 398.752 241.837 398.95 241.412 399.082C241.001 399.214 240.503 399.28 239.916 399.28C239.696 399.28 239.469 399.265 239.234 399.236C239.014 399.221 238.787 399.185 238.552 399.126L238.772 396.838C238.948 396.897 239.117 396.933 239.278 396.948C239.454 396.977 239.615 396.992 239.762 396.992C240.041 396.992 240.275 396.955 240.466 396.882C240.657 396.823 240.818 396.721 240.95 396.574C241.082 396.442 241.199 396.273 241.302 396.068C241.405 395.863 241.515 395.621 241.632 395.342L242.16 394L237.628 383.44Z" fill="#5D7287"/>
<g style="mix-blend-mode:multiply" opacity="0.13">
<g style="mix-blend-mode:multiply" opacity="0.13">
<path d="M183.73 179.17C181.945 179.175 180.181 178.779 178.57 178.01C178.43 177.958 178.302 177.876 178.194 177.772C178.087 177.667 178.002 177.541 177.946 177.402C177.89 177.263 177.864 177.114 177.869 176.964C177.874 176.814 177.909 176.667 177.974 176.532C178.039 176.396 178.131 176.276 178.245 176.179C178.359 176.081 178.492 176.008 178.635 175.965C178.779 175.921 178.93 175.908 179.079 175.926C179.228 175.945 179.371 175.993 179.5 176.07C180.817 176.717 182.263 177.059 183.73 177.07C185.359 177.07 186.962 176.666 188.397 175.895C189.832 175.124 191.054 174.01 191.954 172.653C192.854 171.295 193.404 169.736 193.555 168.114C193.705 166.492 193.452 164.858 192.818 163.357C192.184 161.857 191.188 160.537 189.92 159.515C188.652 158.493 187.15 157.801 185.549 157.5C183.948 157.199 182.298 157.299 180.745 157.791C179.192 158.283 177.785 159.152 176.65 160.32C176.552 160.421 176.434 160.502 176.304 160.558C176.175 160.613 176.035 160.643 175.894 160.645C175.753 160.647 175.613 160.621 175.482 160.569C175.351 160.516 175.231 160.439 175.13 160.34C175.029 160.242 174.948 160.124 174.892 159.994C174.837 159.865 174.807 159.725 174.805 159.584C174.803 159.443 174.829 159.303 174.882 159.172C174.934 159.041 175.012 158.921 175.11 158.82C176.493 157.409 178.204 156.361 180.09 155.77C181.976 155.178 183.978 155.062 185.92 155.431C187.862 155.8 189.682 156.643 191.22 157.885C192.757 159.127 193.964 160.729 194.733 162.549C195.503 164.37 195.81 166.352 195.629 168.32C195.448 170.288 194.783 172.181 193.695 173.831C192.606 175.48 191.127 176.835 189.388 177.775C187.65 178.716 185.706 179.212 183.73 179.22V179.17Z" fill="#5D7287"/>
</g>
<g style="mix-blend-mode:multiply" opacity="0.13">
<path d="M183.35 197C181.737 196.972 180.144 196.633 178.66 196C176.181 195.03 173.767 193.904 171.43 192.63C171.228 192.474 171.088 192.252 171.034 192.003C170.98 191.753 171.017 191.493 171.136 191.268C171.256 191.043 171.452 190.867 171.689 190.772C171.925 190.678 172.188 190.67 172.43 190.75C174.691 191.983 177.029 193.069 179.43 194C180.837 194.656 182.392 194.93 183.938 194.794C185.484 194.659 186.968 194.12 188.24 193.23C195.01 188.65 198.75 174.73 198.75 166.87C198.736 166.72 198.753 166.569 198.8 166.426C198.847 166.283 198.924 166.152 199.025 166.04C199.127 165.929 199.25 165.84 199.388 165.779C199.526 165.718 199.674 165.686 199.825 165.686C199.976 165.686 200.125 165.718 200.262 165.779C200.4 165.84 200.523 165.929 200.625 166.04C200.726 166.152 200.803 166.283 200.85 166.426C200.897 166.569 200.914 166.72 200.9 166.87C200.9 173.98 197.54 189.53 189.45 195.01C187.667 196.279 185.539 196.974 183.35 197V197Z" fill="#5D7287"/>
</g>
<g style="mix-blend-mode:multiply" opacity="0.13">
<path d="M198.62 160.57C198.401 160.567 198.188 160.498 198.009 160.371C197.831 160.244 197.695 160.066 197.62 159.86C196.68 157.19 194.77 153.64 190.97 151.86C187.78 150.34 183.9 150.37 179.44 151.97C175.889 153.184 172.27 154.186 168.6 154.97C168.33 155.011 168.055 154.949 167.83 154.795C167.604 154.642 167.445 154.409 167.385 154.143C167.324 153.877 167.366 153.598 167.502 153.362C167.639 153.126 167.859 152.95 168.12 152.87C171.707 152.116 175.247 151.151 178.72 149.98C183.72 148.19 188.17 148.18 191.9 149.98C195.43 151.66 198.11 154.86 199.65 159.23C199.697 159.363 199.718 159.505 199.71 159.646C199.703 159.787 199.667 159.925 199.606 160.053C199.544 160.18 199.458 160.294 199.353 160.388C199.247 160.482 199.124 160.554 198.99 160.6C198.866 160.617 198.74 160.607 198.62 160.57Z" fill="#5D7287"/>
</g>
<g style="mix-blend-mode:multiply" opacity="0.13">
<path d="M181.91 215.24C179.177 215.179 176.498 214.473 174.09 213.18C172.86 212.55 171.69 211.95 170.57 211.35C170.429 211.294 170.301 211.21 170.195 211.101C170.088 210.993 170.006 210.863 169.953 210.721C169.9 210.579 169.878 210.427 169.888 210.276C169.898 210.124 169.939 209.976 170.01 209.842C170.081 209.708 170.179 209.59 170.298 209.496C170.417 209.402 170.555 209.335 170.702 209.298C170.85 209.261 171.003 209.255 171.152 209.281C171.302 209.308 171.444 209.365 171.57 209.45C172.68 210.04 173.84 210.64 175.06 211.26C179.55 213.54 183.69 213.67 187.37 211.65C197.94 205.84 202.69 184.29 203.83 172.48C203.841 172.337 203.881 172.197 203.946 172.069C204.012 171.941 204.102 171.827 204.212 171.735C204.322 171.642 204.449 171.571 204.586 171.528C204.722 171.484 204.867 171.468 205.01 171.48C205.153 171.489 205.293 171.526 205.422 171.59C205.551 171.654 205.665 171.744 205.758 171.853C205.852 171.962 205.922 172.089 205.965 172.226C206.008 172.363 206.024 172.507 206.01 172.65C205.248 180.437 203.57 188.107 201.01 195.5C197.71 204.67 193.48 210.73 188.44 213.5C186.448 214.628 184.2 215.227 181.91 215.24V215.24Z" fill="#5D7287"/>
</g>
<g style="mix-blend-mode:multiply" opacity="0.13">
<path d="M201.27 152.13C201.082 152.13 200.898 152.081 200.735 151.988C200.572 151.895 200.436 151.762 200.34 151.6C196.84 145.76 189.61 140.18 175.02 146.8C170.557 148.759 165.893 150.222 161.11 151.16C160.832 151.22 160.541 151.166 160.302 151.012C160.063 150.857 159.895 150.614 159.835 150.335C159.775 150.057 159.829 149.766 159.983 149.527C160.138 149.288 160.382 149.12 160.66 149.06C165.29 148.148 169.807 146.733 174.13 144.84C191.01 137.18 198.95 145.1 202.19 150.5C202.262 150.621 202.31 150.755 202.331 150.894C202.352 151.033 202.345 151.175 202.31 151.312C202.276 151.448 202.215 151.577 202.131 151.69C202.047 151.803 201.941 151.898 201.82 151.97C201.655 152.073 201.465 152.129 201.27 152.13Z" fill="#5D7287"/>
</g>
<g style="mix-blend-mode:multiply" opacity="0.13">
<path d="M180.41 233.49C177.568 233.446 174.765 232.813 172.18 231.63C171.33 231.25 170.46 230.82 169.59 230.34C169.441 230.291 169.304 230.209 169.19 230.101C169.075 229.994 168.986 229.862 168.927 229.716C168.869 229.57 168.843 229.414 168.852 229.257C168.86 229.1 168.903 228.947 168.977 228.808C169.05 228.669 169.154 228.548 169.279 228.453C169.404 228.359 169.549 228.292 169.703 228.259C169.856 228.226 170.015 228.227 170.168 228.262C170.322 228.296 170.466 228.364 170.59 228.46C171.369 228.899 172.17 229.296 172.99 229.65C178.39 232.01 183.37 231.87 187.81 229.24C201.53 221.08 207.65 190.95 209.1 174.44C209.136 174.165 209.277 173.914 209.493 173.74C209.709 173.566 209.984 173.482 210.261 173.505C210.537 173.529 210.794 173.657 210.978 173.865C211.163 174.072 211.26 174.343 211.25 174.62C210.84 179.29 206.73 220.5 188.9 231.09C186.341 232.647 183.406 233.477 180.41 233.49Z" fill="#5D7287"/>
</g>
<g style="mix-blend-mode:multiply" opacity="0.13">
<path d="M151.15 148C150.889 147.99 150.64 147.887 150.45 147.708C150.26 147.529 150.141 147.287 150.115 147.027C150.089 146.767 150.159 146.506 150.31 146.294C150.462 146.081 150.686 145.93 150.94 145.87C157.411 144.668 163.695 142.617 169.63 139.77C179.21 134.99 196.73 129.37 206.37 145.34C206.517 145.584 206.561 145.877 206.493 146.153C206.425 146.43 206.249 146.668 206.005 146.815C205.761 146.962 205.469 147.007 205.192 146.938C204.915 146.87 204.677 146.694 204.53 146.45C197.95 135.55 186.21 133.91 170.59 141.69C164.487 144.635 158.021 146.757 151.36 148H151.15Z" fill="#5D7287"/>
</g>
<g style="mix-blend-mode:multiply" opacity="0.13">
<path d="M124 213.47C123.83 213.469 123.662 213.428 123.511 213.349C123.36 213.271 123.229 213.158 123.13 213.02C118.9 207.15 114.81 200.34 109.63 191.71L108.11 189.19C108.029 189.069 107.973 188.932 107.946 188.788C107.92 188.644 107.922 188.496 107.954 188.354C107.986 188.211 108.047 188.076 108.133 187.958C108.218 187.839 108.327 187.739 108.452 187.664C108.578 187.589 108.717 187.54 108.862 187.52C109.007 187.5 109.154 187.51 109.295 187.549C109.436 187.588 109.568 187.655 109.682 187.746C109.796 187.838 109.891 187.951 109.96 188.08L111.47 190.6C116.63 199.19 120.7 205.97 124.87 211.76C124.953 211.874 125.013 212.004 125.046 212.141C125.079 212.278 125.085 212.421 125.062 212.56C125.04 212.7 124.99 212.833 124.916 212.953C124.842 213.073 124.745 213.178 124.63 213.26C124.448 213.396 124.227 213.469 124 213.47V213.47Z" fill="#5D7287"/>
</g>
<g style="mix-blend-mode:multiply" opacity="0.13">
<path d="M178.89 251.75C175.407 251.695 171.976 250.905 168.82 249.43C167.55 248.861 166.311 248.223 165.11 247.52C164.978 247.454 164.862 247.361 164.767 247.247C164.673 247.134 164.603 247.003 164.561 246.861C164.52 246.72 164.507 246.571 164.525 246.425C164.543 246.279 164.591 246.137 164.665 246.01C164.74 245.883 164.84 245.772 164.959 245.685C165.078 245.598 165.213 245.536 165.357 245.503C165.501 245.471 165.65 245.468 165.795 245.494C165.94 245.521 166.078 245.578 166.2 245.66C167.33 246.329 168.499 246.93 169.7 247.46C176.39 250.46 182.56 250.28 188.04 247C205.5 236.56 212.93 196.92 214.57 175.14C214.581 175 214.619 174.863 214.682 174.737C214.746 174.611 214.833 174.499 214.94 174.407C215.047 174.315 215.171 174.245 215.304 174.201C215.438 174.157 215.579 174.14 215.72 174.15C215.861 174.161 215.998 174.199 216.123 174.262C216.249 174.326 216.361 174.413 216.453 174.52C216.545 174.627 216.615 174.751 216.659 174.885C216.703 175.018 216.721 175.16 216.71 175.3C215.666 189.042 213.2 202.638 209.35 215.87C204.2 232.82 197.41 243.87 189.15 248.87C186.059 250.753 182.509 251.75 178.89 251.75V251.75Z" fill="#5D7287"/>
</g>
<g style="mix-blend-mode:multiply" opacity="0.13">
<path d="M136.53 145.7C136.264 145.692 136.011 145.586 135.819 145.402C135.627 145.219 135.509 144.971 135.487 144.706C135.466 144.441 135.544 144.178 135.705 143.966C135.866 143.755 136.099 143.61 136.36 143.56C148.01 141.71 157.16 138.9 165.15 134.72C177.45 128.27 199.79 120.58 211.3 141.49C211.391 141.615 211.454 141.758 211.485 141.91C211.516 142.062 211.514 142.218 211.479 142.369C211.444 142.52 211.377 142.661 211.282 142.784C211.188 142.907 211.068 143.007 210.932 143.08C210.795 143.152 210.644 143.194 210.49 143.203C210.335 143.212 210.18 143.188 210.036 143.132C209.892 143.076 209.761 142.99 209.653 142.879C209.545 142.768 209.462 142.636 209.41 142.49C203.84 132.38 191.82 123.14 166.15 136.59C157.95 140.89 148.59 143.77 136.7 145.66L136.53 145.7Z" fill="#5D7287"/>
</g>
<g style="mix-blend-mode:multiply" opacity="0.13">
<path d="M161.19 131.68C160.997 131.681 160.808 131.629 160.642 131.531C160.477 131.432 160.341 131.29 160.25 131.12C160.182 130.996 160.138 130.86 160.123 130.719C160.107 130.578 160.12 130.436 160.16 130.3C160.2 130.164 160.267 130.038 160.356 129.928C160.445 129.818 160.555 129.727 160.68 129.66L161.68 129.12C161.931 129.008 162.215 128.995 162.475 129.085C162.735 129.175 162.951 129.361 163.078 129.605C163.206 129.848 163.236 130.132 163.162 130.396C163.088 130.661 162.915 130.888 162.68 131.03L161.68 131.55C161.531 131.635 161.362 131.68 161.19 131.68Z" fill="#5D7287"/>
</g>
<g style="mix-blend-mode:multiply" opacity="0.13">
<path d="M118 231.7C117.846 231.699 117.695 231.666 117.555 231.602C117.415 231.539 117.291 231.446 117.19 231.33C109.83 222.82 103.86 213.09 95.6 199.63C91.75 193.34 87.38 186.21 82.08 177.92C82.0038 177.801 81.9518 177.669 81.9269 177.53C81.9021 177.391 81.9048 177.248 81.935 177.11C81.9651 176.972 82.0222 176.842 82.1028 176.726C82.1835 176.61 82.2862 176.511 82.405 176.435C82.5239 176.359 82.6565 176.307 82.7955 176.282C82.9344 176.257 83.0769 176.26 83.2148 176.29C83.3527 176.32 83.4833 176.377 83.5992 176.458C83.715 176.539 83.8138 176.641 83.89 176.76C89.2 185.07 93.58 192.21 97.44 198.5C105.64 211.88 111.57 221.5 118.82 229.92C119.006 230.136 119.099 230.418 119.079 230.703C119.058 230.988 118.926 231.253 118.71 231.44C118.51 231.606 118.26 231.697 118 231.7V231.7Z" fill="#5D7287"/>
</g>
<g style="mix-blend-mode:multiply" opacity="0.13">
<path d="M177.36 270C172.36 270 167.02 268.39 161.46 265.18L160.64 264.69C160.519 264.618 160.413 264.523 160.329 264.41C160.245 264.297 160.184 264.168 160.15 264.032C160.115 263.895 160.108 263.753 160.129 263.614C160.15 263.475 160.198 263.341 160.27 263.22C160.417 262.975 160.656 262.798 160.934 262.729C161.211 262.66 161.505 262.703 161.75 262.85L162.53 263.31C171.62 268.56 179.92 269.25 187.21 265.31C196.98 260.08 205.36 246.31 211.44 225.44C217.83 203.51 219.62 181.36 220.02 175.09C220.029 174.949 220.065 174.812 220.128 174.686C220.19 174.559 220.276 174.446 220.382 174.353C220.488 174.26 220.611 174.189 220.745 174.144C220.878 174.099 221.019 174.081 221.16 174.09C221.443 174.111 221.707 174.242 221.894 174.455C222.081 174.668 222.177 174.947 222.16 175.23C220.36 203.6 211.16 254.91 188.22 267.23C184.888 269.045 181.154 269.997 177.36 270V270Z" fill="#5D7287"/>
</g>
<g style="mix-blend-mode:multiply" opacity="0.13">
<path d="M216 140.7C215.791 140.704 215.586 140.648 215.408 140.538C215.231 140.428 215.089 140.269 215 140.08C209.33 128 200.1 122.21 187.55 123C187.277 122.998 187.014 122.893 186.816 122.706C186.617 122.519 186.497 122.263 186.479 121.99C186.461 121.718 186.547 121.449 186.72 121.237C186.893 121.025 187.139 120.887 187.41 120.85C200.74 120.03 210.95 126.36 216.94 139.16C217.06 139.42 217.073 139.717 216.975 139.987C216.878 140.256 216.679 140.477 216.42 140.6C216.287 140.658 216.145 140.692 216 140.7V140.7Z" fill="#5D7287"/>
</g>
<g style="mix-blend-mode:multiply" opacity="0.13">
<path d="M117.9 254.54C117.635 254.541 117.379 254.445 117.18 254.27C105.5 243.86 98.09 233.68 88.48 218.54C88.3903 218.421 88.3263 218.284 88.2921 218.139C88.2578 217.994 88.254 217.843 88.2809 217.696C88.3078 217.55 88.3648 217.41 88.4484 217.286C88.5319 217.163 88.6402 217.058 88.7663 216.978C88.8924 216.898 89.0337 216.846 89.1813 216.823C89.3288 216.801 89.4793 216.809 89.6234 216.848C89.7675 216.887 89.902 216.955 90.0185 217.048C90.1349 217.141 90.2308 217.258 90.3 217.39C99.8 232.39 107.13 242.39 118.61 252.66C118.771 252.806 118.884 252.996 118.934 253.207C118.985 253.418 118.972 253.639 118.895 253.842C118.818 254.045 118.682 254.22 118.505 254.344C118.328 254.469 118.117 254.537 117.9 254.54V254.54Z" fill="#5D7287"/>
</g>
<g style="mix-blend-mode:multiply" opacity="0.13">
<path d="M175.83 288.29C169.66 288.29 163.08 286.15 156.17 281.9C152.07 279.37 148.24 276.95 144.78 274.7C144.662 274.623 144.56 274.524 144.48 274.408C144.4 274.291 144.344 274.161 144.315 274.023C144.286 273.885 144.284 273.743 144.31 273.604C144.335 273.465 144.388 273.333 144.465 273.215C144.542 273.097 144.641 272.995 144.757 272.915C144.874 272.835 145.004 272.779 145.142 272.75C145.28 272.721 145.422 272.719 145.561 272.745C145.7 272.77 145.832 272.823 145.95 272.9C149.4 275.14 153.22 277.55 157.3 280.06C168.3 286.82 178.3 287.93 187.01 283.35C213.6 269.42 223.79 206.23 225.47 174.76C225.493 174.48 225.623 174.219 225.834 174.033C226.045 173.847 226.319 173.749 226.6 173.76C226.882 173.778 227.146 173.907 227.333 174.119C227.52 174.33 227.616 174.608 227.6 174.89C227.21 182.34 225.33 208.71 217.88 235.48C210.49 262 200.43 278.76 187.98 285.28C184.238 287.264 180.065 288.297 175.83 288.29V288.29Z" fill="#5D7287"/>
</g>
<g style="mix-blend-mode:multiply" opacity="0.13">
<path d="M221 137.29C220.789 137.291 220.583 137.232 220.405 137.118C220.228 137.005 220.087 136.842 220 136.65C215.34 126.05 208.3 119.45 199.07 117.01C198.795 116.935 198.56 116.754 198.418 116.507C198.275 116.259 198.237 115.966 198.31 115.69C198.346 115.554 198.408 115.427 198.494 115.315C198.579 115.203 198.686 115.109 198.807 115.038C198.929 114.968 199.063 114.922 199.203 114.903C199.342 114.885 199.484 114.894 199.62 114.93C209.52 117.54 217.04 124.56 221.97 135.78C222.028 135.909 222.06 136.049 222.064 136.19C222.067 136.332 222.043 136.473 221.992 136.605C221.941 136.737 221.864 136.858 221.766 136.96C221.667 137.062 221.55 137.144 221.42 137.2C221.287 137.257 221.145 137.288 221 137.29V137.29Z" fill="#5D7287"/>
</g>
<g style="mix-blend-mode:multiply" opacity="0.13">
<path d="M81.08 205.74C80.8984 205.741 80.7195 205.695 80.5603 205.608C80.4011 205.52 80.2668 205.394 80.17 205.24C75.72 198.09 70.46 189.66 64.17 180.02C64.0149 179.777 63.9625 179.483 64.0243 179.202C64.0862 178.92 64.2573 178.675 64.5 178.52C64.7427 178.365 65.037 178.312 65.3184 178.374C65.5997 178.436 65.8449 178.607 66 178.85C72.29 188.51 77.57 196.95 82 204.1C82.1021 204.262 82.1588 204.449 82.1641 204.64C82.1694 204.832 82.1231 205.022 82.0301 205.189C81.9371 205.357 81.8008 205.496 81.6354 205.593C81.47 205.69 81.2817 205.741 81.09 205.74H81.08Z" fill="#5D7287"/>
</g>
<g style="mix-blend-mode:multiply" opacity="0.13">
<path d="M174.31 306.56C167.22 306.56 159.65 304.06 151.71 299.09C134.15 288.09 122.02 279.63 112.37 271.63C112.247 271.545 112.142 271.434 112.064 271.306C111.985 271.178 111.934 271.036 111.914 270.887C111.894 270.738 111.905 270.587 111.947 270.442C111.989 270.298 112.06 270.164 112.156 270.049C112.252 269.934 112.372 269.84 112.506 269.774C112.641 269.707 112.788 269.669 112.938 269.663C113.088 269.656 113.238 269.681 113.377 269.736C113.517 269.791 113.644 269.874 113.75 269.98C123.32 277.91 135.38 286.33 152.85 297.27C164.29 304.43 174.85 306.21 184.14 302.55C199.02 296.71 211.48 276.55 220.14 244.36C220.23 244.103 220.414 243.889 220.655 243.762C220.896 243.635 221.177 243.604 221.44 243.674C221.703 243.745 221.93 243.913 222.075 244.144C222.219 244.375 222.271 244.652 222.22 244.92C213.22 278.3 200.66 298.37 184.89 304.56C181.52 305.884 177.931 306.562 174.31 306.56V306.56Z" fill="#5D7287"/>
</g>
<g style="mix-blend-mode:multiply" opacity="0.13">
<path d="M228.2 212.06H228C227.718 212.016 227.465 211.861 227.296 211.631C227.127 211.4 227.057 211.112 227.1 210.83C229.033 198.574 230.305 186.223 230.91 173.83C230.945 173.562 231.079 173.317 231.285 173.143C231.492 172.969 231.756 172.878 232.026 172.889C232.296 172.901 232.552 173.013 232.744 173.204C232.935 173.395 233.048 173.65 233.06 173.92C232.452 186.403 231.174 198.844 229.23 211.19C229.184 211.431 229.057 211.649 228.869 211.808C228.682 211.966 228.445 212.055 228.2 212.06Z" fill="#5D7287"/>
</g>
<g style="mix-blend-mode:multiply" opacity="0.13">
<path d="M225.52 132.74C225.309 132.743 225.102 132.683 224.924 132.57C224.746 132.456 224.606 132.293 224.52 132.1C220.58 123.22 215.08 116.8 208.18 113.01C207.97 112.857 207.822 112.634 207.763 112.38C207.704 112.127 207.739 111.861 207.861 111.631C207.982 111.402 208.182 111.223 208.425 111.13C208.667 111.036 208.935 111.032 209.18 111.12C216.5 115.12 222.31 121.9 226.45 131.23C226.508 131.359 226.54 131.499 226.544 131.64C226.547 131.782 226.523 131.923 226.472 132.055C226.421 132.187 226.344 132.308 226.246 132.41C226.147 132.512 226.03 132.594 225.9 132.65C225.78 132.702 225.651 132.733 225.52 132.74V132.74Z" fill="#5D7287"/>
</g>
<g style="mix-blend-mode:multiply" opacity="0.13">
<path d="M58.79 200.51C58.6084 200.511 58.4295 200.465 58.2703 200.378C58.1111 200.29 57.9768 200.164 57.88 200.01C53.88 193.73 50.07 187.88 46.27 182.13C37.27 168.6 33.44 159.18 34.07 152.5C34.0704 152.35 34.1023 152.201 34.1636 152.063C34.2248 151.926 34.3141 151.803 34.4257 151.702C34.5373 151.601 34.6688 151.525 34.8117 151.478C34.9546 151.43 35.1057 151.414 35.2555 151.428C35.4052 151.443 35.5502 151.489 35.6812 151.563C35.8122 151.637 35.9263 151.737 36.0162 151.858C36.1061 151.979 36.1697 152.117 36.2031 152.264C36.2365 152.41 36.2388 152.562 36.21 152.71C35.63 158.79 39.51 168.02 48.06 180.94C51.88 186.7 55.68 192.56 59.69 198.86C59.7658 198.979 59.8174 199.111 59.8418 199.25C59.8663 199.389 59.8631 199.531 59.8324 199.669C59.8018 199.806 59.7442 199.936 59.6632 200.051C59.5821 200.167 59.4791 200.265 59.36 200.34C59.189 200.448 58.9919 200.506 58.79 200.51V200.51Z" fill="#5D7287"/>
</g>
<g style="mix-blend-mode:multiply" opacity="0.13">
<path d="M172.81 324.87C164.81 324.87 156.26 322.02 147.28 316.32C107 290.8 89.56 275.86 72.72 252.39C72.5721 252.157 72.5187 251.877 72.5709 251.606C72.623 251.336 72.7766 251.095 73.0003 250.934C73.224 250.773 73.5009 250.704 73.7741 250.74C74.0473 250.776 74.2963 250.916 74.47 251.13C91.12 274.34 108.4 289.13 148.47 314.51C161.18 322.51 172.88 324.7 183.25 320.87C198.9 315.1 211.79 296.13 221.55 264.5C221.637 264.229 221.828 264.002 222.08 263.87C222.332 263.737 222.627 263.708 222.9 263.79C223.035 263.831 223.16 263.898 223.269 263.988C223.377 264.078 223.467 264.188 223.533 264.313C223.599 264.437 223.64 264.573 223.653 264.714C223.666 264.854 223.652 264.995 223.61 265.13C213.61 297.44 200.31 316.87 184 322.89C180.418 324.211 176.628 324.881 172.81 324.87V324.87Z" fill="#5D7287"/>
</g>
<g style="mix-blend-mode:multiply" opacity="0.13">
<path d="M235.73 198H235.62C235.476 197.99 235.336 197.951 235.207 197.886C235.079 197.821 234.964 197.731 234.871 197.621C234.778 197.511 234.708 197.383 234.665 197.246C234.621 197.108 234.606 196.964 234.62 196.82C235.47 188.75 236.06 180.89 236.33 174.1C236.348 173.82 236.476 173.558 236.685 173.371C236.895 173.184 237.169 173.086 237.45 173.1C237.729 173.121 237.99 173.249 238.176 173.458C238.363 173.667 238.461 173.94 238.45 174.22C238.18 181.05 237.59 188.96 236.73 197.07C236.698 197.317 236.58 197.545 236.398 197.715C236.215 197.885 235.979 197.986 235.73 198Z" fill="#5D7287"/>
</g>
<g style="mix-blend-mode:multiply" opacity="0.13">
<path d="M229.82 127.69C229.61 127.694 229.404 127.636 229.226 127.524C229.049 127.412 228.907 127.251 228.82 127.06C226.082 120.739 221.985 115.098 216.82 110.54C216.712 110.449 216.624 110.337 216.559 110.212C216.495 110.086 216.455 109.949 216.444 109.808C216.432 109.668 216.448 109.526 216.491 109.392C216.535 109.257 216.604 109.133 216.695 109.025C216.786 108.917 216.898 108.829 217.023 108.764C217.149 108.7 217.286 108.66 217.427 108.649C217.567 108.637 217.709 108.653 217.843 108.697C217.978 108.74 218.102 108.809 218.21 108.9C223.629 113.656 227.931 119.55 230.81 126.16C230.926 126.42 230.936 126.716 230.837 126.983C230.738 127.25 230.538 127.468 230.28 127.59C230.137 127.66 229.979 127.694 229.82 127.69V127.69Z" fill="#5D7287"/>
</g>
<g style="mix-blend-mode:multiply" opacity="0.13">
<path d="M200.66 328.54C200.451 328.542 200.246 328.482 200.07 328.368C199.895 328.254 199.757 328.092 199.672 327.9C199.588 327.709 199.562 327.497 199.597 327.29C199.633 327.084 199.727 326.893 199.87 326.74C209.47 316.15 217.82 299.74 224.68 277.95C224.806 277.742 224.999 277.582 225.227 277.497C225.456 277.412 225.706 277.407 225.938 277.482C226.169 277.558 226.369 277.709 226.503 277.912C226.638 278.115 226.7 278.357 226.68 278.6C219.73 300.69 211.23 317.37 201.41 328.18C201.316 328.288 201.201 328.376 201.072 328.437C200.943 328.499 200.803 328.534 200.66 328.54V328.54Z" fill="#5D7287"/>
</g>
<g style="mix-blend-mode:multiply" opacity="0.13">
<path d="M242.17 187.18H242.09C241.805 187.16 241.54 187.027 241.353 186.812C241.165 186.596 241.071 186.315 241.09 186.03C241.39 181.94 241.6 178.03 241.74 174.48C241.774 174.212 241.907 173.967 242.113 173.792C242.318 173.618 242.582 173.526 242.852 173.537C243.121 173.547 243.377 173.657 243.57 173.847C243.762 174.036 243.876 174.291 243.89 174.56C243.75 178.16 243.53 182.07 243.24 186.19C243.218 186.459 243.095 186.71 242.897 186.893C242.699 187.076 242.44 187.178 242.17 187.18V187.18Z" fill="#5D7287"/>
</g>
<g style="mix-blend-mode:multiply" opacity="0.13">
<path d="M232.42 119.31C232.226 119.313 232.034 119.262 231.866 119.163C231.699 119.064 231.562 118.922 231.47 118.75C230.114 116.23 228.57 113.817 226.85 111.53C226.754 111.418 226.682 111.288 226.639 111.147C226.595 111.006 226.581 110.858 226.597 110.711C226.613 110.565 226.658 110.423 226.731 110.295C226.804 110.167 226.902 110.055 227.019 109.966C227.137 109.877 227.271 109.813 227.414 109.778C227.558 109.744 227.706 109.738 227.852 109.763C227.997 109.788 228.136 109.842 228.259 109.922C228.383 110.003 228.488 110.107 228.57 110.23C230.353 112.602 231.955 115.106 233.36 117.72C233.451 117.883 233.497 118.067 233.495 118.254C233.492 118.441 233.441 118.624 233.346 118.785C233.251 118.945 233.115 119.078 232.953 119.171C232.791 119.263 232.607 119.311 232.42 119.31Z" fill="#5D7287"/>
</g>
<g style="mix-blend-mode:multiply" opacity="0.13">
<path d="M128.69 324.08C128.48 324.079 128.275 324.017 128.1 323.9C121.1 319.2 114.92 314.9 109.33 310.82C88.64 295.65 75.63 283.11 62.93 266.09C62.7733 265.86 62.7116 265.578 62.7576 265.304C62.8036 265.029 62.9539 264.783 63.1771 264.616C63.4003 264.45 63.6792 264.376 63.9555 264.41C64.2317 264.445 64.4842 264.584 64.66 264.8C77.21 281.63 90.1 294.05 110.6 309.09C116.17 313.17 122.28 317.43 129.29 322.09C129.502 322.209 129.667 322.397 129.758 322.622C129.849 322.848 129.86 323.097 129.79 323.33C129.721 323.563 129.574 323.765 129.374 323.903C129.174 324.041 128.932 324.107 128.69 324.09V324.08Z" fill="#5D7287"/>
</g>
</g>
</g>
<defs>
<clipPath id="clip0">
<rect width="304" height="431.08" fill="white"/>
</clipPath>
</defs>
</svg>
