
<svg width="35" height="26" viewBox="0 0 35 26" style="font-size: 1.1em" fill="none" xmlns="http://www.w3.org/2000/svg">
<path fill-rule="evenodd" clip-rule="evenodd" d="M33.8965 4.99353C32.7585 6.13147 30.8956 6.13147 29.7576 4.99353C28.6186 3.85449 28.6186 1.99255 29.7576 0.853516C30.8956 -0.284546 32.7585 -0.284546 33.8965 0.853516C35.0345 1.99255 35.0345 3.85449 33.8965 4.99353ZM22.6865 7.92517C23.8245 6.78711 25.6875 6.78711 26.8255 7.92517C27.9645 9.06311 27.9645 10.9261 26.8255 12.0642L13.7875 25.1022C12.6495 26.2401 10.7865 26.2401 9.6485 25.1022L0.853516 16.3071C-0.284485 15.1692 -0.284485 13.3062 0.853516 12.1682C1.99249 11.0292 3.85449 11.0292 4.99249 12.1682L11.7185 18.8932L22.6865 7.92517Z" transform="translate(0.00012207 -0.000244141)" fill="#FD55D8"/>
</svg>
