<svg xmlns="http://www.w3.org/2000/svg" viewBox="0 0 351.39 310.57"><defs><style>.cls-1{isolation:isolate;}.cls-2{fill:#e7edf5;}.cls-10,.cls-3,.cls-4,.cls-5{fill:none;stroke-linecap:round;}.cls-3,.cls-4,.cls-5{stroke:#6240b8;stroke-linejoin:round;}.cls-3{stroke-width:4.97px;}.cls-4{stroke-width:3.07px;stroke-dasharray:4.61 4.61 1.54;}.cls-5{stroke-width:4.6px;stroke-dasharray:1.15 5.75;}.cls-6{fill:#5d7287;}.cls-7{fill:#ffbd26;}.cls-8{fill:#ff4eda;}.cls-9{opacity:0.13;mix-blend-mode:multiply;}.cls-10{stroke:#5d7287;stroke-miterlimit:10;stroke-width:3px;}</style></defs><title>Lumi - Hi5</title><g class="cls-1"><g id="Lumi_-_Hi5" data-name="Lumi - Hi5"><path class="cls-2" d="M322,314.83a217,217,0,0,1-36.77-29.48c-5-5-10.32-10.48-17.31-11.16-1.7-.16-3.51,0-5.05-.8-3-1.51-3.54-5.74-2.53-9,1.9-6.11,7.61-11,7.6-17.4a29.28,29.28,0,0,1-.09-4c.26-2.07,1.54-3.84,2.45-5.72a33.61,33.61,0,0,0,2.5-9.62,23.27,23.27,0,0,0,.4-5.7c-.26-2.54-1.36-4.91-2.19-7.32-5.13-14.8.57-32.66,13.32-41.75a278.74,278.74,0,0,0-3.17,46.26c.12,7.33.51,14.69-.47,22s-3.49,14.53-8.46,19.91q27.62,19.17,56.36,36.62a4.18,4.18,0,0,1,2,2,4,4,0,0,1-.07,2.21,42.1,42.1,0,0,1-7.12,15.37" transform="translate(-40.76 -60.11)"/><path class="cls-2" d="M237.42,188.41c-2.82-.34-6.09-.52-8,1.53-1.55,1.64-1.7,4.19-3,6.05-1.84,2.64-5.44,3.25-8.64,3.64s-6.79,1-8.62,3.67c-1.2,1.75-1.47,4.2-3.23,5.4-1.39,1-3.23.75-4.92.72a14.53,14.53,0,0,0-7.89,1.91,9.19,9.19,0,0,0-4.46,6.58c-.38,3.27,1.37,6.59.65,9.8-.26,1.2-.87,2.36-.76,3.58.18,2.21,2.51,3.54,4.63,4.19a24.92,24.92,0,0,0,5.19,1,6.34,6.34,0,0,0,4.55-.94c1.45-1.17,1.76-3.22,2.48-4.95a10.19,10.19,0,0,1,8.9-6.16c2-.06,4.1.42,5.77-.6,2.44-1.49,2.27-5,3.19-7.71a9,9,0,0,1,8.31-5.94c1.19,0,2.57.19,3.42-.65,1.43-1.4-.14-3.82.24-5.78.49-2.58,3.9-3.21,5.71-5.11a7.94,7.94,0,0,0,1.68-3.07,6.86,6.86,0,0,0,.31-4.35,3,3,0,0,0-3.41-2.12" transform="translate(-40.76 -60.11)"/><path class="cls-2" d="M247,180.31a19.62,19.62,0,0,0-.11-8.66,11.3,11.3,0,0,0-5-6.89c1.66-2.91,2.93-6.4,1.81-9.55a8.93,8.93,0,0,0-4.51-4.78,19.56,19.56,0,0,0-6.48-1.72,16.17,16.17,0,0,0-7.24-20.14c.54,9.11,4.39,17.66,8.19,26l3,6.58c3.08,6.73,6.16,13.47,9.8,19.92" transform="translate(-40.76 -60.11)"/><path class="cls-2" d="M143.89,180.89c4.19,9.67,8.48,20,6.67,30.41-.52,3-1.57,6-1.77,9.07-.44,6.53,2.92,12.67,6.54,18.11s7.73,10.85,9.11,17.24-1,14.19-7.05,16.6c-1.82.73-3.86.93-5.51,2-2.37,1.53-3.37,4.43-4.47,7-6.34,14.89-20.5,24.84-34.61,32.75-11.51,6.45-24.7,12.26-37.51,9.11A74,74,0,0,0,96.86,351a5.72,5.72,0,0,0,2.79,1.44,5.85,5.85,0,0,0,3.17-.88c9.09-4.65,17.25-10.88,25.55-16.83a510.14,510.14,0,0,1,60.45-37.28c8.33-4.36,17.23-8.9,22.06-17a4.45,4.45,0,0,0,.86-2.93,4.85,4.85,0,0,0-1.5-2.38c-8-8.44-16.8-16.83-20.82-27.78-4.09-11.17-2.95-24.32-9.75-34.09a3.21,3.21,0,0,0-1.45-1.33,3.49,3.49,0,0,0-2.3.26l-10.87,3.87c.37-9.94-.11-22.34-4.69-31.18a15.85,15.85,0,0,0-16-7.9" transform="translate(-40.76 -60.11)"/><path class="cls-3" d="M132.47,225.61c5.53-24.59,9.39-43.05,6.43-49.79,0,0,20.84-4.78,20.62,25.18s18,18.35,20.52,56.89" transform="translate(-40.76 -60.11)"/><path class="cls-4" d="M142.59,273.3s-17.26-16.06-11.18-43" transform="translate(-40.76 -60.11)"/><path class="cls-3" d="M127.72,266.68s-41.07,21.06-60.93,28.44" transform="translate(-40.76 -60.11)"/><path class="cls-3" d="M279.15,224.42c-2.93-23.09-1.3-44.91,3.26-52.94,0,0-22.48-4.56-23.89,21.27" transform="translate(-40.76 -60.11)"/><path class="cls-5" d="M259.83,268.09S278.31,251,279.37,230.5" transform="translate(-40.76 -60.11)"/><path class="cls-3" d="M263.3,217.4s-35.39-63.18-43.64-105.19c0,0-27.35,8.79,8.69,74" transform="translate(-40.76 -60.11)"/><path class="cls-4" d="M193.3,158.7c3.29,10.27,8.64,22.74,16.92,37.85" transform="translate(-40.76 -60.11)"/><path class="cls-3" d="M203.6,120.89l-4.89-8.68s-15.81,6.05-7.49,39.23" transform="translate(-40.76 -60.11)"/><path class="cls-3" d="M195.24,209.25c-32.9-66-15.2-76.85-15.2-76.85l1.58,3.39" transform="translate(-40.76 -60.11)"/><path class="cls-3" d="M238.92,302c8.92,8.36,20.93,20.05,38,37.29" transform="translate(-40.76 -60.11)"/><path class="cls-5" d="M184.88,237.35c6,15.29,13.27,29.67,29.14,42.79,5.18,4.29,10.79,8.83,20.65,17.91" transform="translate(-40.76 -60.11)"/><path class="cls-3" d="M169.62,164.8s-13.68,8,.76,36.75c5.1,10.17,8.58,20.1,12.17,29.7" transform="translate(-40.76 -60.11)"/><path class="cls-3" d="M274.81,263.75s29.44,21.33,49,29" transform="translate(-40.76 -60.11)"/><path class="cls-3" d="M146.75,317.23,161.26,307c13.68-9.66,22.14-10.2,40.92-26.38" transform="translate(-40.76 -60.11)"/><path class="cls-5" d="M101.62,349.29s22-15.68,40.15-28.52" transform="translate(-40.76 -60.11)"/><path class="cls-3" d="M251,173.65a18.43,18.43,0,0,0-5.16-11.51c.22-1.19,3.59-12.16-8.14-17,1-4-.6-13.4-6.49-17" transform="translate(-40.76 -60.11)"/><line class="cls-3" x1="160.12" y1="163.15" x2="163.37" y2="160.65"/><line class="cls-3" x1="175.7" y1="152.14" x2="178.95" y2="149.64"/><line class="cls-3" x1="191.27" y1="141.13" x2="194.53" y2="138.63"/><path class="cls-3" d="M313.19,324.17a106.94,106.94,0,0,0,8.24-10c23.48-32.21,22.35-68.43-2.51-80.89-9.21-4.62-20.38-5.33-32-2.76" transform="translate(-40.76 -60.11)"/><path class="cls-4" d="M218.23,294c-8.19,24.18-2.85,46.65,15.68,55.94,20.15,10.11,49.72,1.51,72.7-19.27" transform="translate(-40.76 -60.11)"/><path class="cls-3" d="M79.77,338.3c25.08,31,60.37,39.21,78.81,18.4,9.44-10.65,12.64-26.84,10.15-44.26" transform="translate(-40.76 -60.11)"/><path class="cls-4" d="M61.37,254.47c-7.21,15.93-5.78,38,3.34,59a108.21,108.21,0,0,0,10.58,18.86" transform="translate(-40.76 -60.11)"/><path class="cls-3" d="M123.28,242.14c-20.53-12.53-42.34-12.5-55.53,2.39a36.35,36.35,0,0,0-3.17,4.12" transform="translate(-40.76 -60.11)"/><path class="cls-3" d="M232,93.24a1.1,1.1,0,0,1,.54-.9L243,86.88c.3-.16.54,0,.54.33v11.9a1.12,1.12,0,0,1-.54.9l-10.4,5.46c-.3.16-.54,0-.54-.33Z" transform="translate(-40.76 -60.11)"/><path class="cls-6" d="M227.25,67.39a.85.85,0,0,1,.17-.77l6.05-6.4a.25.25,0,0,1,.46.1l2.89,8.45a.82.82,0,0,1-.16.77l-6,6.4a.26.26,0,0,1-.47-.1Z" transform="translate(-40.76 -60.11)"/><path class="cls-3" d="M161.25,136.15a.91.91,0,0,0-.45-.74L152.35,131c-.25-.13-.45,0-.45.27v9.68a.91.91,0,0,0,.45.74l8.45,4.44c.25.13.45,0,.45-.27Z" transform="translate(-40.76 -60.11)"/><path class="cls-2" d="M169.49,84.13a1.06,1.06,0,0,0-.3-.92l-8.1-7a.31.31,0,0,0-.55.18L158,86.94a1,1,0,0,0,.3.91l8.09,7.05a.31.31,0,0,0,.56-.18Z" transform="translate(-40.76 -60.11)"/><path class="cls-7" d="M258.91,131.59a.62.62,0,0,0-.17-.53L254.07,127a.18.18,0,0,0-.32.1l-1.44,6.11a.59.59,0,0,0,.17.53l4.66,4.06c.14.11.28.07.32-.11Z" transform="translate(-40.76 -60.11)"/><ellipse class="cls-2" cx="246.48" cy="119.6" rx="4.86" ry="3.26" transform="translate(-23.67 209.29) rotate(-59.03)"/><ellipse class="cls-7" cx="211.57" cy="85.53" rx="9.57" ry="6.43" transform="translate(53.78 221.34) rotate(-81.16)"/><ellipse class="cls-3" cx="180.04" cy="100.9" rx="3.26" ry="4.86" transform="translate(-67.02 46.92) rotate(-30.97)"/><ellipse class="cls-3" cx="267.05" cy="116.7" rx="4.86" ry="3.26" transform="translate(-25.35 203.61) rotate(-53.9)"/><ellipse class="cls-8" cx="257.36" cy="87.73" rx="4.86" ry="3.26" transform="translate(-21.3 159.28) rotate(-47.79)"/><ellipse class="cls-8" cx="152.27" cy="110.21" rx="8.72" ry="12.98" transform="translate(-43.72 156.1) rotate(-70.22)"/><line class="cls-3" x1="122.11" y1="154.7" x2="127.29" y2="152.14"/><g class="cls-9"><path class="cls-6" d="M136.2,239.82c-3.76,0-6.73-1-8.18-3.07a5.72,5.72,0,0,1-.83-4.49c.85-4.49,5.89-10.15,13.48-15.15a39.42,39.42,0,0,1,14.25-6,1.51,1.51,0,0,1,1.73,1.24,1.5,1.5,0,0,1-1.24,1.72,36.29,36.29,0,0,0-13.1,5.58c-6.71,4.42-11.49,9.6-12.17,13.2a2.73,2.73,0,0,0,.34,2.21c2.11,3,12.23,2.34,21.64-3A33,33,0,0,0,158.9,227a1.5,1.5,0,1,1,2.11,2.14,36.12,36.12,0,0,1-7.4,5.52C147.61,238,141.21,239.82,136.2,239.82Z" transform="translate(-40.76 -60.11)"/><path class="cls-6" d="M144.67,251.07a39.93,39.93,0,0,1-6.7-.56c-9.19-1.54-16.59-6.1-18.88-9.6a1.5,1.5,0,0,1,2.51-1.65c1.66,2.55,8,6.81,16.86,8.29,7.44,1.25,18.74.85,30.34-8.15a97.13,97.13,0,0,0,9.79-9.25,1.5,1.5,0,0,1,2.22,2,101.87,101.87,0,0,1-10.13,9.57C161.29,249,152.08,251.07,144.67,251.07Z" transform="translate(-40.76 -60.11)"/><path class="cls-6" d="M119.15,235.79l-.24,0a1.5,1.5,0,0,1-1.24-1.72c1.35-8.38,11.33-17.66,27.39-25.47A161.83,161.83,0,0,0,162,199a1.5,1.5,0,0,1,1.62,2.53,166.09,166.09,0,0,1-17.2,9.8c-15,7.26-24.57,16-25.74,23.24A1.5,1.5,0,0,1,119.15,235.79Z" transform="translate(-40.76 -60.11)"/><path class="cls-6" d="M151.61,263.12c-18.2,0-33.08-9.15-38.73-14.48a1.5,1.5,0,1,1,2.06-2.18c8.67,8.17,40.33,25.83,71.12.63,1.67-1.51,3.35-3.1,4.95-4.68a1.5,1.5,0,0,1,2.11,2.14c-1.63,1.61-3.35,3.23-5.11,4.81C175.54,259.57,162.93,263.12,151.61,263.12Z" transform="translate(-40.76 -60.11)"/><path class="cls-6" d="M111,232.62a1.47,1.47,0,0,1-.67-.16,1.5,1.5,0,0,1-.67-2c5-10.12,18.52-20.59,39-30.28a127.84,127.84,0,0,0,20.93-12.61,1.5,1.5,0,0,1,1.77,2.43A131.88,131.88,0,0,1,150,202.88c-25.1,11.87-34.3,22.27-37.6,28.91A1.5,1.5,0,0,1,111,232.62Z" transform="translate(-40.76 -60.11)"/><path class="cls-6" d="M159.41,275.05a82.11,82.11,0,0,1-19-2.29c-20.1-5-32.11-15.1-36.34-19.21a1.5,1.5,0,0,1,2.09-2.16c4,4,15.58,13.63,35,18.45,15.27,3.64,37.93,4.57,59.06-11.68,1.24-1,2.5-2.08,3.74-3.23a1.5,1.5,0,0,1,2,2.2c-1.29,1.2-2.61,2.34-3.93,3.39A68.52,68.52,0,0,1,159.41,275.05Z" transform="translate(-40.76 -60.11)"/><path class="cls-6" d="M101.91,232.86a1.57,1.57,0,0,1-.72-.18,1.51,1.51,0,0,1-.6-2c6.84-12.66,24.09-25.81,51.27-39.09a133.69,133.69,0,0,0,27.73-18.38,1.5,1.5,0,1,1,1.95,2.28,136.22,136.22,0,0,1-28.37,18.8c-26.22,12.81-43.5,25.89-49.94,37.82A1.51,1.51,0,0,1,101.91,232.86Z" transform="translate(-40.76 -60.11)"/><path class="cls-6" d="M265.52,187.23h-.07a1.5,1.5,0,0,1-1.43-1.56c.52-11.35-.69-23.76-3.93-40.25a1.5,1.5,0,1,1,2.94-.58c3.29,16.73,4.52,29.37,4,41A1.5,1.5,0,0,1,265.52,187.23Z" transform="translate(-40.76 -60.11)"/><path class="cls-6" d="M167.16,287a104.43,104.43,0,0,1-28.6-4.18c-24-7.15-38-19-44.25-25.48a1.5,1.5,0,1,1,2.15-2.08c6.05,6.23,19.66,17.73,42.94,24.68,20.06,5.7,49.81,8.19,77.56-12.4,1.93-1.5,3.82-3.12,5.59-4.8a1.5,1.5,0,0,1,2.06,2.18c-1.84,1.74-3.8,3.43-5.83,5A85.54,85.54,0,0,1,167.16,287Z" transform="translate(-40.76 -60.11)"/><path class="cls-6" d="M92.13,234.38a1.46,1.46,0,0,1-.7-.18,1.49,1.49,0,0,1-.63-2c8.08-15.2,29.54-31.84,63.8-49.47,14.05-7.14,27.71-17.74,39.5-30.65a1.5,1.5,0,1,1,2.21,2A144.1,144.1,0,0,1,156,185.39c-33.69,17.33-54.73,33.55-62.51,48.19A1.5,1.5,0,0,1,92.13,234.38Z" transform="translate(-40.76 -60.11)"/><path class="cls-6" d="M156.07,177.32a1.5,1.5,0,0,1-.72-2.81l1.42-.78.13-.06a1.49,1.49,0,1,1,1.42,2.63l-.12.07-1.41.77A1.54,1.54,0,0,1,156.07,177.32Z" transform="translate(-40.76 -60.11)"/><path class="cls-6" d="M289.58,191.66h-.16a1.49,1.49,0,0,1-1.34-1.64c2.88-27.27-1.61-51.4-17.79-95.64a1.5,1.5,0,1,1,2.82-1c16.36,44.72,20.89,69.2,18,97A1.51,1.51,0,0,1,289.58,191.66Z" transform="translate(-40.76 -60.11)"/><path class="cls-6" d="M175.68,298.91a129.73,129.73,0,0,1-37.43-5.83c-28.2-9.07-45-22.76-54.23-32.65a1.5,1.5,0,0,1,2.2-2c8.93,9.63,25.37,23,52.92,31.83,39.29,11.84,73.46,5.62,101.53-18.51.38-.35.79-.73,1.2-1.13a1.5,1.5,0,1,1,2.07,2.17c-.42.41-.85.81-1.28,1.2A100.45,100.45,0,0,1,175.68,298.91Z" transform="translate(-40.76 -60.11)"/><path class="cls-6" d="M81.69,237.2a1.42,1.42,0,0,1-.64-.14,1.51,1.51,0,0,1-.72-2c5.13-10.9,17.69-23.47,37.3-37.36a1.5,1.5,0,1,1,1.74,2.45C100.18,213.74,88,225.91,83,236.34A1.49,1.49,0,0,1,81.69,237.2Z" transform="translate(-40.76 -60.11)"/><path class="cls-6" d="M310.15,208.43a1.59,1.59,0,0,1-.43-.06,1.51,1.51,0,0,1-1-1.88c8.36-27.39,6.42-48.19.58-72.87a1.5,1.5,0,0,1,2.92-.69c5.95,25.17,7.92,46.39-.63,74.44A1.5,1.5,0,0,1,310.15,208.43Z" transform="translate(-40.76 -60.11)"/><path class="cls-6" d="M185.26,310.94q-23.46,0-49.5-8.59c-26.31-9.36-47.27-22.62-62.34-39.41a1.5,1.5,0,1,1,2.23-2c14.73,16.42,35.29,29.4,61.08,38.58,48.91,16.16,91.05,9,125.22-21.19a209.38,209.38,0,0,0,16.93-18.4,1.5,1.5,0,1,1,2.32,1.89A210,210,0,0,1,264,280.52C241.07,300.78,214.72,310.94,185.26,310.94Z" transform="translate(-40.76 -60.11)"/><path class="cls-6" d="M71.77,238.82a1.49,1.49,0,0,1-1.35-2.15c4.3-8.94,13.22-19,27.26-30.82a1.5,1.5,0,1,1,1.93,2.29C86.09,219.5,77.18,229.54,73.13,238A1.51,1.51,0,0,1,71.77,238.82Z" transform="translate(-40.76 -60.11)"/><path class="cls-10" d="M138.88,108" transform="translate(-40.76 -60.11)"/><path class="cls-6" d="M194.89,322.66c-3.37,0-6.78-.11-10.23-.31-25.75-1.77-50.74-9.08-76.44-22.36a1.5,1.5,0,0,1,1.38-2.67c25.32,13.09,49.94,20.3,75.25,22,39.16,2.35,72.08-8.86,97.81-33.32,23.24-22.84,39.36-47.23,49.28-74.52a1.49,1.49,0,1,1,2.81,1c-10.07,27.73-26.43,52.47-50,75.66C260.64,311.09,230.45,322.66,194.89,322.66Z" transform="translate(-40.76 -60.11)"/><path class="cls-6" d="M82.85,283.56a1.47,1.47,0,0,1-.91-.31c-8.22-6.3-15.16-12.88-19.54-18.52a1.5,1.5,0,1,1,2.37-1.84c2.45,3.15,8.17,9.69,19,18a1.5,1.5,0,0,1-.91,2.69Z" transform="translate(-40.76 -60.11)"/><path class="cls-6" d="M62.34,239.35a1.42,1.42,0,0,1-.71-.18,1.5,1.5,0,0,1-.61-2c3.88-7.24,10.71-15.4,20.88-24.94A1.5,1.5,0,1,1,84,214.39c-9.93,9.31-16.57,17.22-20.3,24.17A1.48,1.48,0,0,1,62.34,239.35Z" transform="translate(-40.76 -60.11)"/><path class="cls-10" d="M153.12,110.52" transform="translate(-40.76 -60.11)"/><path class="cls-10" d="M244.83,41.1" transform="translate(-40.76 -60.11)"/><path class="cls-6" d="M365.81,137.61a1.5,1.5,0,0,1-1.48-1.26c-.48-3-1.07-6.1-1.75-9.26a1.5,1.5,0,1,1,2.93-.63c.69,3.21,1.29,6.37,1.78,9.41a1.49,1.49,0,0,1-1.23,1.72A1.1,1.1,0,0,1,365.81,137.61Z" transform="translate(-40.76 -60.11)"/><path class="cls-6" d="M366.51,181.31l-.21,0a1.49,1.49,0,0,1-1.28-1.68,142.63,142.63,0,0,0,1.29-22.1,1.5,1.5,0,0,1,1.47-1.53,1.48,1.48,0,0,1,1.53,1.47A144.93,144.93,0,0,1,368,180,1.5,1.5,0,0,1,366.51,181.31Z" transform="translate(-40.76 -60.11)"/><path class="cls-6" d="M205.19,334.57q-3.81,0-7.69-.15c-37.46-1.79-66.61-13.87-85.28-22.81a1.5,1.5,0,1,1,1.3-2.7c18.43,8.82,47.21,20.75,84.11,22.51,42.78,1.72,78.61-11,106.48-37.78,29-29.16,47.71-60.09,57.08-94.53a1.5,1.5,0,0,1,2.9.79c-9.51,34.95-28.44,66.32-57.88,95.88C279.4,321.55,245.45,334.57,205.19,334.57Z" transform="translate(-40.76 -60.11)"/><path class="cls-6" d="M63,278.3a1.5,1.5,0,0,1-1-.4,92.22,92.22,0,0,1-10.19-11,1.5,1.5,0,1,1,2.39-1.81A89.4,89.4,0,0,0,64,275.71a1.5,1.5,0,0,1-1,2.59Z" transform="translate(-40.76 -60.11)"/><path class="cls-6" d="M53.14,239.43a1.5,1.5,0,0,1-1.28-2.28c3.35-5.51,8.36-11.63,15.3-18.69a1.5,1.5,0,1,1,2.14,2.1c-6.78,6.9-11.64,12.83-14.87,18.15A1.52,1.52,0,0,1,53.14,239.43Z" transform="translate(-40.76 -60.11)"/><path class="cls-10" d="M157.14,101.56" transform="translate(-40.76 -60.11)"/><path class="cls-10" d="M227.61,46.15" transform="translate(-40.76 -60.11)"/><path class="cls-6" d="M189,344.53h-.21c-26.8-3.73-52.76-12-79.35-25.16a1.5,1.5,0,1,1,1.33-2.68c26.3,13.05,52,21.18,78.44,24.87a1.5,1.5,0,0,1-.21,3Z" transform="translate(-40.76 -60.11)"/><path class="cls-6" d="M46.68,274.54a1.48,1.48,0,0,1-1.11-.49c-1.74-1.91-3.26-3.73-4.51-5.41a1.5,1.5,0,0,1,2.41-1.79c1.19,1.6,2.64,3.34,4.32,5.18a1.5,1.5,0,0,1-1.11,2.51Z" transform="translate(-40.76 -60.11)"/><path class="cls-6" d="M46,236.72a1.51,1.51,0,0,1-1.2-2.4c1.7-2.27,3.69-4.7,5.91-7.21a1.5,1.5,0,1,1,2.24,2c-2.16,2.45-4.09,4.81-5.74,7A1.52,1.52,0,0,1,46,236.72Z" transform="translate(-40.76 -60.11)"/><path class="cls-6" d="M351,276.56a1.45,1.45,0,0,1-.9-.3,1.5,1.5,0,0,1-.3-2.1A233,233,0,0,0,373.71,235a220,220,0,0,0,15.48-44.81,1.5,1.5,0,1,1,2.93.64,223.18,223.18,0,0,1-15.69,45.45A236.35,236.35,0,0,1,352.2,276,1.48,1.48,0,0,1,351,276.56Z" transform="translate(-40.76 -60.11)"/></g><path class="cls-8" d="M164.9,318.88a.64.64,0,0,0,0-1.28.64.64,0,1,0,0,1.28Zm57.77,0a.64.64,0,1,0-.63-.64A.64.64,0,0,0,222.67,318.88Zm4.82,0a.64.64,0,1,0-.64-.64A.64.64,0,0,0,227.49,318.88Zm-62.59,4.79a.64.64,0,0,0,0-1.28.64.64,0,1,0,0,1.28Zm57.77,0A.64.64,0,1,0,222,323,.64.64,0,0,0,222.67,323.67Zm4.82,0a.64.64,0,1,0-.64-.64A.64.64,0,0,0,227.49,323.67Zm4.81,0a.64.64,0,1,0-.63-.64A.64.64,0,0,0,232.3,323.67Zm4.82,0a.64.64,0,1,0-.64-.64A.64.64,0,0,0,237.12,323.67Zm-77,4.79a.64.64,0,0,0,.64-.64.64.64,0,0,0-1.28,0A.64.64,0,0,0,160.08,328.46Zm4.82,0a.64.64,0,0,0,.64-.64.64.64,0,1,0-.64.64Zm57.77,0a.64.64,0,1,0,0-1.28.64.64,0,0,0,0,1.28Zm4.82,0a.64.64,0,0,0,.64-.64.64.64,0,1,0-1.28,0A.64.64,0,0,0,227.49,328.46Zm4.81,0a.64.64,0,0,0,0-1.28.64.64,0,0,0,0,1.28Zm4.82,0a.64.64,0,0,0,.64-.64.64.64,0,1,0-1.28,0A.64.64,0,0,0,237.12,328.46Zm-91.48,4.78a.64.64,0,1,0-.64-.63A.64.64,0,0,0,145.64,333.24Zm4.81,0a.64.64,0,1,0-.64-.63A.64.64,0,0,0,150.45,333.24Zm4.82,0a.64.64,0,1,0-.64-.63A.64.64,0,0,0,155.27,333.24Zm4.81,0a.64.64,0,1,0-.64-.63A.64.64,0,0,0,160.08,333.24Zm62.59,0a.64.64,0,1,0-.63-.63A.63.63,0,0,0,222.67,333.24Zm4.82,0a.64.64,0,1,0-.64-.63A.64.64,0,0,0,227.49,333.24Zm4.81,0a.64.64,0,1,0-.63-.63A.63.63,0,0,0,232.3,333.24Zm4.82,0a.64.64,0,1,0-.64-.63A.64.64,0,0,0,237.12,333.24ZM140.82,338a.64.64,0,1,0-.64-.64A.64.64,0,0,0,140.82,338Zm4.82,0a.64.64,0,1,0,0-1.27.64.64,0,1,0,0,1.27Zm4.81,0a.64.64,0,1,0-.64-.64A.64.64,0,0,0,150.45,338Zm4.82,0a.64.64,0,1,0,0-1.27.64.64,0,1,0,0,1.27Zm4.81,0a.64.64,0,1,0-.64-.64A.64.64,0,0,0,160.08,338Zm67.41,0a.64.64,0,1,0-.64-.64A.64.64,0,0,0,227.49,338Zm4.81,0a.64.64,0,1,0-.63-.64A.63.63,0,0,0,232.3,338Zm4.82,0a.64.64,0,1,0-.64-.64A.64.64,0,0,0,237.12,338ZM136,342.82a.64.64,0,0,0,.64-.64.64.64,0,0,0-.64-.64.64.64,0,0,0,0,1.28Zm4.81,0a.64.64,0,0,0,.64-.64.64.64,0,1,0-1.28,0A.64.64,0,0,0,140.82,342.82Zm4.82,0a.64.64,0,0,0,.64-.64.64.64,0,0,0-.64-.64.64.64,0,0,0,0,1.28Zm4.81,0a.64.64,0,0,0,.64-.64.64.64,0,1,0-1.28,0A.64.64,0,0,0,150.45,342.82Zm4.82,0a.64.64,0,0,0,.64-.64.64.64,0,0,0-.64-.64.64.64,0,1,0,0,1.28Zm77,0a.64.64,0,1,0-.63-.64A.63.63,0,0,0,232.3,342.82Zm4.82,0a.64.64,0,0,0,.64-.64.64.64,0,1,0-1.28,0A.64.64,0,0,0,237.12,342.82Zm4.81,0a.64.64,0,1,0-.63-.64A.63.63,0,0,0,241.93,342.82Zm14.45,0a.64.64,0,0,0,.64-.64.64.64,0,1,0-1.28,0A.64.64,0,0,0,256.38,342.82Zm-125.19,4.79a.64.64,0,0,0,0-1.28.64.64,0,1,0,0,1.28Zm4.82,0a.64.64,0,0,0,0-1.28.64.64,0,1,0,0,1.28Zm4.81,0a.64.64,0,1,0-.64-.64A.64.64,0,0,0,140.82,347.61Zm4.82,0a.64.64,0,0,0,0-1.28.64.64,0,1,0,0,1.28Zm4.81,0a.64.64,0,1,0-.64-.64A.64.64,0,0,0,150.45,347.61Zm4.82,0a.64.64,0,1,0,0-1.28.64.64,0,0,0,0,1.28Zm86.66,0a.64.64,0,1,0-.63-.64A.64.64,0,0,0,241.93,347.61Zm4.82,0a.64.64,0,1,0-.64-.64A.64.64,0,0,0,246.75,347.61Zm4.81,0a.64.64,0,1,0,0-1.28.64.64,0,0,0,0,1.28Zm4.82,0a.64.64,0,1,0-.64-.64A.64.64,0,0,0,256.38,347.61Zm4.81,0a.64.64,0,1,0,0-1.28.64.64,0,1,0,0,1.28ZM126.38,352.4a.64.64,0,1,0,0-1.28.64.64,0,0,0,0,1.28Zm4.81,0a.64.64,0,0,0,0-1.28.64.64,0,0,0,0,1.28Zm4.82,0a.64.64,0,0,0,0-1.28.64.64,0,0,0,0,1.28Zm4.81,0a.64.64,0,1,0-.64-.64A.64.64,0,0,0,140.82,352.4Zm4.82,0a.64.64,0,0,0,0-1.28.64.64,0,0,0,0,1.28Zm4.81,0a.64.64,0,1,0-.64-.64A.64.64,0,0,0,150.45,352.4Zm-33.7,4.79a.64.64,0,1,0-.64-.64A.64.64,0,0,0,116.75,357.19Zm4.81,0a.64.64,0,1,0,0-1.28.64.64,0,0,0,0,1.28Zm4.82,0a.64.64,0,1,0,0-1.28.64.64,0,0,0,0,1.28Zm4.81,0a.64.64,0,0,0,0-1.28.64.64,0,0,0,0,1.28Zm4.82,0a.64.64,0,0,0,0-1.28.64.64,0,0,0,0,1.28Zm4.81,0a.64.64,0,1,0-.64-.64A.64.64,0,0,0,140.82,357.19Zm4.82,0a.64.64,0,0,0,0-1.28.64.64,0,0,0,0,1.28Z" transform="translate(-40.76 -60.11)"/></g></g></svg>