<svg xmlns="http://www.w3.org/2000/svg" id="Lumi_-_Loving_Lumi" data-name="Lumi - Loving Lumi" viewBox="0 0 832.66 892.91">
    <defs>
        <style>
            .cls-1{fill:#e7edf5;}.cls-2{fill:#ffbd26;}.cls-14,.cls-16,.cls-3,.cls-6{fill:#ff4eda;}.cls-3{opacity:0.07;}.cls-4{fill:#fff;}.cls-5{fill:#f8f9fb;}.cls-10,.cls-12,.cls-13,.cls-15,.cls-18,.cls-7,.cls-8,.cls-9{fill:none;stroke-linecap:round;}.cls-7,.cls-8,.cls-9{stroke:#6240b8;}.cls-10,.cls-12,.cls-13,.cls-15,.cls-7,.cls-8,.cls-9{stroke-linejoin:round;}.cls-12,.cls-7{stroke-width:4.97px;}.cls-13,.cls-8{stroke-width:4.6px;stroke-dasharray:1.15 5.75;}.cls-10,.cls-15,.cls-9{stroke-width:3.07px;stroke-dasharray:4.61 4.61 1.54;}.cls-10{stroke:#e7edf5;}.cls-11{fill:#5d7287;}.cls-12,.cls-13,.cls-15{stroke:#ff4eda;}.cls-14{opacity:0.29;}.cls-16{opacity:0.11;}.cls-17{opacity:0.13;}.cls-18{stroke:#5d7287;stroke-miterlimit:10;stroke-width:3px;}
        </style>
    </defs>
    <title>
        Lumi - Loving Lumi
    </title>
    <path d="M576.16,597A79.77,79.77,0,0,0,600,534.41c-.69-9.15-3-18.09-4.4-27.15-.61-3.87-1-7.91.07-11.67,2.5-8.48,11.61-12.73,18.69-18a51.75,51.75,0,0,0,20.29-44.14,66.73,66.73,0,0,1,24.4,42.1,5.45,5.45,0,0,1-.09,2.81,5.52,5.52,0,0,1-2.1,2.27,60.07,60.07,0,0,1-19.61,9.29,8,8,0,0,0-3.66,1.64,7.19,7.19,0,0,0-1.65,4c-2.63,14.68-2.7,29.7-2,44.59.39,8.67,1.09,17.54,4.74,25.41a15.71,15.71,0,0,1,1.59,4.3c.6,4.56-3.65,8.14-7.46,10.72-13.67,9.24-27.73,18.06-43,24.38a3.36,3.36,0,0,1-5-1.45l-5-6.71" class="cls-1" transform="translate(-66.77 -57.11)"/>
    <path d="M289,278c-1.57,6.44-3.11,13.44-.43,19.5,1.08,2.46,2.79,4.58,4.22,6.86,1.8,2.88,3.14,6,5,8.87,5.45,8.16,15,12.88,24.77,14.15,10.68,1.4,22.18-1.24,30.06-8.57a15.9,15.9,0,0,1-4.47,13.53,25.69,25.69,0,0,1-7,4.58A34.17,34.17,0,0,1,334,339.5c-7.64,1.74-15.59-.6-22.94-3.32-9.13-3.38-18.33-7.61-24.68-15a18.28,18.28,0,0,1-3.28-5.11c-1.54-3.87-1.08-8.22-.4-12.33a129.31,129.31,0,0,1,6.15-23.29" class="cls-1" transform="translate(-66.77 -57.11)"/>
    <path d="M577.15,409.42c-5.28-8-7.63-18.14-5.48-27.5s9.05-17.72,18.17-20.74c5.18-1.71,10.77-1.7,16.21-1.25,6.15.51,12.74,1.83,16.91,6.39,2.3,2.51,3.6,5.74,4.86,8.9,1,2.59,2.06,5.56.84,8.06-1,2.1-3.34,3.21-5.55,4A37.33,37.33,0,0,1,596,385.86a23.94,23.94,0,0,0-.44,5.08l-.2,12.85a16.1,16.1,0,0,0-5.4-2.53,9.1,9.1,0,0,0-3.52-.31,8,8,0,0,0-5,3.08,15.48,15.48,0,0,0-2.57,5.42" class="cls-2" transform="translate(-66.77 -57.11)"/>
    <path d="M293.86,371.94c-6.5,25.45-13,50.92-20.55,76.08-1.57,5.25-3.19,10.5-4.39,15.85-1.06,4.7-1.76,9.74,0,14.24,1.6,4.14,5.08,7.25,8.68,9.84,16.8,12.06,38.37,15.85,59,14.9,7.66-.35,15.4-1.33,22.48-4.27a2.75,2.75,0,0,0,2.19-2.83c1.6-15.88.88-31.89,1.53-47.84.64-15.3,2.54-30.52,4.45-45.71-8.42,2.89-16.92,5.8-25.75,7-7.92,1-16.41.77-23.24,4.9-4.93,3-8.5,8-13.77,10.31-3.31,1.45-7.95,1.27-9.68-1.9-1.11-2.05-.57-4.66.64-6.64a31.74,31.74,0,0,1,4.65-5.19,36.72,36.72,0,0,0,5.54-7.29,10.19,10.19,0,0,1,2.44-3.27,9.12,9.12,0,0,1,2.88-1.23,265.47,265.47,0,0,1,28.82-6.62c7.59-1.31,15.7-2.49,21.54-7.53a4,4,0,0,0,1.36-1.81,4.46,4.46,0,0,0-.47-2.8c-1.44-3.54-3.19-7.41-6.69-8.95s-7.26-.28-10.8.76c-16.05,4.72-33.71,5.8-49.3-.28" class="cls-2" transform="translate(-66.77 -57.11)"/>
    <path d="M659.41,413.06c92,13.13,159.32,55.26,159.32,105.22V386.55c0-49.95-67.32-92.09-159.32-105.22V413.06Z" class="cls-3" transform="translate(-66.77 -57.11)"/>
    <path d="M114.79,336.83c0-60.45,98.58-109.45,220.19-109.45s220.2,49,220.2,109.45V204.57c0-60.45-98.59-109.46-220.2-109.46s-220.19,49-220.19,109.46Z" class="cls-3" transform="translate(-66.77 -57.11)"/>
    <path d="M294.53,237.48a57.19,57.19,0,0,0,.83-16.87c-.39-3.89-1.17-7.85-.38-11.68,1-4.93,4.6-9,8.86-11.73s9.18-4.12,14.06-5.34c4-1,8.05-1.86,12.11-1.42,5.25.57,10,3.27,14.57,5.92a24.05,24.05,0,0,1,6.11,4.44,22.94,22.94,0,0,1,3.29,5.28,41.41,41.41,0,0,1,3.78,9.8c1.11,5.35.28,10.94,1.16,16.34a26.07,26.07,0,0,0,5.51,12.22,62,62,0,0,1-38.28,9.7" class="cls-4" transform="translate(-66.77 -57.11)"/>
    <path d="M389.49,514.19c0-35.16,33.35-66.45,85.19-86.48l-.88.31c21.14-8.64,39-19.2,52.45-31.14,17.82-15.81,28-34,28-53.45V211c0,19.41-10.17,37.64-28,53.44-13.47,11.94-31.31,22.5-52.45,31.14l.88-.3c-51.84,20-85.19,51.31-85.19,86.47Z" class="cls-3" transform="translate(-66.77 -57.11)"/>
    <path d="M276.86,584.23c-35.62,9.23-66.3,28.22-86.47,53.5-12.64,15.84-21.11,36.81-10.17,55.54,7.54,12.9,22.7,21.92,37.64,29.39a430,430,0,0,0,64,25.77c36.78,11.47,78.72,20.1,102.29,46.76,20,22.58,20.51,51.66,34.15,76.87,15.27,28.25,46.77,50.23,81.15,62.53S571,950.34,606.91,950c44.74-.45,89.45-6.86,126.51-24.57s65.77-47.78,71.29-83.95c1.38-9.09,1.29-18.62-2.12-27.77-7.07-19-27.37-33.76-48.83-43.43a195.47,195.47,0,0,0-73.65-17c-40.15-1.2-81.14,10.19-119.19-4-28.58-10.63-48.6-33.53-63.31-56.5s-26.07-47.49-45.6-68.16c-39.7-42-112.64-60.72-167.53-43" class="cls-5" transform="translate(-66.77 -57.11)"/>
    <path d="M550.93,793.32c.17,6.21,2.15,12.24,4.65,17.93s5.54,11.12,8,16.82c1,2.44,2.07,5,4.06,6.77s5.31,2.34,7.23.5a7.32,7.32,0,0,0,1.74-3.92,41.7,41.7,0,0,0-.7-19.36c-.4-1.44-.88-2.86-1.36-4.28L570,794.26a.62.62,0,0,0-.13-.27.73.73,0,0,0-.68-.08c-5.5,1.15-13.27,2-18.25-.59" class="cls-6" transform="translate(-66.77 -57.11)"/>
    <path d="M585.1,732.44,579,743a9.51,9.51,0,0,0-1.08,2.28,9.28,9.28,0,0,0-.26,2.46l-.16,6.88a1.62,1.62,0,0,0,1.11,1.82,22.37,22.37,0,0,1,7.75,7.72,64.3,64.3,0,0,1,2.9,5.89,68.09,68.09,0,0,0,10.29,15.79,13.22,13.22,0,0,0,3.88,3.35,5.08,5.08,0,0,0,4.93,0,5.89,5.89,0,0,0,2.23-3.36c1.63-5.44-.7-11.19-3-16.39l-9.5-21.59a7.56,7.56,0,0,0-1-1.74,8.52,8.52,0,0,0-2.11-1.6c-4.44-2.76-8.26-6.78-9.91-11.73" class="cls-6" transform="translate(-66.77 -57.11)"/>
    <path d="M594.14,458.15c-6.61-4.37-11.73-10.61-16.73-16.75q3.08-3.39,5.93-7c1.65,2.55,4.59,3.92,7.38,5.13a19.1,19.1,0,0,0,6,1.86,11.73,11.73,0,0,0,7.58-2.31,19.46,19.46,0,0,0,5.29-6.05,1.63,1.63,0,0,1,.56-.63,1.48,1.48,0,0,1,.84-.07,24.05,24.05,0,0,0,7.18-.39,28.06,28.06,0,0,1-5.08,21.91,30.57,30.57,0,0,0-9.87-8.25.69.69,0,0,0-1,.16c-3.41,3.33-4.3,8.53-7.34,12.19" class="cls-6" transform="translate(-66.77 -57.11)"/>
    <path d="M327.43,574.27c-.72.44-1.84-.14-2.42.47a1.55,1.55,0,0,0-.29,1c0,1.17,0,2.34.07,3.51a38.92,38.92,0,0,1-3.71,17.35,10.65,10.65,0,0,1-1.78,2.83,9.74,9.74,0,0,1-3.48,2.17,1,1,0,0,0-.42.26,1.07,1.07,0,0,0-.12.9,24.55,24.55,0,0,1-3.68,17.1,30.35,30.35,0,0,0,17.8-18.39,46.65,46.65,0,0,0,1.88-8.82c.13-1.05.25-2.09.32-3.14a34.1,34.1,0,0,0-2.2-14.42" class="cls-6" transform="translate(-66.77 -57.11)"/>
    <path d="M353.73,598.13a23.19,23.19,0,0,1-.12,13,55.32,55.32,0,0,1-5.32,12,33.26,33.26,0,0,1-4.54,6.69,12.76,12.76,0,0,1-6.87,4,26.5,26.5,0,0,1-5,.16,2.6,2.6,0,0,0-1.3.23,2.56,2.56,0,0,0-.85,1,84.49,84.49,0,0,0-6.9,14.58c4.95,1.39,10.16-.71,14.79-2.94,5-2.43,10.16-5.29,13-10.06a25.09,25.09,0,0,0,2.14-4.86,68.94,68.94,0,0,0,3.76-23.44c-.06-4-.56-8.25-3-11.47" class="cls-6" transform="translate(-66.77 -57.11)"/>
    <path d="M277.53,703.6a37.1,37.1,0,0,0,12.59,1.12,6.4,6.4,0,0,0,3.68-1.15,6,6,0,0,0,1.71-3,20.5,20.5,0,0,0-4.88-19.8q10.46,1.23,21,1.62c10.45.39,21.3.08,30.77-4.38a7.31,7.31,0,0,0,3.06-2.26c1.78-2.65-1.21-6.85-4.3-6,11.52-3.35,23.65-8.07,30.15-18.15,4.5-7,5.64-15.67,5-23.95a50.1,50.1,0,0,0-6.16-21c3.33,1,6.75,2,10.23,1.79s7.07-1.92,8.57-5.06c4.28,2.56,7.6,6.43,10.84,10.22,4.77,5.57,9.64,11.35,11.83,18.34,2.26,7.2,1.43,14.94,1.42,22.49,0,7,.69,14.27-1.69,20.89a31,31,0,0,1-6,9.75c-8.19,9.33-19.9,14.83-31.75,18.52-21.81,6.81-40.86,7.32-63.7,7.83-9.8.22-17.84-2.61-31.57-6.38" class="cls-1" transform="translate(-66.77 -57.11)"/>
    <path d="M515.62,865.45c10.15,4.88,20.77,10.15,27.11,19.46a41.48,41.48,0,0,1,6.43,18.1,4.35,4.35,0,0,0,.68,2.19,4,4,0,0,0,1.72,1.09c12,4.93,25.29,5.16,38.22,4.82,20.35-.55,41.07-2.45,59.83-10.36-6.13-2.4-8.57-10.37-6.71-16.68s6.87-11.19,12.1-15.19L627.35,879a108.29,108.29,0,0,1-14.34,4.5c-7,1.5-14.18,1.6-21.32,1.56-17.39-.09-35-1-51.58-6.19a40.33,40.33,0,0,1-10.57-4.66c-4.08-2.72-7.41-6.66-12-8.46" class="cls-1" transform="translate(-66.77 -57.11)"/>
    <path d="M517.24,863.38a32,32,0,0,0,17.63,4c3.25-.22,7.09-1.52,7.79-4.71a119.08,119.08,0,0,0,76-13.2c7.66-4.24,15.08-9.57,19.51-17.13s5.26-17.74.11-24.83a27.19,27.19,0,0,0,11.82,3.31c4.12,0,8.4-1.53,11-4.76a42.32,42.32,0,0,1,18,18.28,25.86,25.86,0,0,1,3,10.61c.16,4.44-1.28,8.79-3.06,12.85a52,52,0,0,1-11.64,17.16c-5.07,4.74-11.29,8.08-17.64,10.91a148.66,148.66,0,0,1-115.7,1.72c-6.91-2.84-13.91-6.47-18.13-12.64" class="cls-1" transform="translate(-66.77 -57.11)"/>
    <polyline points="549.52 342.7 551.9 353.45 547.65 351.57" class="cls-7"/>
    <path d="M627,387.22s-1.08,13.92-.66,21-2.75,30.67-28.17,19" class="cls-7" transform="translate(-66.77 -57.11)"/>
    <path d="M596,383.22s20.42,9.09,30.84-4c0,0,.66-27.33-36.25-22.33" class="cls-7" transform="translate(-66.77 -57.11)"/>
    <path d="M584.21,358.64S560.38,363.89,572,403" class="cls-8" transform="translate(-66.77 -57.11)"/>
    <path d="M592.88,392.72v8.92s-4.59-5.67-11.17-3.08" class="cls-7" transform="translate(-66.77 -57.11)"/>
    <path d="M578.29,407.47s3.09,6.17,7,8.17c0,0,.5,6.83-1.5,12.08" class="cls-7" transform="translate(-66.77 -57.11)"/>
    <path d="M616.38,436.72s0,11.25-5.84,16.09l-6.08-4.92" class="cls-7" transform="translate(-66.77 -57.11)"/>
    <path d="M602.71,435.81s-7,12.58-22.83-2.67l-5.67,6.42L591.46,457l4.58-8.33" class="cls-7" transform="translate(-66.77 -57.11)"/>
    <path d="M628.29,427.06c.25-.09,6.17,3.83,8.17,7.08s16.17,19.83,17.75,48.42c0,0-2.75,4.75-13.33,8.33" class="cls-7" transform="translate(-66.77 -57.11)"/>
    <path d="M634.63,451.89s-4.25,24.08-3,44.33-2,60.5,2.41,76.17c0,0-18.5,23.83-43.16,30.67" class="cls-7" transform="translate(-66.77 -57.11)"/>
    <path d="M567.79,443s-8.58,6.59-13.58,9.17-12.33,23.67-17.5,48.83c0,0,3.17,13.5,25.08,9.75,0,0,2.5-14.5,5.17-23.41" class="cls-7" transform="translate(-66.77 -57.11)"/>
    <path d="M535.13,511s-3.17,45.59.33,58.59,22.92,45.16,42.67,55.75" class="cls-7" transform="translate(-66.77 -57.11)"/>
    <path d="M551.29,517.47s-2.5,45.42-1.41,50.25" class="cls-8" transform="translate(-66.77 -57.11)"/>
    <path d="M553.13,573.47s23.16,31.34,31.16,35.75,10.92,5,15.09,4.67" class="cls-7" transform="translate(-66.77 -57.11)"/>
    <path d="M593.13,619.81s7.5,3.75,12.25,6.75,1.83,22.58-21.59,2.91" class="cls-7" transform="translate(-66.77 -57.11)"/>
    <path d="M647,496s3.42,25,13.75,29.42" class="cls-8" transform="translate(-66.77 -57.11)"/>
    <path d="M667.46,524.89s19.58-5.33,29.25-9.17,20.92-4.41,25.25-4.41,11.67,13.33-10.5,17" class="cls-7" transform="translate(-66.77 -57.11)"/>
    <path d="M639.13,521.72s3.75,14,15.91,16.75,49-7.5,49-7.5,2.59,4.34,11,4.92" class="cls-7" transform="translate(-66.77 -57.11)"/>
    <line x1="533.27" x2="533.27" y1="398.45" y2="408.83" class="cls-7"/>
    <path d="M635.54,580.81s12.13,41.5,11.13,97.87c0,0-24.13,57.88-38.5,70.63,0,0-12.25,2.37-21.13-13.88,0,0,23.75-45,38.13-59.25" class="cls-7" transform="translate(-66.77 -57.11)"/>
    <path d="M621.54,666.31s-7.12-38.88-7.12-52.88l-8,4.25" class="cls-7" transform="translate(-66.77 -57.11)"/>
    <path d="M554.79,612.43a140.19,140.19,0,0,0,5.88,26.75c4.5,13.38-4.5,56.25-1.88,74.38" class="cls-7" transform="translate(-66.77 -57.11)"/>
    <path d="M557.54,721.43s-10.25,52.75-8.5,69.75a29.74,29.74,0,0,0,24.13,1s7.37-57.25,7.12-72.12,7-60.38,5.38-78" class="cls-7" transform="translate(-66.77 -57.11)"/>
    <path d="M601.86,755.93s12.56,16.63,11.43,33.38S590,778,588.17,765.49l-3.81-3.43" class="cls-7" transform="translate(-66.77 -57.11)"/>
    <path d="M573.11,798.93s13.56,17.88,7.06,35.69-26.13-20.19-26.94-33.5" class="cls-7" transform="translate(-66.77 -57.11)"/>
    <path d="M571.61,723s-2.13,2.07-3.25.13" class="cls-7" transform="translate(-66.77 -57.11)"/>
    <path d="M639.29,669.87s-2.06,1.25-2.12,2.81" class="cls-7" transform="translate(-66.77 -57.11)"/>
    <path d="M540.35,793.73c-26.5,8.54-44.27,24.3-44.27,42.32" class="cls-7" transform="translate(-66.77 -57.11)"/>
    <path d="M590.42,787c-1.48,0-3-.06-4.46-.06-1.65,0-3.29,0-4.92.07" class="cls-7" transform="translate(-66.77 -57.11)"/>
    <path d="M623.7,791.48c16.89,4.27,30.93,11.32,40.17,20.07" class="cls-8" transform="translate(-66.77 -57.11)"/>
    <path d="M615.14,882.51c35.32-6.62,60.7-24.92,60.7-46.46,0-7.56-3.13-14.72-8.72-21.12" class="cls-7" transform="translate(-66.77 -57.11)"/>
    <path d="M534,876.12c14.68,5.69,32.61,9,52,9a161.3,161.3,0,0,0,24.19-1.8" class="cls-9" transform="translate(-66.77 -57.11)"/>
    <path d="M507.5,860c5.67,5.53,13.25,10.39,22.24,14.34" class="cls-9" transform="translate(-66.77 -57.11)"/>
    <path d="M537,861.52c12.88,5.91,30.08,9.51,49,9.51,39.89,0,72.22-16.07,72.22-35.9s-32.33-35.9-72.22-35.9c-1.53,0-3,0-4.54.07" class="cls-7" transform="translate(-66.77 -57.11)"/>
    <path d="M545.19,805.5c-19,6.47-31.45,17.33-31.45,29.63,0,6.37,3.33,12.35,9.18,17.53a50.12,50.12,0,0,0,8.09,5.77" class="cls-8" transform="translate(-66.77 -57.11)"/>
    <path d="M616.89,669.37c-6.12-2.15-12.6-4.08-19.39-5.76q-3.16-.78-6.44-1.49" class="cls-10" transform="translate(-66.77 -57.11)"/>
    <path d="M634.63,904.06c-14,4.94-30.74,7.81-48.67,7.81-49.64,0-89.88-22-89.88-49.1V836.05" class="cls-7" transform="translate(-66.77 -57.11)"/>
    <path d="M675.84,862.77c0,15.55-13.23,29.41-33.87,38.41" class="cls-8" transform="translate(-66.77 -57.11)"/>
    <path d="M664.78,749.21a.78.78,0,0,0-.39-.64L657,744.7c-.22-.11-.39,0-.39.23v8.44a.78.78,0,0,0,.39.64l7.36,3.87c.22.11.39,0,.39-.23Z" class="cls-11" transform="translate(-66.77 -57.11)"/>
    <path d="M238.1,540.88a.8.8,0,0,0-.39-.64l-7.36-3.87c-.22-.11-.39,0-.39.23V545a.78.78,0,0,0,.39.64l7.36,3.87a.24.24,0,0,0,.39-.23Z" class="cls-7" transform="translate(-66.77 -57.11)"/>
    <path d="M217.7,494a.79.79,0,0,0-.38-.64L210,489.5a.24.24,0,0,0-.39.23v8.44a.8.8,0,0,0,.39.64l7.37,3.87a.24.24,0,0,0,.38-.23Z" class="cls-1" transform="translate(-66.77 -57.11)"/>
    <path d="M499.69,677.81a.83.83,0,0,1,.38-.65l7.37-3.87a.25.25,0,0,1,.39.24V682a.82.82,0,0,1-.39.64l-7.37,3.87c-.21.11-.38,0-.38-.24Z" class="cls-6" transform="translate(-66.77 -57.11)"/>
    <path d="M378.85,561.65a.8.8,0,0,1,.39-.64l7.37-3.87c.21-.11.38,0,.38.24v8.43a.79.79,0,0,1-.38.64l-7.37,3.87a.24.24,0,0,1-.39-.23Z" class="cls-2" transform="translate(-66.77 -57.11)"/>
    <ellipse cx="507.5" cy="758.56" class="cls-7" rx="4.8" ry="7.15" transform="translate(-384.77 312.2) rotate(-30.97)"/>
    <ellipse cx="245.84" cy="461.3" class="cls-6" rx="4.8" ry="7.15" transform="translate(-269.11 135.17) rotate(-30.97)"/>
    <ellipse cx="643.79" cy="272.72" class="cls-7" rx="4.8" ry="7.15" transform="translate(-115.33 313.06) rotate(-30.97)"/>
    <ellipse cx="623.03" cy="285.17" class="cls-1" rx="4" ry="5.96" transform="translate(-124.7 304.16) rotate(-30.97)"/>
    <ellipse cx="708.08" cy="714.05" class="cls-7" rx="7.15" ry="4.8" transform="translate(-335.31 896.63) rotate(-59.03)"/>
    <polyline points="238.33 174.28 236.75 187.03 241.75 184.7" class="cls-7"/>
    <path d="M295.27,221.72a74.31,74.31,0,0,1,.83,18.84c-.91,9.91,4.17,26.25,27.59,18.66" class="cls-7" transform="translate(-66.77 -57.11)"/>
    <path d="M301.44,217.72s23.83-6.08,24.25,4.25.91,23.59,7.66,28.34,8.92,18.25,2.17,26.08c0,0,9.5-8.25,13.67-6.33" class="cls-7" transform="translate(-66.77 -57.11)"/>
    <path d="M376.1,284.31" class="cls-7" transform="translate(-66.77 -57.11)"/>
    <path d="M372.36,255.94c4.88,6.44,9.29,14.83,8.76,30.88C380,321.07,397.39,315,385.8,342.3" class="cls-7" transform="translate(-66.77 -57.11)"/>
    <path d="M336.27,190.56c14.71,4.26,23.93,22.63,24.25,42.63.14,8.1,3.73,12.82,7.88,17.84" class="cls-9" transform="translate(-66.77 -57.11)"/>
    <path d="M293.77,216a17.18,17.18,0,0,1,4-16.5c5.88-6.5,18.59-11.24,31-10.26" class="cls-7" transform="translate(-66.77 -57.11)"/>
    <path d="M376.56,328c1.7,22.57,2.29,45.52,2.29,45.52s-6.16,8.67-17.66,1.25c0,0-.84-53.41-3.92-65" class="cls-7" transform="translate(-66.77 -57.11)"/>
    <path d="M354.85,272.72s13.25-1,17.92,22.67A256.78,256.78,0,0,1,376,321.06" class="cls-8" transform="translate(-66.77 -57.11)"/>
    <path d="M295,258.64s-5.92.42-6.67,11.17-15.08,77.91-16.25,81,6.34,9,12.84,5.91" class="cls-7" transform="translate(-66.77 -57.11)"/>
    <path d="M295.27,327.31c14.92,5.41,41.67,13.58,52.67-1.75" class="cls-9" transform="translate(-66.77 -57.11)"/>
    <path d="M282.31,303.76c-.75,3.68-1.71,15.16,8.58,21.46" class="cls-7" transform="translate(-66.77 -57.11)"/>
    <path d="M288.69,331.39s4.33,17.92,1.83,31.25S267.6,446.22,268,480.14c0,0,24,34.17,84.83,15.58" class="cls-7" transform="translate(-66.77 -57.11)"/>
    <path d="M354.85,487.14s2.34-51.42,4.09-69.75" class="cls-7" transform="translate(-66.77 -57.11)"/>
    <path d="M360.52,381.22s.42,5.34-7.67,6.92-37.58,9.5-37.58,9.5-9.92,3.5-14.33.67" class="cls-7" transform="translate(-66.77 -57.11)"/>
    <path d="M300.94,404.81s-4.84,6.16-10.17,9.41,1.83,16.84,11.42,9.5,8.75-11,25.41-13.5,45.75-5.91,48-26.25" class="cls-7" transform="translate(-66.77 -57.11)"/>
    <path d="M352.85,342.81l-4.91,15.25s-18,16.75-50.42,3.75" class="cls-7" transform="translate(-66.77 -57.11)"/>
    <path d="M296.94,371.81s27,9.41,45.25-1" class="cls-8" transform="translate(-66.77 -57.11)"/>
    <path d="M349.52,364.64s5.25,7,6.17,13.08" class="cls-7" transform="translate(-66.77 -57.11)"/>
    <line x1="202.75" x2="201.24" y1="301.7" y2="306.2" class="cls-7"/>
    <path d="M281.88,365.39S278.6,380,268.35,376.14s-22.58-11.08-29.16-12-12.25-2-16.09,0" class="cls-7" transform="translate(-66.77 -57.11)"/>
    <path d="M261.69,360.39s-13.84-6.67-21.25-9.42-18.19-3.69-23.75-3.91c-4.75-.2-16.92.93-6.25,11.08,4.38,4.17,4.55-2.16,17.5-2" class="cls-7" transform="translate(-66.77 -57.11)"/>
    <path d="M320.85,510.22s-.37,20.5,2.5,36.5,9.88,60.13,8.25,70.88S323,645.22,319.85,651c0,0,27.13-1.62,29.75-17.75" class="cls-7" transform="translate(-66.77 -57.11)"/>
    <path d="M334.73,633.6s15-3.13,15.5-34.63l5.75,27.5" class="cls-7" transform="translate(-66.77 -57.11)"/>
    <path d="M349.6,591.35s-9.12-58.75-8.87-83.25" class="cls-7" transform="translate(-66.77 -57.11)"/>
    <path d="M289,504.22s18.28,44,25.78,52.88" class="cls-7" transform="translate(-66.77 -57.11)"/>
    <path d="M268.6,491s-2.12,12.38.75,17.13,34.63,56.25,35.88,62.37,9,28.63,5.87,48.38c0,0,9-2.75,13.88-13.38" class="cls-7" transform="translate(-66.77 -57.11)"/>
    <path d="M318.1,597.47s6.38-5.75,3.38-19.5" class="cls-7" transform="translate(-66.77 -57.11)"/>
    <path d="M275.1,501.26s1.63,2.46.75,4.34" class="cls-7" transform="translate(-66.77 -57.11)"/>
    <path d="M329.73,515.47a2.31,2.31,0,0,0,2-2" class="cls-7" transform="translate(-66.77 -57.11)"/>
    <path d="M311.52,267.72a79,79,0,0,1-3,8.09c-1.42,3-1.75,13.33,15.17,14.83s25.94-14.92,25.94-14.92" class="cls-7" transform="translate(-66.77 -57.11)"/>
    <path d="M362.66,595c24.47,6.9,42.28,19.85,46.77,35.24" class="cls-8" transform="translate(-66.77 -57.11)"/>
    <path d="M325,686.05l-2.7,0c-48.74,0-88.25-21.59-88.25-48.21,0-22.22,27.5-40.93,64.92-46.51" class="cls-7" transform="translate(-66.77 -57.11)"/>
    <path d="M399.32,661.4c-14,13.62-39.72,23.16-69.71,24.51" class="cls-9" transform="translate(-66.77 -57.11)"/>
    <path d="M289,668.07c-22.36-5.93-37.58-17.64-37.58-31.12,0-15.77,20.83-29.12,49.57-33.62" class="cls-8" transform="translate(-66.77 -57.11)"/>
    <path d="M361.93,607.72c18.86,6.34,31.27,17.07,31.27,29.23,0,6.25-3.28,12.12-9,17.21-12.14,10.77-35.31,18-61.9,18a135.26,135.26,0,0,1-27.12-2.67" class="cls-7" transform="translate(-66.77 -57.11)"/>
    <path d="M284.75,707.74a151.51,151.51,0,0,0,37.53,4.56c48.74,0,88.26-21.58,88.26-48.21V637.86" class="cls-7" transform="translate(-66.77 -57.11)"/>
    <path d="M279.5,706.27C252.38,698,234,682.24,234,664.09" class="cls-8" transform="translate(-66.77 -57.11)"/>
    <path d="M364.05,461.3c32.63,1.33,54.78,13.43,54.78,33.18,0,9.23-4.83,19-13.3,28.46-17.92,20-52.12,38.58-91.37,47.58-57.8,13.26-104.66.72-104.66-28,0-19.22,21-40.83,52.19-57" class="cls-10" transform="translate(-66.77 -57.11)"/>
    <path d="M269.52,410.56c-35.47.19-60,12.5-60,33.3,0,9.22,4.83,19,13.3,28.45,17.92,20,52.12,38.58,91.36,47.58,57.81,13.27,104.67.72,104.67-28,0-18.81-20.08-39.89-50.17-55.94" class="cls-10" transform="translate(-66.77 -57.11)"/>
    <line x1="41.32" x2="41.32" y1="251.01" y2="147.92" class="cls-12"/>
    <line x1="481.71" x2="481.71" y1="283.99" y2="189.06" class="cls-12"/>
    <path d="M464.71,211.9c-13.46-8.88-25.66-23.36-33-40.92-7.69-18.27-8.56-36.06-3.72-49.33" class="cls-12" transform="translate(-66.77 -57.11)"/>
    <path d="M526.78,177.43c1.19,21.66-8.13,39-25.59,43.12-8.81,2.09-18.49.54-27.92-3.84" class="cls-13" transform="translate(-66.77 -57.11)"/>
    <path d="M481.62,186.17A20,20,0,0,0,494.57,188c8.1-1.93,12.42-10,11.87-20l11.36,6.93c.84,15.22-5.71,27.4-18,30.32-6.19,1.47-13,.38-19.63-2.7Z" class="cls-14" transform="translate(-66.77 -57.11)"/>
    <path d="M857.62,494.68a1.65,1.65,0,0,0-.8-1.32l-15.13-7.95a.5.5,0,0,0-.8.48v17.34a1.65,1.65,0,0,0,.8,1.32l15.13,7.95a.5.5,0,0,0,.8-.48Z" class="cls-2" transform="translate(-66.77 -57.11)"/>
    <ellipse cx="887.78" cy="496.09" class="cls-6" rx="10.13" ry="15.07" transform="translate(-195.49 470.47) rotate(-30.97)"/>
    <ellipse cx="860.8" cy="467.87" class="cls-7" rx="6.18" ry="9.2" transform="translate(-184.81 452.56) rotate(-30.97)"/>
    <path d="M135.45,111.59a1.64,1.64,0,0,1,.79-1.32l15.14-8a.5.5,0,0,1,.79.48v17.34a1.64,1.64,0,0,1-.79,1.32l-15.14,8a.5.5,0,0,1-.79-.48Z" class="cls-2" transform="translate(-66.77 -57.11)"/>
    <ellipse cx="83.37" cy="150.68" class="cls-6" rx="15.07" ry="10.13" transform="translate(-155.5 87.52) rotate(-59.03)"/>
    <ellipse cx="73.08" cy="73.42" class="cls-1" rx="8.16" ry="5.49" transform="translate(-94.25 41.19) rotate(-59.03)"/>
    <ellipse cx="140.04" cy="65.68" class="cls-7" rx="6.58" ry="4.42" transform="translate(-55.11 94.85) rotate(-59.03)"/>
    <path d="M117.31,222.59a86.1,86.1,0,0,1,9.65-13l.18-.19V188.78a83.31,83.31,0,0,0-11.85,16.73" class="cls-12" transform="translate(-66.77 -57.11)"/>
    <path d="M170.16,175.59c25.05-12.85,56.38-22.65,91.53-28.19V119.66a336.65,336.65,0,0,0-67.85,17.67" class="cls-12" transform="translate(-66.77 -57.11)"/>
    <path d="M186.6,140.23a224.28,224.28,0,0,0-23.86,11.61v27.75" class="cls-15" transform="translate(-66.77 -57.11)"/>
    <path d="M202.76,176.16a327.19,327.19,0,0,1,35.88-10.06" class="cls-15" transform="translate(-66.77 -57.11)"/>
    <path d="M202.76,185.09q13.43-4.65,28.23-8.28" class="cls-15" transform="translate(-66.77 -57.11)"/>
    <path d="M202.76,194a325.16,325.16,0,0,1,34.31-9.71" class="cls-15" transform="translate(-66.77 -57.11)"/>
    <path d="M202.76,202.93q12.09-4.17,25.31-7.54" class="cls-15" transform="translate(-66.77 -57.11)"/>
    <path d="M166.24,210.46a224.82,224.82,0,0,1,26.91-12.87V184.3a224.82,224.82,0,0,0-26.91,12.87Z" class="cls-14" transform="translate(-66.77 -57.11)"/>
    <path d="M170.71,202.93c6-3,12.3-5.9,18.94-8.58V181.06a225.56,225.56,0,0,0-26.91,12.87v13.29" class="cls-12" transform="translate(-66.77 -57.11)"/>
    <line x1="232.39" x2="232.39" y1="98.22" y2="119.38" class="cls-12"/>
    <path d="M316.84,175.69c-3.63.09-7.24.23-10.82.4V131.18c1.59-.08,3.19-.15,4.79-.21q3-.12,6-.2v38.15" class="cls-12" transform="translate(-66.77 -57.11)"/>
    <path d="M335,175.59q-3.33,0-6.69-.05l-3.84,0v-58.7l3.84,0q3.36,0,6.69,0" class="cls-12" transform="translate(-66.77 -57.11)"/>
    <path d="M346.8,141.11q6,.19,11.88.55v39q-5.9-.34-11.88-.55Z" class="cls-14" transform="translate(-66.77 -57.11)"/>
    <path d="M354.85,145.44v30.89Q349,176,343,175.78v-39q6,.19,11.87.55" class="cls-12" transform="translate(-66.77 -57.11)"/>
    <path d="M366.85,177.43q9.63.85,18.95,2.1" class="cls-15" transform="translate(-66.77 -57.11)"/>
    <path d="M366.85,168.92q11.49,1,22.53,2.59" class="cls-15" transform="translate(-66.77 -57.11)"/>
    <path d="M366.85,160.47q14.63,1.29,28.53,3.5" class="cls-15" transform="translate(-66.77 -57.11)"/>
    <path d="M366.85,152.06c8,.7,15.92,1.62,23.62,2.75" class="cls-15" transform="translate(-66.77 -57.11)"/>
    <path d="M146.14,260.7a191.36,191.36,0,0,1,33.55-19.25V218.09c-18.33,8.34-33.82,18.2-45.64,29.18" class="cls-12" transform="translate(-66.77 -57.11)"/>
    <path d="M286,202.37a395,395,0,0,0-47.33,7.43v17.48A394.77,394.77,0,0,1,284.45,220" class="cls-12" transform="translate(-66.77 -57.11)"/>
    <path d="M441.68,143.92a272.71,272.71,0,0,1,38.11,14.41" class="cls-15" transform="translate(-66.77 -57.11)"/>
    <path d="M441.68,152.65a283,283,0,0,1,30.41,11" class="cls-15" transform="translate(-66.77 -57.11)"/>
    <path d="M441.68,161.39A279,279,0,0,1,475.92,174" class="cls-15" transform="translate(-66.77 -57.11)"/>
    <path d="M441.68,170.13q13.29,4,25.3,8.82" class="cls-15" transform="translate(-66.77 -57.11)"/>
    <path d="M393.28,396.67c8.62-14,22.76-26.88,41.16-37.9V334c-18.4,11-32.54,23.86-41.16,37.9" class="cls-12" transform="translate(-66.77 -57.11)"/>
    <path d="M469.34,342.4l2.79-1.09-.87.3q6.39-2.61,12.37-5.45V317.54q-6,2.83-12.37,5.45l.87-.3-2.79,1.09Z" class="cls-14" transform="translate(-66.77 -57.11)"/>
    <path d="M480.42,332.65V314q-6,2.84-12.37,5.45l.87-.3-2.79,1.09v18.62l2.79-1.09-.87.3c1.6-.65,3.18-1.32,4.75-2" class="cls-12" transform="translate(-66.77 -57.11)"/>
    <path d="M526.38,327c-1.85,1.9-3.82,3.77-5.88,5.6a157,157,0,0,1-27.64,19.28v34.44A157,157,0,0,0,520.5,367,106.47,106.47,0,0,0,533,353.92V319.47" class="cls-12" transform="translate(-66.77 -57.11)"/>
    <path d="M417.2,408.72q-4.67,3.7-8.74,7.6V402.86c2.71-2.59,5.63-5.13,8.74-7.59" class="cls-12" transform="translate(-66.77 -57.11)"/>
    <path d="M466.13,399.19l-1.24.5,2.94-1.15q-7.72,3-14.89,6.38" class="cls-15" transform="translate(-66.77 -57.11)"/>
    <path d="M452.94,396.47q7.15-3.36,14.89-6.38l-2.94,1.14c2.85-1.12,5.65-2.28,8.38-3.47" class="cls-15" transform="translate(-66.77 -57.11)"/>
    <path d="M452.94,388c4.77-2.24,11.95-5.24,11.95-5.24" class="cls-15" transform="translate(-66.77 -57.11)"/>
    <path d="M452.94,379.57q7.15-3.36,14.89-6.38l-2.94,1.14c4-1.56,7.84-3.2,11.59-4.89" class="cls-15" transform="translate(-66.77 -57.11)"/>
    <path d="M467.83,398.54" class="cls-15" transform="translate(-66.77 -57.11)"/>
    <path d="M467.83,398.54" class="cls-15" transform="translate(-66.77 -57.11)"/>
    <path d="M497.28,534.93A386.38,386.38,0,0,0,570,547.31V517c-31-2.38-59.84-8-85.14-16.08v9.32" class="cls-12" transform="translate(-66.77 -57.11)"/>
    <path d="M756.87,519.81q8.53-4.09,16.15-8.63" class="cls-15" transform="translate(-66.77 -57.11)"/>
    <path d="M756.87,511.61a199.73,199.73,0,0,0,20.69-11.42" class="cls-15" transform="translate(-66.77 -57.11)"/>
    <path d="M756.87,503.41a191.12,191.12,0,0,0,26.14-15" class="cls-15" transform="translate(-66.77 -57.11)"/>
    <path d="M777.45,353.6a124.35,124.35,0,0,1,25,22V359a124.7,124.7,0,0,0-25-22Z" class="cls-14" transform="translate(-66.77 -57.11)"/>
    <path d="M781.87,351a125,125,0,0,1,25,22V356.36a124.66,124.66,0,0,0-25-22Z" class="cls-12" transform="translate(-66.77 -57.11)"/>
    <path d="M679.51,327.46q11.49,2.09,22.34,4.77" class="cls-15" transform="translate(-66.77 -57.11)"/>
    <path d="M679.51,336c9.83,1.78,19.34,3.91,28.46,6.34" class="cls-15" transform="translate(-66.77 -57.11)"/>
    <path d="M679.51,344.46q9,1.62,17.56,3.63" class="cls-15" transform="translate(-66.77 -57.11)"/>
    <path d="M750.54,335.2v-18c-20.57-9.13-44.62-16.37-71-21.17v18a323.54,323.54,0,0,1,64,18.2" class="cls-12" transform="translate(-66.77 -57.11)"/>
    <path d="M683.14,376.55a349.15,349.15,0,0,1,40.28,9.74V372.86a347.1,347.1,0,0,0-40.28-9.74Z" class="cls-14" transform="translate(-66.77 -57.11)"/>
    <path d="M771.35,389.26c-3.63-2.22-7.44-4.37-11.4-6.44v19.55c4,2.07,7.77,4.22,11.4,6.45Z" class="cls-14" transform="translate(-66.77 -57.11)"/>
    <path d="M774.9,406.22V395.09c-3.63-2.23-7.44-4.38-11.4-6.45v19.55c4,2.08,7.77,4.23,11.4,6.45" class="cls-12" transform="translate(-66.77 -57.11)"/>
    <path d="M795.67,412.83V393.28a143.23,143.23,0,0,0-12.08-9.44v19.55q2.92,2.06,5.67,4.17" class="cls-12" transform="translate(-66.77 -57.11)"/>
    <path d="M755,369.3v19.55q-5.76-2.7-11.89-5.18V364.11c2.16.88,4.28,1.77,6.36,2.69" class="cls-12" transform="translate(-66.77 -57.11)"/>
    <path d="M653.83,686.52c26.34,15.48,42.63,34.64,41,51.71-2.69,28.14-53.12,39.91-112.65,26.29S476.57,717,479.26,688.88c2.07-21.75,32.69-33.73,74-31.75" class="cls-10" transform="translate(-66.77 -57.11)"/>
    <path d="M650.7,596c19.14,2.76,33.36,9.88,38.91,21.08,12.55,25.33-24.11,61.92-81.88,81.72S493,714.07,480.4,688.73c-11.54-23.29,18.51-56.09,68.31-76.61" class="cls-10" transform="translate(-66.77 -57.11)"/>
    <path d="M101.66,220.09c8.39,56.64,103.5,101.3,219.59,101.3q17,0,33.23-1.23V452.34q-16.26,1.21-33.23,1.24c-116.09,0-211.2-44.66-219.59-101.31Z" class="cls-3" transform="translate(-66.77 -57.11)"/>
    <path d="M739.07,466.28c-37.31,14.43-84.2,23-135.14,23-39.23,0-76.07-5.1-108-14" class="cls-15" transform="translate(-66.77 -57.11)"/>
    <path d="M809.06,419.73a104.82,104.82,0,0,1-12.92,13.57c-13,11.56-30.18,21.83-50.45,30.31" class="cls-12" transform="translate(-66.77 -57.11)"/>
    <path d="M438.05,439.87a229.13,229.13,0,0,1,29.78-14.06" class="cls-12" transform="translate(-66.77 -57.11)"/>
    <path d="M392.19,482.05a47.09,47.09,0,0,1,7.62-11.32c6.32-6.69,13.1-13.89,21.67-20.17" class="cls-15" transform="translate(-66.77 -57.11)"/>
    <path d="M788.94,452.48c20.23,15.54,32.75,33.79,34.87,53.42" class="cls-15" transform="translate(-66.77 -57.11)"/>
    <path d="M665,327.94l.21,78.75c42.23,6.07,79.24,18.25,106.9,34.49" class="cls-12" transform="translate(-66.77 -57.11)"/>
    <path d="M733.89,291.49a345.85,345.85,0,0,0-69.08-16.85l.13,46.39v4.5" class="cls-15" transform="translate(-66.77 -57.11)"/>
    <path d="M823.5,479.81l.63-99.95c0-34.5-32.1-65.26-82.25-85.32" class="cls-12" transform="translate(-66.77 -57.11)"/>
    <path d="M512.88,281.4c22.52,17.17,35.6,37.68,35.6,59.7,0,19.41-10.16,37.64-28,53.44-14.14,12.54-33.09,23.55-55.61,32.41" class="cls-12" transform="translate(-66.77 -57.11)"/>
    <path d="M375.6,234.18c48,5.22,90.11,18.22,120.76,36.2" class="cls-12" transform="translate(-66.77 -57.11)"/>
    <path d="M160.21,270.39c31.8-18.66,75.95-32,126.17-36.77" class="cls-12" transform="translate(-66.77 -57.11)"/>
    <path d="M108.09,341.1c0-15,6-29.24,17-42.24" class="cls-15" transform="translate(-66.77 -57.11)"/>
    <path d="M361.51,449.32c-10.83.81-21.93,1.24-33.22,1.24-116.1,0-211.21-44.66-219.6-101.31" class="cls-12" transform="translate(-66.77 -57.11)"/>
    <line x1="294.99" x2="294.97" y1="362.09" y2="391.37" class="cls-12"/>
    <line x1="295.03" x2="294.99" y1="289.93" y2="356.25" class="cls-15"/>
    <path d="M325.37,318.55h2.92q17.1,0,33.53-1.27l0,23.81" class="cls-12" transform="translate(-66.77 -57.11)"/>
    <path d="M213.63,302.57c31.08,9.43,67.22,15.15,105.93,15.9" class="cls-15" transform="translate(-66.77 -57.11)"/>
    <path d="M204.45,118.58c-58.16,19.7-96.36,52.89-96.36,90.52,0,38.56,40.11,72.46,100.72,92" class="cls-12" transform="translate(-66.77 -57.11)"/>
    <path d="M466.13,123.74c-37.73-15.07-85.67-24.09-137.84-24.09-43,0-83.17,6.13-117.09,16.73" class="cls-15" transform="translate(-66.77 -57.11)"/>
    <path d="M416.13,322.68c-20.55,16.64-32.39,36.22-32.39,57.18,0,39,41.09,73.28,102.93,92.66" class="cls-12" transform="translate(-66.77 -57.11)"/>
    <path d="M520.5,262.54c-13.47,11.95-31.31,22.51-52.45,31.15l.87-.31c-17.54,6.78-33,14.84-45.69,23.91" class="cls-15" transform="translate(-66.77 -57.11)"/>
    <path d="M473.27,126.72c46.1,20.06,75.21,49.53,75.21,82.38,0,17.32-8.09,33.7-22.5,48.26" class="cls-12" transform="translate(-66.77 -57.11)"/>
    <path d="M391.62,373.26c0,41.48,46.43,77.57,114.86,96.14q4,1.08,8.09,2.09c29.32,7.18,62.34,11.22,97.25,11.22,82.56,0,154.52-22.59,192.21-56,17.82-15.81,28-34,28-53.44v132c0,19.41-10.16,37.64-28,53.45-37.69,33.42-109.65,56-192.21,56-121.61,0-220.2-49-220.2-109.46Z" class="cls-3" transform="translate(-66.77 -57.11)"/>
    <path d="M712.79,586.16c37-9.87,67.65-24.85,88.17-43V523.66c-20.52,18.19-51.18,33.17-88.17,43Z" class="cls-14" transform="translate(-66.77 -57.11)"/>
    <line x1="608.67" x2="608.67" y1="487.26" y2="472.96" class="cls-12"/>
    <line x1="608.67" x2="608.67" y1="457.51" y2="457.51" class="cls-12"/>
    <line x1="545.04" x2="545.04" y1="503.53" y2="517.84" class="cls-12"/>
    <line x1="545.04" x2="545.04" y1="533.28" y2="533.28" class="cls-12"/>
    <line x1="592.76" x2="592.76" y1="502.5" y2="463.58" class="cls-12"/>
    <line x1="592.76" x2="592.76" y1="518.03" y2="518.03" class="cls-12"/>
    <line x1="560.95" x2="560.95" y1="498.94" y2="537.86" class="cls-12"/>
    <line x1="560.95" x2="560.95" y1="483.41" y2="483.41" class="cls-12"/>
    <line x1="576.86" x2="576.86" y1="539.85" y2="455.76" class="cls-12"/>
    <path d="M579.65,592.33c-6.53-.35-12-12.81-18.4-13.43-6.52-.65-14.39,10.47-20.69,9.54-6.49-1-10.82-13.87-17-15.1-6.45-1.29-15.4,9-21.54,7.42-6.39-1.63-9.29-14.94-15.3-16.87" class="cls-13" transform="translate(-66.77 -57.11)"/>
    <path d="M260,340.44V332.5a428.05,428.05,0,0,0,68.34,5.37v21.22" class="cls-12" transform="translate(-66.77 -57.11)"/>
    <path d="M320.85,359a424.58,424.58,0,0,1-60.9-5.32v-6" class="cls-15" transform="translate(-66.77 -57.11)"/>
    <path d="M265.13,423.42a362.79,362.79,0,0,1-49.22-10.74" class="cls-15" transform="translate(-66.77 -57.11)"/>
    <path d="M215.91,405.79V388.9a364.93,364.93,0,0,0,54.17,11.44v23.78" class="cls-12" transform="translate(-66.77 -57.11)"/>
    <path d="M139.6,361.06a161.88,161.88,0,0,0,23.14,15.72V390.7A160.24,160.24,0,0,1,139.6,375Z" class="cls-12" transform="translate(-66.77 -57.11)"/>
    <path d="M156.3,314.64c-18-11.17-31.66-24.13-39.78-38.25V258.64a87.05,87.05,0,0,0,11.71,15.69" class="cls-12" transform="translate(-66.77 -57.11)"/>
    <path d="M133.08,279.23a143.58,143.58,0,0,0,23.22,17.66v10.55" class="cls-15" transform="translate(-66.77 -57.11)"/>
    <path d="M199.27,370.81A39.54,39.54,0,0,1,190.65,358c-5.73-13.62-2.24-26.6,7.79-29,5.87-1.39,12.69,1.15,18.48,6.24" class="cls-12" transform="translate(-66.77 -57.11)"/>
    <path d="M222.25,341.1a40.09,40.09,0,0,1,4.73,8.3c5.73,13.62,2.24,26.59-7.79,29-4.65,1.11-9.88-.25-14.74-3.39" class="cls-15" transform="translate(-66.77 -57.11)"/>
    <path d="M710.16,541.43a305,305,0,0,0,33.05-10.58V491.44A305,305,0,0,1,710.16,502Z" class="cls-14" transform="translate(-66.77 -57.11)"/>
    <path d="M685.61,372.22a346.05,346.05,0,0,1,34.18,8.59V367.37a348.65,348.65,0,0,0-40.28-9.74v13.44" class="cls-12" transform="translate(-66.77 -57.11)"/>
    <path d="M739.07,526.85V487.44A304.86,304.86,0,0,1,706,498v39.41c8.91-2.32,17.47-4.94,25.61-7.83" class="cls-12" transform="translate(-66.77 -57.11)"/>
    <path d="M500.54,357q6.6-4.12,12.41-8.55" class="cls-15" transform="translate(-66.77 -57.11)"/>
    <path d="M500.54,363.88q3.81-2.37,7.36-4.86" class="cls-15" transform="translate(-66.77 -57.11)"/>
    <path d="M514.1,362.57A157.89,157.89,0,0,1,500.54,372" class="cls-15" transform="translate(-66.77 -57.11)"/>
    <path d="M514.1,363.88" class="cls-15" transform="translate(-66.77 -57.11)"/>
    <path d="M515.14,173.05c.84,15.22-5.72,27.4-18,30.31" class="cls-15" transform="translate(-66.77 -57.11)"/>
    <path d="M477.52,200.66,479,184.33a19.87,19.87,0,0,0,13,1.78" class="cls-15" transform="translate(-66.77 -57.11)"/>
    <path d="M131.57,309.72a132,132,0,0,0,16.94,14" class="cls-15" transform="translate(-66.77 -57.11)"/>
    <path d="M131.57,319.64a135.91,135.91,0,0,0,20.21,16.22" class="cls-15" transform="translate(-66.77 -57.11)"/>
    <path d="M131.57,329.55a124.73,124.73,0,0,0,11,9.56" class="cls-15" transform="translate(-66.77 -57.11)"/>
    <path d="M418.32,486.64A164.06,164.06,0,0,0,436,498.51" class="cls-15" transform="translate(-66.77 -57.11)"/>
    <path d="M418.32,495.61a167.2,167.2,0,0,0,20.76,13.65" class="cls-15" transform="translate(-66.77 -57.11)"/>
    <path d="M418.32,504.59a161.15,161.15,0,0,0,13.78,9.54" class="cls-15" transform="translate(-66.77 -57.11)"/>
    <path d="M478.57,540.52c-.9,13.65-7.79,24.13-19.44,26.9-13.81,3.28-30.42-5.19-42.41-20.11" class="cls-15" transform="translate(-66.77 -57.11)"/>
    <path d="M410.91,538.94a73.68,73.68,0,0,1-4.66-9.22c-10.62-25.24-4.16-49.28,14.43-53.69s42.26,12.46,52.88,37.7a64.25,64.25,0,0,1,4.91,19.12" class="cls-12" transform="translate(-66.77 -57.11)"/>
    <path d="M493.29,606.51c-65.51-19-109.55-54.25-109.55-94.65V406.22" class="cls-12" transform="translate(-66.77 -57.11)"/>
    <path d="M702.73,609.7c-29.71,7.43-63.27,11.61-98.8,11.61-37.37,0-72.57-4.63-103.4-12.79" class="cls-15" transform="translate(-66.77 -57.11)"/>
    <path d="M824.13,511.86c0,19.4-10.16,37.63-28,53.44-20.4,18.09-50.83,33-87.54,42.88" class="cls-12" transform="translate(-66.77 -57.11)"/>
    <path d="M796.14,540.14V520.69c-20.51,18.19-51.17,33.17-88.17,43v19.46q6.25-1.66,12.25-3.52" class="cls-12" transform="translate(-66.77 -57.11)"/>
    <path d="M725.89,577.85c26.54-8.79,49-20.37,65.75-33.89" class="cls-15" transform="translate(-66.77 -57.11)"/>
    <path d="M385.8,222.53v-10c-3.37-.45-6.77-.87-10.2-1.24v10l3,.34" class="cls-12" transform="translate(-66.77 -57.11)"/>
    <path d="M389.36,197.24c-3.37-.46-6.76-.87-10.19-1.24v10c3.43.37,6.82.79,10.19,1.24v-10Z" class="cls-14" transform="translate(-66.77 -57.11)"/>
    <path d="M385.8,193.74q-5.06-.69-10.2-1.24v10c3.43.37,6.83.79,10.2,1.24v-3.37" class="cls-12" transform="translate(-66.77 -57.11)"/>
    <path d="M418.69,228.38q12.3,2.76,23.75,6.22V218.73" class="cls-15" transform="translate(-66.77 -57.11)"/>
    <path d="M437.1,217.16c-10.47-3-21.48-5.51-32.94-7.6v15.87q4.86.88,9.6,1.88" class="cls-12" transform="translate(-66.77 -57.11)"/>
    <path d="M324.84,363.36a426,426,0,0,1-60.9-5.31V336.83a428,428,0,0,0,68.34,5.38v21.21" class="cls-16" transform="translate(-66.77 -57.11)"/>
    <g class="cls-17">
        <path d="M428.49,614.52a13.25,13.25,0,0,1-4.12-.67c-7.5-2.43-14.58-11.25-19.43-24.19-3.41-9.62-4.16-19.29-2.11-27.27a1.5,1.5,0,0,1,2.91.74c-1.91,7.41-1.19,16.47,2,25.5,4.45,11.88,11,20.25,17.54,22.37a10.06,10.06,0,0,0,9-1.33c9.7-6.52,19.1-27.73,16.69-45.31a25.42,25.42,0,0,0-4.92-11.86,1.5,1.5,0,0,1,2.36-1.86A28.49,28.49,0,0,1,454,563.92c2.6,19-7.36,41.09-18,48.24A13.38,13.38,0,0,1,428.49,614.52Z" class="cls-11" transform="translate(-66.77 -57.11)"/>
        <path d="M437.71,630.65a1.49,1.49,0,0,1-1.12-2.49c1.68-1.91,4.65-4.76,8.42-8.37,19.31-18.51,59.48-57,48.21-86.39a64.64,64.64,0,0,0-12.62-16.07,1.5,1.5,0,0,1,2-2.21A68.13,68.13,0,0,1,495.89,532l.09.19C508.1,563.49,466.89,603,447.08,622c-3.71,3.56-6.64,6.37-8.24,8.18A1.49,1.49,0,0,1,437.71,630.65Z" class="cls-11" transform="translate(-66.77 -57.11)"/>
        <path d="M425.51,635h0c-11.5-.18-27.75-14-35.7-52.51a208.77,208.77,0,0,0-8.88-32,1.5,1.5,0,1,1,2.82-1,212,212,0,0,1,9,32.47c7.1,34.35,21.6,49.91,32.81,50.09a1.5,1.5,0,0,1,1.48,1.52A1.51,1.51,0,0,1,425.51,635Z" class="cls-11" transform="translate(-66.77 -57.11)"/>
        <path d="M448.93,642.9a1.5,1.5,0,0,1-1.13-2.49c6.68-7.68,19.92-20.29,35.26-34.88,8.76-8.35,17.83-17,27.05-26,26.84-27.62,47.83-52.42,32.57-76a94.76,94.76,0,0,0-7-7.9,1.5,1.5,0,0,1,2.14-2.11,100.46,100.46,0,0,1,7.24,8.21l.08.11c7.78,12,7.51,25.18-.82,40.45-7.22,13.22-19.31,26.14-32.11,39.32-9.26,9-18.33,17.68-27.1,26-15.28,14.54-28.48,27.1-35.07,34.68A1.5,1.5,0,0,1,448.93,642.9Z" class="cls-11" transform="translate(-66.77 -57.11)"/>
        <path d="M417.18,654.86a1.51,1.51,0,0,1-.68-.16c-13-6.64-31.84-31.05-42.06-78A154.75,154.75,0,0,0,361,537.35a1.5,1.5,0,1,1,2.67-1.36,157.45,157.45,0,0,1,13.71,40.08c10,45.91,28.06,69.62,40.49,76a1.5,1.5,0,0,1,.66,2A1.52,1.52,0,0,1,417.18,654.86Z" class="cls-11" transform="translate(-66.77 -57.11)"/>
        <path d="M453.87,661.57a1.5,1.5,0,0,1-1.16-2.45c15.55-19,47.29-48.43,84.91-78.6l1.39-1.17c38.36-32.07,81.82-68.41,61.48-100a42.46,42.46,0,0,0-4.87-5.8,1.5,1.5,0,1,1,2.13-2.11,44.77,44.77,0,0,1,5.24,6.25c21.8,33.89-22.75,71.14-62,104l-1.42,1.19C502,612.9,470.45,642.12,455,661A1.48,1.48,0,0,1,453.87,661.57Z" class="cls-11" transform="translate(-66.77 -57.11)"/>
        <path d="M417.59,677.28a1.46,1.46,0,0,1-.78-.22c-13.43-8.13-40.8-39.42-58.19-105.16-4.84-19.5-12.53-36.83-22.86-51.51a1.5,1.5,0,0,1,2.46-1.73c10.54,15,18.39,32.65,23.31,52.49,10.45,39.52,32.7,88.74,56.83,103.35a1.5,1.5,0,0,1-.77,2.78Z" class="cls-11" transform="translate(-66.77 -57.11)"/>
        <path d="M322.11,389.83a1.5,1.5,0,0,1-.15-3c48.58-4.76,85.16-6.88,118.5-6.79a1.5,1.5,0,0,1,0,3h0c-33.27-.06-69.73,2-118.21,6.78Z" class="cls-11" transform="translate(-66.77 -57.11)"/>
        <path d="M457.52,683.61a1.42,1.42,0,0,1-.81-.24,1.49,1.49,0,0,1-.45-2.07c17-26.36,57.29-63.32,107.86-98.85l6.57-4.8c41.9-30.54,89.4-65.16,94.19-98.44,1.49-10.33-1.18-19.77-8.16-28.86a61,61,0,0,0-8.87-8.67,1.5,1.5,0,1,1,1.88-2.34,63.92,63.92,0,0,1,9.34,9.15c7.42,9.67,10.37,20.13,8.78,31.15-5,34.53-53,69.54-95.39,100.43l-6.59,4.81c-50.3,35.35-90.32,72-107.09,98A1.48,1.48,0,0,1,457.52,683.61Z" class="cls-11" transform="translate(-66.77 -57.11)"/>
        <path d="M422.93,702.21a1.46,1.46,0,0,1-.78-.22c-18.27-11.25-54.57-56.21-79.69-134-8.63-28.69-23.57-52.94-44.42-72.14a1.5,1.5,0,1,1,2-2.2c21.25,19.56,36.48,44.27,45.25,73.44,13.1,40.54,46,112.34,78.4,132.31a1.5,1.5,0,0,1-.79,2.77Z" class="cls-11" transform="translate(-66.77 -57.11)"/>
        <path d="M328.71,569.12a1.5,1.5,0,0,1-1.4-1c-.28-.7-.55-1.43-.82-2.15l-.35-.92A1.5,1.5,0,0,1,329,564l.35.93c.27.7.53,1.41.8,2.11a1.49,1.49,0,0,1-.84,1.94A1.54,1.54,0,0,1,328.71,569.12Z" class="cls-11" transform="translate(-66.77 -57.11)"/>
        <path d="M196.27,373.25a1.5,1.5,0,0,1-.28-3C304.21,350.19,381.37,342,461.78,342h1.54a1.5,1.5,0,1,1,0,3h-1.54c-80.22,0-157.21,8.21-265.24,28.26Z" class="cls-11" transform="translate(-66.77 -57.11)"/>
        <path d="M461.8,708.43a1.5,1.5,0,0,1-1.38-2.09c7.17-16.63,34.59-62.09,134.26-124.76,7.13-4.9,14.52-9.83,22.33-15.05,33.36-22.27,67.85-45.3,88.06-69.83C719.24,480,725.6,463.92,724,448.8c-1.55-14.5-10.52-28.11-26.66-40.46-.87-.61-1.81-1.25-2.77-1.88A1.5,1.5,0,0,1,696.2,404c1,.65,1.95,1.31,2.9,2,16.86,12.9,26.22,27.21,27.86,42.56,1.71,16-4.88,32.85-19.59,50.15-20.48,24.85-55.16,48-88.69,70.39-7.81,5.22-15.19,10.14-22.36,15.07-38.38,24.14-69.93,48.25-93.82,71.7-24.39,23.94-34.85,41.35-39.32,51.74A1.5,1.5,0,0,1,461.8,708.43Z" class="cls-11" transform="translate(-66.77 -57.11)"/>
        <path d="M433.41,729.84a1.57,1.57,0,0,1-.72-.18c-12.71-7-37-32.27-66.89-82a1.5,1.5,0,0,1,2.57-1.55c18.53,30.78,46.88,70.43,65.77,80.89a1.5,1.5,0,0,1,.58,2A1.47,1.47,0,0,1,433.41,729.84Z" class="cls-11" transform="translate(-66.77 -57.11)"/>
        <path d="M302.88,318.57a1.5,1.5,0,0,1-.21-3C380.38,304.48,433,298.1,508.91,303.06a1.5,1.5,0,1,1-.2,3c-75.57-4.94-128.09,1.43-205.61,12.51Z" class="cls-11" transform="translate(-66.77 -57.11)"/>
        <path d="M468.22,735.81a1.24,1.24,0,0,1-.33,0,1.48,1.48,0,0,1-1.14-1.78c2.89-13.26,11.75-34.92,37.51-62.76,26.51-28.66,65.14-57.73,114.81-86.4,10.3-6.65,21.25-13.37,32.83-20.49,41-25.15,87.38-53.66,110.55-84.07,15-18.51,21-37,17.79-55.06-3.82-21.67-20.68-41.62-50.13-59.32a416.13,416.13,0,0,0-56.28-25.32,1.5,1.5,0,0,1,1-2.82,420.37,420.37,0,0,1,56.75,25.54c30.27,18.19,47.61,38.84,51.59,61.4,3.33,18.92-2.85,38.25-18.39,57.44C741.32,513,694.65,541.61,653.47,566.9c-11.57,7.1-22.5,13.82-32.83,20.49-49.48,28.56-87.87,57.44-114.18,85.88-25.3,27.35-34,48.46-36.78,61.36A1.49,1.49,0,0,1,468.22,735.81Z" class="cls-11" transform="translate(-66.77 -57.11)"/>
        <path d="M445.8,758.32a1.58,1.58,0,0,1-.78-.21c-12.47-7.5-33.24-29.92-57-61.51a1.5,1.5,0,1,1,2.4-1.8c23.53,31.29,44,53.43,56.15,60.73a1.5,1.5,0,0,1,.51,2.06A1.48,1.48,0,0,1,445.8,758.32Z" class="cls-11" transform="translate(-66.77 -57.11)"/>
        <path d="M286,660.11" class="cls-18" transform="translate(-66.77 -57.11)"/>
        <path d="M129.12,353.8a1.5,1.5,0,0,1-.44-2.93c36.36-11.26,72.79-18.2,110-24.9a1.49,1.49,0,0,1,1.74,1.21,1.51,1.51,0,0,1-1.21,1.74c-37.14,6.68-73.47,13.61-109.67,24.81A1.31,1.31,0,0,1,129.12,353.8Z" class="cls-11" transform="translate(-66.77 -57.11)"/>
        <path d="M564.51,640.73a1.5,1.5,0,0,1-.92-2.68c24.5-19,58.29-38.21,94.07-58.55,44.94-25.54,91.41-52,129-82.73,25-21.19,53.64-54.06,47.82-90.26-4.41-32.39-35.78-64.66-86.08-88.57C648.15,272.66,559.73,263.27,502,260.15a1.5,1.5,0,0,1,.17-3c58,3.14,146.8,12.57,247.59,58.07C801,339.58,833,372.69,837.49,406.07c4.78,29.71-12.12,61.88-48.87,93-37.85,31-84.43,57.44-129.48,83-35.68,20.28-69.38,39.43-93.71,58.31A1.52,1.52,0,0,1,564.51,640.73Z" class="cls-11" transform="translate(-66.77 -57.11)"/>
        <path d="M477.93,766.41h-.14a1.49,1.49,0,0,1-1.35-1.63c1.33-14.57,5.07-36.91,22-62.59a1.5,1.5,0,0,1,2.51,1.65c-16.35,24.83-20.08,45.76-21.5,61.21A1.5,1.5,0,0,1,477.93,766.41Z" class="cls-11" transform="translate(-66.77 -57.11)"/>
        <path d="M460.9,787.85a1.48,1.48,0,0,1-.87-.28c-10.49-7.5-27.5-24.78-47.89-48.66a1.5,1.5,0,0,1,2.28-1.95c20.24,23.7,37.05,40.81,47.35,48.17a1.51,1.51,0,0,1,.35,2.1A1.48,1.48,0,0,1,460.9,787.85Z" class="cls-11" transform="translate(-66.77 -57.11)"/>
        <path d="M286.84,628.82" class="cls-18" transform="translate(-66.77 -57.11)"/>
        <path d="M109.24,454.32" class="cls-18" transform="translate(-66.77 -57.11)"/>
        <path d="M253.08,240.57a1.5,1.5,0,0,1-.38-2.95l.84-.22c6.56-1.73,13.06-3.45,19.58-5.14a1.5,1.5,0,0,1,.75,2.91c-6.51,1.69-13,3.4-19.57,5.13l-.84.22A1.58,1.58,0,0,1,253.08,240.57Z" class="cls-11" transform="translate(-66.77 -57.11)"/>
        <path d="M321,223.73a1.5,1.5,0,0,1-.32-3c18-3.91,35.2-7,52.62-9.53a1.5,1.5,0,1,1,.42,3c-17.34,2.49-34.49,5.6-52.4,9.49A1.17,1.17,0,0,1,321,223.73Z" class="cls-11" transform="translate(-66.77 -57.11)"/>
        <path d="M603.94,630.44a1.46,1.46,0,0,1-1.24-.67,1.49,1.49,0,0,1,.41-2.08c24-16.06,54.14-32.1,86-49.08C747,547.8,812.51,512.87,853,470.51c15.29-16.37,25.1-33.59,29.13-51.16,4.31-18.77,1.88-37.55-7.22-55.81-18.16-38.33-67.56-76.94-132.15-103.31-142-54.18-245.18-56-319.24-51.56a1.5,1.5,0,0,1-.18-3c74.35-4.47,178-2.62,320.52,51.77,65.3,26.65,115.29,65.82,133.75,104.79,9.41,18.87,11.92,38.32,7.45,57.79-4.16,18.09-14.21,35.78-29.88,52.55-40.83,42.73-106.61,77.77-164.64,108.69-31.8,16.94-61.84,33-85.75,48.93A1.52,1.52,0,0,1,603.94,630.44Z" class="cls-11" transform="translate(-66.77 -57.11)"/>
        <path d="M492.26,798.05a1.5,1.5,0,0,1-1.49-1.32,132.77,132.77,0,0,1,.37-38,1.5,1.5,0,1,1,3,.48,130,130,0,0,0-.35,37.14,1.5,1.5,0,0,1-1.31,1.67Z" class="cls-11" transform="translate(-66.77 -57.11)"/>
        <path d="M480,818.92a1.56,1.56,0,0,1-1-.34c-9-7.37-22.07-20.2-37.85-37.1a1.5,1.5,0,0,1,2.2-2.05C459.12,796.24,472.11,809,481,816.25a1.51,1.51,0,0,1,.2,2.12A1.48,1.48,0,0,1,480,818.92Z" class="cls-11" transform="translate(-66.77 -57.11)"/>
        <path d="M266.39,623" class="cls-18" transform="translate(-66.77 -57.11)"/>
        <path d="M125.49,489.61" class="cls-18" transform="translate(-66.77 -57.11)"/>
        <path d="M621.8,634.49a1.5,1.5,0,0,1-.8-2.77c25.67-16.22,57.5-32.45,91.2-49.63,55.44-28.26,118.27-60.3,163.9-98.42A1.5,1.5,0,0,1,878,486c-45.88,38.34-108.88,70.46-164.45,98.79-33.64,17.15-65.41,33.35-91,49.49A1.49,1.49,0,0,1,621.8,634.49Z" class="cls-11" transform="translate(-66.77 -57.11)"/>
        <path d="M511.38,832.16a1.5,1.5,0,0,1-1.42-1A179.43,179.43,0,0,1,504.7,812a1.5,1.5,0,1,1,2.93-.62,178.93,178.93,0,0,0,5.18,18.86,1.52,1.52,0,0,1-1.43,2Z" class="cls-11" transform="translate(-66.77 -57.11)"/>
        <path d="M498.75,847a1.52,1.52,0,0,1-1-.39c-4.57-4.2-9.88-9.26-15.78-15a1.5,1.5,0,0,1,2.1-2.14c5.88,5.77,11.17,10.81,15.71,15a1.5,1.5,0,0,1-1,2.6Z" class="cls-11" transform="translate(-66.77 -57.11)"/>
        <path d="M188.59,203.91a1.5,1.5,0,0,1-.52-2.91c8.86-3.3,17.51-6.66,26.65-10.22,12.12-4.71,24.64-9.57,37.86-14.37a1.5,1.5,0,1,1,1,2.82c-13.19,4.78-25.7,9.65-37.8,14.35-9.16,3.56-17.81,6.92-26.69,10.23A1.42,1.42,0,0,1,188.59,203.91Z" class="cls-11" transform="translate(-66.77 -57.11)"/>
        <path d="M589.43,158.37a1.53,1.53,0,0,1-.3,0c-47.63-9.53-92.23-14.25-136.35-14.43-42.82.64-81.26,4.53-117.5,11.9a1.5,1.5,0,0,1-.6-2.94c36.42-7.41,75.05-11.32,118.08-12,44.35.18,89.14,4.92,137,14.49a1.5,1.5,0,0,1-.29,3Z" class="cls-11" transform="translate(-66.77 -57.11)"/>
    </g>
    <path d="M285.49,599.65a.64.64,0,1,0-.63-.64A.64.64,0,0,0,285.49,599.65Zm4.82,0a.64.64,0,1,0-.64-.64A.64.64,0,0,0,290.31,599.65Zm4.81,0a.64.64,0,1,0-.63-.64A.64.64,0,0,0,295.12,599.65Zm-24.07,4.79a.64.64,0,1,0-.64-.64A.64.64,0,0,0,271.05,604.44Zm4.81,0a.64.64,0,1,0-.63-.64A.64.64,0,0,0,275.86,604.44Zm-14.44,4.79a.64.64,0,1,0-.64-.64A.64.64,0,0,0,261.42,609.23Zm4.82,0a.64.64,0,1,0-.64-.64A.64.64,0,0,0,266.24,609.23ZM256.61,614a.64.64,0,1,0-.64-.64A.64.64,0,0,0,256.61,614Zm28.88,0a.64.64,0,0,0,0-1.28.64.64,0,0,0,0,1.28Zm-33.7,4.78a.64.64,0,1,0-.64-.63A.64.64,0,0,0,251.79,618.8Zm19.26,0a.64.64,0,1,0-.64-.63A.64.64,0,0,0,271.05,618.8Zm4.81,0a.64.64,0,1,0-.63-.63A.63.63,0,0,0,275.86,618.8Zm4.82,0a.64.64,0,1,0-.64-.63A.64.64,0,0,0,280.68,618.8Zm4.81,0a.64.64,0,1,0-.63-.63A.63.63,0,0,0,285.49,618.8ZM247,623.59a.64.64,0,1,0-.64-.64A.63.63,0,0,0,247,623.59Zm19.26,0a.64.64,0,1,0-.64-.64A.63.63,0,0,0,266.24,623.59Zm4.81,0a.64.64,0,1,0-.64-.64A.64.64,0,0,0,271.05,623.59Zm4.81,0a.64.64,0,1,0-.63-.64A.63.63,0,0,0,275.86,623.59Zm4.82,0A.64.64,0,1,0,280,623,.64.64,0,0,0,280.68,623.59Zm4.81,0a.64.64,0,1,0-.63-.64A.63.63,0,0,0,285.49,623.59ZM247,628.38a.64.64,0,0,0,0-1.28.64.64,0,1,0,0,1.28Zm14.44,0a.64.64,0,0,0,.64-.64.64.64,0,0,0-1.28,0A.64.64,0,0,0,261.42,628.38Zm4.82,0a.64.64,0,0,0,0-1.28.64.64,0,0,0,0,1.28Zm4.81,0a.64.64,0,0,0,.64-.64.64.64,0,0,0-1.28,0A.64.64,0,0,0,271.05,628.38Zm4.81,0a.64.64,0,1,0-.63-.64A.63.63,0,0,0,275.86,628.38Zm4.82,0a.64.64,0,0,0,.64-.64.64.64,0,0,0-1.28,0A.64.64,0,0,0,280.68,628.38Zm4.81,0a.64.64,0,1,0-.63-.64A.63.63,0,0,0,285.49,628.38Zm-43.33,4.79a.64.64,0,1,0-.64-.64A.64.64,0,0,0,242.16,633.17Zm14.45,0a.64.64,0,1,0-.64-.64A.64.64,0,0,0,256.61,633.17Zm4.81,0a.64.64,0,1,0-.64-.64A.64.64,0,0,0,261.42,633.17Zm4.82,0a.64.64,0,1,0-.64-.64A.64.64,0,0,0,266.24,633.17Zm4.81,0a.64.64,0,1,0-.64-.64A.64.64,0,0,0,271.05,633.17Zm4.81,0a.64.64,0,1,0-.63-.64A.64.64,0,0,0,275.86,633.17Zm4.82,0a.64.64,0,1,0-.64-.64A.64.64,0,0,0,280.68,633.17Zm4.81,0a.64.64,0,1,0-.63-.64A.64.64,0,0,0,285.49,633.17ZM242.16,638a.64.64,0,1,0-.64-.64A.64.64,0,0,0,242.16,638Zm14.45,0a.64.64,0,1,0-.64-.64A.64.64,0,0,0,256.61,638Zm4.81,0a.64.64,0,1,0-.64-.64A.64.64,0,0,0,261.42,638Zm4.82,0a.64.64,0,1,0-.64-.64A.64.64,0,0,0,266.24,638Zm4.81,0a.64.64,0,1,0-.64-.64A.64.64,0,0,0,271.05,638Zm4.81,0a.64.64,0,1,0-.63-.64A.64.64,0,0,0,275.86,638Zm4.82,0a.64.64,0,1,0-.64-.64A.64.64,0,0,0,280.68,638Zm4.81,0a.64.64,0,1,0-.63-.64A.64.64,0,0,0,285.49,638Zm-43.33,4.79a.64.64,0,1,0-.64-.64A.64.64,0,0,0,242.16,642.75Zm4.82,0a.64.64,0,1,0-.64-.64A.64.64,0,0,0,247,642.75Zm9.63,0a.64.64,0,1,0-.64-.64A.64.64,0,0,0,256.61,642.75Zm4.81,0a.64.64,0,1,0-.64-.64A.64.64,0,0,0,261.42,642.75Zm4.82,0a.64.64,0,1,0-.64-.64A.64.64,0,0,0,266.24,642.75Zm4.81,0a.64.64,0,1,0-.64-.64A.64.64,0,0,0,271.05,642.75Zm4.81,0a.64.64,0,1,0-.63-.64A.64.64,0,0,0,275.86,642.75Zm-33.7,4.79a.64.64,0,1,0-.64-.64A.64.64,0,0,0,242.16,647.54Zm4.82,0a.64.64,0,1,0-.64-.64A.64.64,0,0,0,247,647.54Zm14.44,0a.64.64,0,1,0-.64-.64A.64.64,0,0,0,261.42,647.54Zm4.82,0a.64.64,0,1,0-.64-.64A.64.64,0,0,0,266.24,647.54Zm4.81,0a.64.64,0,1,0-.64-.64A.64.64,0,0,0,271.05,647.54ZM247,652.33a.64.64,0,1,0-.64-.64A.64.64,0,0,0,247,652.33Zm4.81,0a.64.64,0,0,0,.64-.64.64.64,0,1,0-1.28,0A.64.64,0,0,0,251.79,652.33Zm14.45,0a.64.64,0,1,0-.64-.64A.64.64,0,0,0,266.24,652.33Zm4.81,0a.64.64,0,0,0,.64-.64.64.64,0,0,0-1.28,0A.64.64,0,0,0,271.05,652.33Zm-19.26,4.78a.64.64,0,1,0-.64-.63A.64.64,0,0,0,251.79,657.11Zm4.82,0a.64.64,0,1,0-.64-.63A.63.63,0,0,0,256.61,657.11Zm-19.26,4.79a.64.64,0,1,0-.64-.64A.63.63,0,0,0,237.35,661.9Zm19.26,0a.64.64,0,1,0-.64-.64A.63.63,0,0,0,256.61,661.9Zm4.81,0a.64.64,0,1,0-.64-.64A.64.64,0,0,0,261.42,661.9Zm-19.26,4.79a.64.64,0,0,0,.64-.64.64.64,0,0,0-1.28,0A.64.64,0,0,0,242.16,666.69Zm24.08,0a.64.64,0,0,0,0-1.28.64.64,0,0,0,0,1.28Zm4.81,0a.64.64,0,0,0,.64-.64.64.64,0,0,0-1.28,0A.64.64,0,0,0,271.05,666.69Zm-28.89,4.79a.64.64,0,1,0-.64-.64A.64.64,0,0,0,242.16,671.48Zm4.82,0a.64.64,0,1,0-.64-.64A.64.64,0,0,0,247,671.48Zm-4.82,4.79a.64.64,0,1,0-.64-.64A.64.64,0,0,0,242.16,676.27Zm4.82,0a.64.64,0,1,0-.64-.64A.64.64,0,0,0,247,676.27Zm4.81,0a.64.64,0,1,0-.64-.64A.64.64,0,0,0,251.79,676.27ZM247,681.06a.64.64,0,1,0-.64-.64A.64.64,0,0,0,247,681.06Zm4.81,0a.64.64,0,1,0-.64-.64A.64.64,0,0,0,251.79,681.06Zm4.82,0a.64.64,0,1,0-.64-.64A.64.64,0,0,0,256.61,681.06Zm4.81,0a.64.64,0,1,0-.64-.64A.64.64,0,0,0,261.42,681.06Zm-9.63,4.79a.64.64,0,0,0,.64-.64.64.64,0,0,0-1.28,0A.64.64,0,0,0,251.79,685.85Zm4.82,0a.64.64,0,1,0-.64-.64A.64.64,0,0,0,256.61,685.85Zm0,4.79A.64.64,0,1,0,256,690,.64.64,0,0,0,256.61,690.64ZM535.87,800.78a.64.64,0,0,0,.64-.64.64.64,0,1,0-.64.64Zm4.81,0a.64.64,0,0,0,.64-.64.64.64,0,1,0-1.28,0A.64.64,0,0,0,540.68,800.78Zm-14.44,4.78a.64.64,0,1,0-.64-.63A.64.64,0,0,0,526.24,805.56Zm4.81,0a.64.64,0,1,0-.64-.63A.64.64,0,0,0,531.05,805.56Zm-14.44,4.79a.64.64,0,1,0,0-1.27.64.64,0,1,0,0,1.27Zm4.81,0a.64.64,0,1,0-.64-.64A.63.63,0,0,0,521.42,810.35Zm24.08,0a.64.64,0,1,0,0-1.27.64.64,0,1,0,0,1.27Zm43.33,0a.64.64,0,1,0-.64-.64A.64.64,0,0,0,588.83,810.35Zm4.82,0a.64.64,0,1,0-.64-.64A.63.63,0,0,0,593.65,810.35Zm4.81,0a.64.64,0,1,0-.64-.64A.64.64,0,0,0,598.46,810.35Zm4.81,0a.64.64,0,1,0-.63-.64A.63.63,0,0,0,603.27,810.35Zm4.82,0a.64.64,0,1,0-.64-.64A.64.64,0,0,0,608.09,810.35Zm4.81,0a.64.64,0,1,0-.63-.64A.63.63,0,0,0,612.9,810.35Zm4.82,0a.64.64,0,1,0-.64-.64A.64.64,0,0,0,617.72,810.35Zm4.81,0a.64.64,0,1,0-.63-.64A.63.63,0,0,0,622.53,810.35Zm-110.74,4.79a.64.64,0,0,0,0-1.28.64.64,0,0,0-.64.64A.64.64,0,0,0,511.79,815.14Zm4.82,0a.64.64,0,0,0,.64-.64.64.64,0,0,0-.64-.64.64.64,0,1,0,0,1.28Zm19.26,0a.64.64,0,0,0,.64-.64.64.64,0,0,0-.64-.64.64.64,0,1,0,0,1.28Zm4.81,0a.64.64,0,0,0,.64-.64.64.64,0,1,0-1.28,0A.64.64,0,0,0,540.68,815.14Zm4.82,0a.64.64,0,0,0,.64-.64.64.64,0,0,0-.64-.64.64.64,0,0,0,0,1.28Zm4.81,0a.64.64,0,0,0,.64-.64.64.64,0,1,0-1.28,0A.64.64,0,0,0,550.31,815.14Zm38.52,0a.64.64,0,0,0,.64-.64.64.64,0,0,0-1.28,0A.64.64,0,0,0,588.83,815.14Zm4.82,0a.64.64,0,0,0,0-1.28.64.64,0,1,0,0,1.28Zm4.81,0a.64.64,0,0,0,.64-.64.64.64,0,0,0-1.28,0A.64.64,0,0,0,598.46,815.14Zm4.81,0a.64.64,0,1,0-.63-.64A.63.63,0,0,0,603.27,815.14Zm4.82,0a.64.64,0,0,0,.64-.64.64.64,0,0,0-1.28,0A.64.64,0,0,0,608.09,815.14Zm4.81,0a.64.64,0,1,0-.63-.64A.63.63,0,0,0,612.9,815.14ZM507,819.93a.64.64,0,1,0-.64-.64A.64.64,0,0,0,507,819.93Zm4.81,0a.64.64,0,0,0,0-1.28.64.64,0,0,0,0,1.28Zm19.26,0a.64.64,0,1,0-.64-.64A.64.64,0,0,0,531.05,819.93Zm4.82,0a.64.64,0,1,0,0-1.28.64.64,0,1,0,0,1.28Zm14.44,0a.64.64,0,1,0-.64-.64A.64.64,0,0,0,550.31,819.93Zm38.52,0a.64.64,0,1,0-.64-.64A.64.64,0,0,0,588.83,819.93Zm4.82,0a.64.64,0,1,0-.64-.64A.64.64,0,0,0,593.65,819.93Zm4.81,0a.64.64,0,1,0-.64-.64A.64.64,0,0,0,598.46,819.93ZM507,824.72a.64.64,0,1,0-.64-.64A.64.64,0,0,0,507,824.72Zm4.81,0a.64.64,0,0,0,0-1.28.64.64,0,0,0,0,1.28Zm14.45,0a.64.64,0,0,0,0-1.28.64.64,0,0,0,0,1.28Zm4.81,0a.64.64,0,1,0-.64-.64A.64.64,0,0,0,531.05,824.72Zm24.08,0a.64.64,0,1,0-.64-.64A.64.64,0,0,0,555.13,824.72Zm33.7,0a.64.64,0,1,0-.64-.64A.64.64,0,0,0,588.83,824.72Zm-86.67,4.79a.64.64,0,0,0,0-1.28.64.64,0,0,0,0,1.28Zm4.82,0a.64.64,0,1,0-.64-.64A.64.64,0,0,0,507,829.51Zm-4.82,4.79a.64.64,0,1,0-.64-.64A.64.64,0,0,0,502.16,834.3Zm4.82,0a.64.64,0,0,0,.64-.64.64.64,0,0,0-1.28,0A.64.64,0,0,0,507,834.3Zm-4.82,4.79a.64.64,0,1,0-.64-.64A.64.64,0,0,0,502.16,839.09Zm4.82,0a.64.64,0,0,0,.64-.64.64.64,0,0,0-1.28,0A.64.64,0,0,0,507,839.09Zm-4.82,4.78a.64.64,0,1,0-.64-.64A.63.63,0,0,0,502.16,843.87Zm4.82,0a.64.64,0,1,0-.64-.64A.64.64,0,0,0,507,843.87Zm-4.82,4.79a.64.64,0,1,0,0-1.28.64.64,0,0,0-.64.64A.64.64,0,0,0,502.16,848.66Zm4.82,0a.64.64,0,0,0,.64-.64.64.64,0,0,0-1.28,0A.64.64,0,0,0,507,848.66Zm-4.82,4.79a.64.64,0,0,0,0-1.28.64.64,0,1,0,0,1.28Zm4.82,0a.64.64,0,1,0-.64-.64A.64.64,0,0,0,507,853.45Zm-4.82,4.79a.64.64,0,0,0,0-1.28.64.64,0,0,0,0,1.28Zm0,4.79a.64.64,0,0,0,0-1.28.64.64,0,0,0,0,1.28Zm0,4.79a.64.64,0,0,0,0-1.28.64.64,0,1,0,0,1.28Zm4.82,0a.64.64,0,1,0-.64-.64A.64.64,0,0,0,507,867.82Zm0,4.79a.64.64,0,0,0,.64-.64.64.64,0,0,0-1.28,0A.64.64,0,0,0,507,872.61Zm0,4.78a.64.64,0,1,0-.64-.63A.64.64,0,0,0,507,877.39Z" class="cls-6" transform="translate(-66.77 -57.11)"/>
    <path d="M437.94,527.81a58.09,58.09,0,0,1-1.31-12.11A56.91,56.91,0,0,1,440.68,496,43.62,43.62,0,0,1,446,485.85c-7.88-4.2-16.11-5.83-23.52-4.07-18.59,4.41-25.05,28.45-14.44,53.69s34.3,42.11,52.88,37.7c.78-.19,1.53-.42,2.26-.67A84.56,84.56,0,0,1,437.94,527.81Z" class="cls-16" transform="translate(-66.77 -57.11)"/>
    <path d="M224.81,346.52a65.89,65.89,0,0,1-11.74,6.13,46.83,46.83,0,0,1-15.6,3.84,28,28,0,0,1-6.53-.49,35.56,35.56,0,0,0,2.24,7.4c5.73,13.62,18.51,22.73,28.54,20.35s13.52-15.36,7.79-29A40.13,40.13,0,0,0,224.81,346.52Z" class="cls-16" transform="translate(-66.77 -57.11)"/>
</svg>
