<svg width="310" height="378" viewBox="0 0 310 378" fill="none" xmlns="http://www.w3.org/2000/svg">
<g clip-path="url(#clip0)">
<path fill-rule="evenodd" clip-rule="evenodd" d="M0 36H310V322H0V36Z" fill="#F8F9FB"/>
<path fill-rule="evenodd" clip-rule="evenodd" d="M155.82 72C162.94 72 169.9 69.8887 175.821 65.9329C181.741 61.9772 186.355 56.3548 189.08 49.7766C191.804 43.1985 192.517 35.9601 191.128 28.9768C189.739 21.9934 186.311 15.5789 181.276 10.5442C176.241 5.50948 169.827 2.08081 162.843 0.691746C155.86 -0.697322 148.622 0.0155983 142.043 2.74035C135.465 5.46511 129.843 10.0793 125.887 15.9995C121.931 21.9197 119.82 28.8799 119.82 36C119.82 45.5478 123.613 54.7046 130.364 61.4559C137.115 68.2072 146.272 72 155.82 72V72Z" fill="#FD55D8"/>
<path d="M146.87 49.09V44.09L156.81 35.09C157.385 34.5394 157.892 33.9217 158.32 33.25C158.702 32.6205 158.9 31.8963 158.89 31.16C158.91 30.7549 158.843 30.3503 158.695 29.9728C158.547 29.5954 158.32 29.2536 158.03 28.97C157.726 28.6758 157.366 28.4468 156.97 28.2972C156.574 28.1476 156.152 28.0805 155.73 28.1C155.261 28.0872 154.795 28.1773 154.365 28.3639C153.935 28.5505 153.551 28.8291 153.24 29.18C152.585 29.962 152.196 30.9322 152.13 31.95L146.33 31.16C146.426 29.9946 146.76 28.8613 147.31 27.8295C147.861 26.7977 148.616 25.8893 149.53 25.16C150.416 24.4315 151.435 23.8814 152.53 23.54C153.677 23.1521 154.88 22.9562 156.09 22.96C157.246 22.9584 158.397 23.1166 159.51 23.43C160.575 23.7212 161.575 24.2096 162.46 24.87C163.323 25.5178 164.025 26.3563 164.51 27.32C165.062 28.3883 165.337 29.5779 165.31 30.78C165.321 31.6205 165.2 32.4574 164.95 33.26C164.71 33.9696 164.374 34.6426 163.95 35.26C163.513 35.8889 163.014 36.4719 162.46 37C161.93 37.53 161.38 38.06 160.8 38.58L154.9 43.84H165.3V49.1L146.87 49.09Z" fill="white"/>
<path d="M45.46 182.34C29.4 242.92 36.71 274.45 97.29 290.52C157.87 306.59 248.78 301.1 264.85 240.52C280.92 179.94 246.62 154.3 186 138.23C125.38 122.16 61.53 121.76 45.46 182.34Z" fill="white"/>
<path d="M161.85 219.14C164.322 220.85 167.245 221.79 170.25 221.84C171.749 221.845 173.225 221.467 174.537 220.743C175.85 220.019 176.955 218.971 177.75 217.7C178.75 215.97 179.38 213.49 181.36 213.31C182.63 213.19 183.7 214.18 184.72 214.95C189.96 218.89 197.32 218.08 203.62 216.3C209.92 214.52 216.45 211.62 220.32 206.25C224.19 200.88 225.2 193.18 230.39 188.85C232.7 186.92 235.61 185.85 238.19 184.36C243.389 181.246 247.161 176.221 248.7 170.36C247.66 187.52 247.167 204.703 247.22 221.91C246.229 220.9 244.994 220.164 243.634 219.773C242.274 219.383 240.837 219.351 239.461 219.682C238.086 220.012 236.819 220.693 235.785 221.658C234.751 222.624 233.984 223.84 233.56 225.19C232.45 228.73 233.56 233.32 230.63 235.64C229.719 236.308 228.645 236.719 227.52 236.83C223.78 237.36 220.07 236.01 216.52 234.83C212.97 233.65 209.02 232.66 205.44 233.83C201.86 235 199.08 239.29 200.8 242.65L172.35 229.34C169.976 228.372 167.758 227.058 165.77 225.44C164.782 224.619 163.986 223.593 163.436 222.432C162.887 221.271 162.598 220.004 162.59 218.72" fill="#E7EDF5"/>
<path d="M75.31 294.5C71.1714 273.186 70.7485 251.318 74.06 229.86C74.4909 227.89 74.589 225.862 74.35 223.86C74.0018 222.298 73.4185 220.797 72.62 219.41C70.8 216 68.77 212.58 67.24 209C62.67 198.19 62.97 186 63.33 174.31C63.2688 172.421 63.5815 170.538 64.25 168.77C65.47 166.08 68.25 164.43 70.97 163.36C71.4603 163.056 72.049 162.953 72.6134 163.072C73.1779 163.191 73.6745 163.524 74 164C79.1 169.37 81.28 176.88 82.4 184.21C83.52 191.54 83.77 199.03 85.82 206.15L92.66 206.55C92.5142 208.543 92.8356 210.543 93.5987 212.389C94.3617 214.236 95.5453 215.88 97.0553 217.189C98.5653 218.498 100.36 219.436 102.296 219.929C104.233 220.423 106.258 220.457 108.21 220.03C109.95 219.66 111.62 218.91 113.39 218.69C116.06 218.37 118.72 219.26 121.27 220.13C124.37 221.2 127.73 222.48 129.35 225.33C130.228 227.167 130.623 229.198 130.5 231.23C130.5 235.4 129.86 239.56 129.96 243.73C130.225 252.962 133.977 261.752 140.46 268.33C142.26 270.14 144.38 272.01 144.64 274.54C144.85 276.64 143.69 278.63 142.27 280.19C140.603 282.016 138.554 283.453 136.27 284.4L125.69 270.75C122.309 279.779 122.52 289.762 126.28 298.64C116.66 302.42 106 302.34 95.66 301.96C88.43 301.69 80.78 301.17 74.8 297.1" fill="#FFBD26"/>
<path d="M251.5 267.67C251.5 267.67 259.34 267.1 260.01 264C260.68 260.9 260.67 184.24 260.67 175.76C260.67 167.28 260.47 159.14 249.11 152.7L179.59 113.26C177.34 111.99 172.69 106.81 168.68 111.03C168.08 111.67 161 112.28 167.01 115.03C173.02 117.78 237.01 153.62 240.81 155.83C244.61 158.04 251.81 160.77 252.15 177.25C252.49 193.73 251.5 267.67 251.5 267.67Z" fill="#E7EDF5"/>
<path d="M184.12 153.34L169.12 144.97C167.2 143.89 165.63 144.58 165.63 146.5C165.741 147.618 166.114 148.694 166.721 149.639C167.328 150.585 168.15 151.373 169.12 151.94L182.26 159.28L184.1 160.28L184.12 153.34Z" fill="#FFBD26"/>
<path d="M215.45 155.34L223.29 159.75C224.258 160.32 225.079 161.111 225.683 162.058C226.288 163.005 226.66 164.082 226.77 165.2C226.77 167.12 225.21 167.8 223.29 166.72L169.55 136.43C168.583 135.859 167.763 135.068 167.159 134.121C166.554 133.174 166.181 132.098 166.07 130.98C166.07 129.06 167.64 128.38 169.55 129.46L173.93 131.92L175.67 132.92L213 154" fill="#FF4EDA"/>
<path d="M234.34 183.35C234.715 182.387 234.747 181.324 234.431 180.34C234.115 179.357 233.469 178.512 232.604 177.947C231.738 177.383 230.704 177.134 229.677 177.242C228.649 177.35 227.69 177.808 226.96 178.54L209.96 195.54L207.82 197.68L195.66 209.85L185.31 193.24C184.679 192.227 183.671 191.506 182.508 191.236C181.346 190.966 180.123 191.169 179.11 191.8C178.097 192.431 177.376 193.439 177.106 194.602C176.836 195.764 177.039 196.987 177.67 198L191 219.41C191.358 219.986 191.842 220.473 192.415 220.835C192.988 221.197 193.636 221.424 194.31 221.5C194.48 221.51 194.65 221.51 194.82 221.5C195.411 221.501 195.996 221.385 196.542 221.158C197.088 220.932 197.584 220.599 198 220.18L232.47 185.72" fill="#FF4EDA"/>
<path d="M193.85 157L168.77 143C166.85 141.93 165.28 142.62 165.28 144.54C165.391 145.657 165.765 146.731 166.371 147.675C166.978 148.619 167.8 149.406 168.77 149.97L180.69 156.64" stroke="#6240B8" stroke-width="2" stroke-linecap="round" stroke-linejoin="round"/>
<path d="M195.63 158.53C196.631 159.615 197.234 161.008 197.34 162.48C197.34 164.4 195.77 165.09 193.85 164.01L184 158.49V154.83" stroke="#6240B8" stroke-width="1.24" stroke-linecap="round" stroke-linejoin="round" stroke-dasharray="1.86 1.86 0.62 1.86 1.86 0.62"/>
<path d="M212.23 151.96L174.88 130.91" stroke="#6240B8" stroke-width="1.24" stroke-linecap="round" stroke-linejoin="round" stroke-dasharray="1.86 1.86 0.62 1.86 1.86 0.62"/>
<path d="M173.14 129.92L168.76 127.46C166.85 126.38 165.28 127.06 165.28 128.98C165.391 130.098 165.764 131.174 166.369 132.121C166.973 133.068 167.793 133.859 168.76 134.43L222.5 164.72C224.41 165.8 225.98 165.12 225.98 163.2C225.869 162.082 225.496 161.006 224.891 160.059C224.287 159.112 223.467 158.321 222.5 157.75L214.66 153.34" stroke="#6240B8" stroke-width="2" stroke-linecap="round" stroke-linejoin="round"/>
<path d="M207.17 248.91L242.58 268.57" stroke="#6240B8" stroke-width="2" stroke-linecap="round" stroke-linejoin="round"/>
<path d="M165.28 225.64L205.81 248.15" stroke="#6240B8" stroke-width="1.86" stroke-linecap="round" stroke-linejoin="round" stroke-dasharray="0.46 2.32"/>
<path d="M224 147.5L163.22 113.74C159.85 111.87 157.1 113.49 157.1 117.34V214.1C157.216 216.196 157.832 218.234 158.897 220.043C159.961 221.853 161.444 223.381 163.22 224.5" stroke="#6240B8" stroke-width="2" stroke-linecap="round" stroke-linejoin="round"/>
<path d="M248.7 192.08V168.22C248.582 166.124 247.965 164.087 246.9 162.278C245.836 160.469 244.355 158.941 242.58 157.82L226 148.6" stroke="#6240B8" stroke-width="1.86" stroke-linecap="round" stroke-linejoin="round" stroke-dasharray="0.46 2.32"/>
<path d="M248.7 264.97V194.21" stroke="#6240B8" stroke-width="2" stroke-linecap="round" stroke-linejoin="round"/>
<path d="M230.84 184.05L196.38 218.51C195.536 219.353 194.393 219.828 193.2 219.83H192.69C192.016 219.756 191.368 219.529 190.794 219.167C190.221 218.805 189.737 218.317 189.38 217.74L176 196.3C175.687 195.798 175.477 195.24 175.38 194.657C175.283 194.074 175.302 193.478 175.436 192.902C175.57 192.326 175.815 191.782 176.159 191.302C176.503 190.821 176.938 190.413 177.44 190.1C177.942 189.788 178.5 189.577 179.083 189.48C179.666 189.383 180.263 189.402 180.838 189.536C181.414 189.67 181.958 189.916 182.438 190.259C182.919 190.603 183.327 191.038 183.64 191.54L194 208.15L206.19 196" stroke="#6240B8" stroke-width="2" stroke-linecap="round" stroke-linejoin="round"/>
<path d="M208.32 193.84L225.32 176.84C226.051 176.114 227.009 175.661 228.033 175.557C229.058 175.452 230.087 175.702 230.95 176.265C231.812 176.828 232.456 177.67 232.772 178.65C233.089 179.63 233.06 180.689 232.69 181.65" stroke="#6240B8" stroke-width="1.86" stroke-linecap="round" stroke-linejoin="round" stroke-dasharray="0.46 2.32"/>
<path d="M257.45 255.56V262.06C257.45 264.06 256.73 265.41 255.58 266.06L246.64 269.06" stroke="#6240B8" stroke-width="2" stroke-linecap="round" stroke-linejoin="round"/>
<path d="M257.45 216.94V239.91" stroke="#6240B8" stroke-width="1.24" stroke-linecap="round" stroke-linejoin="round" stroke-dasharray="1.86 1.86 0.62 1.86 1.86 0.62"/>
<path d="M213.1 133.68L251.33 154.91C254.69 156.78 257.45 161.46 257.04 164.56V213.81" stroke="#6240B8" stroke-width="2" stroke-linecap="round" stroke-linejoin="round"/>
<path d="M165.28 111.22L167.98 110.33C168.64 110.096 169.346 110.02 170.041 110.108C170.736 110.197 171.4 110.447 171.98 110.84L210.73 132.36" stroke="#6240B8" stroke-width="1.24" stroke-linecap="round" stroke-linejoin="round" stroke-dasharray="1.86 1.86 0.62 1.86 1.86 0.62"/>
<path d="M267.52 203.42V245.76" stroke="#E7EDF5" stroke-width="1.86" stroke-linecap="round" stroke-linejoin="round" stroke-dasharray="0.46 2.32"/>
<path d="M231.18 135.07L261.4 151.85C263.176 152.969 264.659 154.497 265.723 156.307C266.788 158.116 267.404 160.154 267.52 162.25V199.75" stroke="#E7EDF5" stroke-width="2" stroke-linecap="round" stroke-linejoin="round"/>
<path d="M184.46 109.12L197.34 116.27" stroke="#E7EDF5" stroke-width="2" stroke-linecap="round" stroke-linejoin="round"/>
<path d="M277.59 215.41V233.78" stroke="#E7EDF5" stroke-width="2" stroke-linecap="round" stroke-linejoin="round"/>
<path d="M277.59 189.38V210.9" stroke="#E7EDF5" stroke-width="1.24" stroke-linecap="round" stroke-linejoin="round" stroke-dasharray="1.86 1.86 0.62 1.86 1.86 0.62"/>
<path d="M185.43 105.09L188.12 104.19C188.782 103.962 189.487 103.89 190.181 103.98C190.875 104.07 191.539 104.32 192.12 104.71L245.56 134.38" stroke="#E7EDF5" stroke-width="2" stroke-linecap="round" stroke-linejoin="round"/>
<path d="M91.25 123.71C92.1623 123.087 93.1502 122.583 94.19 122.21C95.56 121.8 93.31 111.81 85.71 115.21C78.11 118.61 78.12 124.52 78.12 124.52" stroke="#6240B8" stroke-width="2" stroke-linecap="round" stroke-linejoin="round"/>
<path d="M124.3 184.82C125.499 184.418 126.597 183.763 127.52 182.9L122 178.25C121.881 177.214 121.605 176.202 121.18 175.25" stroke="#6240B8" stroke-width="2" stroke-linecap="round" stroke-linejoin="round"/>
<path d="M124.37 187.76C124.37 187.76 128.37 202.2 114.11 204.32" stroke="#6240B8" stroke-width="2" stroke-linecap="round" stroke-linejoin="round"/>
<path d="M82.9 175.79C89.4 157.58 104.39 161.69 111.71 162.85C119.03 164.01 120.81 159.91 120.81 159.91C125.12 167.51 119.72 172.77 116.16 174.62C112.6 176.47 117 184 117 184L115.36 185.23" stroke="#6240B8" stroke-width="2" stroke-linecap="round" stroke-linejoin="round"/>
<path d="M83.25 180.16C83.25 180.16 82.69 200.21 100.25 203.43" stroke="#6240B8" stroke-width="1.24" stroke-linecap="round" stroke-linejoin="round" stroke-dasharray="1.86 1.86 0.62 1.86 1.86 0.62"/>
<path d="M112.12 182.9C111.57 182.29 107.2 183.11 106.99 187.01C106.78 190.91 110.62 196.65 114.65 193.92" stroke="#6240B8" stroke-width="2" stroke-linecap="round" stroke-linejoin="round"/>
<path d="M108.7 201L109.11 211.41C106.797 212.162 104.3 212.127 102.009 211.309C99.7186 210.491 97.7636 208.937 96.45 206.89C96.45 206.89 87.21 204.29 83.24 206.82" stroke="#6240B8" stroke-width="2" stroke-linecap="round" stroke-linejoin="round"/>
<path d="M115.3 218.44C118.47 219.5 123.2 221.52 125.74 224.71" stroke="#6240B8" stroke-width="2" stroke-linecap="round" stroke-linejoin="round"/>
<path d="M91.39 209.38C91.39 209.38 92.39 223.07 112.12 217.52" stroke="#6240B8" stroke-width="2" stroke-linecap="round" stroke-linejoin="round"/>
<path d="M126.84 275L126.58 274.67C121.96 268.88 116.8 260.06 115.88 248.88" stroke="#6240B8" stroke-width="1.86" stroke-linecap="round" stroke-linejoin="round" stroke-dasharray="0.46 2.32"/>
<path d="M127.17 228.33C127.17 228.33 128.34 229.63 128.27 238.39C128.2 247.15 132.27 267.06 142.71 272.26C142.71 272.26 142.71 279.51 134.22 282.46C132.076 280.724 130.094 278.796 128.3 276.7" stroke="#6240B8" stroke-width="2" stroke-linecap="round" stroke-linejoin="round"/>
<path d="M145.51 274C145.51 274 154.13 263.26 154.68 254.71C153.271 253.733 152.274 252.269 151.88 250.6" stroke="#6240B8" stroke-width="2" stroke-linecap="round" stroke-linejoin="round"/>
<path d="M154.68 250.09C154.68 250.09 151.26 246.09 156.25 244.76C161.24 243.43 167.34 250.09 163.25 258.1" stroke="#6240B8" stroke-width="2" stroke-linecap="round" stroke-linejoin="round"/>
<path d="M161.93 260.36C161.93 260.36 150.68 291.69 139.29 283.96" stroke="#6240B8" stroke-width="2" stroke-linecap="round" stroke-linejoin="round"/>
<path d="M144.42 281.16C144.42 281.16 144.83 280.16 145.51 280.27" stroke="#6240B8" stroke-width="2" stroke-linecap="round" stroke-linejoin="round"/>
<path d="M112.12 217.52L109.11 211.37" stroke="#6240B8" stroke-width="2" stroke-linecap="round" stroke-linejoin="round"/>
<path d="M62 187C62.66 197.91 65.08 211.26 72 221.95" stroke="#6240B8" stroke-width="1.86" stroke-linecap="round" stroke-linejoin="round" stroke-dasharray="0.46 2.32"/>
<path d="M82.56 203.43C82.56 203.43 80.44 176.67 74.08 163.43C74.08 163.43 70.79 158.98 62.58 166.71C61.8895 172.436 61.6554 178.207 61.88 183.97" stroke="#6240B8" stroke-width="2" stroke-linecap="round" stroke-linejoin="round"/>
<path d="M72.57 225.8C72.57 225.8 65.39 263.44 71.68 294.09" stroke="#6240B8" stroke-width="2" stroke-linecap="round" stroke-linejoin="round"/>
<path d="M123.55 275.55C123.55 275.55 122.73 291.42 123.55 298.74" stroke="#6240B8" stroke-width="2" stroke-linecap="round" stroke-linejoin="round"/>
<path d="M73.94 159.5C73.94 159.5 80.24 134.8 85.78 128.71C85.78 128.71 89.27 128.03 90.57 126.31" stroke="#6240B8" stroke-width="2" stroke-linecap="round" stroke-linejoin="round"/>
<path d="M77.09 127.32C70.7972 137.763 66.5262 149.297 64.5 161.32" stroke="#6240B8" stroke-width="1.86" stroke-linecap="round" stroke-linejoin="round" stroke-dasharray="0.46 2.32"/>
<path d="M260.67 246.51C260.664 246.406 260.632 246.305 260.578 246.217C260.524 246.128 260.449 246.053 260.36 246L254.53 242.94C254.36 242.85 254.22 242.94 254.22 243.12V249.8C254.226 249.904 254.258 250.004 254.312 250.093C254.366 250.182 254.441 250.257 254.53 250.31L260.36 253.37C260.53 253.46 260.67 253.37 260.67 253.19V246.51Z" fill="#FFBD26"/>
<path d="M146.15 139.93C146.146 139.867 146.126 139.805 146.093 139.751C146.06 139.697 146.014 139.652 145.96 139.62L142.38 137.74C142.361 137.726 142.339 137.718 142.316 137.717C142.292 137.716 142.269 137.721 142.249 137.733C142.229 137.745 142.213 137.762 142.202 137.783C142.192 137.803 142.187 137.827 142.19 137.85V142C142.195 142.064 142.215 142.127 142.248 142.182C142.281 142.238 142.326 142.285 142.38 142.32L145.96 144.2C146.07 144.2 146.15 144.2 146.15 144.08V139.93Z" stroke="#6240B8" stroke-width="2" stroke-linecap="round" stroke-linejoin="round"/>
<path d="M105.93 119.9C105.927 119.831 105.907 119.764 105.872 119.705C105.838 119.646 105.789 119.596 105.73 119.56L101.81 117.5C101.79 117.484 101.765 117.474 101.739 117.472C101.713 117.47 101.687 117.476 101.664 117.489C101.642 117.502 101.623 117.521 101.612 117.544C101.6 117.568 101.596 117.594 101.6 117.62V122.11C101.605 122.179 101.627 122.247 101.663 122.306C101.7 122.365 101.75 122.415 101.81 122.45L105.73 124.51C105.84 124.57 105.93 124.51 105.93 124.39V119.9Z" fill="#E7EDF5"/>
<path d="M98.17 92.18C98.1692 92.1211 98.1531 92.0633 98.1233 92.0125C98.0935 91.9617 98.051 91.9194 98 91.89L94.74 90.18C94.7228 90.1687 94.7029 90.1625 94.6824 90.162C94.6618 90.1615 94.6416 90.1668 94.6239 90.1772C94.6062 90.1876 94.5918 90.2027 94.5823 90.2209C94.5728 90.239 94.5685 90.2595 94.57 90.28V94C94.5733 94.057 94.5906 94.1123 94.6202 94.1611C94.6498 94.2099 94.691 94.2507 94.74 94.28L98 96C98.1 96 98.17 96 98.17 95.89V92.18Z" stroke="#6240B8" stroke-width="2" stroke-linecap="round" stroke-linejoin="round"/>
<path d="M80.22 102.49C80.2152 102.406 80.1899 102.325 80.1463 102.254C80.1027 102.182 80.0421 102.123 79.97 102.08L75.26 99.6099C75.13 99.5299 75.01 99.61 75.01 99.76V105.15C75.0157 105.233 75.0413 105.314 75.0848 105.386C75.1284 105.457 75.1885 105.517 75.26 105.56L80 108C80.0253 108.017 80.0551 108.027 80.0859 108.028C80.1166 108.029 80.147 108.021 80.1734 108.006C80.1998 107.99 80.221 107.967 80.2346 107.939C80.2482 107.911 80.2536 107.881 80.25 107.85L80.22 102.49Z" fill="#FFBD26"/>
<path d="M150.055 129.805C151.419 128.986 151.536 126.676 150.317 124.644C149.097 122.613 147.003 121.63 145.64 122.448C144.276 123.267 144.159 125.577 145.378 127.608C146.597 129.64 148.691 130.623 150.055 129.805Z" fill="#FF4EDA"/>
<path d="M92.025 106.955C93.5167 106.06 93.6454 103.534 92.3125 101.313C90.9796 99.0917 88.6898 98.017 87.1982 98.9122C85.7065 99.8075 85.5778 102.334 86.9106 104.555C88.2435 106.776 90.5333 107.85 92.025 106.955Z" fill="#FF4EDA"/>
<path d="M243.987 280.586C244.821 280.085 244.893 278.674 244.148 277.433C243.404 276.193 242.124 275.592 241.291 276.093C240.458 276.593 240.386 278.004 241.13 279.245C241.875 280.485 243.154 281.086 243.987 280.586Z" stroke="#6240B8" stroke-width="2" stroke-linecap="round" stroke-linejoin="round"/>
<path d="M209.631 124.665C210.465 124.165 210.537 122.754 209.792 121.513C209.047 120.272 207.768 119.672 206.935 120.172C206.101 120.673 206.029 122.084 206.774 123.324C207.518 124.565 208.798 125.165 209.631 124.665Z" stroke="#6240B8" stroke-width="2" stroke-linecap="round" stroke-linejoin="round"/>
<path d="M103.518 111.09C104.427 110.545 104.506 109.004 103.693 107.65C102.88 106.296 101.484 105.64 100.575 106.186C99.6655 106.731 99.5873 108.272 100.4 109.626C101.213 110.98 102.609 111.636 103.518 111.09Z" stroke="#6240B8" stroke-width="2" stroke-linecap="round" stroke-linejoin="round"/>
<path d="M262.4 263.84L275.58 259.5" stroke="#E7EDF5" stroke-width="1.24" stroke-linecap="round" stroke-linejoin="round" stroke-dasharray="1.86 1.86 0.62 1.86 1.86 0.62"/>
<path d="M255.13 81.6L259.67 80.11" stroke="#E7EDF5" stroke-width="1.24" stroke-linecap="round" stroke-linejoin="round" stroke-dasharray="1.86 1.86 0.62 1.86 1.86 0.62"/>
<path d="M231.18 89.49L247.62 84.08" stroke="#E7EDF5" stroke-width="1.24" stroke-linecap="round" stroke-linejoin="round" stroke-dasharray="1.86 1.86 0.62 1.86 1.86 0.62"/>
<path d="M193.85 101.78L222.99 92.1899" stroke="#E7EDF5" stroke-width="1.24" stroke-linecap="round" stroke-linejoin="round" stroke-dasharray="1.86 1.86 0.62 1.86 1.86 0.62"/>
<path d="M218.05 243.65C219.527 245.162 221.339 246.307 223.34 246.99C224.013 247.249 224.75 247.294 225.45 247.12C226.14 246.804 226.714 246.28 227.09 245.62C227.779 244.626 228.349 243.556 228.79 242.43C229.139 241.633 229.313 240.77 229.3 239.9C229.255 238.875 228.907 237.887 228.3 237.06C227.7 236.29 226.87 235.93 226.3 236.27C225.5 236.75 225.45 238.27 225.55 239.69C225.64 240.92 225.8 242.17 226.02 243.43C226.41 245.56 227.12 247.95 228.49 249.35C229.126 250.025 229.987 250.444 230.91 250.53C231.673 250.548 232.43 250.387 233.12 250.06C234.06 249.66 235.04 249.13 236.12 249.62C237.046 250.177 237.877 250.879 238.58 251.7C239.39 252.47 240.33 253.14 241.08 252.87" stroke="#FF4EDA" stroke-width="1.72" stroke-linecap="round" stroke-linejoin="round"/>
<path d="M178.81 163.53L165.78 156.68" stroke="#6240B8" stroke-width="1.86" stroke-linecap="round" stroke-linejoin="round" stroke-dasharray="0.46 2.32"/>
<path d="M165.78 162.33L175.8 167.6" stroke="#6240B8" stroke-width="1.24" stroke-linecap="round" stroke-linejoin="round" stroke-dasharray="1.86 1.86 0.62 1.86 1.86 0.62"/>
<path d="M165.78 167.98L178.17 174.49" stroke="#6240B8" stroke-width="1.24" stroke-linecap="round" stroke-linejoin="round" stroke-dasharray="1.86 1.86 0.62 1.86 1.86 0.62"/>
<g style="mix-blend-mode:multiply" opacity="0.13">
<g style="mix-blend-mode:multiply" opacity="0.13">
<path d="M188 165.58C187.841 165.584 187.683 165.549 187.54 165.48C185.63 164.57 183.76 163.58 181.97 162.48C181.849 162.408 181.742 162.314 181.657 162.201C181.573 162.088 181.511 161.96 181.476 161.824C181.44 161.687 181.432 161.545 181.452 161.405C181.471 161.266 181.518 161.131 181.59 161.01C181.662 160.888 181.756 160.782 181.869 160.697C181.982 160.613 182.11 160.551 182.246 160.515C182.383 160.48 182.525 160.472 182.665 160.492C182.804 160.511 182.939 160.558 183.06 160.63C184.8 161.63 186.61 162.63 188.46 163.5C188.661 163.613 188.82 163.789 188.913 164C189.007 164.211 189.029 164.447 188.977 164.672C188.925 164.897 188.802 165.099 188.626 165.248C188.45 165.397 188.23 165.486 188 165.5V165.58Z" fill="#5D7287"/>
</g>
<g style="mix-blend-mode:multiply" opacity="0.13">
<path d="M193.79 176.37C193.694 176.379 193.596 176.379 193.5 176.37C185.258 174.122 177.473 170.446 170.5 165.51C170.269 165.343 170.113 165.092 170.066 164.811C170.019 164.531 170.085 164.242 170.25 164.01C170.332 163.895 170.435 163.796 170.555 163.721C170.675 163.646 170.808 163.595 170.948 163.572C171.087 163.549 171.23 163.554 171.368 163.586C171.505 163.618 171.635 163.677 171.75 163.76C178.533 168.553 186.104 172.117 194.12 174.29C194.371 174.36 194.588 174.519 194.732 174.737C194.875 174.955 194.934 175.218 194.899 175.476C194.863 175.735 194.736 175.972 194.539 176.143C194.343 176.315 194.091 176.41 193.83 176.41L193.79 176.37Z" fill="#5D7287"/>
</g>
<g style="mix-blend-mode:multiply" opacity="0.13">
<path d="M194.11 184.16C194.04 184.17 193.97 184.17 193.9 184.16C181.775 182.041 170.376 176.911 160.75 169.24C160.64 169.151 160.549 169.042 160.482 168.918C160.414 168.794 160.372 168.658 160.357 168.518C160.342 168.378 160.355 168.236 160.395 168.101C160.435 167.966 160.501 167.84 160.59 167.73C160.679 167.62 160.788 167.529 160.912 167.462C161.036 167.394 161.172 167.352 161.312 167.337C161.452 167.322 161.594 167.335 161.729 167.375C161.864 167.415 161.99 167.481 162.1 167.57C171.46 174.994 182.53 179.955 194.3 182C194.575 182.035 194.825 182.175 194.998 182.391C195.172 182.606 195.255 182.881 195.23 183.156C195.206 183.432 195.075 183.688 194.866 183.869C194.657 184.051 194.386 184.144 194.11 184.13V184.16Z" fill="#5D7287"/>
</g>
<g style="mix-blend-mode:multiply" opacity="0.13">
<path d="M194.66 191.43H194.53L193.53 191.31C176.05 189.22 161.41 182.63 150.03 171.7C149.855 171.496 149.763 171.235 149.77 170.966C149.778 170.698 149.885 170.442 150.071 170.248C150.257 170.055 150.509 169.938 150.777 169.919C151.044 169.901 151.31 169.983 151.52 170.15C162.52 180.74 176.78 187.15 193.78 189.15L194.78 189.28C194.921 189.288 195.058 189.323 195.185 189.384C195.312 189.445 195.425 189.531 195.519 189.636C195.613 189.741 195.685 189.863 195.732 189.996C195.778 190.129 195.798 190.27 195.79 190.41C195.782 190.551 195.747 190.688 195.686 190.815C195.625 190.942 195.539 191.055 195.434 191.149C195.329 191.243 195.207 191.315 195.074 191.362C194.941 191.408 194.801 191.428 194.66 191.42V191.43Z" fill="#5D7287"/>
</g>
<g style="mix-blend-mode:multiply" opacity="0.13">
<path d="M193.08 198.19H193L188.27 197.68C166.04 195.38 148.41 185.83 135.88 169.3C135.708 169.073 135.632 168.787 135.671 168.505C135.709 168.223 135.858 167.967 136.085 167.795C136.312 167.623 136.598 167.547 136.88 167.586C137.162 167.624 137.418 167.773 137.59 168C149.75 184 166.88 193.3 188.49 195.54L193.25 196.06C193.534 196.076 193.8 196.204 193.989 196.416C194.178 196.628 194.276 196.906 194.26 197.19C194.244 197.474 194.116 197.74 193.904 197.929C193.692 198.118 193.414 198.216 193.13 198.2L193.08 198.19Z" fill="#5D7287"/>
</g>
<g style="mix-blend-mode:multiply" opacity="0.13">
<path d="M243.89 252.09C243.763 252.09 243.638 252.067 243.52 252.02C226.4 245.72 200.52 236.21 156.52 235.88C84.36 235.35 72.07 161 69.1 105.13C69.0862 104.848 69.1831 104.573 69.3699 104.361C69.5568 104.15 69.8188 104.021 70.1 104C70.24 103.99 70.3806 104.009 70.5135 104.054C70.6463 104.099 70.7689 104.171 70.874 104.264C70.9792 104.357 71.0648 104.47 71.1259 104.596C71.187 104.723 71.2224 104.86 71.23 105C73.3 143.83 79.16 171.55 89.69 192.23C103.78 219.91 125.69 233.48 156.55 233.71C200.89 234.04 226.98 243.63 244.25 249.98C244.486 250.069 244.683 250.239 244.808 250.459C244.932 250.678 244.975 250.935 244.93 251.183C244.885 251.432 244.754 251.656 244.56 251.818C244.367 251.98 244.122 252.069 243.87 252.07L243.89 252.09Z" fill="#5D7287"/>
</g>
<g style="mix-blend-mode:multiply" opacity="0.13">
<path d="M245 260.13C244.87 260.132 244.741 260.108 244.62 260.06L242.21 259.16C221.56 251.45 195.87 241.87 151.29 242.25C119.47 242.52 95.86 228.25 81.29 199.84C81.1574 199.587 81.1308 199.291 81.2162 199.018C81.3015 198.745 81.4917 198.518 81.745 198.385C81.9983 198.252 82.2939 198.226 82.5667 198.311C82.8396 198.396 83.0674 198.587 83.2 198.84C97.47 226.58 119.45 240.08 150.37 240.08H151.32C196.32 239.72 222.2 249.35 243.01 257.08L245.42 257.98C245.655 258.069 245.852 258.238 245.977 258.456C246.101 258.675 246.145 258.93 246.101 259.178C246.057 259.426 245.928 259.651 245.736 259.814C245.544 259.976 245.302 260.067 245.05 260.07L245 260.13Z" fill="#5D7287"/>
</g>
<g style="mix-blend-mode:multiply" opacity="0.13">
<path d="M72.49 175.35C72.2619 175.344 72.0419 175.264 71.862 175.124C71.6821 174.984 71.5517 174.79 71.49 174.57C66.4 156.77 63.31 135.9 61.76 108.89C61.7401 108.742 61.7509 108.592 61.7918 108.449C61.8326 108.306 61.9027 108.172 61.9976 108.058C62.0925 107.943 62.2101 107.849 62.343 107.782C62.4759 107.714 62.6214 107.675 62.7701 107.667C62.9188 107.659 63.0677 107.681 63.2073 107.733C63.3469 107.785 63.4742 107.866 63.5812 107.969C63.6883 108.073 63.7728 108.197 63.8294 108.335C63.8859 108.473 63.9134 108.621 63.91 108.77C65.45 135.62 68.51 156.34 73.56 173.98C73.6372 174.254 73.6027 174.548 73.4641 174.797C73.3255 175.047 73.0939 175.231 72.82 175.31C72.7118 175.335 72.6011 175.349 72.49 175.35V175.35Z" fill="#5D7287"/>
</g>
<g style="mix-blend-mode:multiply" opacity="0.13">
<path d="M245.54 268C245.414 267.996 245.289 267.972 245.17 267.93C243.023 267.137 240.823 266.31 238.57 265.45C217.39 257.45 191.03 247.45 146 248.62C116.45 249.35 93.84 237.62 78.81 213.78C78.7203 213.661 78.6563 213.524 78.6221 213.379C78.5878 213.234 78.584 213.083 78.6109 212.936C78.6378 212.789 78.6948 212.65 78.7784 212.526C78.8619 212.403 78.9702 212.298 79.0963 212.218C79.2224 212.138 79.3637 212.085 79.5112 212.063C79.6588 212.041 79.8093 212.049 79.9534 212.088C80.0975 212.127 80.232 212.195 80.3485 212.288C80.4649 212.381 80.5608 212.498 80.63 212.63C95.43 236.13 116.79 247.21 145.95 246.46C191.38 245.32 217.95 255.37 239.33 263.46C241.58 264.31 243.77 265.14 245.91 265.93C246.145 266.019 246.342 266.188 246.467 266.406C246.591 266.625 246.635 266.88 246.591 267.128C246.547 267.376 246.418 267.601 246.226 267.764C246.034 267.926 245.792 268.017 245.54 268.02V268Z" fill="#5D7287"/>
</g>
<g style="mix-blend-mode:multiply" opacity="0.13">
<path d="M60.33 158.43C60.076 158.433 59.8292 158.345 59.6347 158.182C59.4401 158.018 59.3107 157.791 59.27 157.54C56.9019 143.594 55.2962 129.53 54.46 115.41C54.4408 115.125 54.5352 114.844 54.7226 114.628C54.91 114.413 55.1751 114.28 55.46 114.26C55.742 114.249 56.0177 114.346 56.2299 114.532C56.4421 114.718 56.5746 114.979 56.6 115.26C57.4341 129.303 59.0331 143.291 61.39 157.16C61.4369 157.441 61.3721 157.729 61.2095 157.962C61.047 158.196 60.7995 158.356 60.52 158.41L60.33 158.43Z" fill="#5D7287"/>
</g>
<g style="mix-blend-mode:multiply" opacity="0.13">
<path d="M244.65 275.33C244.528 275.33 244.406 275.309 244.29 275.27C241.29 274.17 238.18 273 234.92 271.75C213.2 263.44 186.16 253.1 140.72 254.98C111.48 256.19 88.89 245.25 73.55 222.46C73.4134 222.223 73.3719 221.942 73.434 221.676C73.4961 221.409 73.6571 221.176 73.8844 221.024C74.1118 220.871 74.3886 220.811 74.6588 220.855C74.929 220.899 75.1725 221.043 75.34 221.26C90.44 243.7 111.79 254.02 140.64 252.83C186.51 250.93 213.78 261.36 235.69 269.74C238.94 270.98 242.01 272.16 245.02 273.25C245.26 273.334 245.462 273.5 245.591 273.72C245.719 273.939 245.765 274.197 245.721 274.447C245.676 274.698 245.544 274.924 245.348 275.086C245.152 275.247 244.904 275.334 244.65 275.33V275.33Z" fill="#5D7287"/>
</g>
<g style="mix-blend-mode:multiply" opacity="0.13">
<path d="M50 142.21C49.7286 142.208 49.4679 142.104 49.2696 141.919C49.0713 141.734 48.9501 141.481 48.93 141.21C48.55 137.92 48.2 134.45 47.87 130.92C47.8512 130.639 47.9428 130.362 48.1254 130.147C48.308 129.933 48.5672 129.798 48.8476 129.772C49.128 129.746 49.4075 129.831 49.6265 130.008C49.8455 130.185 49.9867 130.44 50.02 130.72C50.34 134.24 50.69 137.72 51.02 140.97C51.0509 141.254 50.9684 141.538 50.7904 141.761C50.6124 141.984 50.3534 142.127 50.07 142.16L50 142.21Z" fill="#5D7287"/>
</g>
<g style="mix-blend-mode:multiply" opacity="0.13">
<path d="M242.58 282.25C242.458 282.25 242.336 282.229 242.22 282.19C238.68 280.92 235.08 279.53 231.28 278.05C213.41 271.14 191.18 262.54 158.78 261.14C158.502 261.117 158.243 260.988 158.056 260.78C157.87 260.571 157.771 260.299 157.78 260.02C157.798 259.74 157.926 259.478 158.135 259.291C158.345 259.103 158.619 259.006 158.9 259.02C191.66 260.43 214.07 269.11 232.08 276.08C235.88 277.54 239.46 278.93 242.97 280.19C243.205 280.279 243.401 280.446 243.526 280.664C243.65 280.882 243.695 281.136 243.652 281.384C243.61 281.631 243.483 281.855 243.292 282.019C243.102 282.183 242.861 282.275 242.61 282.28L242.58 282.25Z" fill="#5D7287"/>
</g>
<g style="mix-blend-mode:multiply" opacity="0.13">
<path d="M129.4 261.53C103.93 261.53 83.72 251.75 69.28 232.41C69.1403 232.181 69.091 231.908 69.1417 231.644C69.1924 231.38 69.3395 231.145 69.5543 230.984C69.7691 230.823 70.0361 230.748 70.3034 230.773C70.5707 230.798 70.819 230.922 71 231.12C86.09 251.34 106.74 260.56 134.13 259.26C134.52 259.26 134.92 259.26 135.31 259.2C135.593 259.186 135.87 259.283 136.082 259.469C136.295 259.656 136.427 259.918 136.45 260.2C136.467 260.483 136.371 260.762 136.184 260.975C135.997 261.188 135.733 261.319 135.45 261.34L134.24 261.4C132.61 261.49 131 261.53 129.4 261.53Z" fill="#5D7287"/>
</g>
<g style="mix-blend-mode:multiply" opacity="0.13">
<path d="M237.52 288.09C237.394 288.09 237.269 288.069 237.15 288.03C234.06 286.88 230.93 285.65 227.62 284.36C211.82 278.17 193.91 271.16 169.42 268.36C169.152 268.309 168.912 268.158 168.751 267.938C168.589 267.718 168.517 267.445 168.548 267.174C168.58 266.902 168.713 266.653 168.922 266.476C169.13 266.299 169.397 266.208 169.67 266.22C194.43 269.07 212.48 276.14 228.41 282.37C231.71 283.66 234.82 284.88 237.9 286.03C238.141 286.114 238.344 286.281 238.472 286.502C238.601 286.722 238.646 286.982 238.6 287.233C238.554 287.484 238.42 287.71 238.222 287.871C238.024 288.032 237.775 288.117 237.52 288.11V288.09Z" fill="#5D7287"/>
</g>
<g style="mix-blend-mode:multiply" opacity="0.13">
<path d="M117.07 267.87H117C97.89 266.81 81.84 259.74 69.3 246.87C69.1011 246.666 68.9915 246.391 68.9952 246.106C68.999 245.821 69.1158 245.549 69.32 245.35C69.5242 245.151 69.7991 245.041 70.0842 245.045C70.3692 245.049 70.6411 245.166 70.84 245.37C82.99 257.84 98.56 264.69 117.12 265.72C117.387 265.752 117.633 265.883 117.809 266.087C117.984 266.291 118.078 266.553 118.07 266.822C118.063 267.091 117.955 267.348 117.768 267.542C117.581 267.736 117.329 267.853 117.06 267.87H117.07Z" fill="#5D7287"/>
</g>
<g style="mix-blend-mode:multiply" opacity="0.13">
<path d="M228.11 292.22C227.977 292.221 227.845 292.197 227.72 292.15L224 290.66C210.45 285.3 195.1 279.22 175.72 275.84C175.571 275.827 175.426 275.783 175.295 275.711C175.164 275.639 175.049 275.541 174.958 275.422C174.866 275.304 174.801 275.168 174.765 275.022C174.729 274.877 174.724 274.726 174.75 274.578C174.776 274.431 174.832 274.291 174.915 274.166C174.997 274.041 175.105 273.935 175.231 273.855C175.357 273.774 175.499 273.72 175.646 273.697C175.794 273.674 175.945 273.682 176.09 273.72C195.69 277.14 211.15 283.26 224.79 288.66L228.55 290.15C228.786 290.24 228.982 290.409 229.105 290.629C229.227 290.849 229.268 291.106 229.22 291.353C229.173 291.601 229.039 291.823 228.843 291.982C228.647 292.14 228.402 292.225 228.15 292.22H228.11Z" fill="#5D7287"/>
</g>
<g style="mix-blend-mode:multiply" opacity="0.13">
<path d="M89.63 270.52C89.5109 270.519 89.3927 270.498 89.28 270.46C85.2475 269.086 81.3563 267.328 77.66 265.21C77.4333 265.058 77.2726 264.825 77.2104 264.559C77.1481 264.294 77.1889 264.014 77.3246 263.777C77.4602 263.54 77.6806 263.363 77.9413 263.282C78.2021 263.201 78.4839 263.222 78.73 263.34C82.3181 265.388 86.0915 267.092 90 268.43C90.246 268.508 90.4556 268.672 90.5903 268.891C90.7251 269.111 90.7758 269.373 90.7332 269.627C90.6906 269.881 90.5575 270.112 90.3585 270.276C90.1595 270.44 89.9079 270.527 89.65 270.52H89.63Z" fill="#5D7287"/>
</g>
<g style="mix-blend-mode:multiply" opacity="0.13">
<path d="M203.87 290.57C203.747 290.571 203.624 290.547 203.51 290.5C197.58 288.38 192.08 286.64 186.71 285.2C186.564 285.172 186.425 285.114 186.303 285.031C186.18 284.947 186.076 284.838 185.997 284.712C185.919 284.586 185.867 284.446 185.845 284.299C185.823 284.152 185.831 284.002 185.87 283.858C185.909 283.715 185.976 283.581 186.069 283.465C186.162 283.349 186.278 283.253 186.409 283.184C186.54 283.115 186.685 283.073 186.833 283.062C186.981 283.051 187.13 283.071 187.27 283.12C192.7 284.58 198.27 286.33 204.27 288.48C204.505 288.569 204.701 288.736 204.826 288.954C204.95 289.172 204.995 289.426 204.952 289.674C204.91 289.921 204.783 290.146 204.592 290.309C204.402 290.473 204.161 290.565 203.91 290.57H203.87Z" fill="#5D7287"/>
</g>
</g>
<path d="M54.2593 346.186C53.4673 346.567 52.5947 346.861 51.6413 347.066C50.7027 347.286 49.6173 347.396 48.3853 347.396C47.124 347.396 45.9727 347.198 44.9313 346.802C43.89 346.391 42.9953 345.827 42.2473 345.108C41.4993 344.375 40.9127 343.509 40.4873 342.512C40.0767 341.5 39.8713 340.385 39.8713 339.168C39.8713 337.921 40.084 336.799 40.5093 335.802C40.9493 334.79 41.5433 333.932 42.2913 333.228C43.054 332.524 43.9487 331.981 44.9753 331.6C46.002 331.219 47.1167 331.028 48.3193 331.028C49.566 331.028 50.7027 331.211 51.7293 331.578C52.7707 331.93 53.6067 332.399 54.2373 332.986L52.3233 335.054C51.9273 334.614 51.37 334.24 50.6513 333.932C49.9473 333.624 49.1773 333.47 48.3413 333.47C47.52 333.47 46.772 333.617 46.0973 333.91C45.4373 334.203 44.8727 334.607 44.4033 335.12C43.934 335.633 43.5673 336.235 43.3033 336.924C43.054 337.613 42.9293 338.361 42.9293 339.168C42.9293 340.004 43.054 340.774 43.3033 341.478C43.5673 342.167 43.934 342.769 44.4033 343.282C44.8873 343.795 45.4667 344.199 46.1413 344.492C46.8307 344.771 47.608 344.91 48.4733 344.91C49.6613 344.91 50.6953 344.727 51.5753 344.36V340.4H48.2973V338.112H54.2593V346.186ZM64.9389 340.664C64.9389 340.327 64.8876 340.004 64.7849 339.696C64.6969 339.388 64.5503 339.117 64.3449 338.882C64.1396 338.647 63.8756 338.464 63.5529 338.332C63.2449 338.185 62.8783 338.112 62.4529 338.112C61.6609 338.112 60.9863 338.354 60.4289 338.838C59.8863 339.307 59.5856 339.916 59.5269 340.664H64.9389ZM67.5789 341.852C67.5789 341.969 67.5789 342.087 67.5789 342.204C67.5789 342.321 67.5716 342.439 67.5569 342.556H59.5269C59.5563 342.937 59.6516 343.289 59.8129 343.612C59.9889 343.92 60.2163 344.191 60.4949 344.426C60.7736 344.646 61.0889 344.822 61.4409 344.954C61.7929 345.086 62.1596 345.152 62.5409 345.152C63.2009 345.152 63.7583 345.035 64.2129 344.8C64.6676 344.551 65.0416 344.213 65.3349 343.788L67.0949 345.196C66.0536 346.604 64.5429 347.308 62.5629 347.308C61.7416 347.308 60.9863 347.183 60.2969 346.934C59.6076 346.67 59.0063 346.303 58.4929 345.834C57.9943 345.365 57.5983 344.793 57.3049 344.118C57.0263 343.429 56.8869 342.651 56.8869 341.786C56.8869 340.935 57.0263 340.165 57.3049 339.476C57.5983 338.772 57.9943 338.178 58.4929 337.694C58.9916 337.195 59.5783 336.814 60.2529 336.55C60.9423 336.271 61.6829 336.132 62.4749 336.132C63.2083 336.132 63.8829 336.257 64.4989 336.506C65.1296 336.741 65.6723 337.1 66.1269 337.584C66.5816 338.053 66.9336 338.647 67.1829 339.366C67.4469 340.07 67.5789 340.899 67.5789 341.852ZM68.6178 338.552V336.44H70.4658V333.382H73.0618V336.44H75.7018V338.552H73.0618V343.458C73.0618 343.927 73.1424 344.316 73.3038 344.624C73.4798 344.932 73.8611 345.086 74.4478 345.086C74.6238 345.086 74.8144 345.071 75.0198 345.042C75.2251 344.998 75.4084 344.939 75.5698 344.866L75.6578 346.934C75.4231 347.022 75.1444 347.088 74.8218 347.132C74.4991 347.191 74.1911 347.22 73.8978 347.22C73.1938 347.22 72.6218 347.125 72.1818 346.934C71.7418 346.729 71.3898 346.457 71.1258 346.12C70.8764 345.768 70.7004 345.372 70.5978 344.932C70.5098 344.477 70.4658 343.993 70.4658 343.48V338.552H68.6178ZM89.6683 345.658H89.6023C89.3383 346.127 88.913 346.516 88.3263 346.824C87.7397 347.117 87.0723 347.264 86.3243 347.264C85.899 347.264 85.4517 347.205 84.9823 347.088C84.5277 346.985 84.1023 346.809 83.7063 346.56C83.325 346.296 83.0023 345.959 82.7383 345.548C82.489 345.123 82.3643 344.602 82.3643 343.986C82.3643 343.194 82.5843 342.563 83.0243 342.094C83.479 341.625 84.0583 341.265 84.7623 341.016C85.4663 340.767 86.2437 340.605 87.0943 340.532C87.9597 340.444 88.803 340.4 89.6243 340.4V340.136C89.6243 339.476 89.3823 338.992 88.8983 338.684C88.429 338.361 87.8643 338.2 87.2043 338.2C86.647 338.2 86.1117 338.317 85.5983 338.552C85.085 338.787 84.6597 339.073 84.3223 339.41L82.9583 337.804C83.5597 337.247 84.249 336.829 85.0263 336.55C85.8183 336.271 86.6177 336.132 87.4243 336.132C88.363 336.132 89.133 336.264 89.7343 336.528C90.3503 336.792 90.8343 337.137 91.1863 337.562C91.5383 337.987 91.7803 338.464 91.9123 338.992C92.059 339.52 92.1323 340.048 92.1323 340.576V347H89.6683V345.658ZM89.6243 342.182H89.0303C88.605 342.182 88.1577 342.204 87.6883 342.248C87.219 342.277 86.7863 342.358 86.3903 342.49C85.9943 342.607 85.6643 342.783 85.4003 343.018C85.1363 343.238 85.0043 343.546 85.0043 343.942C85.0043 344.191 85.0557 344.404 85.1583 344.58C85.2757 344.741 85.4223 344.873 85.5983 344.976C85.7743 345.079 85.9723 345.152 86.1923 345.196C86.4123 345.24 86.6323 345.262 86.8523 345.262C87.7617 345.262 88.451 345.02 88.9203 344.536C89.3897 344.052 89.6243 343.392 89.6243 342.556V342.182ZM95.208 336.44H97.716V338.134H97.76C97.9947 337.606 98.398 337.144 98.97 336.748C99.5567 336.337 100.246 336.132 101.038 336.132C101.727 336.132 102.314 336.257 102.798 336.506C103.297 336.741 103.7 337.056 104.008 337.452C104.331 337.848 104.565 338.303 104.712 338.816C104.859 339.329 104.932 339.857 104.932 340.4V347H102.292V341.148C102.292 340.84 102.27 340.517 102.226 340.18C102.182 339.843 102.087 339.542 101.94 339.278C101.793 338.999 101.588 338.772 101.324 338.596C101.075 338.42 100.737 338.332 100.312 338.332C99.8867 338.332 99.52 338.42 99.212 338.596C98.904 338.757 98.6474 338.97 98.442 339.234C98.2514 339.498 98.1047 339.806 98.002 340.158C97.8994 340.495 97.848 340.84 97.848 341.192V347H95.208V336.44ZM112.897 341.676C112.897 340.84 113.043 340.085 113.337 339.41C113.645 338.721 114.055 338.134 114.569 337.65C115.082 337.166 115.691 336.792 116.395 336.528C117.099 336.264 117.847 336.132 118.639 336.132C119.431 336.132 120.179 336.264 120.883 336.528C121.587 336.792 122.195 337.166 122.709 337.65C123.222 338.134 123.625 338.721 123.919 339.41C124.227 340.085 124.381 340.84 124.381 341.676C124.381 342.512 124.227 343.275 123.919 343.964C123.625 344.653 123.222 345.247 122.709 345.746C122.195 346.23 121.587 346.611 120.883 346.89C120.179 347.169 119.431 347.308 118.639 347.308C117.847 347.308 117.099 347.169 116.395 346.89C115.691 346.611 115.082 346.23 114.569 345.746C114.055 345.247 113.645 344.653 113.337 343.964C113.043 343.275 112.897 342.512 112.897 341.676ZM115.581 341.676C115.581 342.087 115.639 342.497 115.757 342.908C115.889 343.319 116.079 343.685 116.329 344.008C116.578 344.331 116.893 344.595 117.275 344.8C117.656 345.005 118.111 345.108 118.639 345.108C119.167 345.108 119.621 345.005 120.003 344.8C120.384 344.595 120.699 344.331 120.949 344.008C121.198 343.685 121.381 343.319 121.499 342.908C121.631 342.497 121.697 342.087 121.697 341.676C121.697 341.265 121.631 340.862 121.499 340.466C121.381 340.055 121.198 339.689 120.949 339.366C120.699 339.043 120.384 338.787 120.003 338.596C119.621 338.391 119.167 338.288 118.639 338.288C118.111 338.288 117.656 338.391 117.275 338.596C116.893 338.787 116.578 339.043 116.329 339.366C116.079 339.689 115.889 340.055 115.757 340.466C115.639 340.862 115.581 341.265 115.581 341.676ZM136.576 347H134.068V345.306H134.024C133.79 345.834 133.379 346.303 132.792 346.714C132.22 347.11 131.538 347.308 130.746 347.308C130.057 347.308 129.463 347.191 128.964 346.956C128.48 346.707 128.077 346.384 127.754 345.988C127.446 345.592 127.219 345.137 127.072 344.624C126.926 344.111 126.852 343.583 126.852 343.04V336.44H129.492V342.292C129.492 342.6 129.514 342.923 129.558 343.26C129.602 343.597 129.698 343.905 129.844 344.184C129.991 344.448 130.189 344.668 130.438 344.844C130.702 345.02 131.047 345.108 131.472 345.108C131.883 345.108 132.242 345.027 132.55 344.866C132.873 344.69 133.13 344.47 133.32 344.206C133.526 343.942 133.68 343.641 133.782 343.304C133.885 342.952 133.936 342.6 133.936 342.248V336.44H136.576V347ZM138.227 338.552V336.44H140.075V333.382H142.671V336.44H145.311V338.552H142.671V343.458C142.671 343.927 142.752 344.316 142.913 344.624C143.089 344.932 143.47 345.086 144.057 345.086C144.233 345.086 144.424 345.071 144.629 345.042C144.834 344.998 145.018 344.939 145.179 344.866L145.267 346.934C145.032 347.022 144.754 347.088 144.431 347.132C144.108 347.191 143.8 347.22 143.507 347.22C142.803 347.22 142.231 347.125 141.791 346.934C141.351 346.729 140.999 346.457 140.735 346.12C140.486 345.768 140.31 345.372 140.207 344.932C140.119 344.477 140.075 343.993 140.075 343.48V338.552H138.227ZM154.438 339.366C154.232 339.073 153.924 338.831 153.514 338.64C153.103 338.435 152.685 338.332 152.26 338.332C151.776 338.332 151.35 338.435 150.984 338.64C150.617 338.831 150.309 339.087 150.06 339.41C149.825 339.733 149.649 340.099 149.532 340.51C149.414 340.906 149.356 341.309 149.356 341.72C149.356 342.131 149.414 342.541 149.532 342.952C149.664 343.348 149.854 343.707 150.104 344.03C150.353 344.353 150.661 344.617 151.028 344.822C151.409 345.013 151.849 345.108 152.348 345.108C152.758 345.108 153.169 345.027 153.58 344.866C153.99 344.705 154.32 344.47 154.57 344.162L156.22 345.834C155.78 346.303 155.215 346.67 154.526 346.934C153.851 347.183 153.118 347.308 152.326 347.308C151.548 347.308 150.808 347.183 150.104 346.934C149.414 346.685 148.806 346.318 148.278 345.834C147.764 345.35 147.354 344.763 147.046 344.074C146.752 343.385 146.606 342.6 146.606 341.72C146.606 340.869 146.752 340.099 147.046 339.41C147.354 338.721 147.764 338.134 148.278 337.65C148.791 337.166 149.385 336.792 150.06 336.528C150.749 336.264 151.482 336.132 152.26 336.132C153.037 336.132 153.785 336.279 154.504 336.572C155.237 336.865 155.816 337.269 156.242 337.782L154.438 339.366ZM157.348 341.676C157.348 340.84 157.495 340.085 157.788 339.41C158.096 338.721 158.507 338.134 159.02 337.65C159.533 337.166 160.142 336.792 160.846 336.528C161.55 336.264 162.298 336.132 163.09 336.132C163.882 336.132 164.63 336.264 165.334 336.528C166.038 336.792 166.647 337.166 167.16 337.65C167.673 338.134 168.077 338.721 168.37 339.41C168.678 340.085 168.832 340.84 168.832 341.676C168.832 342.512 168.678 343.275 168.37 343.964C168.077 344.653 167.673 345.247 167.16 345.746C166.647 346.23 166.038 346.611 165.334 346.89C164.63 347.169 163.882 347.308 163.09 347.308C162.298 347.308 161.55 347.169 160.846 346.89C160.142 346.611 159.533 346.23 159.02 345.746C158.507 345.247 158.096 344.653 157.788 343.964C157.495 343.275 157.348 342.512 157.348 341.676ZM160.032 341.676C160.032 342.087 160.091 342.497 160.208 342.908C160.34 343.319 160.531 343.685 160.78 344.008C161.029 344.331 161.345 344.595 161.726 344.8C162.107 345.005 162.562 345.108 163.09 345.108C163.618 345.108 164.073 345.005 164.454 344.8C164.835 344.595 165.151 344.331 165.4 344.008C165.649 343.685 165.833 343.319 165.95 342.908C166.082 342.497 166.148 342.087 166.148 341.676C166.148 341.265 166.082 340.862 165.95 340.466C165.833 340.055 165.649 339.689 165.4 339.366C165.151 339.043 164.835 338.787 164.454 338.596C164.073 338.391 163.618 338.288 163.09 338.288C162.562 338.288 162.107 338.391 161.726 338.596C161.345 338.787 161.029 339.043 160.78 339.366C160.531 339.689 160.34 340.055 160.208 340.466C160.091 340.862 160.032 341.265 160.032 341.676ZM183.998 336.132C184.687 336.132 185.274 336.257 185.758 336.506C186.256 336.741 186.66 337.056 186.968 337.452C187.29 337.848 187.525 338.303 187.672 338.816C187.818 339.329 187.892 339.857 187.892 340.4V347H185.252V341.148C185.252 340.84 185.23 340.517 185.186 340.18C185.142 339.843 185.046 339.542 184.9 339.278C184.753 338.999 184.548 338.772 184.284 338.596C184.034 338.42 183.697 338.332 183.272 338.332C182.861 338.332 182.509 338.42 182.216 338.596C181.922 338.772 181.68 338.999 181.49 339.278C181.299 339.557 181.16 339.872 181.072 340.224C180.984 340.561 180.94 340.899 180.94 341.236V347H178.3V340.62C178.3 339.96 178.138 339.417 177.816 338.992C177.508 338.552 177.016 338.332 176.342 338.332C175.946 338.332 175.601 338.42 175.308 338.596C175.014 338.757 174.772 338.97 174.582 339.234C174.406 339.498 174.266 339.806 174.164 340.158C174.076 340.495 174.032 340.84 174.032 341.192V347H171.392V336.44H173.9V338.134H173.944C174.061 337.87 174.215 337.621 174.406 337.386C174.611 337.151 174.846 336.939 175.11 336.748C175.388 336.557 175.704 336.411 176.056 336.308C176.408 336.191 176.796 336.132 177.222 336.132C178.043 336.132 178.725 336.315 179.268 336.682C179.81 337.049 180.228 337.533 180.522 338.134C180.874 337.489 181.343 336.997 181.93 336.66C182.516 336.308 183.206 336.132 183.998 336.132ZM198.4 340.664C198.4 340.327 198.349 340.004 198.246 339.696C198.158 339.388 198.011 339.117 197.806 338.882C197.601 338.647 197.337 338.464 197.014 338.332C196.706 338.185 196.339 338.112 195.914 338.112C195.122 338.112 194.447 338.354 193.89 338.838C193.347 339.307 193.047 339.916 192.988 340.664H198.4ZM201.04 341.852C201.04 341.969 201.04 342.087 201.04 342.204C201.04 342.321 201.033 342.439 201.018 342.556H192.988C193.017 342.937 193.113 343.289 193.274 343.612C193.45 343.92 193.677 344.191 193.956 344.426C194.235 344.646 194.55 344.822 194.902 344.954C195.254 345.086 195.621 345.152 196.002 345.152C196.662 345.152 197.219 345.035 197.674 344.8C198.129 344.551 198.503 344.213 198.796 343.788L200.556 345.196C199.515 346.604 198.004 347.308 196.024 347.308C195.203 347.308 194.447 347.183 193.758 346.934C193.069 346.67 192.467 346.303 191.954 345.834C191.455 345.365 191.059 344.793 190.766 344.118C190.487 343.429 190.348 342.651 190.348 341.786C190.348 340.935 190.487 340.165 190.766 339.476C191.059 338.772 191.455 338.178 191.954 337.694C192.453 337.195 193.039 336.814 193.714 336.55C194.403 336.271 195.144 336.132 195.936 336.132C196.669 336.132 197.344 336.257 197.96 336.506C198.591 336.741 199.133 337.1 199.588 337.584C200.043 338.053 200.395 338.647 200.644 339.366C200.908 340.07 201.04 340.899 201.04 341.852ZM207.601 336.44H210.461L212.661 344.008H212.705L214.971 336.44H217.787L220.075 344.008H220.119L222.363 336.44H225.113L221.461 347H218.777L216.379 339.608H216.335L213.959 347H211.275L207.601 336.44ZM226.822 336.44H229.462V347H226.822V336.44ZM226.448 332.854C226.448 332.429 226.602 332.062 226.91 331.754C227.233 331.431 227.636 331.27 228.12 331.27C228.604 331.27 229.008 331.424 229.33 331.732C229.668 332.025 229.836 332.399 229.836 332.854C229.836 333.309 229.668 333.69 229.33 333.998C229.008 334.291 228.604 334.438 228.12 334.438C227.636 334.438 227.233 334.284 226.91 333.976C226.602 333.653 226.448 333.279 226.448 332.854ZM231.147 338.552V336.44H232.995V333.382H235.591V336.44H238.231V338.552H235.591V343.458C235.591 343.927 235.672 344.316 235.833 344.624C236.009 344.932 236.39 345.086 236.977 345.086C237.153 345.086 237.344 345.071 237.549 345.042C237.754 344.998 237.938 344.939 238.099 344.866L238.187 346.934C237.952 347.022 237.674 347.088 237.351 347.132C237.028 347.191 236.72 347.22 236.427 347.22C235.723 347.22 235.151 347.125 234.711 346.934C234.271 346.729 233.919 346.457 233.655 346.12C233.406 345.768 233.23 345.372 233.127 344.932C233.039 344.477 232.995 343.993 232.995 343.48V338.552H231.147ZM246.016 336.132C246.705 336.132 247.292 336.257 247.776 336.506C248.274 336.741 248.678 337.056 248.986 337.452C249.308 337.848 249.543 338.303 249.69 338.816C249.836 339.329 249.91 339.857 249.91 340.4V347H247.27V341.192C247.27 340.884 247.248 340.569 247.204 340.246C247.16 339.909 247.064 339.608 246.918 339.344C246.786 339.065 246.588 338.838 246.324 338.662C246.074 338.486 245.737 338.398 245.312 338.398C244.886 338.398 244.52 338.479 244.212 338.64C243.904 338.801 243.647 339.021 243.442 339.3C243.236 339.564 243.082 339.865 242.98 340.202C242.877 340.539 242.826 340.884 242.826 341.236V347H240.186V330.368H242.826V337.914H242.87C242.972 337.694 243.119 337.481 243.31 337.276C243.515 337.056 243.75 336.865 244.014 336.704C244.278 336.528 244.578 336.389 244.916 336.286C245.253 336.183 245.62 336.132 246.016 336.132ZM253.033 336.44H255.673V347H253.033V336.44ZM252.659 332.854C252.659 332.429 252.813 332.062 253.121 331.754C253.444 331.431 253.847 331.27 254.331 331.27C254.815 331.27 255.219 331.424 255.541 331.732C255.879 332.025 256.047 332.399 256.047 332.854C256.047 333.309 255.879 333.69 255.541 333.998C255.219 334.291 254.815 334.438 254.331 334.438C253.847 334.438 253.444 334.284 253.121 333.976C252.813 333.653 252.659 333.279 252.659 332.854ZM258.876 336.44H261.384V338.134H261.428C261.663 337.606 262.066 337.144 262.638 336.748C263.225 336.337 263.914 336.132 264.706 336.132C265.395 336.132 265.982 336.257 266.466 336.506C266.965 336.741 267.368 337.056 267.676 337.452C267.999 337.848 268.233 338.303 268.38 338.816C268.527 339.329 268.6 339.857 268.6 340.4V347H265.96V341.148C265.96 340.84 265.938 340.517 265.894 340.18C265.85 339.843 265.755 339.542 265.608 339.278C265.461 338.999 265.256 338.772 264.992 338.596C264.743 338.42 264.405 338.332 263.98 338.332C263.555 338.332 263.188 338.42 262.88 338.596C262.572 338.757 262.315 338.97 262.11 339.234C261.919 339.498 261.773 339.806 261.67 340.158C261.567 340.495 261.516 340.84 261.516 341.192V347H258.876V336.44ZM104.088 368.552V366.44H105.936V363.382H108.532V366.44H111.172V368.552H108.532V373.458C108.532 373.927 108.613 374.316 108.774 374.624C108.95 374.932 109.332 375.086 109.918 375.086C110.094 375.086 110.285 375.071 110.49 375.042C110.696 374.998 110.879 374.939 111.04 374.866L111.128 376.934C110.894 377.022 110.615 377.088 110.292 377.132C109.97 377.191 109.662 377.22 109.368 377.22C108.664 377.22 108.092 377.125 107.652 376.934C107.212 376.729 106.86 376.457 106.596 376.12C106.347 375.768 106.171 375.372 106.068 374.932C105.98 374.477 105.936 373.993 105.936 373.48V368.552H104.088ZM111.587 366.44H114.447L116.647 374.008H116.691L118.957 366.44H121.773L124.061 374.008H124.105L126.349 366.44H129.099L125.447 377H122.763L120.365 369.608H120.321L117.945 377H115.261L111.587 366.44ZM130.149 371.676C130.149 370.84 130.295 370.085 130.589 369.41C130.897 368.721 131.307 368.134 131.821 367.65C132.334 367.166 132.943 366.792 133.647 366.528C134.351 366.264 135.099 366.132 135.891 366.132C136.683 366.132 137.431 366.264 138.135 366.528C138.839 366.792 139.447 367.166 139.961 367.65C140.474 368.134 140.877 368.721 141.171 369.41C141.479 370.085 141.633 370.84 141.633 371.676C141.633 372.512 141.479 373.275 141.171 373.964C140.877 374.653 140.474 375.247 139.961 375.746C139.447 376.23 138.839 376.611 138.135 376.89C137.431 377.169 136.683 377.308 135.891 377.308C135.099 377.308 134.351 377.169 133.647 376.89C132.943 376.611 132.334 376.23 131.821 375.746C131.307 375.247 130.897 374.653 130.589 373.964C130.295 373.275 130.149 372.512 130.149 371.676ZM132.833 371.676C132.833 372.087 132.891 372.497 133.009 372.908C133.141 373.319 133.331 373.685 133.581 374.008C133.83 374.331 134.145 374.595 134.527 374.8C134.908 375.005 135.363 375.108 135.891 375.108C136.419 375.108 136.873 375.005 137.255 374.8C137.636 374.595 137.951 374.331 138.201 374.008C138.45 373.685 138.633 373.319 138.751 372.908C138.883 372.497 138.949 372.087 138.949 371.676C138.949 371.265 138.883 370.862 138.751 370.466C138.633 370.055 138.45 369.689 138.201 369.366C137.951 369.043 137.636 368.787 137.255 368.596C136.873 368.391 136.419 368.288 135.891 368.288C135.363 368.288 134.908 368.391 134.527 368.596C134.145 368.787 133.83 369.043 133.581 369.366C133.331 369.689 133.141 370.055 133.009 370.466C132.891 370.862 132.833 371.265 132.833 371.676ZM155.566 366.132C156.256 366.132 156.842 366.257 157.326 366.506C157.825 366.741 158.228 367.056 158.536 367.452C158.859 367.848 159.094 368.303 159.24 368.816C159.387 369.329 159.46 369.857 159.46 370.4V377H156.82V371.192C156.82 370.884 156.798 370.569 156.754 370.246C156.71 369.909 156.615 369.608 156.468 369.344C156.336 369.065 156.138 368.838 155.874 368.662C155.625 368.486 155.288 368.398 154.862 368.398C154.437 368.398 154.07 368.479 153.762 368.64C153.454 368.801 153.198 369.021 152.992 369.3C152.787 369.564 152.633 369.865 152.53 370.202C152.428 370.539 152.376 370.884 152.376 371.236V377H149.736V360.368H152.376V367.914H152.42C152.523 367.694 152.67 367.481 152.86 367.276C153.066 367.056 153.3 366.865 153.564 366.704C153.828 366.528 154.129 366.389 154.466 366.286C154.804 366.183 155.17 366.132 155.566 366.132ZM161.924 371.676C161.924 370.84 162.071 370.085 162.364 369.41C162.672 368.721 163.083 368.134 163.596 367.65C164.109 367.166 164.718 366.792 165.422 366.528C166.126 366.264 166.874 366.132 167.666 366.132C168.458 366.132 169.206 366.264 169.91 366.528C170.614 366.792 171.223 367.166 171.736 367.65C172.249 368.134 172.653 368.721 172.946 369.41C173.254 370.085 173.408 370.84 173.408 371.676C173.408 372.512 173.254 373.275 172.946 373.964C172.653 374.653 172.249 375.247 171.736 375.746C171.223 376.23 170.614 376.611 169.91 376.89C169.206 377.169 168.458 377.308 167.666 377.308C166.874 377.308 166.126 377.169 165.422 376.89C164.718 376.611 164.109 376.23 163.596 375.746C163.083 375.247 162.672 374.653 162.364 373.964C162.071 373.275 161.924 372.512 161.924 371.676ZM164.608 371.676C164.608 372.087 164.667 372.497 164.784 372.908C164.916 373.319 165.107 373.685 165.356 374.008C165.605 374.331 165.921 374.595 166.302 374.8C166.683 375.005 167.138 375.108 167.666 375.108C168.194 375.108 168.649 375.005 169.03 374.8C169.411 374.595 169.727 374.331 169.976 374.008C170.225 373.685 170.409 373.319 170.526 372.908C170.658 372.497 170.724 372.087 170.724 371.676C170.724 371.265 170.658 370.862 170.526 370.466C170.409 370.055 170.225 369.689 169.976 369.366C169.727 369.043 169.411 368.787 169.03 368.596C168.649 368.391 168.194 368.288 167.666 368.288C167.138 368.288 166.683 368.391 166.302 368.596C165.921 368.787 165.605 369.043 165.356 369.366C165.107 369.689 164.916 370.055 164.784 370.466C164.667 370.862 164.608 371.265 164.608 371.676ZM185.604 377H183.096V375.306H183.052C182.817 375.834 182.406 376.303 181.82 376.714C181.248 377.11 180.566 377.308 179.774 377.308C179.084 377.308 178.49 377.191 177.992 376.956C177.508 376.707 177.104 376.384 176.782 375.988C176.474 375.592 176.246 375.137 176.1 374.624C175.953 374.111 175.88 373.583 175.88 373.04V366.44H178.52V372.292C178.52 372.6 178.542 372.923 178.586 373.26C178.63 373.597 178.725 373.905 178.872 374.184C179.018 374.448 179.216 374.668 179.466 374.844C179.73 375.02 180.074 375.108 180.5 375.108C180.91 375.108 181.27 375.027 181.578 374.866C181.9 374.69 182.157 374.47 182.348 374.206C182.553 373.942 182.707 373.641 182.81 373.304C182.912 372.952 182.964 372.6 182.964 372.248V366.44H185.604V377ZM188.772 366.44H191.302V368.2H191.346C191.64 367.584 192.05 367.085 192.578 366.704C193.106 366.323 193.722 366.132 194.426 366.132C194.529 366.132 194.639 366.139 194.756 366.154C194.874 366.154 194.976 366.169 195.064 366.198V368.618C194.888 368.574 194.734 368.545 194.602 368.53C194.485 368.515 194.368 368.508 194.25 368.508C193.649 368.508 193.165 368.618 192.798 368.838C192.432 369.058 192.146 369.322 191.94 369.63C191.735 369.938 191.596 370.253 191.522 370.576C191.449 370.899 191.412 371.155 191.412 371.346V377H188.772V366.44ZM202.572 369.256C202.337 368.948 202.015 368.684 201.604 368.464C201.193 368.229 200.746 368.112 200.262 368.112C199.837 368.112 199.448 368.2 199.096 368.376C198.744 368.552 198.568 368.845 198.568 369.256C198.568 369.667 198.759 369.96 199.14 370.136C199.536 370.297 200.108 370.466 200.856 370.642C201.252 370.73 201.648 370.847 202.044 370.994C202.455 371.141 202.821 371.339 203.144 371.588C203.481 371.823 203.753 372.123 203.958 372.49C204.163 372.842 204.266 373.275 204.266 373.788C204.266 374.433 204.141 374.983 203.892 375.438C203.657 375.878 203.335 376.237 202.924 376.516C202.528 376.795 202.059 376.993 201.516 377.11C200.988 377.242 200.438 377.308 199.866 377.308C199.045 377.308 198.245 377.161 197.468 376.868C196.691 376.56 196.045 376.127 195.532 375.57L197.27 373.942C197.563 374.323 197.945 374.639 198.414 374.888C198.883 375.137 199.404 375.262 199.976 375.262C200.167 375.262 200.357 375.24 200.548 375.196C200.753 375.152 200.937 375.086 201.098 374.998C201.274 374.895 201.413 374.763 201.516 374.602C201.619 374.441 201.67 374.243 201.67 374.008C201.67 373.568 201.465 373.253 201.054 373.062C200.658 372.871 200.057 372.681 199.25 372.49C198.854 372.402 198.465 372.292 198.084 372.16C197.717 372.013 197.387 371.83 197.094 371.61C196.801 371.375 196.566 371.089 196.39 370.752C196.214 370.415 196.126 369.997 196.126 369.498C196.126 368.911 196.243 368.405 196.478 367.98C196.727 367.555 197.05 367.21 197.446 366.946C197.842 366.667 198.289 366.462 198.788 366.33C199.287 366.198 199.8 366.132 200.328 366.132C201.091 366.132 201.831 366.264 202.55 366.528C203.283 366.792 203.863 367.195 204.288 367.738L202.572 369.256Z" fill="#5D7287"/>
</g>
<defs>
<clipPath id="clip0">
<rect width="310" height="377.11" fill="white"/>
</clipPath>
</defs>
</svg>
