<?xml version="1.0" encoding="UTF-8"?>
<svg fill="none" viewBox="0 0 310 378" xmlns="http://www.w3.org/2000/svg">
<path d="M0 36H310V322H0V36Z" clip-rule="evenodd" fill="#F8F9FB" fill-rule="evenodd"/>
<path d="m154.73 72c7.12 0 14.08-2.1114 20.001-6.0671 5.92-3.9557 10.534-9.5782 13.259-16.156 2.724-6.5781 3.437-13.816 2.048-20.8-1.389-6.9833-4.817-13.398-9.852-18.432-5.035-5.0347-11.449-8.4634-18.433-9.8525-6.983-1.3891-14.221-0.67615-20.8 2.0486-6.578 2.7248-12.2 7.339-16.156 13.259-3.956 5.9201-6.067 12.88-6.067 20 0 9.5478 3.793 18.704 10.544 25.456 6.751 6.7514 15.908 10.544 25.456 10.544z" clip-rule="evenodd" fill="#FD55D8" fill-rule="evenodd"/>
<path d="m152.84 48.74v-18.74l-4.75 3.68-3.09-4.27 8.39-6.15h5.54v25.48h-6.09z" fill="#fff"/>
<path d="m269.08 217c-12 61.52-32.33 86.69-93.84 74.71s-140.92-56.57-128.93-118.09 54.03-69.62 115.55-57.62 119.21 39.52 107.22 101z" fill="#fff"/>
<path d="m142.77 152.58c0.18 2.49 2.49 4.42 4.94 5 0.591 0.169 1.211 0.213 1.82 0.131 0.61-0.083 1.195-0.291 1.72-0.611 1.08-0.78 1.49-2.16 1.95-3.41 0.482-1.66 1.502-3.113 2.9-4.13 1.223-0.581 2.518-0.998 3.85-1.24 2.113-0.563 3.993-1.781 5.37-3.48 0.675-0.851 1.164-1.835 1.435-2.888 0.27-1.053 0.316-2.15 0.135-3.222 4 3.82 5.37 9.62 5.42 15.12s-1.06 10.95-1.31 16.44c0.077 1.161-0.224 2.315-0.86 3.29-0.352 0.366-0.782 0.646-1.259 0.819-0.477 0.174-0.987 0.235-1.491 0.181-1.01-0.121-1.99-0.426-2.89-0.9-1.57-0.75-3.07-1.63-4.57-2.51l-12.85-7.52c-1.391-0.684-2.614-1.668-3.58-2.88-0.615-1.046-1.048-2.189-1.28-3.38-0.39-1.58-0.77-3.35 0-4.78" fill="#E7EDF5"/>
<path d="m167.13 226.07 2.53 1.41c2 1.12 3.63 0.4 3.63-1.6-0.113-1.162-0.502-2.281-1.133-3.263-0.631-0.983-1.487-1.801-2.497-2.387l-10.34-5.78c-2-1.12-3.63-0.4-3.63 1.59 0.114 1.163 0.503 2.283 1.134 3.267s1.486 1.804 2.496 2.393l1.92 1.07 5.89 3.3z" fill="#FF4EDA"/>
<path d="m189.05 220.65c-0.114-1.163-0.503-2.283-1.134-3.267s-1.486-1.804-2.496-2.393l-26.1-14.58c-2-1.12-3.63-0.4-3.63 1.59 0.114 1.164 0.502 2.283 1.133 3.267s1.487 1.805 2.497 2.393l26.1 14.59c2 1.11 3.63 0.39 3.63-1.6z" fill="#E7EDF5"/>
<path d="m67.12 179.6c-0.0655-0.91 0.1323-1.82 0.57-2.62 0.1884-0.416 0.4341-0.803 0.73-1.15 0.5766-0.573 1.2941-0.983 2.08-1.19 1.2199-0.365 2.5002-0.484 3.7664-0.35 1.2663 0.134 2.4934 0.518 3.6099 1.13s2.1002 1.44 2.894 2.436c0.7937 0.996 1.3817 2.139 1.7297 3.364 0.1628 0.55 0.2568 1.117 0.28 1.69 0.0454 1.334-0.3675 2.643-1.17 3.71-0.541-2.374-1.8785-4.492-3.79-6h1c0.0769 0.01 0.155 2e-3 0.2281-0.024 0.073-0.027 0.1388-0.07 0.1919-0.126 0.0348-0.082 0.0467-0.172 0.0344-0.26-0.0124-0.088-0.0485-0.171-0.1044-0.24-0.5819-0.991-1.3953-1.826-2.3706-2.434s-2.0834-0.97-3.2294-1.056l0.38 0.67s0.07 0.11 0 0.17-0.1 0.1-0.17 0.12c-0.51 0.18-1 0.29-1.57 0.42-1.7805 0.446-3.4716 1.194-5 2.21" fill="#FF4EDA"/>
<path d="m61.81 228.74c-2.9562 3.389-4.5303 7.765-4.41 12.26 0.1448 1.505 0.1949 3.018 0.15 4.53-0.2011 1.373-0.5019 2.73-0.9 4.06-0.643 3.026-0.9979 6.107-1.06 9.2l-0.7 13.59c-0.0589 0.407-0.0035 0.823 0.16 1.2 0.2658 0.37 0.6449 0.644 1.08 0.78 2.5045 1.019 5.2407 1.33 7.91 0.9 0.8913 3.226 1.2294 6.581 1 9.92-0.1213 0.671-0.0555 1.363 0.19 2 0.2778 0.469 0.6656 0.864 1.13 1.15 5.75 4 13.2 4.54 20.22 4.53 4.54 0 9.2-0.2 13.39-1.95 0.648-0.236 1.241-0.604 1.74-1.08 0.431-0.492 0.769-1.058 1-1.67 3.22-7.4 6.51-15.07 6.45-23.15 6.122 7.129 14.075 12.451 23 15.39 0.482 0.195 1.002 0.273 1.52 0.23 0.647-0.151 1.231-0.501 1.67-1 2.7-2.696 4.71-6.002 5.86-9.64-6.745-1.769-12.967-5.128-18.147-9.796s-9.165-10.509-11.623-17.034c-1.3-3.55-2.15-7.3-4.09-10.53s-5.36-5.95-9.13-5.69c-1.7083 0.269-3.384 0.714-5 1.33-2.7644 0.743-5.669 0.796-8.4586 0.154-2.7897-0.642-5.3792-1.958-7.5414-3.834-2.54 2.32-2.37 6-2 9.47 0.1841 3.328 0.782 6.62 1.78 9.8 2.25 6.26 3.88 12.83 3.79 19.48s-2 13.42-6.3 18.52c1.88-5.71 1-11.95-0.41-17.8-2.88-12.23-7.64-23.92-12.38-35.55" fill="#FFBD26"/>
<path d="m93.88 110.91c0.8855-0.532 0.9606-2.034 0.1677-3.355s-2.1536-1.961-3.0391-1.43c-0.8855 0.532-0.9606 2.034-0.1677 3.355s2.1536 1.961 3.0391 1.43z" fill="#FF4EDA"/>
<path d="m101.84 115.47c0.885-0.531 0.96-2.033 0.167-3.354s-2.1532-1.962-3.0387-1.43c-0.8856 0.531-0.9606 2.033-0.1677 3.354 0.7929 1.322 2.1534 1.962 3.0394 1.43z" fill="#FF4EDA"/>
<path d="m109.81 120.03c0.886-0.532 0.961-2.033 0.168-3.355-0.793-1.321-2.154-1.961-3.039-1.43-0.886 0.532-0.961 2.034-0.168 3.355s2.153 1.961 3.039 1.43z" fill="#FF4EDA"/>
<path d="m116.56 136.43s5.29-2.22 5.51-3.22 0.21-25.82 0.21-28.57-0.07-5.38-3.71-7.46l-22.29-12.77c-0.72-0.41-1.84-1.59-3.49-0.72s-6.19 2.14-4.27 3 24.15 12.61 25.37 13.31 3.53 1.59 3.63 6.93-0.96 29.5-0.96 29.5z" fill="#FF4EDA"/>
<path d="m212.48 278.33s5.29-2.22 5.5-3.23 0.22-25.82 0.22-28.56-0.07-5.38-3.71-7.47l-22.29-12.76c-0.72-0.41-1.84-1.6-3.49-0.72s-6.19 2.13-4.27 3 24.15 12.59 25.36 13.31 3.54 1.6 3.64 6.93-0.96 29.5-0.96 29.5z" fill="#FFBD26"/>
<path d="m212.61 215.63c0.821 1.037 1.306 2.3 1.39 3.62 0 2-1.64 2.71-3.63 1.59l-55.91-31.53c-1.008-0.593-1.861-1.415-2.491-2.401-0.629-0.985-1.016-2.105-1.129-3.269 0-2 1.63-2.7 3.62-1.58l14.3 8.06 2.27 1.29 39.34 22.17" fill="#FFBD26"/>
<path d="m220.19 156.91c-2.76-3.14-5.9-5.18-8.92-5.49-6.67-0.68-10.18 7.43-7.83 18.12 0.678 3.081 1.757 6.06 3.21 8.86l1.07 1.9c3.32 5.51 7.82 9.39 12.06 9.82 6.68 0.68 10.19-7.43 7.84-18.12-1.035-4.722-3.023-9.182-5.84-13.11" fill="#FF4EDA"/>
<path d="m110.49 189.73 1.85 10.27h-3.27s-1.28 18.07-15.27 13.9" stroke="#6240B8" stroke-linecap="round" stroke-linejoin="round" stroke-width="2"/>
<path d="m73.77 238c-5.53-22.38 16.71-29.79 6.56-54.45" stroke="#6240B8" stroke-linecap="round" stroke-linejoin="round" stroke-width="2"/>
<path d="m77.81 267.18c1-6.51 0.82-15.12-2.93-25.56l-0.37-1.08" stroke="#6240B8" stroke-dasharray="1.86 1.86 0.62 1.86 1.86 0.62" stroke-linecap="round" stroke-linejoin="round" stroke-width="1.24"/>
<path d="m59.27 224.08c4.11 27.07 17.41 34.71 13 57.38 0 0 3.26-4.07 5-11.65" stroke="#6240B8" stroke-linecap="round" stroke-linejoin="round" stroke-width="2"/>
<path d="m73.39 178.27c-3.1 0-17.2 2.17-15.07 36.82 0.14 2.167 0.33 4.237 0.57 6.21" stroke="#6240B8" stroke-dasharray="0.46 2.32" stroke-linecap="round" stroke-linejoin="round" stroke-width="1.86"/>
<path d="m101.7 191.09c3.2-1.18 2.56-6.84 2.56-6.84s6.62 1.5 7.16-4.17-4.6-14.52-23.72-14.52c-11.43 0-18.69 6.08-18.69 9.18 0 0 9.57-4.31 13.49 4.74" stroke="#6240B8" stroke-linecap="round" stroke-linejoin="round" stroke-width="2"/>
<path d="m95.93 194.72c-0.6677 0-1.3287 0.133-1.9439 0.393-0.6153 0.259-1.1724 0.639-1.6384 1.117s-0.8316 1.045-1.0751 1.667c-0.2435 0.621-0.36 1.286-0.3426 1.953 0 3.63 5 3.74 1.7 8.44" stroke="#6240B8" stroke-linecap="round" stroke-linejoin="round" stroke-width="2"/>
<path d="m77.45 225.27s8.11 5.24 16 0.86c0 0 12.44-0.43 13.19 10.57" stroke="#6240B8" stroke-linecap="round" stroke-linejoin="round" stroke-width="2"/>
<path d="m118.87 256.65c5.518 5.689 11.994 10.363 19.13 13.81 0 0 0.53 6.84-7.48 10.36 0 0-25.53-12-32.48-34.18" stroke="#6240B8" stroke-linecap="round" stroke-linejoin="round" stroke-width="2"/>
<path d="m107.36 239.9c2.408 5.107 5.489 9.869 9.16 14.16" stroke="#6240B8" stroke-dasharray="1.86 1.86 0.62 1.86 1.86 0.62" stroke-linecap="round" stroke-linejoin="round" stroke-width="1.24"/>
<path d="m90.91 224.08v-9.92" stroke="#6240B8" stroke-linecap="round" stroke-linejoin="round" stroke-width="2"/>
<path d="m63.45 285.74s0.43-8.66-3-21.05-6.92-24.43-4.59-31.09c0.2843-0.934 0.7238-1.812 1.3-2.6" stroke="#6240B8" stroke-linecap="round" stroke-linejoin="round" stroke-width="2"/>
<path d="m105 265.29s0 13.72-4.68 23.65" stroke="#6240B8" stroke-dasharray="0.46 2.32" stroke-linecap="round" stroke-linejoin="round" stroke-width="1.86"/>
<path d="m53.44 247.23c-1.09 3.29-2.38 20.24-1.95 26 1.9522 1.276 4.2991 1.805 6.61 1.49" stroke="#6240B8" stroke-linecap="round" stroke-linejoin="round" stroke-width="2"/>
<path d="m52.53 276.71s2 7.74 6.22 9.45" stroke="#6240B8" stroke-linecap="round" stroke-linejoin="round" stroke-width="2"/>
<path d="m141.18 273.76s21.2 1.75 20-39.41" stroke="#6240B8" stroke-linecap="round" stroke-linejoin="round" stroke-width="2"/>
<path d="m161.84 229.22c-0.295-1.729-0.135-3.505 0.465-5.153 0.599-1.648 1.618-3.112 2.955-4.247" stroke="#6240B8" stroke-linecap="round" stroke-linejoin="round" stroke-width="2"/>
<path d="m153.93 278.88c-4.77 3.41-11.05 5-19.32 3.54" stroke="#6240B8" stroke-dasharray="0.46 2.32" stroke-linecap="round" stroke-linejoin="round" stroke-width="1.86"/>
<path d="m166 228.2s3-1.71 3 5.12c0 5 0.2 32.36-13.36 44.19" stroke="#6240B8" stroke-linecap="round" stroke-linejoin="round" stroke-width="2"/>
<path d="m229.87 246.19v-50.92" stroke="#6240B8" stroke-dasharray="1.86 1.86 0.62 1.86 1.86 0.62" stroke-linecap="round" stroke-linejoin="round" stroke-width="1.24"/>
<path d="m220.66 266.13c5.06 2.66 9.21 0.16 9.21-8.14v-8.34" stroke="#6240B8" stroke-linecap="round" stroke-linejoin="round" stroke-width="2"/>
<path d="m172.88 241.03 4.26 2.24" stroke="#6240B8" stroke-linecap="round" stroke-linejoin="round" stroke-width="2"/>
<path d="m128 195.92v11.08c0 5.72 4.15 12.58 9.21 15.24l20.57 10.81" stroke="#6240B8" stroke-linecap="round" stroke-linejoin="round" stroke-width="2"/>
<path d="m127.99 153.72v39.34" stroke="#6240B8" stroke-dasharray="1.86 1.86 0.62 1.86 1.86 0.62" stroke-linecap="round" stroke-linejoin="round" stroke-width="1.24"/>
<path d="m204.44 141.07-9.83-5.16-57.41-30.16c-5.06-2.67-9.21-0.16-9.21 5.56v40.07" stroke="#6240B8" stroke-linecap="round" stroke-linejoin="round" stroke-width="2"/>
<path d="m169.8 148.22c-0.124-2.18-0.767-4.3-1.875-6.181-1.108-1.882-2.649-3.473-4.495-4.639l-6.69-3.71" stroke="#6240B8" stroke-dasharray="0.46 2.32" stroke-linecap="round" stroke-linejoin="round" stroke-width="1.86"/>
<path d="m154.08 132.21-8-4.43c-3.51-1.94-6.37-0.26-6.37 3.75v21.78c0.122 2.181 0.763 4.301 1.871 6.183 1.109 1.883 2.651 3.472 4.499 4.637l17.32 9.62c3.5 1.94 6.37 0.26 6.37-3.75v-17.91" stroke="#6240B8" stroke-linecap="round" stroke-linejoin="round" stroke-width="2"/>
<path d="m187.19 220c0.319-0.197 0.576-0.479 0.742-0.815 0.167-0.336 0.235-0.712 0.198-1.085-0.114-1.164-0.502-2.283-1.133-3.267s-1.487-1.805-2.497-2.393l-26.1-14.59c-2-1.11-3.63-0.39-3.63 1.6 0.114 1.163 0.503 2.283 1.134 3.267s1.486 1.804 2.496 2.393l7.36 4.11" stroke="#6240B8" stroke-linecap="round" stroke-linejoin="round" stroke-width="2"/>
<path d="m168.03 210.53 16.47 9.2" stroke="#6240B8" stroke-dasharray="1.86 1.86 0.62 1.86 1.86 0.62" stroke-linecap="round" stroke-linejoin="round" stroke-width="1.24"/>
<path d="m209.13 210.53-39.33-22.18" stroke="#6240B8" stroke-dasharray="1.86 1.86 0.62 1.86 1.86 0.62" stroke-linecap="round" stroke-linejoin="round" stroke-width="1.24"/>
<path d="m167.53 187.07-14.3-8.07c-2-1.13-3.63-0.41-3.63 1.58 0.116 1.164 0.505 2.284 1.136 3.27 0.631 0.985 1.485 1.807 2.494 2.4l55.9 31.52c2 1.12 3.63 0.41 3.63-1.58-0.079-1.322-0.561-2.589-1.38-3.63" stroke="#6240B8" stroke-linecap="round" stroke-linejoin="round" stroke-width="2"/>
<path d="m166.21 223.77 2.53 1.41c2 1.11 3.63 0.4 3.63-1.6-0.113-1.162-0.502-2.281-1.133-3.263-0.631-0.983-1.487-1.801-2.497-2.387l-10.34-5.79c-2-1.11-3.63-0.4-3.63 1.6 0.114 1.163 0.503 2.283 1.134 3.267s1.486 1.804 2.496 2.393l1.92 1.07" stroke="#6240B8" stroke-linecap="round" stroke-linejoin="round" stroke-width="2"/>
<path d="m147.21 151.67 4.38 7.03 11.58-11.59" stroke="#6240B8" stroke-linecap="round" stroke-linejoin="round" stroke-width="2"/>
<path d="m148.77 210.4c0.13 2.09-0.76 3.77-2.45 4.17-2.16 0.51-4.87-1.26-6.32-4" stroke="#6240B8" stroke-dasharray="0.46 2.32" stroke-linecap="round" stroke-linejoin="round" stroke-width="1.86"/>
<path d="m139.12 208c-0.42-2.45 0.47-4.5 2.36-4.95 2.34-0.56 5.32 1.57 6.66 4.75" stroke="#6240B8" stroke-linecap="round" stroke-linejoin="round" stroke-width="2"/>
<path d="m144.77 181.13c1.246-0.747 1.354-2.854 0.243-4.706-1.111-1.851-3.021-2.746-4.267-1.999-1.245 0.748-1.354 2.855-0.243 4.706 1.111 1.852 3.022 2.747 4.267 1.999z" stroke="#6240B8" stroke-linecap="round" stroke-linejoin="round" stroke-width="2"/>
<path d="m215.72 147.08c6.77 3.66 13.21 13.24 15.58 24 2.92 13.27-1.43 23.34-9.72 22.5s-17.37-12.27-20.29-25.58c-2.5-11.37 0.34-20.39 6.42-22.21" stroke="#6240B8" stroke-linecap="round" stroke-linejoin="round" stroke-width="2"/>
<path d="m222.55 157.69c2.817 3.928 4.805 8.389 5.84 13.11 2.35 10.69-1.16 18.8-7.84 18.12-4.24-0.43-8.74-4.31-12.06-9.82" stroke="#6240B8" stroke-linecap="round" stroke-linejoin="round" stroke-width="2"/>
<path d="m207.42 177.19c-1.45-2.798-2.529-5.773-3.21-8.85-2.35-10.69 1.16-18.8 7.83-18.12 3 0.3 6.16 2.35 8.92 5.49" stroke="#6240B8" stroke-dasharray="1.86 1.86 0.62 1.86 1.86 0.62" stroke-linecap="round" stroke-linejoin="round" stroke-width="1.24"/>
<path d="m232.46 190.88-8.23 2.59" stroke="#6240B8" stroke-linecap="round" stroke-linejoin="round" stroke-width="2"/>
<path d="m229.1 153c3.633 4.979 6.19 10.659 7.51 16.68 1.9 8.55 0.8 15.77-2.42 19.58" stroke="#6240B8" stroke-dasharray="0.46 2.32" stroke-linecap="round" stroke-linejoin="round" stroke-width="1.86"/>
<path d="m207.71 145.83 8.76-1.7c3.63 0.39 7.42 2.86 10.78 6.64" stroke="#6240B8" stroke-linecap="round" stroke-linejoin="round" stroke-width="2"/>
<path d="m214.44 158.38 1.09 12.39 6.85 0.26" stroke="#6240B8" stroke-linecap="round" stroke-linejoin="round" stroke-width="2"/>
<path d="m120.13 122.9v10.27c0.019 0.269-0.019 0.54-0.112 0.793s-0.239 0.484-0.428 0.677l-0.74 0.43" stroke="#6240B8" stroke-linecap="round" stroke-linejoin="round" stroke-width="2"/>
<path d="m99.42 87.8 18.2 10.43c0.728 0.4704 1.334 1.1059 1.771 1.855 0.436 0.749 0.689 1.59 0.739 2.455v17.24" stroke="#6240B8" stroke-dasharray="1.86 1.86 0.62 1.86 1.86 0.62" stroke-linecap="round" stroke-linejoin="round" stroke-width="1.24"/>
<path d="m84.67 116.09v-28.23c-0.0371-0.3262 0.0205-0.6562 0.1659-0.9506 0.1454-0.2943 0.3725-0.5406 0.6541-0.7094l5-2.66c0.2823-0.1295 0.5938-0.1819 0.9029-0.1521 0.3091 0.0299 0.6048 0.141 0.8571 0.3221l4.44 2.55" stroke="#6240B8" stroke-linecap="round" stroke-linejoin="round" stroke-width="2"/>
<path d="m97.66 128.81-10.49-6c-0.7249-0.473-1.3287-1.109-1.7629-1.857-0.4342-0.749-0.6867-1.589-0.7371-2.453" stroke="#6240B8" stroke-dasharray="1.86 1.86 0.62 1.86 1.86 0.62" stroke-linecap="round" stroke-linejoin="round" stroke-width="1.24"/>
<path d="m90.08 88.08 22.44 12.85c0.727 0.471 1.332 1.107 1.766 1.856s0.686 1.59 0.734 2.454v30.63c0.031 0.308-0.019 0.619-0.145 0.901-0.127 0.283-0.325 0.527-0.575 0.709-0.284 0.136-0.599 0.193-0.912 0.164-0.313-0.028-0.613-0.14-0.868-0.324l-12.52-7.19" stroke="#6240B8" stroke-linecap="round" stroke-linejoin="round" stroke-width="2"/>
<path d="m92.872 111.19c0.8855-0.532 0.9606-2.034 0.1677-3.355s-2.1536-1.961-3.0391-1.43c-0.8856 0.532-0.9606 2.034-0.1677 3.355s2.1535 1.961 3.0391 1.43z" stroke="#6240B8" stroke-dasharray="1.86 1.86 0.62 1.86 1.86 0.62" stroke-linecap="round" stroke-linejoin="round" stroke-width="1.24"/>
<path d="m100.86 115.75c0.885-0.532 0.961-2.033 0.168-3.355-0.793-1.321-2.154-1.961-3.0395-1.43-0.8855 0.532-0.9606 2.034-0.1677 3.355s2.1536 1.961 3.0392 1.43z" stroke="#6240B8" stroke-dasharray="1.86 1.86 0.62 1.86 1.86 0.62" stroke-linecap="round" stroke-linejoin="round" stroke-width="1.24"/>
<path d="m108.83 120.31c0.886-0.531 0.961-2.033 0.168-3.354s-2.154-1.961-3.039-1.43c-0.886 0.531-0.961 2.033-0.168 3.355 0.793 1.321 2.154 1.961 3.039 1.429z" stroke="#6240B8" stroke-dasharray="1.86 1.86 0.62 1.86 1.86 0.62" stroke-linecap="round" stroke-linejoin="round" stroke-width="1.24"/>
<path d="m267.89 272.56v16.44c0.033 0.307-0.017 0.616-0.144 0.897-0.126 0.282-0.325 0.524-0.576 0.703-0.282 0.14-0.597 0.201-0.911 0.174-0.314-0.026-0.614-0.138-0.869-0.324l-25.39-14.55c-0.725-0.473-1.329-1.109-1.763-1.857-0.434-0.749-0.687-1.589-0.737-2.453v-30.59c-0.037-0.326 0.02-0.656 0.166-0.951 0.145-0.294 0.372-0.54 0.654-0.709l5-2.66c0.282-0.129 0.594-0.182 0.903-0.152s0.605 0.141 0.857 0.322l25.35 14.52c0.725 0.473 1.329 1.109 1.763 1.857 0.434 0.749 0.687 1.589 0.737 2.453v30.63c0.021 0.269-0.016 0.54-0.11 0.794-0.093 0.254-0.24 0.484-0.43 0.676l-0.74 0.43" stroke="#6240B8" stroke-linecap="round" stroke-linejoin="round" stroke-width="2"/>
<path d="m243 241.17 22.39 12.83c0.727 0.471 1.332 1.107 1.766 1.856s0.686 1.59 0.734 2.454v11.1" stroke="#6240B8" stroke-dasharray="1.86 1.86 0.62 1.86 1.86 0.62" stroke-linecap="round" stroke-linejoin="round" stroke-width="1.24"/>
<path d="m242.95 263.06v-3.66" stroke="#FF4EDA" stroke-linecap="round" stroke-linejoin="round" stroke-width="2"/>
<path d="m262.86 267.23v3.65" stroke="#FF4EDA" stroke-linecap="round" stroke-linejoin="round" stroke-width="2"/>
<path d="M247.93 266.96V257" stroke="#FF4EDA" stroke-linecap="round" stroke-linejoin="round" stroke-width="2"/>
<path d="m257.88 266.05v9.96" stroke="#FF4EDA" stroke-linecap="round" stroke-linejoin="round" stroke-width="2"/>
<path d="M252.9 276.51V255" stroke="#FF4EDA" stroke-linecap="round" stroke-linejoin="round" stroke-width="2"/>
<path d="m198.88 232 14.92 8.54c0.725 0.473 1.329 1.109 1.763 1.857 0.434 0.749 0.687 1.589 0.737 2.453v30.65c0.02 0.269-0.017 0.54-0.111 0.794-0.093 0.253-0.239 0.484-0.429 0.676l-0.74 0.43" stroke="#6240B8" stroke-dasharray="1.86 1.86 0.62 1.86 1.86 0.62" stroke-linecap="round" stroke-linejoin="round" stroke-width="1.24"/>
<path d="m180.84 250.57v-20.38c-0.037-0.326 0.02-0.656 0.166-0.951 0.145-0.294 0.372-0.54 0.654-0.709l5-2.66c0.282-0.129 0.594-0.182 0.903-0.152s0.605 0.141 0.857 0.322l7.51 4.3" stroke="#6240B8" stroke-linecap="round" stroke-linejoin="round" stroke-width="2"/>
<path d="m196.89 272.89-13.54-7.76c-0.729-0.472-1.336-1.109-1.772-1.86-0.436-0.75-0.689-1.593-0.738-2.46v-6.6" stroke="#6240B8" stroke-dasharray="1.86 1.86 0.62 1.86 1.86 0.62" stroke-linecap="round" stroke-linejoin="round" stroke-width="1.24"/>
<path d="m186.25 230.4 22.44 12.86c0.727 0.471 1.332 1.107 1.766 1.856s0.686 1.59 0.734 2.454v30.63c0.032 0.305-0.017 0.614-0.142 0.895-0.125 0.28-0.32 0.523-0.568 0.705-0.284 0.14-0.6 0.2-0.916 0.174-0.315-0.027-0.617-0.139-0.874-0.324l-8.77-5" stroke="#6240B8" stroke-linecap="round" stroke-linejoin="round" stroke-width="2"/>
<path d="m186.79 260c0.715 0.246 1.487 0.275 2.219 0.082 0.731-0.192 1.389-0.596 1.891-1.162 1.114-1.251 1.964-2.713 2.5-4.3 0.677-1.522 1.067-3.156 1.15-4.82 0.078-1.777-0.543-3.515-1.73-4.84-0.111-0.14-0.255-0.25-0.419-0.319-0.164-0.07-0.343-0.098-0.521-0.081-0.37 0.12-0.53 0.63-0.66 1.09-0.167 0.56-0.29 1.131-0.37 1.71-0.08 1.328 0.048 2.661 0.38 3.95 0.22 1.237 0.6 2.441 1.13 3.58 0.981 1.731 2.462 3.126 4.25 4 1.14 0.63 2.4 1.16 3.49 0.76 0.521-0.235 0.987-0.575 1.37-1 0.973-0.92 1.707-2.063 2.14-3.33 0.2-0.64 0.43-1.45 1-1.46 0.38 0 0.74 0.39 1 0.82s0.39 0.93 0.65 1.35" stroke="#6240B8" stroke-linecap="round" stroke-linejoin="round" stroke-width="2"/>
<path d="m254.8 228.52c-5e-3 -0.114-0.039-0.226-0.098-0.324-0.06-0.098-0.143-0.179-0.242-0.236l-6.45-3.4c-0.19-0.09-0.34 0-0.34 0.21v7.39c6e-3 0.116 0.04 0.228 0.099 0.327 0.06 0.1 0.142 0.183 0.241 0.243l6.45 3.39c0.19 0.1 0.34 0 0.34-0.21v-7.39z" fill="#E7EDF5"/>
<path d="m241.84 138.92c-6e-3 -0.078-0.031-0.154-0.073-0.22s-0.099-0.121-0.167-0.16l-4.4-2.31c-0.13-0.07-0.23 0-0.23 0.14v5c3e-3 0.078 0.026 0.153 0.066 0.22 0.04 0.066 0.097 0.121 0.164 0.16l4.4 2.32c0.024 0.018 0.052 0.029 0.082 0.031s0.059-5e-3 0.085-0.02 0.047-0.038 0.06-0.065c0.013-0.026 0.017-0.056 0.013-0.086v-5.01z" fill="#FFBD26"/>
<path d="m226.3 139.88c1.279-0.768 1.389-2.933 0.247-4.837-1.143-1.903-3.106-2.824-4.384-2.057-1.279 0.767-1.389 2.932-0.247 4.836 1.143 1.904 3.106 2.825 4.384 2.058z" fill="#FF4EDA"/>
<path d="m244.74 161.33c1.638-0.984 1.78-3.758 0.317-6.197-1.464-2.438-3.979-3.618-5.617-2.635-1.639 0.983-1.781 3.758-0.317 6.196 1.464 2.439 3.978 3.619 5.617 2.636z" stroke="#6240B8" stroke-linecap="round" stroke-linejoin="round" stroke-width="2"/>
<path d="m175.91 147.03 13.56 7.12" stroke="#6240B8" stroke-dasharray="1.86 1.86 0.62 1.86 1.86 0.62" stroke-linecap="round" stroke-linejoin="round" stroke-width="1.24"/>
<path d="m175.91 152.91 10.43 5.48" stroke="#6240B8" stroke-dasharray="1.86 1.86 0.62 1.86 1.86 0.62" stroke-linecap="round" stroke-linejoin="round" stroke-width="1.24"/>
<path d="m175.91 158.78 12.88 6.78" stroke="#6240B8" stroke-dasharray="1.86 1.86 0.62 1.86 1.86 0.62" stroke-linecap="round" stroke-linejoin="round" stroke-width="1.24"/>
<path d="m183.94 168.88-8.03-4.22" stroke="#6240B8" stroke-dasharray="1.86 1.86 0.62 1.86 1.86 0.62" stroke-linecap="round" stroke-linejoin="round" stroke-width="1.24"/>
<path d="m81.09 213.15c1.4052 0.38 2.8825 0.408 4.3008 0.08s2.7336-1.001 3.8292-1.96" stroke="#6240B8" stroke-dasharray="0.46 2.32" stroke-linecap="round" stroke-linejoin="round" stroke-width="1.86"/>
<g opacity=".13" style="mix-blend-mode:multiply">
<g opacity=".13" style="mix-blend-mode:multiply">
<path d="m124.59 251.67c-5.672 0.066-11.324-0.689-16.78-2.24-5.74-1.7-9.83-4.14-11.22-6.7-0.1192-0.249-0.1374-0.535-0.0508-0.797 0.0867-0.263 0.2714-0.481 0.5156-0.611 0.2442-0.129 0.529-0.158 0.7946-0.083 0.2656 0.076 0.4916 0.252 0.6306 0.491 0.85 1.57 3.91 3.88 10 5.66 11.54 3.54 27.67 2.43 34.4-0.92 2.08-1 2.75-1.9 2.68-2.36-0.14-0.92-2.8-2.86-11.89-4.34-3.06-0.53-6.46-1-10.09-1.34-0.144-9e-3 -0.285-0.046-0.415-0.111-0.129-0.065-0.244-0.155-0.337-0.265-0.094-0.111-0.164-0.239-0.206-0.377-0.043-0.138-0.057-0.283-0.042-0.427 0.011-0.143 0.051-0.283 0.116-0.411 0.066-0.128 0.156-0.242 0.266-0.335s0.237-0.163 0.374-0.207c0.136-0.043 0.281-0.059 0.424-0.047 3.69 0.37 7.13 0.82 10.23 1.35 13.06 2.13 13.52 5.15 13.67 6.14 0.38 2.5-2.81 4.09-3.85 4.61-4.11 2.06-11.44 3.32-19.22 3.32z" fill="#5D7287"/>
</g>
<g opacity=".13" style="mix-blend-mode:multiply">
<path d="m153.88 249.36c-0.228-0.017-0.445-0.106-0.619-0.254-0.174-0.149-0.297-0.348-0.35-0.571-0.054-0.222-0.035-0.456 0.053-0.667s0.24-0.389 0.436-0.508c6.09-3 11.11-8.45 11-11.79-0.1-3.86-7.57-5.93-21.61-6-7-0.18-12.77-0.65-16.52-1-0.141-0.012-0.277-0.053-0.402-0.118s-0.236-0.154-0.327-0.263c-0.09-0.108-0.159-0.233-0.201-0.367-0.042-0.135-0.057-0.276-0.045-0.417 0.025-0.284 0.162-0.546 0.381-0.729 0.108-0.09 0.233-0.159 0.367-0.201 0.135-0.042 0.276-0.057 0.417-0.045 3.72 0.33 9.47 0.8 16.36 1 16 0.09 23.59 2.66 23.73 8.08 0.21 4.71-6 10.72-12.15 13.79-0.165 0.066-0.344 0.087-0.52 0.06z" fill="#5D7287"/>
</g>
<g opacity=".13" style="mix-blend-mode:multiply">
<path d="m170.9 245.77c-0.172 0-0.341-0.041-0.494-0.12-0.153-0.078-0.285-0.191-0.386-0.33-0.082-0.115-0.141-0.246-0.172-0.384-0.032-0.138-0.036-0.281-0.011-0.42 0.024-0.14 0.076-0.273 0.152-0.393 0.076-0.119 0.175-0.222 0.291-0.303 7.34-5.23 14.59-14.35 13.25-19.06-1-4.83-9.63-6.3-32.91-5.7-2.69 0.07-5.39 0.09-8 0.05-0.142-3e-3 -0.282-0.033-0.412-0.09-0.13-0.056-0.247-0.138-0.346-0.24-0.098-0.103-0.176-0.223-0.227-0.355-0.052-0.132-0.078-0.273-0.075-0.415-1e-3 -0.14 0.028-0.279 0.084-0.407 0.057-0.129 0.14-0.244 0.243-0.338 0.104-0.094 0.226-0.166 0.36-0.21 0.133-0.044 0.274-0.059 0.413-0.045 2.6 0 5.27 0 7.93-0.05 22.58-0.58 33.59 0.37 35.06 7.34 1.81 6.38-7.34 16.51-14.1 21.32-0.193 0.123-0.423 0.176-0.65 0.15z" fill="#5D7287"/>
</g>
<g opacity=".13" style="mix-blend-mode:multiply">
<path d="m122.5 260c-15.43 0-32.5-3.79-44.74-14.46l-0.58-0.5c-4.94-4.26-10.53-9.1-15.46-14.24-0.1143-0.098-0.2068-0.219-0.2716-0.355-0.0649-0.136-0.1006-0.284-0.1048-0.434-0.0043-0.151 0.023-0.3 0.08-0.44 0.057-0.139 0.1425-0.265 0.2511-0.369 0.1085-0.105 0.2377-0.185 0.3792-0.237 0.1415-0.051 0.2922-0.072 0.4424-0.062s0.2967 0.051 0.4299 0.122c0.1332 0.07 0.2503 0.167 0.3438 0.285 4.86 5.07 10.41 9.87 15.31 14.1l0.59 0.51c16 13.93 40.64 15.69 58.38 12.68 0.282-0.048 0.572 0.019 0.806 0.185 0.233 0.166 0.391 0.418 0.439 0.7s-0.019 0.572-0.185 0.806c-0.166 0.233-0.418 0.391-0.7 0.439-5.093 0.848-10.247 1.273-15.41 1.27z" fill="#5D7287"/>
</g>
<g opacity=".13" style="mix-blend-mode:multiply">
<path d="m184.16 243.74c-0.161-2e-3 -0.319-0.039-0.464-0.108s-0.273-0.169-0.376-0.292c-0.176-0.223-0.257-0.507-0.225-0.79 0.031-0.283 0.173-0.541 0.395-0.72 9.9-7.94 19.22-19.86 17.86-27.29-1.16-7.11-11.39-8.78-39.09-6.38l-5.45 0.36c-0.283 0.014-0.56-0.083-0.772-0.269-0.213-0.187-0.345-0.449-0.368-0.731-0.019-0.285 0.075-0.566 0.263-0.781 0.187-0.216 0.452-0.348 0.737-0.369 1.86-0.11 3.67-0.24 5.41-0.36 26.19-2.26 39.79-1.62 41.38 8.17 1.58 8.62-8.55 21.25-18.63 29.33-0.191 0.15-0.427 0.231-0.67 0.23z" fill="#5D7287"/>
</g>
<g opacity=".13" style="mix-blend-mode:multiply">
<path d="m121.34 264.08c-7.151 0.017-14.284-0.72-21.28-2.2-15.26-3.3-27.72-10.24-36-20.06-6.17-7.24-12.63-15-17.68-23.52-0.0738-0.12-0.1228-0.254-0.1442-0.394-0.0213-0.139-0.0146-0.282 0.0199-0.419s0.0959-0.265 0.1808-0.378 0.1915-0.208 0.3135-0.279c0.2461-0.144 0.5388-0.186 0.8155-0.117s0.5153 0.244 0.6645 0.487c5 8.36 11.35 16.06 17.47 23.23 11.3 13.38 37.62 26.57 74.46 19.8 0.273-0.032 0.547 0.04 0.768 0.203s0.372 0.404 0.421 0.674c0.05 0.27-5e-3 0.549-0.154 0.78-0.148 0.23-0.379 0.396-0.645 0.463-6.338 1.154-12.768 1.733-19.21 1.73z" fill="#5D7287"/>
</g>
<g opacity=".13" style="mix-blend-mode:multiply">
<path d="m80.84 180.85c-0.198 0-0.3919-0.055-0.56-0.16-8-4.85-16.32-10.52-23.37-21.71-0.1512-0.241-0.2003-0.533-0.1365-0.81 0.0637-0.278 0.2351-0.519 0.4765-0.67 0.2413-0.151 0.5329-0.2 0.8104-0.137 0.2776 0.064 0.5184 0.236 0.6696 0.477 6.81 10.79 14.93 16.3 22.67 21 0.2078 0.118 0.3701 0.302 0.461 0.523 0.091 0.221 0.1055 0.466 0.041 0.696-0.0644 0.23-0.2039 0.432-0.3964 0.573-0.1925 0.142-0.4268 0.215-0.6656 0.208v0.01z" fill="#5D7287"/>
</g>
<g opacity=".13" style="mix-blend-mode:multiply">
<path d="m196.2 242c-0.158 0-0.313-0.034-0.456-0.1-0.143-0.065-0.271-0.161-0.374-0.28-0.182-0.22-0.27-0.502-0.245-0.787 0.024-0.284 0.159-0.547 0.375-0.733 12.27-10.36 24.2-26.77 22.14-36.77-1.85-10.19-16.57-10.08-48.87-6-2.43 0.26-4.93 0.5-7.52 0.73-0.141 0.012-0.282-3e-3 -0.417-0.045-0.134-0.042-0.259-0.111-0.367-0.201-0.109-0.091-0.198-0.202-0.263-0.327-0.066-0.125-0.106-0.261-0.118-0.402s3e-3 -0.282 0.045-0.417c0.042-0.134 0.111-0.259 0.201-0.367 0.091-0.109 0.202-0.198 0.327-0.263s0.261-0.106 0.402-0.118c2.58-0.233 5.067-0.473 7.46-0.72 30.3-3.85 48.88-5.25 51.23 7.71 1.7 8.25-5.6 24.25-22.86 38.82-0.191 0.169-0.435 0.264-0.69 0.27z" fill="#5D7287"/>
</g>
<g opacity=".13" style="mix-blend-mode:multiply">
<path d="m120.3 268.13c-8.583 0.03-17.143-0.899-25.52-2.77-19.84-4.55-34.95-14.36-43.67-28.42-6.77-10.74-15-25.15-18.32-41.37-0.0411-0.143-0.0521-0.293-0.0324-0.441 0.0198-0.148 0.0698-0.29 0.1471-0.417 0.0772-0.127 0.18-0.237 0.3018-0.323s0.26-0.145 0.4059-0.175c0.146-0.03 0.2965-0.029 0.4422 2e-3 0.1456 0.031 0.2832 0.092 0.4041 0.179 0.121 0.087 0.2226 0.198 0.2985 0.327 0.076 0.128 0.1246 0.27 0.1428 0.418 3.28 15.87 11.36 30.06 18 40.66 10.64 17.11 28.89 24.38 42.33 27.46 16.736 3.662 34.069 3.628 50.79-0.1 0.142-0.044 0.291-0.058 0.439-0.041s0.29 0.064 0.419 0.138c0.128 0.074 0.24 0.174 0.328 0.294 0.089 0.119 0.151 0.256 0.184 0.401 0.033 0.144 0.036 0.294 9e-3 0.44-0.028 0.146-0.085 0.285-0.169 0.408-0.083 0.123-0.191 0.227-0.317 0.306s-0.266 0.132-0.413 0.154c-8.6 1.923-17.387 2.886-26.2 2.87z" fill="#5D7287"/>
</g>
<g opacity=".13" style="mix-blend-mode:multiply">
<path d="m40.78 232.85c-0.2083 2e-3 -0.4128-0.055-0.5899-0.165-0.177-0.11-0.3192-0.268-0.4101-0.455-0.2-0.45-0.4-0.9-0.59-1.36-0.1101-0.265-0.1103-0.563-6e-4 -0.829 0.1097-0.265 0.3204-0.476 0.5856-0.586s0.5633-0.11 0.8286-1e-3c0.2654 0.11 0.4763 0.321 0.5864 0.586 0.18 0.433 0.37 0.863 0.57 1.29 0.06 0.128 0.094 0.266 0.0998 0.407s-0.0167 0.282-0.0661 0.414c-0.0493 0.133-0.1246 0.254-0.2214 0.357-0.0969 0.102-0.2132 0.185-0.3423 0.242-0.1402 0.068-0.2943 0.102-0.45 0.1z" fill="#5D7287"/>
</g>
<g opacity=".13" style="mix-blend-mode:multiply">
<path d="m60.87 130.7c-0.2636-1e-3 -0.5178-0.097-0.7149-0.272s-0.3234-0.416-0.3551-0.678c-0.7254-6.996-0.252-14.064 1.4-20.9 0.0801-0.261 0.2559-0.481 0.492-0.618 0.2361-0.136 0.5151-0.178 0.7809-0.117 0.2659 0.06 0.4989 0.219 0.6523 0.445 0.1534 0.225 0.2158 0.5 0.1748 0.77-1.5984 6.597-2.0584 13.418-1.36 20.17 0.0181 0.141 0.0077 0.285-0.0305 0.422-0.0382 0.138-0.1034 0.266-0.1919 0.378s-0.1985 0.205-0.3234 0.273c-0.125 0.069-0.2624 0.112-0.4042 0.127h-0.12z" fill="#5D7287"/>
</g>
<g opacity=".13" style="mix-blend-mode:multiply">
<path d="m88.32 170.86c-0.2063 5e-3 -0.4088-0.055-0.58-0.17-8.0765-5.045-14.981-11.758-20.25-19.69-1.4388-2.239-2.7154-4.578-3.82-7-0.0571-0.131-0.0878-0.273-0.0904-0.416-0.0025-0.143 0.0232-0.285 0.0757-0.419 0.0524-0.133 0.1306-0.254 0.2301-0.357s0.2183-0.186 0.3496-0.243 0.2726-0.088 0.4158-0.09c0.1432-3e-3 0.2854 0.023 0.4187 0.075 0.1333 0.053 0.2549 0.131 0.3579 0.23 0.103 0.1 0.1855 0.219 0.2426 0.35 1.0505 2.341 2.2739 4.601 3.66 6.76 5.1082 7.655 11.79 14.132 19.6 19 0.1196 0.076 0.2229 0.175 0.3039 0.292 0.081 0.116 0.138 0.247 0.1678 0.386s0.0317 0.282 0.0056 0.421c-0.026 0.14-0.0795 0.272-0.1573 0.391-0.1002 0.154-0.2386 0.279-0.4017 0.363-0.163 0.084-0.345 0.124-0.5283 0.117z" fill="#5D7287"/>
</g>
<g opacity=".13" style="mix-blend-mode:multiply">
<path d="m207.42 240.33c-0.151 1e-3 -0.301-0.03-0.439-0.092-0.138-0.063-0.262-0.154-0.361-0.268-0.095-0.105-0.168-0.228-0.214-0.362-0.047-0.134-0.067-0.275-0.059-0.417 9e-3 -0.141 0.045-0.28 0.107-0.407 0.063-0.127 0.15-0.241 0.256-0.334 15.45-13.67 29.55-35.89 25.38-48-2.06-5.91-8.43-8.92-18.39-8.68h-0.06c-6 0-13.64 1.16-22.49 2.51-7.51 1.14-16 2.43-25.63 3.38l-1.59 0.16c-0.144 0.015-0.289 1e-3 -0.427-0.042-0.138-0.042-0.266-0.112-0.377-0.206-0.11-0.093-0.2-0.208-0.265-0.337-0.065-0.13-0.102-0.271-0.111-0.415-0.015-0.144-1e-3 -0.29 0.041-0.429 0.043-0.139 0.113-0.267 0.206-0.378 0.094-0.111 0.208-0.203 0.338-0.268 0.129-0.066 0.27-0.105 0.415-0.115l1.58-0.17c9.57-0.94 18.05-2.22 25.53-3.36 9-1.36 16.68-2.53 22.79-2.53h0.07c13.88-0.33 18.77 5.33 20.44 10.13 2.73 7.92-1.49 18.08-5.52 25.22-5.442 9.396-12.353 17.859-20.47 25.07-0.096 0.104-0.211 0.188-0.34 0.247-0.129 0.058-0.269 0.09-0.41 0.093z" fill="#5D7287"/>
</g>
<g opacity=".13" style="mix-blend-mode:multiply">
<path d="m117.83 272.1c-14.89 0-31.93-2.41-47.91-10.28-0.1282-0.061-0.2429-0.147-0.3372-0.252-0.0944-0.106-0.1666-0.23-0.2123-0.364-0.0457-0.135-0.064-0.277-0.0537-0.418 0.0102-0.142 0.0487-0.28 0.1132-0.406 0.1269-0.255 0.3494-0.45 0.6191-0.541 0.2697-0.092 0.5648-0.074 0.8209 0.051 34.23 16.85 73.56 8.13 84.8 5.06 0.274-0.076 0.568-0.039 0.815 0.102 0.248 0.14 0.429 0.374 0.505 0.648 0.076 0.275 0.039 0.568-0.102 0.815-0.14 0.248-0.374 0.429-0.648 0.505-12.531 3.341-25.441 5.048-38.41 5.08z" fill="#5D7287"/>
</g>
<g opacity=".13" style="mix-blend-mode:multiply">
<path d="m101.39 165.76c-0.209 3e-3 -0.414-0.056-0.59-0.17-14.35-9.3-23.9-18-30.22-35-0.0756-0.136-0.121-0.286-0.1331-0.441s0.0094-0.311 0.0629-0.457c0.0536-0.146 0.1381-0.278 0.2476-0.388 0.1095-0.111 0.2415-0.196 0.387-0.251 0.1455-0.054 0.3011-0.077 0.4561-0.066s0.3058 0.056 0.4421 0.131c0.1362 0.074 0.2548 0.177 0.3476 0.302 0.0927 0.125 0.1575 0.268 0.1898 0.42 6.11 16.47 15.4 24.93 29.37 34 0.239 0.156 0.408 0.4 0.468 0.679s6e-3 0.571-0.148 0.811c-0.102 0.137-0.235 0.247-0.388 0.322-0.153 0.074-0.322 0.112-0.492 0.108z" fill="#5D7287"/>
</g>
<g opacity=".13" style="mix-blend-mode:multiply">
<path d="m218.11 238.6c-0.216 2e-3 -0.428-0.062-0.608-0.184-0.179-0.121-0.317-0.294-0.396-0.495-0.079-0.202-0.096-0.422-0.047-0.633s0.161-0.402 0.321-0.548c18.33-16.94 33.83-44.68 27.7-59-3.07-7-11.21-10.08-23.55-8.84-5.95 0.42-13 1.82-21.24 3.44-11.686 2.487-23.496 4.353-35.38 5.59-6.919 0.767-13.891 0.944-20.84 0.53-0.149 2e-3 -0.296-0.026-0.433-0.084-0.137-0.057-0.261-0.142-0.364-0.25-0.102-0.107-0.182-0.235-0.233-0.374-0.051-0.14-0.073-0.289-0.064-0.437s0.049-0.293 0.116-0.426c0.068-0.132 0.162-0.249 0.277-0.344 0.115-0.094 0.248-0.163 0.391-0.204s0.293-0.051 0.44-0.031c6.832 0.413 13.687 0.239 20.49-0.52 11.817-1.23 23.56-3.086 35.18-5.56 8.28-1.64 15.43-3.05 21.47-3.47 16.86-1.68 23.29 4.58 25.71 10.13 4 9.42-0.49 22-5 30.82-5.969 11.427-13.815 21.771-23.21 30.6-0.198 0.185-0.459 0.288-0.73 0.29z" fill="#5D7287"/>
</g>
<g opacity=".13" style="mix-blend-mode:multiply">
<path d="m116.82 276c-10.369 0.051-20.71-1.087-30.82-3.39-0.2771-0.065-0.5171-0.237-0.6672-0.479-0.15-0.242-0.1978-0.534-0.1328-0.811s0.2374-0.517 0.4793-0.667 0.5335-0.198 0.8107-0.133c23.21 5.44 51.05 4.16 76.37-3.51 0.264-0.054 0.539-8e-3 0.771 0.131 0.231 0.138 0.403 0.357 0.48 0.616 0.078 0.258 0.056 0.536-0.06 0.779-0.117 0.243-0.321 0.433-0.571 0.534-15.134 4.563-30.853 6.898-46.66 6.93z" fill="#5D7287"/>
</g>
<g opacity=".13" style="mix-blend-mode:multiply">
<path d="m259.62 179.82h-0.08c-0.284-0.023-0.547-0.156-0.734-0.371s-0.283-0.495-0.266-0.779c0.55-7.71-1.07-13.62-4.83-17.57-3.57-3.77-9-5.6-16.17-5.46-8-0.19-18.62 2.21-30.83 5s-26.28 6-42.38 7.78c-30.11 2.7-47.46-5.21-59.22-12.41-0.132-0.068-0.249-0.162-0.343-0.277-0.095-0.115-0.164-0.248-0.205-0.391-0.04-0.143-0.051-0.292-0.03-0.44 0.02-0.147 0.07-0.288 0.147-0.415s0.18-0.237 0.302-0.322c0.121-0.086 0.259-0.145 0.404-0.175 0.146-0.029 0.296-0.029 0.441 2e-3 0.146 0.031 0.283 0.092 0.404 0.178 11.48 7 28.43 14.76 57.88 12.11 16-1.79 29.86-5 42.13-7.74s23-5.23 31.3-5.05c7.73-0.13 13.72 1.91 17.74 6.14s6 11 5.41 19.2c-0.02 0.27-0.142 0.522-0.34 0.705-0.199 0.184-0.46 0.286-0.73 0.285z" fill="#5D7287"/>
</g>
<g opacity=".13" style="mix-blend-mode:multiply">
<path d="m228 237.13c-0.289-3e-3 -0.565-0.117-0.77-0.32-0.199-0.205-0.31-0.479-0.31-0.765s0.111-0.56 0.31-0.765c9.17-9.05 16.923-19.43 23-30.79 0.132-0.252 0.359-0.442 0.63-0.529 0.272-0.086 0.566-0.061 0.82 0.069 0.126 0.064 0.238 0.153 0.329 0.261 0.092 0.108 0.161 0.233 0.204 0.368 0.042 0.135 0.058 0.277 0.045 0.418-0.012 0.141-0.052 0.278-0.118 0.403-6.185 11.56-14.073 22.125-23.4 31.34-0.2 0.191-0.464 0.302-0.74 0.31z" fill="#5D7287"/>
</g>
<g opacity=".13" style="mix-blend-mode:multiply">
<path d="m115.51 280c-4.52 0-9.17-0.19-13.92-0.61-0.141-0.012-0.277-0.053-0.402-0.118s-0.236-0.154-0.327-0.263c-0.09-0.108-0.159-0.233-0.201-0.367-0.042-0.135-0.057-0.276-0.045-0.417 0.012-0.14 0.052-0.277 0.118-0.402 0.065-0.125 0.154-0.236 0.263-0.327 0.108-0.09 0.233-0.159 0.367-0.201 0.135-0.042 0.276-0.057 0.417-0.045 27.06 2.38 50.76-2.8 65.87-7.56 0.263-0.057 0.538-0.014 0.77 0.121 0.233 0.135 0.407 0.352 0.488 0.608 0.082 0.256 0.064 0.534-0.048 0.778-0.113 0.245-0.312 0.438-0.56 0.543-17.08 5.399-34.878 8.184-52.79 8.26z" fill="#5D7287"/>
</g>
<g opacity=".13" style="mix-blend-mode:multiply">
<path d="m84.49 114.15c-0.2251-7e-3 -0.4425-0.083-0.6218-0.22-0.1794-0.136-0.3116-0.325-0.3782-0.54-0.49-1.59-0.92-3.22-1.27-4.85-0.0446-0.274 0.0178-0.554 0.1743-0.783s0.3951-0.389 0.6664-0.447c0.2712-0.058 0.5543-9e-3 0.7906 0.136 0.2364 0.145 0.4077 0.376 0.4787 0.644 0.33 1.57 0.74 3.13 1.21 4.66 0.0432 0.135 0.0591 0.278 0.0467 0.419-0.0124 0.142-0.0528 0.279-0.1189 0.405-0.0661 0.125-0.1565 0.237-0.266 0.327s-0.2359 0.158-0.3718 0.199c-0.1101 0.034-0.2248 0.051-0.34 0.05z" fill="#5D7287"/>
</g>
<g opacity=".13" style="mix-blend-mode:multiply">
<path d="m94.61 133.32c-0.1644 0-0.3267-0.038-0.4741-0.111s-0.276-0.178-0.3759-0.309c-2.3111-2.951-4.3527-6.104-6.1-9.42-0.0975-0.248-0.1001-0.522-0.0075-0.772 0.0926-0.249 0.274-0.455 0.5094-0.579s0.5083-0.157 0.7662-0.092c0.258 0.065 0.483 0.223 0.6319 0.443 1.6938 3.205 3.6682 6.254 5.9 9.11 0.0874 0.111 0.1519 0.239 0.1898 0.375 0.0378 0.137 0.0481 0.279 0.0305 0.42-0.0177 0.14-0.0631 0.276-0.1335 0.398-0.0704 0.123-0.1645 0.231-0.2768 0.317-0.1866 0.15-0.4208 0.228-0.66 0.22z" fill="#5D7287"/>
</g>
<g opacity=".13" style="mix-blend-mode:multiply">
<path d="m270.52 161c-0.251-2e-3 -0.494-0.091-0.687-0.251-0.193-0.161-0.325-0.383-0.373-0.629-2.58-13.87-13.14-19.73-30.55-16.95-7.43 0.93-16 3.24-26 5.92-14.83 4-31.63 8.5-50.65 10.19-32.28 2-48.67-7.89-61.58-18.89-0.117-0.089-0.215-0.201-0.288-0.329-0.072-0.128-0.118-0.269-0.134-0.416-0.016-0.146-1e-3 -0.294 0.042-0.434 0.043-0.141 0.115-0.271 0.21-0.383 0.096-0.112 0.213-0.203 0.345-0.268 0.133-0.065 0.276-0.102 0.423-0.11 0.147-7e-3 0.294 0.016 0.432 0.067 0.138 0.052 0.264 0.131 0.37 0.233 8.45 7.21 24.19 20.62 60 18.39 18.8-1.67 35.51-6.16 50.25-10.13 10-2.69 18.71-5 26.25-6 18.45-2.95 30.18 3.68 33 18.68 0.053 0.281-8e-3 0.572-0.169 0.808-0.162 0.236-0.41 0.399-0.691 0.452l-0.2 0.05z" fill="#5D7287"/>
</g>
<g opacity=".13" style="mix-blend-mode:multiply">
<path d="m238.74 234.43c-0.276 0-0.542-0.107-0.74-0.3-0.1-0.099-0.18-0.218-0.234-0.348-0.055-0.131-0.083-0.271-0.083-0.412s0.028-0.281 0.083-0.412c0.054-0.13 0.134-0.249 0.234-0.348 5.656-6.014 10.788-12.501 15.34-19.39 0.156-0.237 0.401-0.403 0.679-0.46 0.138-0.028 0.28-0.029 0.419-3e-3 0.138 0.027 0.269 0.081 0.387 0.158s0.219 0.177 0.298 0.294c0.079 0.116 0.134 0.247 0.162 0.385s0.029 0.28 3e-3 0.419c-0.027 0.138-0.081 0.269-0.158 0.387-4.617 6.997-9.826 13.584-15.57 19.69-0.105 0.111-0.233 0.199-0.374 0.257-0.141 0.059-0.293 0.087-0.446 0.083z" fill="#5D7287"/>
</g>
<g opacity=".13" style="mix-blend-mode:multiply">
<path d="m119.29 283.72c-0.267-0.026-0.515-0.15-0.696-0.349-0.18-0.199-0.28-0.458-0.28-0.726s0.1-0.527 0.28-0.726c0.181-0.199 0.429-0.323 0.696-0.349 17.733-0.568 35.298-3.625 52.18-9.08 0.265-0.063 0.543-0.024 0.78 0.109 0.238 0.133 0.416 0.351 0.499 0.61s0.066 0.54-0.049 0.787-0.318 0.441-0.57 0.544c-17.074 5.514-34.837 8.604-52.77 9.18h-0.07z" fill="#5D7287"/>
</g>
<g opacity=".13" style="mix-blend-mode:multiply">
<path d="m279.64 147c-0.226-5e-3 -0.444-0.081-0.623-0.218-0.18-0.136-0.312-0.326-0.377-0.542-3.73-12.43-13.81-18-29.18-16-0.276 0.02-0.549-0.067-0.763-0.242s-0.352-0.426-0.387-0.7c-0.034-0.274 0.038-0.552 0.201-0.774 0.164-0.223 0.407-0.375 0.679-0.424 16.31-2.07 27.5 4.16 31.51 17.54 0.045 0.135 0.062 0.278 0.051 0.42s-0.05 0.281-0.115 0.407c-0.065 0.127-0.155 0.239-0.264 0.331-0.109 0.091-0.236 0.16-0.372 0.202-0.119 0.019-0.241 0.019-0.36 0z" fill="#5D7287"/>
</g>
<g opacity=".13" style="mix-blend-mode:multiply">
<path d="m249 231.56c-0.207-1e-3 -0.409-0.061-0.583-0.173-0.174-0.113-0.312-0.273-0.397-0.462-0.085-0.188-0.115-0.398-0.085-0.602 0.03-0.205 0.119-0.397 0.255-0.553 2.81-3.17 5.53-6.53 8.09-10 0.078-0.127 0.182-0.237 0.305-0.322 0.123-0.086 0.263-0.144 0.41-0.173 0.147-0.028 0.298-0.026 0.444 7e-3s0.283 0.096 0.403 0.185c0.121 0.089 0.221 0.202 0.296 0.332 0.074 0.13 0.12 0.274 0.136 0.423s0 0.299-0.045 0.442c-0.045 0.142-0.12 0.274-0.219 0.386-2.6 3.5-5.36 6.91-8.2 10.13-0.1 0.117-0.225 0.211-0.364 0.277-0.14 0.065-0.292 0.101-0.446 0.103z" fill="#5D7287"/>
</g>
<g opacity=".13" style="mix-blend-mode:multiply">
<path d="m146.15 284.68c-0.266-6e-3 -0.521-0.111-0.715-0.293-0.194-0.183-0.314-0.431-0.336-0.696-0.022-0.266 0.054-0.53 0.215-0.742 0.161-0.213 0.394-0.358 0.656-0.409 7.135-1.24 14.201-2.849 21.17-4.82 0.14-0.053 0.289-0.076 0.438-0.068s0.295 0.046 0.429 0.113c0.133 0.067 0.252 0.162 0.347 0.277s0.165 0.249 0.206 0.392c0.041 0.144 0.052 0.295 0.032 0.443s-0.071 0.29-0.149 0.417c-0.078 0.128-0.182 0.238-0.305 0.323-0.122 0.085-0.261 0.144-0.408 0.173-7.041 1.992-14.181 3.617-21.39 4.87l-0.19 0.02z" fill="#5D7287"/>
</g>
<g opacity=".13" style="mix-blend-mode:multiply">
<path d="m90.85 112c-0.2127 4e-3 -0.4217-0.055-0.6001-0.171-0.1783-0.116-0.3177-0.283-0.3999-0.479-2.2366-5.168-3.7347-10.625-4.45-16.21-0.0177-0.1399-0.0077-0.2818 0.0294-0.4178s0.1007-0.2634 0.1871-0.3748c0.1744-0.2251 0.431-0.3716 0.7135-0.4074s0.5676 0.0421 0.7926 0.2165c0.2251 0.1744 0.3716 0.431 0.4074 0.7135 0.6943 5.389 2.1418 10.654 4.3 15.64 0.0695 0.165 0.097 0.344 0.0802 0.522s-0.0775 0.348-0.1766 0.497-0.2335 0.27-0.3912 0.354-0.3338 0.128-0.5124 0.127l0.02-0.01z" fill="#5D7287"/>
</g>
<g opacity=".13" style="mix-blend-mode:multiply">
<path d="m138.12 149.18c-0.07 0.01-0.14 0.01-0.21 0-7.778-1.507-15.242-4.331-22.07-8.35-6.376-3.691-12.025-8.513-16.67-14.23-0.0965-0.108-0.1702-0.235-0.2168-0.372-0.0465-0.137-0.0649-0.283-0.0541-0.427 0.0107-0.145 0.0505-0.286 0.117-0.415 0.0664-0.128 0.1581-0.243 0.2695-0.335 0.1115-0.093 0.2405-0.162 0.3794-0.204 0.1388-0.042 0.2846-0.055 0.429-0.039 0.144 0.015 0.283 0.06 0.41 0.131 0.126 0.071 0.237 0.166 0.326 0.281 4.48 5.538 9.937 10.209 16.1 13.78 6.625 3.893 13.866 6.629 21.41 8.09 0.255 0.061 0.479 0.212 0.63 0.426 0.152 0.213 0.22 0.475 0.193 0.735-0.027 0.261-0.147 0.503-0.339 0.681s-0.442 0.28-0.704 0.288v-0.04z" fill="#5D7287"/>
</g>
</g>
<path d="m64.49 332.05h2.4l6.71 15.58h-3.11l-1.45-3.56h-6.78l-1.4 3.56h-3.11l6.74-15.58zm3.52 9.64-2.4-6.34-2.44 6.34h4.84zm9.53-4.62v1.47h0.06c0.1459-0.222 0.317-0.427 0.51-0.61 0.2321-0.23 0.4986-0.422 0.79-0.57 0.3134-0.183 0.6496-0.325 1-0.42 0.4289-0.124 0.8736-0.185 1.32-0.18 0.7139-6e-3 1.4204 0.144 2.07 0.44 0.62 0.27 1.1756 0.669 1.63 1.17 0.4667 0.51 0.827 1.109 1.06 1.76 0.253 0.699 0.3783 1.437 0.37 2.18 0.0058 0.749-0.1194 1.494-0.37 2.2-0.2167 0.652-0.5561 1.256-1 1.78-0.4549 0.511-1.0096 0.922-1.63 1.21-0.6759 0.302-1.4098 0.452-2.15 0.44-0.7158 4e-3 -1.4234-0.153-2.07-0.46-0.5835-0.281-1.0783-0.716-1.43-1.26v6.69h-2.65v-15.84h2.49zm6.16 5.24c-0.0014-0.411-0.0689-0.82-0.2-1.21-0.1117-0.398-0.2983-0.772-0.55-1.1-0.2665-0.333-0.6095-0.598-1-0.77-0.4129-0.216-0.8742-0.323-1.34-0.31-0.4526-9e-3 -0.9001 0.098-1.3 0.31-0.3795 0.199-0.7186 0.467-1 0.79-0.2667 0.328-0.4732 0.7-0.61 1.1-0.2668 0.798-0.2668 1.662 0 2.46 0.1391 0.393 0.3455 0.758 0.61 1.08 0.2814 0.323 0.6205 0.591 1 0.79 0.4048 0.197 0.85 0.296 1.3 0.29 0.4658 0.013 0.9271-0.094 1.34-0.31 0.3851-0.19 0.7258-0.459 1-0.79 0.2517-0.328 0.4383-0.702 0.55-1.1 0.1432-0.395 0.2241-0.81 0.24-1.23h-0.04zm7.79-5.24v1.47h0.06c0.152-0.218 0.3226-0.422 0.51-0.61 0.2321-0.23 0.4986-0.422 0.79-0.57 0.3137-0.183 0.6499-0.324 1-0.42 0.4286-0.125 0.8735-0.186 1.32-0.18 0.7105-5e-3 1.4136 0.145 2.06 0.44 0.6214 0.268 1.1774 0.667 1.63 1.17 0.4667 0.51 0.827 1.109 1.06 1.76 0.253 0.699 0.378 1.437 0.37 2.18 6e-3 0.749-0.119 1.494-0.37 2.2-0.2167 0.652-0.5561 1.256-1 1.78-0.4696 0.536-1.052 0.963-1.7054 1.248-0.6535 0.285-1.3619 0.422-2.0746 0.402-0.7158 4e-3 -1.4234-0.153-2.07-0.46-0.5815-0.284-1.0756-0.719-1.43-1.26v6.69h-2.67v-15.84h2.52zm6.16 5.24c-0.0014-0.411-0.0689-0.82-0.2-1.21-0.1117-0.398-0.2983-0.772-0.55-1.1-0.2641-0.336-0.6078-0.6-1-0.77-0.4109-0.201-0.8624-0.306-1.32-0.306s-0.9091 0.105-1.32 0.306c-0.3795 0.199-0.7186 0.467-1 0.79-0.263 0.33-0.4692 0.702-0.61 1.1-0.2668 0.798-0.2668 1.662 0 2.46 0.1431 0.391 0.3492 0.756 0.61 1.08 0.2814 0.323 0.6205 0.591 1 0.79 0.4052 0.196 0.8501 0.295 1.3 0.29 0.4659 0.014 0.9274-0.093 1.34-0.31 0.3861-0.189 0.7271-0.458 1-0.79 0.2517-0.328 0.4383-0.702 0.55-1.1 0.133-0.397 0.2038-0.812 0.21-1.23h-0.01zm5.27-11.31h2.64v16.63h-2.63l-0.01-16.63zm4.26 6.07h2.93l3 7.68 2.62-7.68h2.76l-5 12.83c-0.175 0.438-0.382 0.863-0.62 1.27-0.197 0.381-0.465 0.72-0.79 1-0.324 0.268-0.698 0.469-1.1 0.59-0.487 0.142-0.993 0.21-1.5 0.2-0.226 0.015-0.454 0.015-0.68 0-0.229-0.023-0.456-0.06-0.68-0.11l0.22-2.29c0.162 0.055 0.33 0.091 0.5 0.11 0.163 0.014 0.327 0.014 0.49 0 0.238 0.01 0.476-0.028 0.7-0.11 0.188-0.058 0.357-0.165 0.49-0.31 0.139-0.15 0.257-0.318 0.35-0.5 0.1-0.21 0.21-0.45 0.33-0.73l0.53-1.34-4.55-10.61zm17.75 5.24c-0.011-0.779 0.139-1.552 0.44-2.27 0.289-0.662 0.708-1.261 1.23-1.76 0.529-0.492 1.151-0.873 1.83-1.12 0.715-0.271 1.475-0.406 2.24-0.4 0.768-6e-3 1.531 0.13 2.25 0.4 0.676 0.247 1.295 0.628 1.82 1.12 0.525 0.493 0.938 1.093 1.21 1.76 0.317 0.714 0.474 1.489 0.46 2.27 0.011 0.784-0.146 1.561-0.46 2.28-0.276 0.673-0.688 1.283-1.21 1.79-0.53 0.491-1.147 0.878-1.82 1.14-0.717 0.281-1.48 0.424-2.25 0.42-0.767 4e-3 -1.527-0.138-2.24-0.42-1.051-0.399-1.952-1.115-2.579-2.048s-0.949-2.038-0.921-3.162zm2.68 0c1e-3 0.416 0.062 0.831 0.18 1.23 0.123 0.398 0.316 0.77 0.57 1.1 0.274 0.331 0.615 0.6 1 0.79 0.419 0.218 0.888 0.325 1.36 0.31 0.476 0.015 0.947-0.092 1.37-0.31 0.364-0.196 0.684-0.465 0.94-0.79 0.252-0.328 0.438-0.702 0.55-1.1 0.13-0.397 0.197-0.812 0.2-1.23-1e-3 -0.411-0.069-0.82-0.2-1.21-0.112-0.398-0.298-0.772-0.55-1.1-0.249-0.327-0.571-0.591-0.94-0.77-0.423-0.218-0.894-0.325-1.37-0.31-0.472-0.015-0.941 0.092-1.36 0.31-0.39 0.172-0.734 0.437-1 0.77-0.254 0.33-0.447 0.702-0.57 1.1-0.116 0.393-0.174 0.8-0.17 1.21h-0.01zm11.36-5.24h2.52v1.69h0.05c0.263-0.566 0.683-1.045 1.21-1.38 0.604-0.418 1.325-0.635 2.06-0.62 0.609-0.017 1.213 0.113 1.76 0.38 0.474 0.21 0.889 0.533 1.21 0.94 0.33 0.402 0.571 0.869 0.71 1.37 0.143 0.515 0.217 1.046 0.22 1.58v6.6h-2.64v-5.8c2e-3 -0.335-0.021-0.669-0.07-1-0.035-0.315-0.13-0.62-0.28-0.9-0.146-0.275-0.359-0.509-0.62-0.68-0.297-0.192-0.647-0.286-1-0.27-0.384-0.01-0.764 0.083-1.1 0.27-0.3 0.15-0.563 0.366-0.77 0.63-0.198 0.283-0.347 0.597-0.44 0.93-0.104 0.323-0.158 0.66-0.16 1v5.81h-2.64l-0.02-10.55zm12.85-6.07h2.67v16.63h-2.64l-0.03-16.63zm5.89 6.07h2.64v10.56h-2.64v-10.56zm-0.37-3.59c-3e-3 -0.205 0.037-0.408 0.116-0.598 0.079-0.189 0.196-0.36 0.344-0.502 0.158-0.158 0.347-0.283 0.555-0.365 0.208-0.083 0.431-0.122 0.655-0.115 0.222-7e-3 0.443 0.031 0.651 0.11 0.207 0.078 0.397 0.198 0.559 0.35 0.16 0.139 0.288 0.311 0.374 0.505 0.087 0.193 0.13 0.403 0.126 0.615 4e-3 0.216-0.039 0.431-0.125 0.629-0.086 0.199-0.214 0.376-0.375 0.521-0.334 0.293-0.766 0.45-1.21 0.44-0.448 0.012-0.883-0.153-1.21-0.46-0.294-0.302-0.456-0.709-0.45-1.13h-0.01zm6.21 3.59h2.51v1.69c0.27-0.562 0.688-1.039 1.21-1.38 0.609-0.417 1.332-0.634 2.07-0.62 0.609-0.017 1.213 0.113 1.76 0.38 0.472 0.213 0.887 0.535 1.21 0.94 0.33 0.402 0.571 0.869 0.71 1.37 0.143 0.515 0.217 1.046 0.22 1.58v6.6h-2.64v-5.8c-3e-3 -0.334-0.027-0.668-0.07-1-0.034-0.317-0.133-0.623-0.29-0.9-0.139-0.277-0.35-0.512-0.61-0.68-0.297-0.192-0.647-0.286-1-0.27-0.384-0.012-0.765 0.081-1.1 0.27-0.3 0.15-0.563 0.366-0.77 0.63-0.198 0.283-0.347 0.597-0.44 0.93-0.104 0.323-0.158 0.66-0.16 1v5.81h-2.64l0.03-10.55zm20.24 4.22c6e-3 -0.339-0.045-0.677-0.15-1-0.088-0.301-0.238-0.58-0.44-0.82-0.219-0.24-0.489-0.428-0.79-0.55-0.347-0.151-0.722-0.226-1.1-0.22-0.733-9e-3 -1.445 0.25-2 0.73-0.264 0.227-0.48 0.506-0.635 0.819-0.155 0.312-0.245 0.653-0.265 1.001l5.38 0.04zm2.64 1.19v0.35c0.01 0.12 0.01 0.24 0 0.36h-8c0.028 0.365 0.126 0.722 0.29 1.05 0.176 0.312 0.406 0.589 0.68 0.82 0.286 0.224 0.607 0.399 0.95 0.52 0.347 0.136 0.717 0.204 1.09 0.2 0.58 0.015 1.155-0.104 1.68-0.35 0.445-0.243 0.829-0.585 1.12-1l1.76 1.41c-0.523 0.697-1.211 1.254-2.001 1.622s-1.659 0.536-2.529 0.488c-0.773 7e-3 -1.541-0.122-2.27-0.38-0.666-0.247-1.277-0.62-1.8-1.1-0.51-0.482-0.915-1.064-1.19-1.71-0.289-0.742-0.432-1.533-0.42-2.33-0.011-0.79 0.131-1.575 0.42-2.31 0.269-0.672 0.674-1.282 1.19-1.79 0.501-0.498 1.101-0.886 1.76-1.14 0.706-0.283 1.46-0.426 2.22-0.42 0.685-4e-3 1.364 0.125 2 0.38 0.62 0.223 1.179 0.59 1.63 1.07 0.482 0.511 0.844 1.122 1.06 1.79 0.285 0.792 0.427 1.628 0.42 2.47h-0.06zm8.1-5.41h2.64v10.56h-2.64v-10.56zm-0.37-3.59c-3e-3 -0.205 0.037-0.408 0.116-0.598 0.079-0.189 0.196-0.36 0.344-0.502 0.33-0.303 0.762-0.471 1.21-0.471s0.88 0.168 1.21 0.471c0.163 0.137 0.293 0.309 0.382 0.502 0.088 0.194 0.132 0.405 0.128 0.618 4e-3 0.217-0.04 0.433-0.128 0.631-0.088 0.199-0.218 0.376-0.382 0.519-0.336 0.291-0.766 0.451-1.21 0.451s-0.874-0.16-1.21-0.451c-0.15-0.154-0.268-0.338-0.345-0.539-0.078-0.201-0.113-0.416-0.105-0.631h-0.01zm6.22 3.59h2.5v1.69c0.267-0.564 0.686-1.042 1.21-1.38 0.607-0.42 1.332-0.637 2.07-0.62 0.609-0.016 1.212 0.115 1.76 0.38 0.472 0.213 0.887 0.535 1.21 0.94s0.561 0.871 0.7 1.37c0.149 0.513 0.223 1.046 0.22 1.58v6.6h-2.56v-5.8c2e-3 -0.335-0.021-0.669-0.07-1-0.035-0.315-0.13-0.62-0.28-0.9-0.143-0.278-0.357-0.512-0.62-0.68-0.297-0.193-0.647-0.288-1-0.27-0.384-0.01-0.764 0.083-1.1 0.27-0.298 0.153-0.561 0.368-0.77 0.63-0.198 0.283-0.347 0.597-0.44 0.93-0.097 0.325-0.147 0.661-0.15 1v5.81h-2.67l-0.01-10.55zm21 0v11.2c3e-3 0.597-0.047 1.192-0.15 1.78-0.084 0.528-0.286 1.03-0.59 1.47-0.294 0.432-0.698 0.777-1.17 1-0.598 0.273-1.253 0.399-1.91 0.37-0.22 0.015-0.44 0.015-0.66 0l-0.53-0.09 0.22-2.25c0.121 0.034 0.245 0.057 0.37 0.07h0.36c0.257 9e-3 0.512-0.05 0.74-0.17 0.191-0.117 0.344-0.288 0.44-0.49 0.111-0.225 0.179-0.47 0.2-0.72 0.016-0.286 0.016-0.574 0-0.86v-11.31h2.68zm-3-3.59c-3e-3 -0.205 0.037-0.408 0.116-0.598 0.079-0.189 0.196-0.36 0.344-0.502 0.33-0.303 0.762-0.471 1.21-0.471s0.88 0.168 1.21 0.471c0.163 0.137 0.293 0.309 0.382 0.502 0.088 0.194 0.132 0.405 0.128 0.618 4e-3 0.217-0.04 0.433-0.128 0.631-0.088 0.199-0.218 0.376-0.382 0.519-0.336 0.291-0.766 0.451-1.21 0.451s-0.874-0.16-1.21-0.451c-0.156-0.152-0.279-0.334-0.361-0.535-0.083-0.202-0.123-0.418-0.119-0.635h0.02zm15.85 14.15h-2.5v-1.69h-0.05c-0.273 0.571-0.699 1.056-1.23 1.4-0.603 0.411-1.321 0.62-2.05 0.6-0.612 0.013-1.219-0.107-1.78-0.35-0.466-0.229-0.877-0.557-1.203-0.961-0.327-0.404-0.561-0.875-0.687-1.379-0.149-0.513-0.223-1.046-0.22-1.58v-6.6h2.64v5.85c-2e-3 0.335 0.021 0.669 0.07 1 0.037 0.321 0.132 0.633 0.28 0.92 0.145 0.264 0.35 0.491 0.6 0.66 0.299 0.187 0.647 0.281 1 0.27 0.374 8e-3 0.745-0.074 1.08-0.24 0.301-0.162 0.564-0.387 0.77-0.66 0.206-0.274 0.362-0.582 0.46-0.91 0.099-0.341 0.149-0.695 0.15-1.05v-5.81h2.64l0.03 10.53zm9-7.74c-0.272-0.336-0.613-0.608-1-0.8-0.409-0.231-0.871-0.351-1.34-0.35-0.406-6e-3 -0.807 0.087-1.17 0.27-0.156 0.09-0.286 0.221-0.374 0.378-0.088 0.158-0.132 0.336-0.126 0.517 5e-3 0.18 0.059 0.356 0.155 0.508 0.097 0.153 0.234 0.276 0.395 0.357 0.556 0.211 1.128 0.378 1.71 0.5 0.403 0.092 0.801 0.209 1.19 0.35 0.396 0.141 0.767 0.343 1.1 0.6 0.34 0.232 0.621 0.54 0.82 0.9 0.212 0.4 0.316 0.848 0.3 1.3 0.017 0.572-0.11 1.14-0.37 1.65-0.24 0.436-0.583 0.807-1 1.08-0.429 0.284-0.907 0.484-1.41 0.59-1.343 0.333-2.756 0.249-4.05-0.24-0.734-0.281-1.394-0.726-1.93-1.3l1.74-1.63c0.307 0.396 0.696 0.72 1.14 0.95 0.481 0.251 1.017 0.378 1.56 0.37 0.192 0 0.383-0.02 0.57-0.06 0.195-0.042 0.383-0.11 0.56-0.2 0.167-0.099 0.307-0.236 0.41-0.4 0.114-0.175 0.17-0.381 0.16-0.59 5e-3 -0.203-0.052-0.402-0.162-0.571-0.111-0.17-0.271-0.302-0.458-0.379-0.58-0.248-1.183-0.439-1.8-0.57-0.396-0.089-0.786-0.199-1.17-0.33-0.356-0.138-0.693-0.323-1-0.55-0.294-0.232-0.533-0.525-0.7-0.86-0.191-0.388-0.284-0.817-0.27-1.25-0.014-0.529 0.11-1.053 0.36-1.52 0.249-0.408 0.592-0.751 1-1 0.409-0.286 0.866-0.496 1.35-0.62 0.499-0.132 1.014-0.199 1.53-0.2 0.761-3e-3 1.517 0.133 2.23 0.4 0.683 0.23 1.286 0.65 1.74 1.21l-1.69 1.49zm2.47-0.71v-2.11h1.79v-3.06h2.59v3.06h2.64v2.11h-2.64v4.91c-0.013 0.401 0.073 0.8 0.25 1.16 0.17 0.31 0.55 0.47 1.14 0.47 0.191-3e-3 0.381-0.019 0.57-0.05 0.189-0.036 0.374-0.093 0.55-0.17l0.09 2.06c-0.271 0.101-0.553 0.169-0.84 0.2-0.303 0.058-0.611 0.088-0.92 0.09-0.587 0.019-1.172-0.08-1.72-0.29-0.412-0.178-0.773-0.457-1.05-0.81-0.254-0.357-0.434-0.762-0.53-1.19-0.091-0.478-0.134-0.964-0.13-1.45v-4.93h-1.79zm-116.5 27.58c0.609-0.017 1.213 0.113 1.76 0.38 0.474 0.21 0.889 0.533 1.21 0.94 0.33 0.402 0.571 0.869 0.71 1.37 0.143 0.515 0.217 1.046 0.22 1.58v6.6h-2.61v-5.8c-3e-3 -0.334-0.027-0.668-0.07-1-0.034-0.317-0.133-0.623-0.29-0.9-0.139-0.277-0.35-0.512-0.61-0.68-0.297-0.192-0.647-0.286-1-0.27-0.372-0.01-0.739 0.083-1.06 0.27-0.288 0.17-0.534 0.402-0.72 0.68-0.198 0.284-0.34 0.603-0.42 0.94-0.089 0.326-0.136 0.662-0.14 1v5.76h-2.69v-6.38c0.02-0.582-0.152-1.155-0.49-1.63-0.169-0.225-0.393-0.404-0.65-0.519s-0.539-0.164-0.82-0.141c-0.351 1e-3 -0.696 0.094-1 0.27-0.283 0.154-0.529 0.369-0.72 0.63-0.187 0.286-0.329 0.6-0.42 0.93-0.085 0.326-0.129 0.662-0.13 1v5.81h-2.64v-10.53h2.51v1.69c0.121-0.266 0.275-0.514 0.46-0.74 0.21-0.241 0.449-0.456 0.71-0.64 0.287-0.198 0.604-0.347 0.94-0.44 0.531-0.165 1.091-0.217 1.644-0.154 0.553 0.064 1.086 0.242 1.566 0.524 0.541 0.364 0.975 0.864 1.26 1.45 0.323-0.609 0.807-1.118 1.4-1.47 0.635-0.365 1.358-0.548 2.09-0.53zm7 0.31h2.64v10.56h-2.64v-10.56zm-0.37-3.59c-3e-3 -0.205 0.037-0.408 0.116-0.598 0.079-0.189 0.196-0.36 0.344-0.502 0.33-0.303 0.762-0.471 1.21-0.471s0.88 0.168 1.21 0.471c0.163 0.137 0.293 0.309 0.382 0.502 0.088 0.194 0.132 0.405 0.128 0.618 4e-3 0.217-0.04 0.433-0.128 0.631-0.088 0.199-0.218 0.376-0.382 0.519-0.336 0.291-0.766 0.451-1.21 0.451s-0.874-0.16-1.21-0.451c-0.15-0.154-0.268-0.338-0.345-0.539-0.078-0.201-0.113-0.416-0.105-0.631h-0.01zm6.22 3.59h2.5v1.69h0.05c0.267-0.564 0.686-1.042 1.21-1.38 0.608-0.419 1.332-0.635 2.07-0.62 0.609-0.016 1.212 0.115 1.76 0.38 0.471 0.216 0.885 0.537 1.21 0.94 0.323 0.405 0.561 0.871 0.7 1.37 0.149 0.513 0.223 1.046 0.22 1.58v6.6h-2.64v-5.8c2e-3 -0.335-0.021-0.669-0.07-1-0.035-0.315-0.13-0.62-0.28-0.9-0.143-0.278-0.357-0.512-0.62-0.68-0.297-0.193-0.647-0.288-1-0.27-0.384-9e-3 -0.764 0.084-1.1 0.27-0.298 0.153-0.561 0.368-0.77 0.63-0.198 0.283-0.347 0.597-0.44 0.93-0.097 0.325-0.147 0.661-0.15 1v5.81h-2.64l-0.01-10.55zm22.44 10.56h-2.5v-1.69c-0.28 0.57-0.708 1.053-1.24 1.4-0.589 0.401-1.287 0.611-2 0.6-0.612 0.015-1.219-0.104-1.78-0.35-0.47-0.247-0.885-0.587-1.22-1-0.309-0.411-0.539-0.875-0.68-1.37-0.143-0.515-0.217-1.046-0.22-1.58v-6.6h2.64v5.85c3e-3 0.334 0.027 0.668 0.07 1 0.037 0.321 0.132 0.633 0.28 0.92 0.145 0.264 0.35 0.491 0.6 0.66 0.299 0.187 0.647 0.281 1 0.27 0.374 8e-3 0.745-0.074 1.08-0.24 0.301-0.162 0.564-0.387 0.77-0.66 0.21-0.271 0.366-0.58 0.46-0.91 0.107-0.34 0.161-0.694 0.16-1.05v-5.81h2.58v10.56zm1.65-8.45v-2.11h1.85v-3.06h2.59v3.06h2.64v2.11h-2.63v4.91c-0.015 0.4 0.067 0.799 0.24 1.16 0.132 0.174 0.308 0.31 0.511 0.392 0.202 0.083 0.423 0.11 0.639 0.078 0.191-3e-3 0.381-0.02 0.57-0.05 0.189-0.037 0.373-0.094 0.55-0.17l0.09 2.06c-0.271 0.099-0.553 0.166-0.84 0.2-0.303 0.058-0.611 0.088-0.92 0.09-0.587 0.02-1.172-0.079-1.72-0.29-0.412-0.178-0.773-0.457-1.05-0.81-0.254-0.357-0.434-0.762-0.53-1.19-0.091-0.478-0.134-0.964-0.13-1.45v-4.93h-1.86zm16.43 2.11c8e-3 -0.34-0.046-0.679-0.16-1-0.08-0.304-0.231-0.585-0.44-0.82-0.217-0.243-0.487-0.431-0.79-0.55-0.347-0.152-0.722-0.227-1.1-0.22-0.733-9e-3 -1.445 0.25-2 0.73-0.264 0.227-0.48 0.506-0.635 0.819-0.155 0.312-0.245 0.653-0.265 1.001l5.39 0.04zm2.64 1.19v0.35 0.36h-8c0.024 0.365 0.119 0.721 0.28 1.05 0.181 0.308 0.411 0.585 0.68 0.82 0.303 0.226 0.641 0.402 1 0.52 0.35 0.136 0.724 0.204 1.1 0.2 0.577 0.017 1.149-0.103 1.67-0.35 0.447-0.24 0.831-0.583 1.12-1l1.76 1.41c-0.523 0.697-1.211 1.254-2.001 1.622s-1.659 0.536-2.529 0.488c-0.77 6e-3 -1.535-0.122-2.26-0.38-0.667-0.249-1.282-0.622-1.81-1.1-0.507-0.485-0.912-1.066-1.19-1.71-0.281-0.744-0.42-1.535-0.41-2.33-9e-3 -0.789 0.13-1.573 0.41-2.31 0.272-0.671 0.677-1.279 1.19-1.79 0.503-0.496 1.102-0.884 1.76-1.14 0.706-0.283 1.46-0.426 2.22-0.42 0.685-2e-3 1.364 0.127 2 0.38 0.619 0.226 1.177 0.592 1.63 1.07 0.475 0.514 0.833 1.125 1.05 1.79 0.262 0.796 0.378 1.633 0.34 2.47h-0.01zm8.34-2.59c-0.269-0.338-0.611-0.611-1-0.8-0.409-0.231-0.871-0.351-1.34-0.35-0.403-4e-3 -0.801 0.088-1.16 0.27-0.168 0.074-0.31 0.198-0.405 0.356-0.095 0.157-0.138 0.341-0.125 0.524-7e-3 0.188 0.043 0.373 0.146 0.53 0.102 0.158 0.25 0.28 0.424 0.35 0.557 0.208 1.128 0.376 1.71 0.5 0.403 0.092 0.801 0.209 1.19 0.35 0.396 0.141 0.767 0.343 1.1 0.6 0.34 0.232 0.621 0.54 0.82 0.9 0.212 0.4 0.316 0.848 0.3 1.3 0.017 0.572-0.11 1.14-0.37 1.65-0.238 0.437-0.582 0.809-1 1.08-0.427 0.287-0.906 0.488-1.41 0.59-1.327 0.324-2.721 0.241-4-0.24-0.738-0.279-1.402-0.724-1.94-1.3l1.74-1.63c0.307 0.396 0.696 0.72 1.14 0.95 0.484 0.252 1.024 0.379 1.57 0.37 0.192 0 0.383-0.02 0.57-0.06 0.191-0.042 0.376-0.109 0.55-0.2 0.167-0.099 0.307-0.236 0.41-0.4 0.114-0.175 0.17-0.381 0.16-0.59 5e-3 -0.203-0.052-0.402-0.162-0.571-0.111-0.17-0.271-0.302-0.458-0.379-0.579-0.252-1.182-0.443-1.8-0.57-0.396-0.089-0.786-0.199-1.17-0.33-0.354-0.142-0.69-0.327-1-0.55-0.291-0.235-0.529-0.528-0.7-0.86-0.191-0.388-0.284-0.817-0.27-1.25-0.014-0.529 0.11-1.053 0.36-1.52 0.249-0.408 0.592-0.751 1-1 0.404-0.288 0.859-0.498 1.34-0.62 0.503-0.132 1.02-0.199 1.54-0.2 0.758-2e-3 1.51 0.134 2.22 0.4 0.683 0.23 1.286 0.65 1.74 1.21l-1.72 1.49z" fill="#5D7287"/>
</svg>
