<svg width="330" height="324" viewBox="0 0 330 324" fill="none" xmlns="http://www.w3.org/2000/svg">
<path d="M253.7 150.945C253.688 150.758 253.628 150.575 253.525 150.415C253.422 150.254 253.28 150.119 253.11 150.023L242.014 144.486C241.954 144.448 241.883 144.427 241.81 144.425C241.737 144.424 241.665 144.442 241.603 144.478C241.541 144.515 241.491 144.567 241.459 144.629C241.428 144.692 241.415 144.761 241.424 144.83V156.916C241.436 157.101 241.496 157.281 241.599 157.439C241.702 157.597 241.845 157.728 242.014 157.821L253.129 163.375C253.189 163.414 253.26 163.435 253.333 163.436C253.406 163.438 253.478 163.419 253.54 163.383C253.602 163.347 253.652 163.294 253.684 163.232C253.715 163.17 253.728 163.1 253.719 163.031L253.7 150.945Z" fill="#FFBD26"/>
<path d="M144.969 267.606C144.61 267.601 144.257 267.514 143.941 267.352L137.127 263.951C136.713 263.741 136.365 263.428 136.12 263.046C135.876 262.664 135.744 262.227 135.738 261.78V254.362C135.732 254.007 135.824 253.657 136.005 253.346C136.186 253.035 136.449 252.775 136.769 252.592C137.089 252.409 137.454 252.309 137.828 252.302C138.201 252.295 138.57 252.382 138.897 252.553L145.711 255.954C146.121 256.169 146.464 256.482 146.705 256.864C146.945 257.245 147.075 257.681 147.081 258.125V265.543C147.086 265.811 147.036 266.077 146.932 266.326C146.828 266.574 146.674 266.801 146.477 266.993C146.281 267.185 146.046 267.338 145.787 267.443C145.529 267.548 145.25 267.603 144.969 267.606V267.606ZM139.545 261.074L143.351 262.884V258.777L139.545 256.967V261.074Z" fill="#6240B8"/>
<path d="M150.355 84.2205C150.349 84.0937 150.311 83.9701 150.245 83.86C150.179 83.7498 150.086 83.6563 149.974 83.5872L142.513 79.8783C142.304 79.7697 142.114 79.8783 142.114 80.0954V88.2189C142.123 88.3445 142.164 88.4661 142.234 88.5733C142.303 88.6804 142.399 88.7699 142.513 88.834L149.974 92.5611C150.183 92.6697 150.355 92.5611 150.355 92.3259V84.2205Z" fill="#E7EDF5"/>
<path d="M135.338 42.843C134.979 42.8447 134.624 42.7574 134.311 42.5897L128.125 39.4959C127.721 39.291 127.382 38.9863 127.144 38.6138C126.906 38.2413 126.778 37.8148 126.774 37.379V30.6306C126.756 30.2707 126.84 29.9129 127.017 29.5945C127.195 29.2762 127.459 29.0091 127.783 28.8213C128.1 28.643 128.461 28.549 128.829 28.549C129.198 28.549 129.559 28.643 129.876 28.8213L136.1 31.9332C136.501 32.1359 136.836 32.4381 137.071 32.8077C137.305 33.1772 137.43 33.6003 137.432 34.0319V40.7985C137.45 41.1584 137.366 41.5162 137.188 41.8345C137.011 42.1529 136.747 42.4199 136.423 42.6078C136.094 42.7871 135.717 42.869 135.338 42.843ZM130.58 36.6373L133.625 38.1751V34.7918L130.58 33.2721V36.6373Z" fill="#6240B8"/>
<path d="M101.366 52.7215C101.36 52.5694 101.313 52.4213 101.23 52.2914C101.146 52.1615 101.029 52.0541 100.89 51.9797L91.9256 47.4927C91.8774 47.4611 91.8207 47.4432 91.7622 47.4414C91.7036 47.4396 91.6458 47.4539 91.5956 47.4825C91.5454 47.5112 91.5049 47.553 91.4791 47.6029C91.4532 47.6529 91.443 47.7088 91.4498 47.7641V57.5341C91.4589 57.6853 91.5071 57.8322 91.5901 57.9615C91.6731 58.0909 91.7883 58.1989 91.9256 58.2759L100.871 62.7447C101.137 62.8713 101.347 62.7447 101.347 62.4733L101.366 52.7215Z" fill="#FFBD26"/>
<path d="M152.611 239.813C155.207 238.332 155.43 234.152 153.11 230.477C150.789 226.801 146.804 225.022 144.208 226.503C141.613 227.984 141.389 232.164 143.71 235.839C146.03 239.515 150.016 241.294 152.611 239.813Z" fill="#FF4EDA"/>
<path d="M123.83 60.8004C126.669 59.1807 126.914 54.6103 124.377 50.592C121.84 46.5738 117.482 44.6294 114.643 46.249C111.804 47.8687 111.559 52.4392 114.096 56.4574C116.633 60.4757 120.991 62.4201 123.83 60.8004Z" fill="#FF4EDA"/>
<path d="M276.881 189.446C275.452 189.314 274.092 188.801 272.957 187.965C271.823 187.13 270.959 186.006 270.467 184.724C270.049 183.875 269.833 182.948 269.833 182.01C269.833 181.072 270.049 180.146 270.467 179.296C270.744 178.765 271.14 178.297 271.626 177.925C272.113 177.553 272.678 177.287 273.284 177.143C276.044 176.528 279.317 178.555 280.726 181.757C281.14 182.608 281.354 183.534 281.354 184.471C281.354 185.408 281.14 186.334 280.726 187.185C280.453 187.717 280.058 188.186 279.571 188.555C279.084 188.924 278.516 189.186 277.909 189.32C277.572 189.398 277.228 189.44 276.881 189.446V189.446ZM274.255 180.708H274.064C273.996 180.723 273.932 180.755 273.879 180.799C273.826 180.843 273.785 180.899 273.76 180.961C273.626 181.345 273.574 181.751 273.607 182.155C273.639 182.559 273.756 182.952 273.95 183.313C274.73 185.122 276.31 185.954 277.014 185.81C277.083 185.789 277.147 185.754 277.2 185.707C277.252 185.66 277.293 185.603 277.319 185.538C277.452 185.157 277.504 184.754 277.471 184.353C277.438 183.952 277.322 183.562 277.129 183.204C276.908 182.592 276.53 182.043 276.028 181.607C275.525 181.17 274.916 180.861 274.255 180.708V180.708Z" fill="#6240B8"/>
<path d="M144.359 70.4341C142.83 70.2916 141.375 69.7401 140.162 68.8435C138.95 67.9469 138.029 66.7419 137.508 65.3682C137.071 64.4692 136.845 63.4907 136.845 62.5005C136.845 61.5103 137.071 60.5318 137.508 59.6328C137.795 59.0701 138.211 58.5752 138.724 58.184C139.238 57.7928 139.836 57.5152 140.477 57.3713C143.408 56.7019 146.891 58.873 148.413 62.3105C148.85 63.2126 149.077 64.194 149.077 65.1872C149.077 66.1804 148.85 67.1619 148.413 68.0639C148.123 68.6245 147.706 69.1175 147.193 69.5083C146.68 69.8991 146.083 70.178 145.444 70.3255C145.087 70.3974 144.724 70.4338 144.359 70.4341V70.4341ZM141.485 60.8631H141.257C141.156 60.8901 141.062 60.9382 140.983 61.0039C140.904 61.0697 140.842 61.1514 140.8 61.2431C140.641 61.6855 140.578 62.154 140.614 62.6203C140.65 63.0866 140.784 63.5413 141.01 63.9569C141.904 65.9652 143.712 66.9603 144.569 66.7794C144.672 66.7564 144.767 66.7097 144.847 66.6435C144.926 66.5772 144.988 66.4934 145.025 66.3994C145.184 65.96 145.247 65.4945 145.211 65.0312C145.175 64.5678 145.041 64.1162 144.816 63.7036C144.567 62.9966 144.129 62.3631 143.545 61.8651C142.962 61.3672 142.252 61.0219 141.485 60.8631Z" fill="#6240B8"/>
<path d="M271.971 138.86C269.959 138.583 268.117 137.634 266.775 136.182C266.432 135.893 266.109 135.567 265.785 135.259C264.86 134.26 263.774 133.405 262.569 132.726C261.351 132.22 260.266 132.618 258.591 133.323L258.077 133.522C256.534 134.221 254.837 134.556 253.129 134.499C250.955 134.337 248.921 133.415 247.419 131.912C246.2 130.681 245.221 129.253 244.526 127.697C244.148 127.917 243.746 128.099 243.327 128.239C241.663 128.669 239.9 128.593 238.284 128.022C234.233 126.716 230.562 124.522 227.568 121.618C227.261 121.323 227.089 120.923 227.09 120.508C227.092 120.092 227.268 119.694 227.578 119.401C227.888 119.109 228.308 118.945 228.746 118.947C229.183 118.948 229.602 119.115 229.909 119.41C232.53 121.976 235.752 123.916 239.311 125.073C240.26 125.461 241.313 125.549 242.318 125.327C242.722 125.182 243.086 124.953 243.384 124.657C242.954 123.259 242.604 121.84 242.337 120.405C241.898 118.113 241.587 115.8 241.405 113.476C241.215 110.871 241.215 107.216 243.613 105.841C245.383 104.828 247.819 105.57 249.532 107.65C250.91 109.402 251.699 111.508 251.796 113.693C251.838 115.484 251.468 117.263 250.712 118.904C249.857 121.035 248.752 123.068 247.419 124.965L247.153 125.308C247.737 126.944 248.67 128.447 249.893 129.723C250.825 130.667 252.08 131.264 253.433 131.406C254.633 131.421 255.82 131.167 256.897 130.664L257.392 130.465C258.373 129.904 259.475 129.56 260.615 129.46C261.755 129.36 262.904 129.505 263.977 129.886C265.567 130.702 266.991 131.78 268.183 133.07L269.135 133.957C271.362 135.983 272.18 135.766 272.18 135.766C272.577 135.66 273.001 135.701 273.367 135.88C273.734 136.058 274.016 136.361 274.158 136.729C274.299 137.097 274.29 137.502 274.132 137.863C273.973 138.224 273.677 138.516 273.303 138.679C272.875 138.819 272.423 138.881 271.971 138.86ZM245.364 108.555C245.364 108.555 244.393 109.152 244.716 113.313C244.895 115.522 245.194 117.72 245.611 119.899C245.611 120.424 245.801 120.93 245.916 121.401C246.646 120.242 247.282 119.032 247.819 117.782C248.391 116.539 248.683 115.195 248.675 113.838C248.602 112.303 248.052 110.824 247.096 109.586C246.895 109.312 246.638 109.08 246.34 108.902C246.043 108.725 245.71 108.607 245.364 108.555Z" fill="#FF4EDA"/>
<path d="M232.688 146.386C232.562 146.404 232.434 146.404 232.307 146.386C221.395 143.569 211.088 138.952 201.856 132.745C201.694 132.645 201.555 132.515 201.447 132.363C201.339 132.211 201.265 132.04 201.228 131.86C201.192 131.679 201.195 131.494 201.236 131.315C201.277 131.136 201.356 130.966 201.468 130.817C201.58 130.668 201.723 130.541 201.888 130.446C202.053 130.351 202.236 130.288 202.427 130.262C202.618 130.236 202.813 130.247 202.999 130.294C203.185 130.341 203.36 130.424 203.512 130.537C212.471 136.565 222.476 141.048 233.069 143.781C233.397 143.872 233.68 144.072 233.866 144.345C234.053 144.617 234.13 144.944 234.084 145.267C234.038 145.589 233.871 145.885 233.615 146.1C233.359 146.315 233.03 146.436 232.688 146.44V146.386Z" fill="#E7EDF5"/>
<path d="M233.107 156.174H232.84C216.83 153.492 201.781 147.042 189.066 137.412C188.9 137.308 188.759 137.172 188.652 137.012C188.545 136.853 188.474 136.674 188.443 136.487C188.413 136.3 188.424 136.109 188.476 135.926C188.528 135.744 188.62 135.573 188.745 135.426C188.87 135.279 189.027 135.159 189.204 135.073C189.381 134.987 189.575 134.937 189.774 134.926C189.973 134.915 190.172 134.944 190.358 135.011C190.544 135.078 190.713 135.181 190.855 135.314C203.223 144.669 217.861 150.926 233.43 153.515C233.767 153.589 234.064 153.777 234.266 154.043C234.468 154.31 234.561 154.637 234.529 154.964C234.496 155.291 234.34 155.596 234.089 155.822C233.838 156.048 233.509 156.179 233.164 156.192L233.107 156.174Z" fill="#E7EDF5"/>
<path d="M298.92 241.535C298.751 241.533 298.584 241.502 298.426 241.444C275.796 233.538 241.576 221.542 183.471 221.162C88.0431 220.493 71.7896 127.082 67.8689 56.8647C67.8532 56.5059 67.9858 56.1555 68.2383 55.8884C68.4908 55.6213 68.8432 55.4587 69.2202 55.4354C69.5957 55.4206 69.9622 55.5472 70.2401 55.7877C70.5181 56.0282 70.685 56.3632 70.7047 56.7199C73.4263 105.57 81.1915 140.343 95.1041 166.342C113.718 201.116 142.685 218.177 183.49 218.467C242.09 218.865 276.577 230.932 299.415 238.911C299.725 239.024 299.984 239.237 300.147 239.512C300.309 239.786 300.367 240.107 300.308 240.417C300.249 240.728 300.079 241.009 299.826 241.213C299.572 241.417 299.252 241.531 298.92 241.535V241.535Z" fill="#E7EDF5"/>
<path d="M300.367 251.63C300.197 251.637 300.027 251.606 299.872 251.54L296.674 250.418C269.382 240.72 235.41 228.707 176.486 229.159C134.424 229.503 103.212 211.591 83.8939 175.877C83.8057 175.721 83.7514 175.549 83.7343 175.373C83.7173 175.196 83.7378 175.018 83.7946 174.849C83.8514 174.681 83.9434 174.524 84.0651 174.39C84.1868 174.256 84.3357 174.146 84.5029 174.068C84.8367 173.908 85.223 173.88 85.5789 173.988C85.9347 174.096 86.2317 174.333 86.4061 174.647C105.267 209.511 134.329 226.463 175.192 226.463H176.448C236 226.011 270.258 238.115 297.664 247.867L300.861 248.989C301.171 249.102 301.43 249.314 301.593 249.589C301.756 249.864 301.813 250.184 301.754 250.495C301.696 250.805 301.525 251.087 301.272 251.291C301.019 251.495 300.698 251.608 300.367 251.612V251.63Z" fill="#E7EDF5"/>
<path d="M72.3225 145.102C72.0152 145.096 71.7175 144.999 71.4716 144.823C71.2257 144.648 71.044 144.404 70.9522 144.125C64.2529 121.762 60.1609 95.5283 58.1245 61.5144C58.0751 61.3152 58.0738 61.108 58.1206 60.9082C58.1673 60.7084 58.2611 60.5213 58.3947 60.3608C58.5283 60.2004 58.6984 60.0707 58.8922 59.9816C59.086 59.8925 59.2986 59.8462 59.5138 59.8462C59.7291 59.8462 59.9416 59.8925 60.1354 59.9816C60.3293 60.0707 60.4993 60.2004 60.633 60.3608C60.7666 60.5213 60.8603 60.7084 60.9071 60.9082C60.9539 61.108 60.9526 61.3152 60.9032 61.5144C62.9396 95.2569 66.9935 121.22 73.6548 143.455C73.7317 143.662 73.7548 143.883 73.7221 144.1C73.6895 144.317 73.6021 144.523 73.4675 144.701C73.3328 144.878 73.1549 145.023 72.9489 145.121C72.7429 145.219 72.5149 145.268 72.2845 145.264L72.3225 145.102Z" fill="#E7EDF5"/>
<path d="M301.09 261.509C300.926 261.534 300.759 261.534 300.595 261.509L291.879 258.397C263.882 248.337 229.072 235.835 169.52 237.247C130.447 238.169 100.567 223.442 80.6968 193.463C80.4949 193.158 80.4286 192.79 80.5125 192.439C80.5964 192.087 80.8236 191.782 81.1441 191.59C81.4646 191.398 81.8522 191.335 82.2217 191.415C82.5911 191.495 82.912 191.711 83.1139 192.015C102.679 221.542 130.904 235.437 169.444 234.533C229.51 233.103 264.605 245.732 292.887 255.864C295.856 256.931 298.749 257.981 301.585 258.976C301.904 259.079 302.173 259.288 302.344 259.564C302.515 259.84 302.576 260.165 302.516 260.481C302.456 260.796 302.279 261.08 302.018 261.282C301.756 261.484 301.427 261.59 301.09 261.581V261.509Z" fill="#E7EDF5"/>
<path d="M56.2594 123.843C55.9255 123.843 55.6025 123.73 55.348 123.525C55.0936 123.319 54.9241 123.034 54.87 122.721C51.7382 105.198 49.6161 87.5258 48.5132 69.7827C48.487 69.4255 48.6103 69.073 48.8563 68.8019C49.1023 68.5308 49.451 68.363 49.8265 68.3353C50.2028 68.3199 50.571 68.4428 50.8545 68.6787C51.1381 68.9145 51.3151 69.2451 51.349 69.6017C52.4476 87.2475 54.557 104.823 57.6677 122.251C57.7006 122.427 57.6966 122.607 57.656 122.781C57.6153 122.956 57.5389 123.121 57.4311 123.267C57.3232 123.413 57.186 123.538 57.0274 123.634C56.8688 123.729 56.6919 123.794 56.5068 123.825L56.2594 123.843Z" fill="#E7EDF5"/>
<path d="M299.929 270.736C299.765 270.762 299.598 270.762 299.434 270.736C295.418 269.343 291.364 267.877 287.063 266.303C258.343 255.864 222.601 242.783 162.535 245.243C123.881 246.745 94.019 233.013 73.7497 204.373C73.5615 204.081 73.4962 203.732 73.5668 203.397C73.6374 203.061 73.8387 202.764 74.1304 202.563C74.4381 202.382 74.8076 202.32 75.162 202.391C75.5165 202.462 75.8286 202.659 76.0336 202.943C96.0745 230.987 124.299 243.959 162.421 242.439C223.058 240.069 259.105 253.168 288.034 263.698C292.335 265.254 296.389 266.719 300.367 268.094C300.675 268.207 300.933 268.418 301.096 268.691C301.26 268.964 301.318 269.282 301.262 269.592C301.206 269.901 301.038 270.183 300.788 270.388C300.538 270.593 300.221 270.71 299.891 270.718L299.929 270.736Z" fill="#E7EDF5"/>
<path d="M42.6322 103.453C42.2836 103.455 41.9467 103.334 41.6865 103.113C41.4263 102.893 41.2615 102.588 41.2238 102.259C40.7099 98.1155 40.2532 93.7553 39.8154 89.3226C39.806 88.9787 39.9344 88.6443 40.1745 88.387C40.4146 88.1296 40.7486 87.9686 41.1088 87.9364C41.4691 87.9042 41.8288 88.0033 42.1151 88.2136C42.4015 88.4239 42.5931 88.7298 42.6512 89.0693C43.0699 93.4839 43.5457 97.8261 44.0406 101.951C44.0834 102.309 43.9751 102.668 43.7396 102.949C43.504 103.231 43.1605 103.412 42.7845 103.453H42.6322Z" fill="#E7EDF5"/>
<path d="M297.188 279.438C297.025 279.464 296.857 279.464 296.694 279.438C292.031 277.846 287.273 276.091 282.248 274.246C258.629 265.561 229.224 254.742 186.402 252.987C186.215 252.98 186.032 252.938 185.862 252.863C185.693 252.788 185.541 252.682 185.415 252.551C185.289 252.419 185.192 252.265 185.13 252.098C185.067 251.931 185.04 251.753 185.05 251.576C185.07 251.219 185.237 250.884 185.515 250.644C185.793 250.403 186.159 250.277 186.535 250.291C229.814 252.101 259.447 262.956 283.257 271.731C288.281 273.54 293.02 275.349 297.664 276.905C297.84 276.964 298.001 277.055 298.139 277.174C298.277 277.292 298.39 277.435 298.469 277.595C298.549 277.755 298.594 277.928 298.603 278.105C298.612 278.281 298.584 278.458 298.521 278.624C298.408 278.87 298.221 279.078 297.984 279.223C297.747 279.368 297.47 279.443 297.188 279.438Z" fill="#E7EDF5"/>
<path d="M147.576 253.385C113.908 253.385 87.1869 241.1 68.0975 216.802C67.9034 216.52 67.8252 216.179 67.8778 215.846C67.9305 215.512 68.1103 215.209 68.383 214.993C68.6787 214.804 69.0379 214.728 69.39 214.778C69.7421 214.828 70.0618 215.002 70.2862 215.264C90.2511 240.594 117.543 252.263 153.743 250.635H155.303C155.5 250.605 155.701 250.615 155.894 250.663C156.087 250.711 156.266 250.798 156.422 250.916C156.577 251.035 156.705 251.183 156.797 251.351C156.888 251.519 156.942 251.704 156.954 251.893C156.966 252.082 156.936 252.272 156.867 252.449C156.797 252.627 156.689 252.788 156.55 252.924C156.41 253.059 156.243 253.165 156.057 253.236C155.872 253.306 155.674 253.338 155.475 253.331H153.876C151.801 253.295 149.67 253.385 147.576 253.385Z" fill="#E7EDF5"/>
<path d="M290.489 286.766C290.325 286.791 290.158 286.791 289.994 286.766C285.902 285.318 281.772 283.78 277.414 282.152C256.478 274.372 232.84 265.561 200.467 262.015C200.266 262.013 200.068 261.971 199.886 261.891C199.703 261.811 199.541 261.696 199.408 261.553C199.276 261.409 199.177 261.241 199.118 261.058C199.059 260.876 199.041 260.684 199.065 260.495C199.089 260.305 199.155 260.123 199.259 259.959C199.362 259.796 199.501 259.655 199.665 259.546C199.83 259.436 200.017 259.361 200.214 259.326C200.411 259.29 200.614 259.294 200.809 259.337C233.526 262.956 257.392 271.803 278.442 279.637C282.8 281.248 286.93 282.785 290.984 284.215C291.168 284.276 291.336 284.373 291.479 284.499C291.621 284.625 291.735 284.778 291.814 284.947C291.892 285.117 291.933 285.3 291.935 285.485C291.936 285.67 291.897 285.853 291.821 286.024C291.701 286.259 291.511 286.455 291.274 286.587C291.036 286.719 290.763 286.781 290.489 286.766Z" fill="#E7EDF5"/>
<path d="M131.323 261.364C106.067 260.025 84.8459 251.142 68.2689 234.967C68.1035 234.701 68.0386 234.389 68.0848 234.084C68.1311 233.778 68.2857 233.496 68.5231 233.285C68.7605 233.074 69.0666 232.947 69.3906 232.924C69.7147 232.9 70.0373 232.983 70.3053 233.158C86.2353 248.753 106.828 257.365 131.323 258.722C131.67 258.761 131.991 258.919 132.224 259.168C132.457 259.416 132.586 259.738 132.586 260.07C132.586 260.403 132.457 260.724 132.224 260.973C131.991 261.221 131.67 261.38 131.323 261.418V261.364Z" fill="#E7EDF5"/>
<path d="M278.061 291.958C277.879 291.964 277.697 291.933 277.528 291.868L272.561 290.058C254.651 283.31 234.363 275.675 208.746 271.423C208.547 271.409 208.354 271.355 208.178 271.265C208.003 271.175 207.849 271.051 207.727 270.902C207.605 270.752 207.518 270.579 207.47 270.396C207.422 270.212 207.415 270.02 207.45 269.834C207.485 269.647 207.56 269.47 207.671 269.313C207.783 269.156 207.927 269.022 208.096 268.922C208.264 268.821 208.453 268.755 208.651 268.727C208.848 268.7 209.049 268.713 209.24 268.764C235.143 273.07 255.584 280.759 273.607 287.544L278.575 289.353C278.874 289.474 279.121 289.688 279.275 289.961C279.429 290.234 279.48 290.548 279.42 290.852C279.36 291.156 279.193 291.431 278.945 291.633C278.698 291.834 278.386 291.949 278.061 291.958V291.958Z" fill="#E7EDF5"/>
<path d="M95.0088 264.693C94.8578 264.719 94.703 264.719 94.552 264.693C89.2157 262.964 84.0661 260.753 79.174 258.089C79.0115 258 78.8691 257.881 78.7549 257.74C78.6407 257.599 78.5569 257.437 78.5083 257.265C78.4597 257.093 78.4472 256.913 78.4716 256.736C78.4961 256.56 78.5569 256.389 78.6506 256.235C78.7443 256.08 78.8691 255.945 79.0179 255.836C79.1666 255.728 79.3364 255.648 79.5176 255.602C79.6987 255.556 79.8877 255.544 80.0737 255.567C80.2596 255.59 80.4389 255.648 80.6014 255.737C85.3315 258.31 90.3087 260.449 95.4656 262.124C95.7855 262.227 96.0563 262.435 96.23 262.711C96.4037 262.986 96.469 263.311 96.4142 263.628C96.3594 263.945 96.188 264.234 95.9307 264.442C95.6734 264.65 95.3467 264.765 95.0088 264.765V264.693Z" fill="#E7EDF5"/>
<path d="M246.011 289.878C245.853 289.904 245.692 289.904 245.535 289.878C237.694 287.2 230.423 285.029 223.324 283.201C223.127 283.171 222.939 283.102 222.771 282.998C222.604 282.894 222.461 282.757 222.353 282.598C222.245 282.438 222.173 282.258 222.142 282.07C222.111 281.883 222.122 281.691 222.175 281.507C222.227 281.324 222.319 281.153 222.445 281.005C222.572 280.858 222.729 280.737 222.907 280.651C223.086 280.566 223.281 280.516 223.481 280.507C223.681 280.497 223.88 280.528 224.067 280.596C231.242 282.405 238.588 284.631 246.487 287.326C246.795 287.439 247.053 287.65 247.216 287.923C247.38 288.196 247.438 288.514 247.382 288.824C247.326 289.133 247.159 289.415 246.909 289.62C246.658 289.826 246.341 289.942 246.011 289.95V289.878Z" fill="#E7EDF5"/>
<path d="M184.479 154.455C184.479 157.814 183.076 161.036 180.577 163.411C178.079 165.786 174.69 167.12 171.157 167.12H139.906C138.725 167.12 137.592 167.566 136.757 168.36C135.922 169.154 135.452 170.231 135.452 171.354V201.025C135.452 204.384 134.049 207.606 131.55 209.981C129.052 212.356 125.663 213.69 122.13 213.69C118.596 213.69 115.208 212.356 112.709 209.981C110.211 207.606 108.807 204.384 108.807 201.025V171.39C108.807 170.267 108.338 169.19 107.503 168.396C106.668 167.602 105.535 167.156 104.354 167.156H73.0648C69.5314 167.156 66.1427 165.822 63.6443 163.447C61.1458 161.072 59.7422 157.85 59.7422 154.492V154.492C59.7422 151.133 61.1458 147.911 63.6443 145.536C66.1427 143.161 69.5314 141.827 73.0648 141.827H104.259C104.852 141.827 105.439 141.715 105.985 141.496C106.532 141.278 107.027 140.958 107.442 140.555C107.857 140.152 108.183 139.675 108.401 139.151C108.619 138.627 108.725 138.066 108.712 137.503V107.849C108.712 104.49 110.116 101.269 112.614 98.8939C115.113 96.5188 118.501 95.1844 122.035 95.1844V95.1844C125.568 95.1844 128.957 96.5188 131.455 98.8939C133.954 101.269 135.357 104.49 135.357 107.849V137.503C135.357 138.626 135.826 139.702 136.662 140.496C137.497 141.29 138.63 141.736 139.811 141.736H171.024C172.789 141.72 174.541 142.037 176.176 142.669C177.812 143.301 179.299 144.236 180.551 145.42C181.803 146.603 182.795 148.011 183.469 149.563C184.144 151.114 184.487 152.777 184.479 154.455V154.455Z" fill="#FF4EDA"/>
<path d="M129.762 201.822C129.257 201.822 128.773 201.631 128.416 201.292C128.059 200.952 127.859 200.492 127.859 200.012V170.359C127.864 168.758 128.535 167.223 129.726 166.091C130.917 164.959 132.531 164.321 134.215 164.316H165.409C168.438 164.316 171.342 163.172 173.484 161.136C175.626 159.101 176.829 156.339 176.829 153.46C176.829 150.581 175.626 147.82 173.484 145.784C171.342 143.749 168.438 142.605 165.409 142.605H134.215C132.528 142.6 130.911 141.959 129.719 140.823C128.528 139.687 127.859 138.148 127.859 136.544V106.746C127.859 103.867 126.656 101.105 124.514 99.0696C122.372 97.0338 119.468 95.8901 116.439 95.8901C115.935 95.8901 115.45 95.6995 115.094 95.3602C114.737 95.0209 114.536 94.5607 114.536 94.0809C114.536 93.601 114.737 93.1408 115.094 92.8015C115.45 92.4622 115.935 92.2716 116.439 92.2716C120.477 92.2716 124.35 93.7965 127.206 96.5109C130.061 99.2253 131.665 102.907 131.665 106.746V136.453C131.663 136.773 131.727 137.091 131.854 137.387C131.981 137.683 132.168 137.952 132.405 138.179C132.642 138.406 132.924 138.587 133.235 138.71C133.546 138.833 133.879 138.896 134.215 138.896H165.409C169.447 138.896 173.32 140.421 176.176 143.135C179.031 145.85 180.635 149.531 180.635 153.37C180.635 157.209 179.031 160.89 176.176 163.605C173.32 166.319 169.447 167.844 165.409 167.844H134.215C133.539 167.844 132.89 168.099 132.412 168.554C131.934 169.009 131.665 169.625 131.665 170.268V199.922C131.678 200.167 131.638 200.412 131.549 200.642C131.459 200.872 131.321 201.082 131.142 201.26C130.964 201.438 130.75 201.579 130.513 201.676C130.276 201.772 130.02 201.822 129.762 201.822ZM103.022 201.822C102.517 201.822 102.033 201.631 101.676 201.292C101.319 200.952 101.118 200.492 101.118 200.012V170.359C101.118 170.04 101.052 169.725 100.924 169.431C100.796 169.137 100.608 168.87 100.371 168.644C100.135 168.419 99.8534 168.241 99.544 168.119C99.2346 167.997 98.903 167.934 98.5681 167.934H67.3552C63.3171 167.934 59.4443 166.409 56.5889 163.695C53.7335 160.981 52.1294 157.299 52.1294 153.46C52.1294 149.622 53.7335 145.94 56.5889 143.226C59.4443 140.511 63.3171 138.986 67.3552 138.986H98.5681C99.0728 138.986 99.5569 139.177 99.9138 139.516C100.271 139.856 100.471 140.316 100.471 140.796C100.471 141.275 100.271 141.736 99.9138 142.075C99.5569 142.414 99.0728 142.605 98.5681 142.605H67.3552C64.3266 142.605 61.422 143.749 59.2805 145.784C57.139 147.82 55.9358 150.581 55.9358 153.46C55.9358 156.339 57.139 159.101 59.2805 161.136C61.422 163.172 64.3266 164.316 67.3552 164.316H98.5681C100.252 164.321 101.866 164.959 103.057 166.091C104.248 167.223 104.92 168.758 104.925 170.359V200.012C104.925 200.492 104.724 200.952 104.367 201.292C104.01 201.631 103.526 201.822 103.022 201.822V201.822Z" fill="#6240B8"/>
<path d="M257.773 203.739V209.348C257.773 210.087 257.62 210.819 257.322 211.501C257.025 212.184 256.589 212.804 256.039 213.327C255.489 213.849 254.837 214.264 254.119 214.546C253.401 214.829 252.631 214.975 251.854 214.975H180.902C180.125 214.975 179.356 214.829 178.639 214.546C177.922 214.263 177.271 213.848 176.723 213.326C176.175 212.803 175.741 212.182 175.445 211.5C175.15 210.817 174.999 210.086 175.001 209.348V203.739C174.999 203.001 175.15 202.27 175.445 201.587C175.741 200.905 176.175 200.284 176.723 199.762C177.271 199.239 177.922 198.824 178.639 198.541C179.356 198.258 180.125 198.113 180.902 198.113H251.854C252.631 198.113 253.401 198.258 254.119 198.541C254.837 198.824 255.489 199.238 256.039 199.761C256.589 200.283 257.025 200.903 257.322 201.586C257.62 202.269 257.773 203 257.773 203.739V203.739ZM204.482 178.41C204.482 176.188 205.176 174.015 206.474 172.168C207.773 170.32 209.619 168.88 211.779 168.03C213.938 167.179 216.315 166.957 218.607 167.39C220.9 167.824 223.006 168.894 224.659 170.465C226.312 172.037 227.437 174.038 227.893 176.218C228.349 178.397 228.115 180.656 227.221 182.709C226.326 184.762 224.811 186.517 222.868 187.752C220.924 188.986 218.639 189.645 216.301 189.645C213.187 189.626 210.206 188.439 208.007 186.342C205.808 184.245 204.569 181.407 204.559 178.446L204.482 178.41ZM228.12 234.605C228.12 236.827 227.427 238.999 226.129 240.847C224.83 242.695 222.984 244.135 220.824 244.985C218.665 245.836 216.288 246.058 213.996 245.625C211.703 245.191 209.597 244.121 207.944 242.55C206.291 240.978 205.166 238.976 204.71 236.797C204.254 234.618 204.488 232.358 205.382 230.305C206.277 228.252 207.792 226.498 209.735 225.263C211.679 224.029 213.964 223.37 216.301 223.37C217.863 223.36 219.411 223.645 220.857 224.207C222.302 224.77 223.615 225.599 224.722 226.647C225.828 227.696 226.704 228.942 227.301 230.314C227.897 231.686 228.202 233.157 228.197 234.641L228.12 234.605Z" fill="#FFBD26"/>
<path d="M78.8314 224.347C79.7891 225.259 80.3269 226.495 80.3269 227.784C80.3269 229.073 79.7891 230.309 78.8314 231.222V231.222C77.8716 232.132 76.5712 232.644 75.2153 232.644C73.8595 232.644 72.559 232.132 71.5992 231.222L63.1679 223.189C62.8469 222.885 62.4123 222.714 61.9594 222.714C61.5064 222.714 61.0718 222.885 60.7508 223.189L52.3005 231.204C51.3407 232.114 50.0402 232.625 48.6844 232.625C47.3285 232.625 46.028 232.114 45.0682 231.204V231.204C44.1106 230.291 43.5728 229.055 43.5728 227.766C43.5728 226.477 44.1106 225.241 45.0682 224.329L53.5186 216.314C53.8382 216.008 54.0176 215.595 54.0176 215.165C54.0176 214.734 53.8382 214.321 53.5186 214.016L45.0682 205.983C44.1106 205.07 43.5728 203.834 43.5728 202.545C43.5728 201.256 44.1106 200.02 45.0682 199.108V199.108C46.028 198.197 47.3285 197.686 48.6844 197.686C50.0402 197.686 51.3407 198.197 52.3005 199.108L60.7508 207.141C61.0718 207.445 61.5064 207.615 61.9594 207.615C62.4123 207.615 62.8469 207.445 63.1679 207.141L71.5992 199.108C72.559 198.197 73.8595 197.686 75.2153 197.686C76.5712 197.686 77.8716 198.197 78.8314 199.108V199.108C79.7891 200.02 80.3269 201.256 80.3269 202.545C80.3269 203.834 79.7891 205.07 78.8314 205.983L70.4192 214.016C70.0996 214.321 69.9201 214.734 69.9201 215.165C69.9201 215.595 70.0996 216.008 70.4192 216.314L78.8314 224.347Z" fill="#6240B8"/>
<path d="M168.036 112.173C167.037 112.111 166.061 111.862 165.163 111.441C164.266 111.02 163.464 110.435 162.805 109.719C162.145 109.003 161.641 108.171 161.32 107.269C161 106.368 160.869 105.415 160.937 104.466H164.743C164.674 104.94 164.704 105.423 164.832 105.886C164.961 106.35 165.184 106.784 165.491 107.164C165.797 107.545 166.18 107.863 166.616 108.102C167.053 108.341 167.536 108.495 168.036 108.555V112.173ZM213.332 104.466H209.526C209.593 103.991 209.56 103.509 209.429 103.047C209.298 102.585 209.072 102.152 208.764 101.773C208.456 101.395 208.072 101.078 207.634 100.841C207.197 100.605 206.714 100.453 206.214 100.395H168.036V96.7766H206.214C207.218 96.8363 208.2 97.0845 209.102 97.5069C210.005 97.9293 210.81 98.5175 211.472 99.2375C212.134 99.9575 212.639 100.795 212.958 101.702C213.278 102.609 213.405 103.566 213.332 104.52V104.466Z" fill="#6240B8"/>
<path d="M211.924 247.686C208.284 247.686 204.794 246.312 202.221 243.865C199.647 241.419 198.202 238.101 198.202 234.641C198.202 231.182 199.647 227.864 202.221 225.417C204.794 222.971 208.284 221.597 211.924 221.597V225.215C209.294 225.215 206.772 226.208 204.912 227.976C203.053 229.744 202.008 232.141 202.008 234.641C202.008 237.141 203.053 239.539 204.912 241.307C206.772 243.074 209.294 244.067 211.924 244.067V247.686ZM247.419 216.784H176.448C174.373 216.784 172.384 216.001 170.917 214.606C169.45 213.211 168.625 211.32 168.625 209.348H172.432C172.437 210.359 172.862 211.327 173.614 212.042C174.366 212.757 175.384 213.161 176.448 213.165H247.419C248.481 213.161 249.497 212.756 250.246 212.041C250.995 211.326 251.416 210.357 251.416 209.348V203.739H255.222V209.348C255.222 211.317 254.401 213.206 252.938 214.6C251.475 215.994 249.49 216.779 247.419 216.784V216.784ZM211.943 191.455C209.223 191.458 206.564 190.695 204.301 189.261C202.039 187.827 200.275 185.787 199.232 183.399C198.19 181.011 197.916 178.383 198.446 175.848C198.975 173.312 200.284 170.983 202.207 169.155C204.13 167.327 206.58 166.083 209.248 165.579C211.915 165.076 214.68 165.336 217.191 166.327C219.703 167.318 221.849 168.995 223.357 171.146C224.866 173.297 225.669 175.825 225.665 178.41C225.665 181.876 224.218 185.2 221.642 187.653C219.065 190.106 215.57 191.486 211.924 191.491L211.943 191.455ZM211.943 168.966C209.977 168.962 208.054 169.513 206.418 170.548C204.782 171.584 203.506 173.058 202.751 174.783C201.996 176.509 201.796 178.408 202.178 180.241C202.559 182.074 203.503 183.759 204.892 185.082C206.281 186.404 208.051 187.305 209.979 187.671C211.906 188.037 213.905 187.851 215.721 187.137C217.538 186.423 219.091 185.212 220.183 183.659C221.276 182.105 221.859 180.279 221.859 178.41C221.849 175.911 220.797 173.518 218.935 171.755C217.073 169.992 214.552 169.002 211.924 169.002L211.943 168.966Z" fill="#6240B8"/>
<path d="M211.924 247.559C211.49 247.55 211.074 247.389 210.756 247.108C210.439 246.826 210.241 246.443 210.201 246.032C210.161 245.621 210.281 245.21 210.539 244.878C210.798 244.545 211.175 244.315 211.6 244.23C211.853 244.203 212.11 244.224 212.354 244.292C212.599 244.361 212.826 244.475 213.023 244.629C213.22 244.782 213.383 244.972 213.501 245.186C213.62 245.401 213.692 245.635 213.713 245.877C213.714 246.305 213.543 246.717 213.236 247.03C212.928 247.342 212.506 247.532 212.057 247.559H211.924ZM216.263 246.781C215.856 246.776 215.463 246.636 215.151 246.387C214.839 246.138 214.627 245.794 214.55 245.413C214.474 245.032 214.539 244.638 214.733 244.297C214.927 243.957 215.239 243.69 215.616 243.543L216.301 243.253C216.718 243.092 217.183 243.088 217.603 243.241C218.022 243.394 218.365 243.693 218.561 244.077C218.757 244.462 218.792 244.903 218.659 245.311C218.526 245.719 218.234 246.064 217.843 246.275L216.929 246.655C216.719 246.74 216.492 246.783 216.263 246.781ZM220.603 243.959C220.157 243.959 219.728 243.797 219.404 243.507C219.059 243.206 218.854 242.788 218.832 242.344C218.811 241.9 218.975 241.466 219.289 241.136L219.803 240.594C219.946 240.42 220.124 240.276 220.326 240.168C220.528 240.061 220.751 239.992 220.981 239.967C221.211 239.942 221.444 239.96 221.667 240.021C221.889 240.082 222.097 240.184 222.277 240.322C222.46 240.46 222.613 240.63 222.726 240.824C222.84 241.018 222.912 241.231 222.938 241.451C222.965 241.671 222.945 241.894 222.881 242.107C222.817 242.32 222.708 242.519 222.563 242.692L221.916 243.416C221.569 243.753 221.098 243.947 220.603 243.959ZM223.229 239.617C223.059 239.643 222.885 239.643 222.715 239.617C222.493 239.553 222.286 239.447 222.106 239.307C221.926 239.167 221.777 238.995 221.668 238.8C221.558 238.605 221.49 238.391 221.467 238.171C221.445 237.951 221.468 237.729 221.535 237.518C221.535 237.301 221.668 237.066 221.726 236.83C221.763 236.603 221.85 236.385 221.979 236.19C222.109 235.996 222.28 235.829 222.48 235.699C222.681 235.57 222.907 235.481 223.146 235.438C223.384 235.396 223.629 235.4 223.865 235.451C224.101 235.502 224.324 235.598 224.52 235.734C224.715 235.871 224.879 236.043 225.002 236.242C225.124 236.441 225.202 236.662 225.231 236.891C225.26 237.119 225.24 237.351 225.17 237.572C225.17 237.88 225.018 238.187 224.923 238.495C224.8 238.827 224.57 239.114 224.266 239.315C223.962 239.516 223.599 239.622 223.229 239.617V239.617ZM223.61 234.641C223.187 234.638 222.78 234.492 222.459 234.231C222.139 233.969 221.926 233.608 221.859 233.212C221.859 232.977 221.859 232.742 221.726 232.506C221.661 232.287 221.644 232.058 221.675 231.833C221.706 231.607 221.785 231.39 221.907 231.195C222.029 230.999 222.191 230.829 222.384 230.695C222.577 230.56 222.797 230.465 223.03 230.413C223.263 230.362 223.504 230.356 223.74 230.396C223.975 230.435 224.2 230.52 224.4 230.645C224.6 230.769 224.771 230.931 224.904 231.121C225.036 231.31 225.127 231.523 225.17 231.746C225.17 232.072 225.304 232.38 225.361 232.687C225.398 232.906 225.39 233.13 225.335 233.346C225.281 233.561 225.181 233.765 225.043 233.943C224.905 234.122 224.73 234.273 224.53 234.386C224.33 234.5 224.107 234.574 223.876 234.605L223.61 234.641ZM221.706 229.992C221.417 229.99 221.133 229.921 220.878 229.792C220.622 229.663 220.404 229.477 220.241 229.25C220.108 229.051 219.956 228.87 219.803 228.671C219.657 228.5 219.548 228.304 219.482 228.093C219.417 227.882 219.396 227.661 219.42 227.442C219.445 227.223 219.515 227.011 219.627 226.819C219.738 226.626 219.889 226.456 220.07 226.319C220.251 226.179 220.459 226.075 220.682 226.013C220.906 225.95 221.14 225.93 221.372 225.953C221.603 225.977 221.828 226.044 222.032 226.15C222.237 226.256 222.417 226.399 222.563 226.572L223.172 227.35C223.35 227.605 223.452 227.9 223.468 228.205C223.485 228.51 223.414 228.814 223.264 229.084C223.114 229.355 222.89 229.582 222.616 229.741C222.342 229.901 222.028 229.987 221.706 229.992V229.992ZM217.9 226.59C217.585 226.591 217.275 226.51 217.006 226.355C216.8 226.229 216.584 226.12 216.358 226.029C216.148 225.933 215.961 225.798 215.805 225.633C215.65 225.468 215.531 225.275 215.454 225.066C215.377 224.857 215.344 224.635 215.357 224.414C215.37 224.193 215.429 223.976 215.531 223.777C215.632 223.577 215.773 223.398 215.947 223.251C216.121 223.103 216.324 222.99 216.544 222.917C216.764 222.844 216.997 222.812 217.23 222.825C217.462 222.838 217.69 222.893 217.9 222.99L218.795 223.442C219.137 223.626 219.406 223.913 219.558 224.257C219.71 224.602 219.737 224.985 219.634 225.346C219.531 225.707 219.305 226.026 218.991 226.251C218.677 226.476 218.293 226.595 217.9 226.59V226.59ZM212.876 225.107H212C211.531 225.107 211.08 224.929 210.748 224.614C210.417 224.298 210.23 223.87 210.23 223.424C210.23 222.978 210.417 222.55 210.748 222.234C211.08 221.919 211.531 221.741 212 221.741H213.009C213.445 221.797 213.843 222.006 214.126 222.326C214.409 222.646 214.557 223.055 214.54 223.472C214.524 223.89 214.344 224.287 214.036 224.586C213.728 224.885 213.315 225.064 212.876 225.088V225.107Z" fill="#6240B8"/>
<path d="M252.52 203.414C252.05 203.414 251.6 203.236 251.268 202.921C250.936 202.605 250.75 202.177 250.75 201.731C250.768 201.587 250.768 201.441 250.75 201.297C250.697 200.853 250.831 200.407 251.124 200.058C251.417 199.708 251.843 199.484 252.31 199.433C252.777 199.383 253.246 199.511 253.614 199.789C253.981 200.067 254.218 200.473 254.271 200.917C254.271 201.188 254.271 201.46 254.271 201.749C254.266 202.189 254.08 202.61 253.752 202.921C253.425 203.232 252.982 203.409 252.52 203.414V203.414ZM250.464 199.162C250.045 199.165 249.64 199.023 249.322 198.764C249.164 198.628 248.992 198.506 248.808 198.402C248.612 198.283 248.442 198.129 248.309 197.948C248.176 197.767 248.081 197.562 248.031 197.346C247.98 197.131 247.975 196.907 248.015 196.69C248.056 196.472 248.141 196.264 248.266 196.077C248.391 195.891 248.553 195.729 248.744 195.603C248.934 195.476 249.149 195.386 249.376 195.338C249.604 195.29 249.838 195.285 250.067 195.323C250.296 195.362 250.515 195.443 250.712 195.562C251.032 195.758 251.337 195.976 251.625 196.213C251.981 196.503 252.2 196.916 252.236 197.361C252.272 197.805 252.12 198.245 251.815 198.583C251.642 198.761 251.434 198.903 251.202 199.003C250.969 199.102 250.719 199.156 250.464 199.162ZM245.516 197.805H244.621C244.152 197.805 243.702 197.628 243.37 197.312C243.038 196.997 242.851 196.569 242.851 196.122C242.851 195.676 243.038 195.248 243.37 194.933C243.702 194.617 244.152 194.44 244.621 194.44H245.516C245.985 194.44 246.435 194.617 246.767 194.933C247.099 195.248 247.286 195.676 247.286 196.122C247.286 196.569 247.099 196.997 246.767 197.312C246.435 197.628 245.985 197.805 245.516 197.805V197.805ZM240.206 197.805H239.33C238.861 197.805 238.411 197.628 238.079 197.312C237.747 196.997 237.56 196.569 237.56 196.122C237.56 195.676 237.747 195.248 238.079 194.933C238.411 194.617 238.861 194.44 239.33 194.44H240.206C240.675 194.44 241.125 194.617 241.457 194.933C241.789 195.248 241.976 195.676 241.976 196.122C241.976 196.569 241.789 196.997 241.457 197.312C241.125 197.628 240.675 197.805 240.206 197.805V197.805ZM234.896 197.805H234.096C233.627 197.805 233.177 197.628 232.845 197.312C232.513 196.997 232.326 196.569 232.326 196.122C232.326 195.676 232.513 195.248 232.845 194.933C233.177 194.617 233.627 194.44 234.096 194.44H234.972C235.441 194.44 235.892 194.617 236.223 194.933C236.555 195.248 236.742 195.676 236.742 196.122C236.742 196.569 236.555 196.997 236.223 197.312C235.892 197.628 235.441 197.805 234.972 197.805H234.896ZM229.605 197.805H228.71C228.241 197.805 227.791 197.628 227.459 197.312C227.127 196.997 226.94 196.569 226.94 196.122C226.94 195.676 227.127 195.248 227.459 194.933C227.791 194.617 228.241 194.44 228.71 194.44H229.605C230.074 194.44 230.524 194.617 230.856 194.933C231.188 195.248 231.375 195.676 231.375 196.122C231.375 196.569 231.188 196.997 230.856 197.312C230.524 197.628 230.074 197.805 229.605 197.805V197.805ZM224.295 197.805H223.4C222.931 197.805 222.481 197.628 222.149 197.312C221.817 196.997 221.63 196.569 221.63 196.122C221.63 195.676 221.817 195.248 222.149 194.933C222.481 194.617 222.931 194.44 223.4 194.44H224.295C224.764 194.44 225.214 194.617 225.546 194.933C225.878 195.248 226.065 195.676 226.065 196.122C226.065 196.569 225.878 196.997 225.546 197.312C225.214 197.628 224.764 197.805 224.295 197.805V197.805ZM218.985 197.805H218.109C217.64 197.805 217.19 197.628 216.858 197.312C216.526 196.997 216.339 196.569 216.339 196.122C216.339 195.676 216.526 195.248 216.858 194.933C217.19 194.617 217.64 194.44 218.109 194.44H218.985C219.454 194.44 219.904 194.617 220.236 194.933C220.568 195.248 220.755 195.676 220.755 196.122C220.755 196.569 220.568 196.997 220.236 197.312C219.904 197.628 219.454 197.805 218.985 197.805V197.805ZM213.675 197.805H212.799C212.33 197.805 211.88 197.628 211.548 197.312C211.216 196.997 211.029 196.569 211.029 196.122C211.029 195.676 211.216 195.248 211.548 194.933C211.88 194.617 212.33 194.44 212.799 194.44H213.675C214.144 194.44 214.594 194.617 214.926 194.933C215.258 195.248 215.445 195.676 215.445 196.122C215.445 196.569 215.258 196.997 214.926 197.312C214.594 197.628 214.144 197.805 213.675 197.805V197.805ZM208.384 197.805H207.451C206.982 197.805 206.532 197.628 206.2 197.312C205.868 196.997 205.681 196.569 205.681 196.122C205.681 195.676 205.868 195.248 206.2 194.933C206.532 194.617 206.982 194.44 207.451 194.44H208.346C208.815 194.44 209.265 194.617 209.597 194.933C209.929 195.248 210.116 195.676 210.116 196.122C210.116 196.569 209.929 196.997 209.597 197.312C209.265 197.628 208.815 197.805 208.346 197.805H208.384ZM203.074 197.805H202.198C201.729 197.805 201.279 197.628 200.947 197.312C200.615 196.997 200.428 196.569 200.428 196.122C200.428 195.676 200.615 195.248 200.947 194.933C201.279 194.617 201.729 194.44 202.198 194.44H203.074C203.543 194.44 203.994 194.617 204.325 194.933C204.657 195.248 204.844 195.676 204.844 196.122C204.844 196.569 204.657 196.997 204.325 197.312C203.994 197.628 203.543 197.805 203.074 197.805V197.805ZM197.764 197.805H196.888C196.419 197.805 195.969 197.628 195.637 197.312C195.305 196.997 195.118 196.569 195.118 196.122C195.118 195.676 195.305 195.248 195.637 194.933C195.969 194.617 196.419 194.44 196.888 194.44H197.764C198.233 194.44 198.684 194.617 199.015 194.933C199.347 195.248 199.534 195.676 199.534 196.122C199.534 196.569 199.347 196.997 199.015 197.312C198.684 197.628 198.233 197.805 197.764 197.805V197.805ZM192.473 197.805H191.578C191.109 197.805 190.659 197.628 190.327 197.312C189.995 196.997 189.808 196.569 189.808 196.122C189.808 195.676 189.995 195.248 190.327 194.933C190.659 194.617 191.109 194.44 191.578 194.44H192.473C192.942 194.44 193.393 194.617 193.725 194.933C194.056 195.248 194.243 195.676 194.243 196.122C194.243 196.569 194.056 196.997 193.725 197.312C193.393 197.628 192.942 197.805 192.473 197.805V197.805ZM187.163 197.805H186.268C185.799 197.805 185.349 197.628 185.017 197.312C184.685 196.997 184.498 196.569 184.498 196.122C184.498 195.676 184.685 195.248 185.017 194.933C185.349 194.617 185.799 194.44 186.268 194.44H187.163C187.632 194.44 188.083 194.617 188.415 194.933C188.746 195.248 188.933 195.676 188.933 196.122C188.933 196.569 188.746 196.997 188.415 197.312C188.083 197.628 187.632 197.805 187.163 197.805V197.805ZM181.853 197.805H180.977C180.508 197.805 180.058 197.628 179.726 197.312C179.394 196.997 179.207 196.569 179.207 196.122C179.207 195.676 179.394 195.248 179.726 194.933C180.058 194.617 180.508 194.44 180.977 194.44H181.853C182.322 194.44 182.773 194.617 183.105 194.933C183.436 195.248 183.623 195.676 183.623 196.122C183.623 196.569 183.436 196.997 183.105 197.312C182.773 197.628 182.322 197.805 181.853 197.805V197.805ZM176.543 197.805H175.667C175.198 197.805 174.748 197.628 174.416 197.312C174.084 196.997 173.897 196.569 173.897 196.122C173.897 195.676 174.084 195.248 174.416 194.933C174.748 194.617 175.198 194.44 175.667 194.44H176.543C177.012 194.44 177.463 194.617 177.795 194.933C178.126 195.248 178.313 195.676 178.313 196.122C178.313 196.569 178.126 196.997 177.795 197.312C177.463 197.628 177.012 197.805 176.543 197.805V197.805Z" fill="#6240B8"/>
<path d="M169.749 209.04C169.279 209.04 168.829 208.863 168.497 208.548C168.165 208.232 167.979 207.804 167.979 207.358V206.526C167.979 206.079 168.165 205.651 168.497 205.336C168.829 205.02 169.279 204.843 169.749 204.843C170.218 204.843 170.668 205.02 171 205.336C171.332 205.651 171.519 206.079 171.519 206.526V207.358C171.519 207.804 171.332 208.232 171 208.548C170.668 208.863 170.218 209.04 169.749 209.04V209.04ZM169.749 203.993C169.279 203.993 168.829 203.815 168.497 203.5C168.165 203.184 167.979 202.756 167.979 202.31V201.387C167.97 201.154 168.013 200.921 168.104 200.705C168.195 200.488 168.333 200.291 168.508 200.128C168.684 199.964 168.893 199.837 169.123 199.755C169.352 199.672 169.598 199.636 169.843 199.649C170.088 199.662 170.328 199.723 170.547 199.828C170.766 199.934 170.96 200.081 171.116 200.262C171.272 200.442 171.386 200.652 171.452 200.877C171.518 201.102 171.534 201.337 171.5 201.568V202.31C171.502 202.53 171.459 202.749 171.372 202.953C171.285 203.157 171.156 203.342 170.993 203.499C170.831 203.655 170.637 203.779 170.423 203.864C170.209 203.949 169.98 203.993 169.749 203.993V203.993ZM171.519 199.415C171.046 199.411 170.594 199.229 170.262 198.909C169.934 198.594 169.749 198.168 169.749 197.724C169.749 197.28 169.934 196.854 170.262 196.539C170.532 196.279 170.825 196.043 171.138 195.833C171.324 195.682 171.54 195.569 171.774 195.502C172.007 195.434 172.253 195.414 172.496 195.441C172.738 195.468 172.972 195.543 173.183 195.66C173.394 195.777 173.576 195.935 173.72 196.123C173.863 196.311 173.965 196.525 174.017 196.751C174.069 196.978 174.072 197.213 174.024 197.44C173.976 197.668 173.88 197.884 173.74 198.074C173.6 198.265 173.421 198.426 173.212 198.547L172.737 198.927C172.415 199.236 171.977 199.412 171.519 199.415Z" fill="#6240B8"/>
<path d="M98.5679 142.388C98.0984 142.388 97.6482 142.211 97.3163 141.895C96.9843 141.579 96.7979 141.151 96.7979 140.705C96.7979 140.259 96.9843 139.831 97.3163 139.515C97.6482 139.2 98.0984 139.023 98.5679 139.023C98.7386 139.04 98.9109 139.04 99.0817 139.023C99.3145 138.965 99.5572 138.953 99.795 138.987C100.033 139.022 100.261 139.102 100.465 139.223C100.669 139.344 100.845 139.503 100.982 139.691C101.12 139.879 101.215 140.091 101.263 140.315C101.311 140.54 101.31 140.771 101.261 140.995C101.212 141.218 101.115 141.43 100.977 141.618C100.839 141.805 100.662 141.963 100.457 142.083C100.252 142.203 100.024 142.282 99.7859 142.315C99.3832 142.376 98.9754 142.4 98.5679 142.388V142.388ZM102.774 139.728C102.546 139.721 102.321 139.678 102.108 139.602C101.683 139.447 101.337 139.142 101.142 138.751C100.948 138.361 100.918 137.913 101.061 137.503C101.121 137.343 101.171 137.18 101.213 137.014C101.213 136.773 101.268 136.534 101.374 136.314C101.48 136.094 101.635 135.898 101.827 135.74C102.02 135.583 102.246 135.466 102.49 135.399C102.735 135.331 102.991 135.315 103.243 135.35C103.495 135.386 103.735 135.472 103.949 135.604C104.162 135.736 104.343 135.91 104.479 136.114C104.615 136.319 104.703 136.548 104.737 136.788C104.771 137.028 104.751 137.271 104.677 137.503C104.601 137.886 104.486 138.262 104.335 138.625C104.216 138.933 104.005 139.202 103.728 139.398C103.451 139.595 103.119 139.709 102.774 139.728V139.728ZM103.098 134.717C102.628 134.717 102.178 134.539 101.846 134.224C101.514 133.908 101.328 133.48 101.328 133.034V132.202C101.328 131.755 101.514 131.327 101.846 131.012C102.178 130.696 102.628 130.519 103.098 130.519C103.567 130.519 104.017 130.696 104.349 131.012C104.681 131.327 104.868 131.755 104.868 132.202V133.034C104.868 133.261 104.82 133.486 104.726 133.695C104.632 133.904 104.495 134.093 104.322 134.25C104.15 134.407 103.946 134.53 103.722 134.61C103.499 134.69 103.26 134.726 103.021 134.717H103.098ZM103.098 129.669C102.864 129.671 102.633 129.629 102.417 129.546C102.201 129.462 102.005 129.338 101.84 129.181C101.675 129.025 101.545 128.838 101.457 128.633C101.369 128.428 101.325 128.208 101.328 127.986V127.154C101.328 126.708 101.514 126.28 101.846 125.964C102.178 125.649 102.628 125.471 103.098 125.471C103.567 125.471 104.017 125.649 104.349 125.964C104.681 126.28 104.868 126.708 104.868 127.154V127.986C104.868 128.213 104.82 128.438 104.726 128.647C104.632 128.856 104.495 129.045 104.322 129.202C104.15 129.36 103.946 129.482 103.722 129.562C103.499 129.642 103.26 129.679 103.021 129.669H103.098ZM103.098 124.621C102.866 124.633 102.634 124.601 102.416 124.528C102.197 124.454 101.996 124.34 101.824 124.192C101.653 124.044 101.513 123.865 101.415 123.665C101.317 123.465 101.261 123.249 101.251 123.029V122.178C101.251 121.732 101.438 121.304 101.77 120.989C102.102 120.673 102.552 120.496 103.021 120.496C103.491 120.496 103.941 120.673 104.273 120.989C104.605 121.304 104.791 121.732 104.791 122.178V123.029C104.767 123.459 104.57 123.864 104.24 124.161C103.911 124.457 103.475 124.622 103.021 124.621H103.098ZM103.098 119.591C102.628 119.591 102.178 119.414 101.846 119.098C101.514 118.783 101.328 118.355 101.328 117.909V117.076C101.328 116.63 101.514 116.202 101.846 115.887C102.178 115.571 102.628 115.394 103.098 115.394C103.567 115.394 104.017 115.571 104.349 115.887C104.681 116.202 104.868 116.63 104.868 117.076V117.909C104.868 118.136 104.82 118.361 104.726 118.57C104.632 118.779 104.495 118.968 104.322 119.125C104.15 119.282 103.946 119.404 103.722 119.485C103.499 119.565 103.26 119.601 103.021 119.591H103.098ZM103.098 114.543C102.628 114.543 102.178 114.366 101.846 114.051C101.514 113.735 101.328 113.307 101.328 112.861V112.029C101.328 111.582 101.514 111.154 101.846 110.839C102.178 110.523 102.628 110.346 103.098 110.346C103.567 110.346 104.017 110.523 104.349 110.839C104.681 111.154 104.868 111.582 104.868 112.029V112.861C104.868 113.088 104.82 113.313 104.726 113.522C104.632 113.731 104.495 113.92 104.322 114.077C104.15 114.234 103.946 114.357 103.722 114.437C103.499 114.517 103.26 114.553 103.021 114.543H103.098ZM103.098 109.496C102.864 109.498 102.633 109.456 102.417 109.373C102.201 109.289 102.005 109.165 101.84 109.008C101.675 108.852 101.545 108.665 101.457 108.46C101.369 108.255 101.325 108.035 101.328 107.813V106.981C101.328 106.535 101.514 106.107 101.846 105.791C102.178 105.475 102.628 105.298 103.098 105.298C103.567 105.298 104.017 105.475 104.349 105.791C104.681 106.107 104.868 106.535 104.868 106.981V107.813C104.868 108.04 104.82 108.265 104.726 108.474C104.632 108.683 104.495 108.872 104.322 109.029C104.15 109.186 103.946 109.309 103.722 109.389C103.499 109.469 103.26 109.505 103.021 109.496H103.098ZM103.745 104.52C103.568 104.547 103.388 104.547 103.212 104.52C102.765 104.383 102.394 104.084 102.18 103.687C101.966 103.29 101.926 102.828 102.07 102.403L102.412 101.499C102.587 101.084 102.927 100.751 103.359 100.575C103.791 100.399 104.279 100.392 104.715 100.558C105.152 100.724 105.501 101.047 105.687 101.458C105.873 101.868 105.879 102.332 105.705 102.747C105.705 102.982 105.515 103.218 105.438 103.435C105.307 103.774 105.064 104.063 104.744 104.259C104.425 104.455 104.047 104.546 103.668 104.52H103.745ZM106.352 100.178C105.927 100.167 105.518 100.02 105.191 99.7619C105.014 99.6182 104.869 99.4423 104.765 99.2447C104.66 99.0471 104.598 98.8317 104.582 98.611C104.566 98.3904 104.597 98.1689 104.672 97.9595C104.747 97.7502 104.865 97.5572 105.02 97.3918C105.229 97.1566 105.458 96.9214 105.686 96.7043C106.021 96.4291 106.452 96.2832 106.894 96.2953C107.337 96.3073 107.758 96.4764 108.076 96.7694C108.393 97.0623 108.584 97.4577 108.61 97.8777C108.637 98.2976 108.496 98.7117 108.217 99.0382L107.684 99.581C107.515 99.7782 107.299 99.935 107.055 100.039C106.81 100.142 106.543 100.19 106.276 100.178H106.352ZM110.387 97.1023C110.058 97.0905 109.737 96.9976 109.457 96.8327C109.177 96.6678 108.946 96.4365 108.788 96.1615C108.583 95.7629 108.553 95.3036 108.702 94.8834C108.852 94.4633 109.17 94.1163 109.588 93.918L110.501 93.52C110.718 93.4157 110.955 93.3548 111.197 93.3413C111.44 93.3278 111.683 93.3619 111.911 93.4414C112.139 93.521 112.347 93.6443 112.523 93.8037C112.699 93.9631 112.838 94.1552 112.932 94.3681C113.026 94.5809 113.074 94.8099 113.071 95.0408C113.068 95.2717 113.015 95.4996 112.916 95.7103C112.816 95.9209 112.672 96.1099 112.492 96.2653C112.313 96.4208 112.101 96.5394 111.871 96.6138L111.167 96.9214C110.927 97.0424 110.659 97.1046 110.387 97.1023ZM115.526 95.8901C115.075 95.891 114.642 95.7287 114.313 95.4363C113.984 95.1438 113.785 94.7433 113.756 94.3161C113.724 93.8677 113.881 93.4258 114.191 93.0868C114.501 92.7478 114.94 92.5393 115.411 92.5068H116.401C116.633 92.5068 116.862 92.5505 117.076 92.6352C117.289 92.72 117.483 92.8443 117.646 93.0007C117.809 93.1572 117.937 93.3429 118.024 93.5469C118.111 93.7509 118.155 93.9693 118.152 94.1894C118.152 94.6357 117.966 95.0637 117.634 95.3792C117.302 95.6948 116.851 95.872 116.382 95.872H115.526V95.8901Z" fill="#6240B8"/>
<path d="M116.382 216.386H115.373C114.932 216.324 114.532 216.106 114.252 215.776C113.973 215.445 113.835 215.026 113.866 214.604C113.898 214.181 114.096 213.784 114.421 213.494C114.746 213.204 115.175 213.042 115.621 213.039H116.382C116.852 213.039 117.302 213.216 117.634 213.532C117.966 213.847 118.152 214.275 118.152 214.722C118.152 215.168 117.966 215.596 117.634 215.911C117.302 216.227 116.852 216.404 116.382 216.404V216.386ZM111.224 215.409C110.988 215.406 110.755 215.357 110.539 215.264C110.228 215.147 109.923 215.014 109.626 214.866C109.238 214.65 108.951 214.303 108.823 213.893C108.696 213.484 108.736 213.044 108.937 212.662C109.138 212.28 109.484 211.985 109.905 211.836C110.326 211.688 110.791 211.698 111.205 211.863L111.91 212.17C112.29 212.319 112.603 212.589 112.797 212.933C112.991 213.278 113.052 213.675 112.971 214.058C112.89 214.441 112.672 214.785 112.353 215.032C112.034 215.278 111.635 215.412 111.224 215.409V215.409ZM106.866 212.587C106.628 212.59 106.392 212.547 106.173 212.459C105.954 212.372 105.755 212.243 105.591 212.08C105.363 211.863 105.134 211.628 104.925 211.392C104.648 211.053 104.518 210.626 104.562 210.198C104.605 209.77 104.82 209.375 105.16 209.092C105.501 208.81 105.943 208.663 106.394 208.68C106.846 208.697 107.273 208.878 107.589 209.185C107.752 209.379 107.93 209.56 108.122 209.728C108.452 210.046 108.637 210.475 108.637 210.922C108.637 211.369 108.452 211.798 108.122 212.116C107.778 212.414 107.331 212.581 106.866 212.587V212.587ZM103.973 208.407C103.618 208.41 103.271 208.309 102.978 208.119C102.685 207.928 102.461 207.656 102.336 207.34C102.202 207.051 102.088 206.755 101.994 206.453C101.892 206.043 101.955 205.612 102.172 205.244C102.388 204.877 102.741 204.6 103.162 204.468C103.583 204.336 104.041 204.359 104.444 204.532C104.848 204.706 105.169 205.017 105.343 205.404C105.343 205.639 105.515 205.874 105.61 206.091C105.786 206.504 105.782 206.966 105.6 207.377C105.419 207.787 105.073 208.112 104.639 208.281C104.429 208.366 104.202 208.409 103.973 208.407V208.407Z" fill="#6240B8"/>
<path d="M120.531 215.771C120.156 215.771 119.791 215.657 119.49 215.445C119.188 215.233 118.966 214.935 118.856 214.595C118.712 214.173 118.749 213.713 118.959 213.316C119.169 212.92 119.536 212.619 119.979 212.478L120.703 212.243C120.921 212.138 121.161 212.077 121.406 212.065C121.651 212.053 121.895 212.089 122.125 212.171C122.354 212.254 122.563 212.381 122.738 212.544C122.913 212.707 123.051 212.903 123.142 213.119C123.233 213.335 123.276 213.567 123.268 213.8C123.26 214.033 123.201 214.262 123.096 214.472C122.99 214.682 122.839 214.869 122.653 215.021C122.467 215.173 122.25 215.287 122.016 215.355C121.711 215.479 121.4 215.588 121.083 215.68C120.905 215.736 120.719 215.767 120.531 215.771V215.771ZM125.118 213.31C124.758 213.309 124.407 213.204 124.112 213.009C123.817 212.814 123.591 212.538 123.465 212.217C123.339 211.897 123.318 211.548 123.406 211.216C123.494 210.885 123.686 210.586 123.957 210.361L124.528 209.855C124.865 209.55 125.315 209.384 125.78 209.392C126.245 209.4 126.688 209.582 127.013 209.898C127.338 210.215 127.519 210.64 127.517 211.082C127.515 211.524 127.33 211.947 127.002 212.261L126.279 212.894C125.952 213.152 125.543 213.299 125.118 213.31ZM128.354 209.348C128.082 209.35 127.813 209.288 127.573 209.167C127.365 209.071 127.178 208.936 127.025 208.771C126.872 208.605 126.755 208.413 126.68 208.204C126.606 207.995 126.576 207.775 126.592 207.555C126.608 207.335 126.67 207.121 126.774 206.924C126.888 206.707 127.002 206.489 127.097 206.254C127.176 206.036 127.3 205.835 127.464 205.664C127.628 205.493 127.826 205.356 128.048 205.262C128.269 205.167 128.509 205.117 128.752 205.114C128.995 205.111 129.236 205.156 129.46 205.246C129.684 205.335 129.886 205.468 130.053 205.635C130.221 205.802 130.351 206 130.435 206.217C130.518 206.434 130.554 206.664 130.54 206.895C130.526 207.126 130.462 207.351 130.352 207.557C130.219 207.846 130.085 208.136 129.933 208.425C129.785 208.703 129.559 208.936 129.281 209.099C129.002 209.262 128.681 209.348 128.354 209.348V209.348ZM129.724 204.517H129.61C129.377 204.501 129.15 204.442 128.942 204.342C128.733 204.242 128.548 204.104 128.395 203.936C128.243 203.768 128.128 203.573 128.055 203.362C127.983 203.151 127.955 202.929 127.973 202.708C127.973 202.455 127.973 202.22 127.973 201.984C127.973 201.538 128.159 201.11 128.491 200.795C128.823 200.479 129.273 200.302 129.743 200.302C130.212 200.302 130.662 200.479 130.994 200.795C131.326 201.11 131.513 201.538 131.513 201.984C131.513 202.292 131.513 202.618 131.513 202.925C131.47 203.346 131.262 203.736 130.931 204.017C130.599 204.299 130.168 204.451 129.724 204.445V204.517Z" fill="#6240B8"/>
<path d="M163.125 106.203C162.656 106.203 162.206 106.025 161.874 105.71C161.542 105.394 161.355 104.966 161.355 104.52C161.336 104.177 161.336 103.832 161.355 103.489C161.364 103.256 161.422 103.027 161.529 102.817C161.635 102.606 161.785 102.419 161.972 102.268C162.158 102.116 162.375 102.002 162.61 101.934C162.844 101.867 163.091 101.846 163.335 101.873C163.578 101.901 163.813 101.977 164.024 102.095C164.235 102.214 164.418 102.373 164.562 102.562C164.705 102.751 164.805 102.967 164.856 103.195C164.907 103.423 164.907 103.659 164.857 103.887C164.857 104.104 164.857 104.303 164.857 104.52C164.86 104.739 164.817 104.956 164.731 105.159C164.646 105.361 164.519 105.546 164.358 105.702C164.197 105.859 164.006 105.983 163.794 106.069C163.583 106.155 163.355 106.2 163.125 106.203V106.203ZM165.029 101.643C164.679 101.642 164.338 101.541 164.048 101.355C163.758 101.169 163.533 100.905 163.4 100.598C163.268 100.29 163.234 99.9516 163.304 99.6258C163.374 99.2999 163.543 99.001 163.792 98.7668C164.074 98.5011 164.379 98.2589 164.705 98.0431C165.086 97.893 165.511 97.8743 165.905 97.99C166.299 98.1058 166.638 98.3488 166.864 98.6771C167.09 99.0054 167.188 99.3983 167.141 99.788C167.094 100.178 166.906 100.54 166.608 100.811L166.171 101.173C165.861 101.443 165.466 101.609 165.048 101.643H165.029Z" fill="#6240B8"/>
<path d="M204.882 112.173H204.006C203.537 112.173 203.087 111.996 202.755 111.68C202.423 111.365 202.236 110.937 202.236 110.491C202.236 110.044 202.423 109.616 202.755 109.301C203.087 108.985 203.537 108.808 204.006 108.808H204.882C205.351 108.808 205.802 108.985 206.134 109.301C206.465 109.616 206.652 110.044 206.652 110.491C206.652 110.937 206.465 111.365 206.134 111.68C205.802 111.996 205.351 112.173 204.882 112.173V112.173ZM199.572 112.173H198.696C198.227 112.173 197.777 111.996 197.445 111.68C197.113 111.365 196.926 110.937 196.926 110.491C196.926 110.044 197.113 109.616 197.445 109.301C197.777 108.985 198.227 108.808 198.696 108.808H199.572C200.041 108.808 200.492 108.985 200.824 109.301C201.155 109.616 201.342 110.044 201.342 110.491C201.342 110.937 201.155 111.365 200.824 111.68C200.492 111.996 200.041 112.173 199.572 112.173V112.173ZM194.281 112.173H193.386C192.917 112.173 192.467 111.996 192.135 111.68C191.803 111.365 191.616 110.937 191.616 110.491C191.616 110.044 191.803 109.616 192.135 109.301C192.467 108.985 192.917 108.808 193.386 108.808H194.281C194.75 108.808 195.201 108.985 195.533 109.301C195.864 109.616 196.051 110.044 196.051 110.491C196.051 110.937 195.864 111.365 195.533 111.68C195.201 111.996 194.75 112.173 194.281 112.173V112.173ZM188.971 112.173H188.076C187.607 112.173 187.157 111.996 186.825 111.68C186.493 111.365 186.306 110.937 186.306 110.491C186.306 110.044 186.493 109.616 186.825 109.301C187.157 108.985 187.607 108.808 188.076 108.808H188.971C189.44 108.808 189.891 108.985 190.223 109.301C190.554 109.616 190.741 110.044 190.741 110.491C190.741 110.937 190.554 111.365 190.223 111.68C189.891 111.996 189.44 112.173 188.971 112.173V112.173ZM183.661 112.173H182.709C182.24 112.173 181.79 111.996 181.458 111.68C181.126 111.365 180.939 110.937 180.939 110.491C180.939 110.044 181.126 109.616 181.458 109.301C181.79 108.985 182.24 108.808 182.709 108.808H183.585C184.054 108.808 184.504 108.985 184.836 109.301C185.168 109.616 185.355 110.044 185.355 110.491C185.355 110.937 185.168 111.365 184.836 111.68C184.504 111.996 184.054 112.173 183.585 112.173H183.661ZM178.351 112.173H177.476C177.006 112.173 176.556 111.996 176.224 111.68C175.892 111.365 175.706 110.937 175.706 110.491C175.706 110.044 175.892 109.616 176.224 109.301C176.556 108.985 177.006 108.808 177.476 108.808H178.351C178.82 108.808 179.271 108.985 179.603 109.301C179.934 109.616 180.121 110.044 180.121 110.491C180.121 110.937 179.934 111.365 179.603 111.68C179.271 111.996 178.82 112.173 178.351 112.173V112.173ZM173.06 112.173H172.166C171.696 112.173 171.246 111.996 170.914 111.68C170.582 111.365 170.396 110.937 170.396 110.491C170.396 110.044 170.582 109.616 170.914 109.301C171.246 108.985 171.696 108.808 172.166 108.808H173.06C173.529 108.808 173.98 108.985 174.312 109.301C174.644 109.616 174.83 110.044 174.83 110.491C174.83 110.937 174.644 111.365 174.312 111.68C173.98 111.996 173.529 112.173 173.06 112.173V112.173ZM209.126 111.377C208.748 111.377 208.379 111.261 208.075 111.046C207.771 110.832 207.547 110.531 207.436 110.187C207.326 109.843 207.334 109.474 207.46 109.135C207.586 108.795 207.823 108.503 208.136 108.301C208.295 108.202 208.442 108.087 208.574 107.958C208.74 107.8 208.936 107.674 209.153 107.589C209.37 107.504 209.602 107.461 209.837 107.462C210.071 107.463 210.303 107.508 210.519 107.595C210.735 107.682 210.931 107.809 211.095 107.968C211.259 108.127 211.388 108.316 211.474 108.524C211.561 108.731 211.603 108.952 211.599 109.175C211.595 109.398 211.544 109.618 211.449 109.822C211.355 110.026 211.218 110.21 211.048 110.364C210.771 110.629 210.465 110.866 210.135 111.07C209.828 111.235 209.479 111.317 209.126 111.305V111.377ZM211.676 107.125H211.448C210.995 107.071 210.582 106.852 210.295 106.515C210.008 106.178 209.868 105.749 209.906 105.316C209.926 105.106 209.926 104.894 209.906 104.683C209.881 104.449 209.907 104.212 209.984 103.988C210.061 103.764 210.186 103.557 210.352 103.382C210.518 103.207 210.721 103.067 210.947 102.971C211.174 102.876 211.419 102.826 211.667 102.826C211.915 102.826 212.16 102.876 212.386 102.971C212.613 103.067 212.816 103.207 212.982 103.382C213.148 103.557 213.273 103.764 213.35 103.988C213.427 104.212 213.453 104.449 213.427 104.683C213.447 105.033 213.447 105.383 213.427 105.732C213.337 106.109 213.114 106.445 212.796 106.685C212.477 106.925 212.083 107.055 211.676 107.053V107.125Z" fill="#6240B8"/>
</svg>
