<svg xmlns="http://www.w3.org/2000/svg" xmlns:xlink="http://www.w3.org/1999/xlink" viewBox="0 0 1069.26 982.27"><defs><style>.cls-1,.cls-13,.cls-14,.cls-15,.cls-16,.cls-17,.cls-18,.cls-19,.cls-2,.cls-20,.cls-21,.cls-5,.cls-6{fill:none;}.cls-1{clip-rule:evenodd;}.cls-3{isolation:isolate;}.cls-4{fill:#ffbd26;}.cls-13,.cls-5,.cls-6{stroke:#6240b8;}.cls-13,.cls-14,.cls-15,.cls-16,.cls-17,.cls-18,.cls-19,.cls-20,.cls-21,.cls-5,.cls-6{stroke-linecap:round;stroke-linejoin:round;}.cls-14,.cls-5{stroke-width:3.07px;stroke-dasharray:4.61 4.61 1.54;}.cls-15,.cls-17,.cls-19,.cls-20,.cls-6{stroke-width:4.97px;}.cls-7{fill:#ff4eda;}.cls-11,.cls-24,.cls-8,.cls-9{fill:#e7edf5;}.cls-9{opacity:0.18;}.cls-11,.cls-12,.cls-24,.cls-9{mix-blend-mode:multiply;}.cls-10{fill:#6240b8;}.cls-11{opacity:0.75;}.cls-13,.cls-16,.cls-18,.cls-21{stroke-width:4.6px;stroke-dasharray:1.15 5.75;}.cls-14,.cls-15,.cls-18{stroke:#e7edf5;}.cls-16,.cls-17{stroke:#fff;}.cls-19{stroke:#ff4eda;}.cls-20,.cls-21{stroke:#6240b3;}.cls-22{opacity:0.13;}.cls-23{fill:#5d7287;}.cls-25{fill:#e2e8f0;}.cls-26{fill:#ffbd51;}.cls-27{clip-path:url(#clip-path);}.cls-28{clip-path:url(#clip-path-2);}.cls-29{clip-path:url(#clip-path-3);}.cls-30{clip-path:url(#clip-path-4);}.cls-31{clip-path:url(#clip-path-5);}.cls-32{clip-path:url(#clip-path-6);}.cls-33{clip-path:url(#clip-path-7);}.cls-34{clip-path:url(#clip-path-8);}.cls-35{clip-path:url(#clip-path-9);}.cls-36{clip-path:url(#clip-path-10);}.cls-37{clip-path:url(#clip-path-11);}.cls-38{clip-path:url(#clip-path-12);}.cls-39{clip-path:url(#clip-path-13);}.cls-40{clip-path:url(#clip-path-14);}.cls-41{clip-path:url(#clip-path-15);}.cls-42{clip-path:url(#clip-path-16);}.cls-43{clip-path:url(#clip-path-17);}.cls-44{clip-path:url(#clip-path-18);}</style><clipPath id="clip-path"><path class="cls-1" d="M1891.29,375.51a3,3,0,0,1,1.45-2.39l27.46-14.44a.91.91,0,0,1,1.45.88V391a3,3,0,0,1-1.45,2.39l-27.46,14.43a.91.91,0,0,1-1.45-.87Z"/></clipPath><clipPath id="clip-path-2"><path class="cls-1" d="M1915.74,228.64a.72.72,0,0,0-.35-.58l-6.58-3.46a.22.22,0,0,0-.35.21v7.54a.72.72,0,0,0,.35.58l6.58,3.45c.19.1.35,0,.35-.2Z"/></clipPath><clipPath id="clip-path-3"><path class="cls-1" d="M1887.75,223.81c1.91,4.54.75,8.86-2.6,9.65s-7.6-2.24-9.51-6.78-.75-8.86,2.6-9.65,7.6,2.24,9.51,6.78"/></clipPath><clipPath id="clip-path-4"><path class="cls-1" d="M1354.65,242.17a3,3,0,0,1,1.44-2.39l27.47-14.44a.91.91,0,0,1,1.44.88v31.46a3,3,0,0,1-1.44,2.39l-27.47,14.43a.9.9,0,0,1-1.44-.87Z"/></clipPath><clipPath id="clip-path-5"><path class="cls-2" d="M1897.49,646.87a1.38,1.38,0,0,1,1.74-.67l.08,0,4.44,2.14a1.36,1.36,0,0,1-1.1,2.49l-.08,0-4.44-2.15A1.37,1.37,0,0,1,1897.49,646.87Z"/></clipPath><clipPath id="clip-path-6"><path class="cls-2" d="M1888.32,620.84a1.4,1.4,0,0,1,1.17-.21l.1,0,2.5.92a1.36,1.36,0,0,1-.85,2.58l-.08,0-1.82-.67-9.26,6.71.05.19.09.32.08.25a17.42,17.42,0,0,0,1.5,3.54,12.42,12.42,0,0,0,1.2,1.74,1.36,1.36,0,1,1-2.11,1.73,15.23,15.23,0,0,1-1.45-2.12,19.61,19.61,0,0,1-1.75-4.1l-.1-.35-.09-.32-.08-.3-.07-.28,0-.24,0-.22,0-.19a1.33,1.33,0,0,1,.46-1.27l.08-.06Z"/></clipPath><clipPath id="clip-path-7"><path class="cls-2" d="M1897.24,614.1a1.37,1.37,0,0,1,1.36,1.27v5.76a1.36,1.36,0,0,1-2.72.09v-5.76A1.36,1.36,0,0,1,1897.24,614.1Z"/></clipPath><clipPath id="clip-path-8"><path class="cls-2" d="M1893,569.16a1.36,1.36,0,1,1,1.68,2.13,31.73,31.73,0,0,0-8,9.31,34.93,34.93,0,0,0-4.36,17.51,11.29,11.29,0,0,0,1.11,5.35l0,.08.89.61a1.36,1.36,0,0,1,.41,1.81l0,.08a1.37,1.37,0,0,1-1.82.41l-.08-.05-1.14-.78a1.38,1.38,0,0,1-.39-.41,13.38,13.38,0,0,1-1.7-7.1,37.63,37.63,0,0,1,4.71-18.85A34.26,34.26,0,0,1,1893,569.16Z"/></clipPath><clipPath id="clip-path-9"><path class="cls-2" d="M1902.53,557.59a1.37,1.37,0,0,1,1.31-.14l.09,0,6,3a1.36,1.36,0,0,1-1.14,2.47l-.09,0-5.24-2.64-4.83,3.36V567l1.39.56a1.36,1.36,0,0,1,.79,1.68l0,.09a1.37,1.37,0,0,1-1.69.79l-.09,0-2.24-.9a1.37,1.37,0,0,1-.85-1.17v-5.08a1.33,1.33,0,0,1,.5-1.05l.08-.06Z"/></clipPath><clipPath id="clip-path-10"><path class="cls-2" d="M1914.46,589.05a1.38,1.38,0,0,1,.67.08l.11,0,7.41,3.58a1.36,1.36,0,0,1-1.09,2.49l-.09,0-7-3.4-1.13.15a1.37,1.37,0,0,1-1.51-1.09l0-.08a1.37,1.37,0,0,1,1.08-1.52h.09Z"/></clipPath><clipPath id="clip-path-11"><path class="cls-2" d="M1903.21,613.34a1.37,1.37,0,0,1,1.36,1.27v15.63a1.37,1.37,0,0,1-1.1,1.34c-3.42.65-6.37-.77-8.74-4.51l-.07-.12-8.61,6.24v0c0,.15.09.31.13.47l.08.25a17.46,17.46,0,0,0,1.51,3.54c.08.15.17.3.26.45l.19.29c2.91,4.46,7.38,5.69,14.34,2a1.36,1.36,0,0,1,2,1.11V645a1.36,1.36,0,0,1-2.72.09V643.6h0c-7.54,3.23-13,1.06-16.29-4.58l-.11-.18a20.64,20.64,0,0,1-1.75-4.1l-.1-.35-.09-.33-.08-.3-.07-.28,0-.24,0-.22,0-.19a1.35,1.35,0,0,1,.46-1.27l.08-.06,10.57-7.66a1.36,1.36,0,0,1,2,.48c1.65,3.22,3.41,4.6,5.44,4.67h.1V614.7a1.37,1.37,0,0,1,1.27-1.36Z"/></clipPath><clipPath id="clip-path-12"><path class="cls-2" d="M1902.79,611.5l.64-.16a.84.84,0,0,0-.44-1.63l-.6.16a.84.84,0,0,0-.62,1A.85.85,0,0,0,1902.79,611.5Zm-5.18.76a21.35,21.35,0,0,0,2.6-.25.84.84,0,1,0-.25-1.66,22.78,22.78,0,0,1-2.41.23.84.84,0,0,0-.81.87A.83.83,0,0,0,1897.61,612.26Zm-3.53-.23a14.3,14.3,0,0,0,2.66.24.83.83,0,0,0,.85-.83.85.85,0,0,0-.83-.85,12.74,12.74,0,0,1-2.37-.21.84.84,0,0,0-.31,1.65Zm-3.46-1.26a8,8,0,0,0,.82.44.84.84,0,0,0,.71-1.53c-.23-.11-.45-.22-.67-.35a.84.84,0,1,0-.86,1.44Zm-3.55-4.21a8.85,8.85,0,0,0,1.42,2.39.84.84,0,1,0,1.29-1.07,7.49,7.49,0,0,1-1.15-2,.86.86,0,0,0-1.1-.47A.84.84,0,0,0,1887.07,606.56Zm-.83-3.5a13.87,13.87,0,0,0,.52,2.64.84.84,0,0,0,1.61-.5,12,12,0,0,1-.46-2.31.84.84,0,1,0-1.67.17Zm-.07-3.48,0,.86a.85.85,0,0,0,.83.85.84.84,0,0,0,.86-.83c0-.27,0-.55,0-.82a.85.85,0,0,0-.81-.87A.83.83,0,0,0,1886.17,599.58Zm.49-5.12c-.14.84-.25,1.69-.33,2.56a.84.84,0,0,0,1.68.16c.07-.83.18-1.65.31-2.45a.85.85,0,0,0-.7-1A.84.84,0,0,0,1886.66,594.46Zm.7-3.38c-.21.83-.4,1.67-.56,2.53a.84.84,0,0,0,1.66.3c.15-.82.33-1.62.53-2.41a.84.84,0,0,0-.61-1A.83.83,0,0,0,1887.36,591.08Zm1-3.29c-.1.27-.19.54-.28.81a.84.84,0,1,0,1.59.54l.27-.78a.84.84,0,0,0-1.58-.57Zm2.12-4.72c-.41.75-.8,1.53-1.15,2.32a.84.84,0,1,0,1.53.69c.34-.76.71-1.49,1.09-2.21a.84.84,0,1,0-1.47-.8Z"/></clipPath><clipPath id="clip-path-13"><path class="cls-2" d="M1908.51,560.6a1.36,1.36,0,0,1,2.13,1v3h0c.34-.16.68-.31,1-.44l.34-.13a1.36,1.36,0,0,1,1,2.54,19.32,19.32,0,0,0-3,1.49,1.36,1.36,0,0,1-2.06-1.08v-2.69l-3.35,2.33v4.28a1.36,1.36,0,0,1-.6,1.13l-.08,0a30.27,30.27,0,0,0-10,9.61,1.36,1.36,0,1,1-2.27-1.51,33.58,33.58,0,0,1,9.88-9.83l.38-.23V566a1.34,1.34,0,0,1,.5-1.05l.08-.06Z"/></clipPath><clipPath id="clip-path-14"><path class="cls-2" d="M1912.6,561.45a1.35,1.35,0,0,1,1.77-.55l.08,0,4.1,2.36.22,0a10.63,10.63,0,0,1,6.35,4.22l.15.2a16.87,16.87,0,0,1,1.77,3l.06.16.13.29.1.27.1.24.07.21.06.19,0,.08a1.37,1.37,0,0,1-.44,1.44l-.08.06-11.34,8a1.36,1.36,0,0,1-2-.62c-.87-2.25-1.82-2.91-2.94-2.69l-.09,0v15.39h0c.77-.32,1.52-.61,2.25-.85l.37-.11a1.36,1.36,0,1,1,.8,2.6,30.38,30.38,0,0,0-4.19,1.71,1.36,1.36,0,0,1-2-1.13V577.49a1.37,1.37,0,0,1,.76-1.22c2.44-1.21,5-.75,6.69,2.1l.12.19,9.15-6.43-.09-.21a13.83,13.83,0,0,0-1.47-2.54,8,8,0,0,0-5.2-3.43,2.11,2.11,0,0,1-.38-.12l-.09-.05-4.31-2.47A1.36,1.36,0,0,1,1912.6,561.45Z"/></clipPath><clipPath id="clip-path-15"><path class="cls-2" d="M1902.47,580.28a1.36,1.36,0,0,1,2.1,1.06v13.1a1.36,1.36,0,0,1-2.72.09V584.16l-.08.07a10.82,10.82,0,0,0-3.78,8v.23c0,2.67.67,4,1.76,4.49a4.48,4.48,0,0,0,3.07,0,1.38,1.38,0,0,1,1.7.92,1.36,1.36,0,0,1-.92,1.69,6.93,6.93,0,0,1-5-.11c-2.17-1-3.35-3.32-3.35-7C1895.27,587.08,1898.15,583.07,1902.47,580.28Z"/></clipPath><clipPath id="clip-path-16"><path class="cls-2" d="M1915.14,606.22c2,.61,3,2.67,3.26,6.19.41,6-3.08,11.77-8.28,15.82a1.35,1.35,0,0,1-2.19-1V612.52a1.36,1.36,0,0,1,2.72-.09v11.71c3.23-3.25,5.23-7.27,5-11.31l0-.24c-.16-2.52-.69-3.57-1.33-3.76a3.78,3.78,0,0,0-2.31.48l-.31.13-.32.15-.43.21-1.09.54a1.37,1.37,0,1,1-1.21-2.45l1.2-.59C1912.2,606.17,1913.66,605.77,1915.14,606.22Z"/></clipPath><clipPath id="clip-path-17"><path class="cls-1" d="M-707.83,828.67a.72.72,0,0,1,.35-.58l6.58-3.46a.22.22,0,0,1,.35.21v7.54a.72.72,0,0,1-.35.58l-6.58,3.45c-.19.1-.35,0-.35-.2Z"/></clipPath><clipPath id="clip-path-18"><path class="cls-1" d="M-679.84,823.84c-1.91,4.54-.75,8.86,2.6,9.65s7.6-2.24,9.51-6.78.75-8.86-2.6-9.65-7.6,2.24-9.51,6.78"/></clipPath></defs><title>Artboard 9 copy</title><g class="cls-3"><g id="Lumi_-_Hero" data-name="Lumi - Hero"><path class="cls-4" d="M466.12,722.54c-16.43-10-43.31-10-59.73,0l-109,66.27c-16.43,10-16.43,26.32,0,36.31l109,66.26c16.42,10,43.3,10,59.73,0l109-66.26c16.43-10,16.43-26.33,0-36.31Z"/><path class="cls-5" d="M851.9,178.4v-7.34c0-4-3.93-9.55-8.72-12.25L729.89,95.18"/><path class="cls-6" d="M968.89,159.5a2.05,2.05,0,0,0-1-1.64L949.09,148a.62.62,0,0,0-1,.6v21.54a2.07,2.07,0,0,0,1,1.64l18.81,9.88a.62.62,0,0,0,1-.6Z"/><path class="cls-7" d="M983.57,149.94a.88.88,0,0,0-.42-.7l-7.94-4.17a.26.26,0,0,0-.42.25v9.1a.86.86,0,0,0,.42.69l7.94,4.18a.27.27,0,0,0,.42-.26Z"/><ellipse class="cls-8" cx="700.57" cy="105.31" rx="3.26" ry="4.86" transform="translate(45.69 375.52) rotate(-30.97)"/><path class="cls-9" d="M1112.38,172.06c0-5.31-3.84-11.67-8.54-14.14L679.11-63.72c-4.69-2.47-8.54-.15-8.54,5.16V205.61c0,5.3,3.85,11.66,8.54,14.13l424.73,221.64c4.7,2.47,8.54.15,8.54-5.16Z"/><path class="cls-7" d="M917.31,705.61c-10.6-6.14-28-6.14-38.57,0l-70.39,40.76c-10.61,6.14-10.61,16.2,0,22.34l70.39,40.76c10.61,6.14,28,6.14,38.57,0l70.39-40.76c10.61-6.14,10.61-16.2,0-22.34Z"/><path class="cls-10" d="M784.93,769.44c-4.54-2.62-11.95-2.62-16.49,0l-30.07,17.41c-4.53,2.63-4.53,6.92,0,9.55l30.07,17.41c4.54,2.63,11.95,2.63,16.49,0L815,796.4c4.53-2.63,4.53-6.92,0-9.55Z"/><path class="cls-11" d="M674.08,503.11c-36.47-21.12-96.14-21.12-132.6,0L299.55,643.21c-36.47,21.12-36.47,55.67,0,76.79L541.48,860.1c36.46,21.12,96.13,21.12,132.6,0L916,720c36.46-21.12,36.46-55.67,0-76.79Z"/><circle class="cls-7" cx="394.15" cy="794.06" r="9.22"/><g class="cls-12"><path class="cls-8" d="M757.91,625.39A65.74,65.74,0,0,0,706,658.45c-1,1.73-1.87,3.69-1.46,5.62a6.9,6.9,0,0,0,2.4,3.59c5.82,5,14.39,4.69,22.08,4.3s16.45-.11,21.58,5.63c3.07,3.43,4.32,8.36,7.9,11.26,5.51,4.47,13.68,2.17,20.19-.68a194.09,194.09,0,0,0,23.77-12.47c5.33-3.28,10.88-7.34,12.51-13.38,1.1-4.07.25-8.55,1.82-12.46,2.12-5.26,7.87-7.92,11.88-11.93,7.5-7.49,8.45-19.13,8.95-29.72l2.82-59c.48-9.94.95-19.9.8-29.85-.08-5.46-.39-11.06-2.61-16-.8-1.79-2.17-3.68-4.13-3.74-2.56-.07-4,2.87-4.76,5.31l-4,12.56c-.86,2.72-1.78,5.54-3.73,7.63-6.71,7.2-20.31,1.36-27.75,7.81-4.12,3.59-4.77,9.64-5.13,15.09l-1.35,20.27c-.16,2.49-.32,5.06.56,7.4s2.76,4.24,4.4,6.18c4.58,5.44,7.78,12.54,6.73,19.57-.6,4-2.53,7.81-2.48,11.86,0,2.17.58,4.57-.67,6.33a6.88,6.88,0,0,1-2.8,2,60.17,60.17,0,0,1-36.76,4.87"/></g><g class="cls-12"><path class="cls-8" d="M608.87,548.53,578.8,564.35c-8.22,4.33-17,9.22-20.9,17.65a12.58,12.58,0,0,0-1.36,6c.17,3,1.87,5.8,3.92,8a26.93,26.93,0,0,0,22.61,8.51c3.72-.42,7.73-1.59,11,.14a33.71,33.71,0,0,1,3.53,2.56c5.34,3.71,12.6,2.44,18.81.51,12.08-3.76,23.46-9.41,34.79-15,12.5-6.21,25.53-12.86,33.52-24.3,2.38-3.41,4.29-7.31,4.42-11.47a37.82,37.82,0,0,0-.84-7.17,127.85,127.85,0,0,1-1.19-18.46l-1.23-79.21c0-3.29-.15-6.75-1.87-9.56s-5.67-4.51-8.41-2.7c-1.56,1-2.33,2.88-2.94,4.65-6,17.68-3.14,37.18-7.11,55.43-1.39,6.39-4,13.1-9.61,16.48-4.16,2.5-9.57,2.92-13,6.39-2.3,2.36-3.22,5.69-4.76,8.6-5.29,10-17.2,14.1-28,17.34"/></g><path class="cls-8" d="M898.21,548v95.14s-1,11.58-6.73,14.12c0,0,24.19-5.15,24.19-28.16V557.59Z"/><path class="cls-8" d="M916.43,480.69V254.9c0-19.25-13.67-42.83-30.37-52.39L638.8,60.88c-5.56-3.18-10.78-4.43-15.27-4l-3.62,1.86-10.38,5.7L867.44,210.16s30.37,19.66,30.37,56.57V468.38Z"/><path class="cls-4" d="M684.59,338.19a5.22,5.22,0,0,0-2-2.9,33.24,33.24,0,0,0-8.06-5.19,3.71,3.71,0,0,0-2.3-.47,4,4,0,0,0-2.12,1.86l-18.62,27.08a37.2,37.2,0,0,0-11-12.31c-3.67-2.6-7.9-4.6-10.73-8.09-1.57-1.94-2.63-4.25-4-6.32-5-7.38-13.9-11-22.43-13.64a41.09,41.09,0,0,1,.74,10.88c-.41,3.63-1.91,7.28-4.8,9.51-3.3,2.55-7.76,2.85-11.93,3-5.52.26-11.16.5-16.49-1s-10.42-5-12.37-10.14c-1.51-4-.95-8.61.63-12.62s4.12-7.57,6.63-11.07l.21-.76c-2.51-1.73-6.11-1-8.48.87s-3.76,4.77-4.86,7.62c-4.8,12.41-5.57,26-6,39.26-.19,6.48-.29,13,1.24,19.34,2.49,10.18,9,18.82,13.76,28.17a11.49,11.49,0,0,1,1.61,5.38,22.81,22.81,0,0,0-.27,3.4,8,8,0,0,0,1.44,3.28c3.8,6,7.74,12,13.08,16.75s12.31,8,19.39,7.39a14.52,14.52,0,0,0,7.13-2.37c4.18-2.9,5.91-8.12,8.9-12.23a23.09,23.09,0,0,1,12.5-8.64,3,3,0,0,0,1.87-1,2.77,2.77,0,0,0,.24-1.69c-1-12.92-5.6-25.81-3.34-38.57a142.38,142.38,0,0,0,21.07,9.23,13.83,13.83,0,0,0,6.25,1.06c2.39-.33,4.45-1.83,6.25-3.42a70.8,70.8,0,0,0,10.52-12.31,188.73,188.73,0,0,0,15.55-26.19A5.63,5.63,0,0,0,684.59,338.19ZM570.21,389.87c-3.15-3.62-5.25-8-7.12-12.47A21.28,21.28,0,0,1,561.2,371c-.24-2.95.67-5.86,1.66-8.65.77-2.17,1.6-4.32,2.43-6.47l1.38-.93A65.59,65.59,0,0,1,570.21,389.87Z"/><path class="cls-8" d="M689.42,305.35l6.87,3.84c2.88,1.61,5.24.23,5.24-3.07v-1.25a11.31,11.31,0,0,0-5.24-8.92L629,258c-2.88-1.61-5.24-.22-5.24,3.08v1.24a11.33,11.33,0,0,0,5.24,8.93l47.83,27Z"/><path class="cls-5" d="M845.13,648.44l18.71,10.71c7.2,4.13,13.84,5,19.06,3.12L898,655.58"/><line class="cls-6" x1="786.68" y1="614.96" x2="838.4" y2="644.58"/><line class="cls-6" x1="747.88" y1="592.73" x2="754.62" y2="596.59"/><polyline class="cls-5" points="670.66 548.51 710.3 571.21 715.04 573.92"/><line class="cls-6" x1="620.8" y1="519.94" x2="665.39" y2="545.49"/><path class="cls-6" d="M586.21,238.39v-140h0a23.73,23.73,0,0,1,35.37-21.18L628.39,81,863.84,215.9c16.7,9.57,30.37,33.14,30.37,52.39V466.76"/><line class="cls-6" x1="894.21" y1="641.55" x2="894.21" y2="563.73"/><path class="cls-6" d="M912.83,276.34V260.65c0-19.25-13.67-42.83-30.37-52.4L777,147.86"/><line class="cls-13" x1="912.83" y1="474.69" x2="912.83" y2="282.63"/><path class="cls-6" d="M906.77,651.35c3.8-3.67,6.06-9.62,6.06-17.45V572"/><path class="cls-14" d="M758.41,201.33l4.8,2.75a9.53,9.53,0,0,1,4.34,7.48V264.7a3.31,3.31,0,0,1-.94,2.56l-1.27.74"/><path class="cls-15" d="M715.42,186.45l38.94,22.31a9.55,9.55,0,0,1,4.33,7.48v53.14a3.07,3.07,0,0,1-1.24,2.79,3,3,0,0,1-3.09-.27l-44-25.2a9.56,9.56,0,0,1-4.34-7.48V186.08a3,3,0,0,1,1.42-2.87l8.73-4.62a3,3,0,0,1,3.05.29l34.57,19.81"/><path class="cls-5" d="M902.72,481.79l21.72,12.45a9.53,9.53,0,0,1,4.34,7.48v53.14a3.33,3.33,0,0,1-.93,2.56l-1.28.74"/><path class="cls-6" d="M876.65,476.62l38.94,22.3a9.55,9.55,0,0,1,4.34,7.48v53.14a3.07,3.07,0,0,1-1.25,2.79,3,3,0,0,1-3.09-.27l-44-25.19a9.57,9.57,0,0,1-4.34-7.49V476.24a3,3,0,0,1,1.41-2.87l8.73-4.62a3,3,0,0,1,3.05.29l17.83,10.21"/><path class="cls-14" d="M660,147.82l21.39,12.26a9.53,9.53,0,0,1,4.34,7.48V220.7a3.34,3.34,0,0,1-.93,2.56l-1.28.74"/><path class="cls-15" d="M633.61,142.45l38.94,22.31a9.53,9.53,0,0,1,4.34,7.48v53.14a3.07,3.07,0,0,1-1.25,2.79,3,3,0,0,1-3.09-.27l-44-25.2a9.53,9.53,0,0,1-4.34-7.48V142.08a3,3,0,0,1,1.41-2.87l8.73-4.62a3,3,0,0,1,3,.29l18.63,10.67"/><path class="cls-6" d="M839.1,384.32a8.85,8.85,0,0,1,1.3,4.3v17.51"/><line class="cls-5" x1="834.27" y1="380.11" x2="789.35" y2="354.25"/><line class="cls-6" x1="773.29" y1="376.93" x2="773.29" y2="373.43"/><line class="cls-6" x1="817.37" y1="443.3" x2="794.83" y2="430.33"/><path class="cls-6" d="M787.08,362.72l40.12,23.1a9.57,9.57,0,0,1,4.34,7.49v16.51"/><path class="cls-6" d="M780.71,330.49l3.75,9.5-3.75,1.33s8.67,29.92-16.67,24.5"/><path class="cls-6" d="M743.79,366.48v5.76s5.75,8.08,15.34,1.41a14.5,14.5,0,0,0,8.5,8.92c6.91,2.83,16.25,5.5,16.5,29.75"/><path class="cls-13" d="M792,468.46c-8-5.79-23-20.38-24.61-49.47"/><path class="cls-6" d="M785,419s.42,31.91,21.83,37.91c0,0-.25,10.42-9.75,14.67"/><path class="cls-6" d="M736.79,367.49c-22.91-3.67-26.91,10.25-27.08,24.75s-.42,95.33-.42,95.33a92.66,92.66,0,0,0,18.16,17.63l.76-1.59"/><path class="cls-13" d="M735.1,504.65c-1.09-7.44-2.57-20.46-1.39-30.16"/><path class="cls-6" d="M778.54,464.74s-.83,40.25,2,49.5c0,0-20.13,9-44.48-3.71"/><path class="cls-6" d="M813,458.07s9.75-2.17,14.25-25.25"/><path class="cls-6" d="M828.63,426.49s1.58-1.5.58-8.09"/><path class="cls-6" d="M834.88,416.9a8.34,8.34,0,0,0,6.5-3.75s4.08-1.33,5.41,10.59c0,0-1.33,6.58-7.25,9.08s-4.66,39.5-32.08,40.67"/><path class="cls-6" d="M777.63,522.49s4.91,13.5,4.16,37.25-5.25,93.83-3,103c0,0-10.41,10-20.66.66,0,0,2.83-25.58,2.83-51.58s-5-50.33-2.83-68.08"/><path class="cls-13" d="M753.46,539.24a31.3,31.3,0,0,1-16.67-7.92"/><path class="cls-6" d="M741.38,543.74s1.91,25.5,0,44.83-8.5,38.42-7.17,58.33c0,0-13.25,4.59-19.17-2.08,0,0,.59-46.92,8.09-71.08"/><path class="cls-6" d="M721.13,565.57s-4.09-28-4.75-36.33-6.84-13.17-5.25-28.84"/><path class="cls-6" d="M784.63,660.74a41,41,0,0,0,7-3.17c3.83-2.17,15,10.49-4.17,19.83"/><path class="cls-6" d="M758.21,673.57a7.73,7.73,0,0,0,1.42,9.92c4.91,4.75,9.75,3.41,16.25-2.5"/><path class="cls-6" d="M740.07,636a35.5,35.5,0,0,0,6.15-4c3.34-2.67,14.63,10.11-2.16,21.83"/><path class="cls-6" d="M716.36,653.11a9.52,9.52,0,0,0,2.13,10.62c4.9,4.74,9.22,2.89,14.68-4.06"/><path class="cls-4" d="M768.91,352.63c-5.92-.25-6.42-9.67-3.33-13.25s9.66.91,9.66.91v-6.91l1.84-7.59S794.91,324,789.74,308c0,0-2.41,3.42-7.16,0s-44.09-16-50.67,19.17v6.25s-.17,29.41,26.33,27.25"/><line class="cls-6" x1="347.8" y1="583.1" x2="560.15" y2="460.76"/><path class="cls-13" d="M304.47,678.15c-33.64-19.28-33.64-50.81,0-70.08L342.81,586"/><line class="cls-6" x1="515.9" y1="799.25" x2="309.57" y2="681.07"/><path class="cls-13" d="M666.71,815.56c-33.65,19.27-88.7,19.27-122.34,0l-21.83-12.5"/><path class="cls-6" d="M920.74,596l2.72,1.56c33.64,19.27,33.64,50.8,0,70.07L672,812.49"/><path class="cls-16" d="M762.08,782.06l161.38-93c16.23-9.3,24.63-21.45,25.2-33.7"/><path class="cls-17" d="M467.68,793.08,544.37,837c33.64,19.28,88.69,19.28,122.34,0L753,787.27"/><line class="cls-16" x1="320.9" y1="709.01" x2="459.87" y2="788.61"/><path class="cls-17" d="M279.24,664.55c0,12.71,8.41,25.41,25.23,35l10,5.74"/><path class="cls-13" d="M557.63,316.51c-3.59,7.07,1.31,21,19.58,23.28"/><path class="cls-6" d="M609.52,270.57s3.63-21-22.49-21-21.24,23.1-19.56,36.91c1.4,11.5-1.92,18.7-6,24.52"/><path class="cls-6" d="M609.07,276.41s4.61,20.71-7.17,22.84"/><path class="cls-6" d="M601.9,285.71s.89-7.26-5.66-5.49-4.34,18,0,27.88,10.53,30.27-11.77,31.69"/><path class="cls-6" d="M607.48,317.57a39.68,39.68,0,0,1,16.64,15.67c6.46,11.24,18.59,13,23.1,25.4"/><path class="cls-13" d="M630.49,372.11c-8.87-4.82-18.69-10.75-23-16.39"/><path class="cls-6" d="M650.59,350.23s14.6-13.72,17.88-21c0,0,9.2,0,12.83,6,0,0-28.41,49.22-36.11,44.7-2.25-1.31-5.77-3.12-9.81-5.25"/><path class="cls-6" d="M560.92,408.3s21.33-15.76,1.06-60.19"/><path class="cls-13" d="M607.78,427.62c-10.83,7.91-34.63,9.91-44.45-12.28"/><path class="cls-6" d="M620.23,375.19s-3.54,11.78,6.11,36c0,0-6.73,1.06-14.7,12.57"/><path class="cls-6" d="M565.42,304s-12.46-9.28-17,20.2-4.78,41.78-1.33,50.36,12.22,23.81,12.22,23.81"/><path class="cls-6" d="M564.11,383.69s-6.37-12.48-4-22.66"/><path class="cls-6" d="M626.34,411.22s5.93,9.12,2.83,26.11-9.92,52.4-9.92,52.4-22.39,11.69-46.73-11.06c0,0-6.46-30-7.53-46.65"/><path class="cls-6" d="M617.4,498.14s-6.91,22.57-9.21,42.67-.53,40.09,6.11,45.49a95.63,95.63,0,0,0,13.89,1s-1.32,14.18-17.17,12.41"/><path class="cls-6" d="M590.31,599.67v-10.8s-10-6-1.59-19.3c0,0,2,3,4.67,6.63,2.88,3.88,6.56,8.47,9.49,10.9"/><path class="cls-6" d="M578.4,592.73V581.94s-10-6-1.59-19.3c0,0,2,3,4.67,6.63"/><path class="cls-6" d="M592.31,563.73a38.67,38.67,0,0,0-.23-9.56c-2-15.67-7.61-37,3.1-54"/><path class="cls-13" d="M579,556.11a24.57,24.57,0,0,0-1.54-11c-4.06-11.33-12.29-33-1.58-53.19"/><path class="cls-6" d="M672.94,323.19a36.15,36.15,0,0,1,.53-6.24c.6-3.58.8-6.17-.53-9.69"/><path class="cls-6" d="M680.84,306.4c.4-.27,6-7.31,7.57-11.62"/><path class="cls-6" d="M686,310.25s5.57,2.52,2.39,8.29-5.12,9.1-5.12,9.1"/><path class="cls-6" d="M995.46,521.06a1.06,1.06,0,0,1,.51-.85l9.73-5.11c.28-.15.51,0,.51.31v11.15a1.06,1.06,0,0,1-.51.84L996,532.51a.32.32,0,0,1-.51-.3Z"/><path class="cls-7" d="M955.18,500.55a3,3,0,0,1,1.45-2.39l27.47-14.43a.9.9,0,0,1,1.44.87v31.46a3,3,0,0,1-1.44,2.39l-27.47,14.43a.91.91,0,0,1-1.45-.87Z"/><path class="cls-14" d="M851.25,414.43V366.57a5.4,5.4,0,0,0-2.44-4.29l-46.49-25.93c-1.34-.75-2.44-.05-2.44,1.56v11.27"/><path class="cls-6" d="M478.88,383.33V356a2.56,2.56,0,0,0-1.25-2.07l-23.84-12.53a.79.79,0,0,0-1.26.76v27.3a2.59,2.59,0,0,0,1.26,2.08L472,381.12"/><path class="cls-18" d="M979.18,257.06V213c0-5.5-4-12.24-8.85-15l-88.54-49.89"/><line class="cls-15" x1="979.18" y1="380.39" x2="979.18" y2="263.31"/><path class="cls-18" d="M926.53,430.2l43.8,24.68c4.87,2.74,8.85.49,8.85-5V386.39"/><path class="cls-6" d="M692.42,303.12l6.87,3.84c2.88,1.61,5.24.23,5.24-3.07v-1.25a11.31,11.31,0,0,0-5.24-8.92L632,255.81c-2.88-1.61-5.24-.23-5.24,3.07v1.24a11.33,11.33,0,0,0,5.24,8.93l47.83,27"/><path class="cls-15" d="M860.41,162.12l78.88,44.56,12.63,7.14,6.87,3.88c2.88,1.63,5.24.26,5.24-3v-1.24a11.4,11.4,0,0,0-5.24-9L773.71,99.9c-2-1.14-3.76-.82-4.64.59"/><path class="cls-6" d="M666.31,312.37,644,300c-2.88-1.61-5.24-.23-5.24,3.07v1.25a11.31,11.31,0,0,0,5.24,8.92l17.16,9.52"/><path class="cls-6" d="M688.91,338.16l3.51,2,6.87,3.84c2.88,1.61,5.24.23,5.24-3.07v-1.25a11.31,11.31,0,0,0-5.24-8.92l-5.86-3.26"/><ellipse class="cls-6" cx="518.45" cy="340.83" rx="3.26" ry="4.86" transform="translate(-101.48 315.38) rotate(-30.97)"/><ellipse class="cls-6" cx="813.55" cy="402.09" rx="3.26" ry="4.86" transform="translate(-90.93 475.97) rotate(-30.97)"/><ellipse class="cls-6" cx="985.54" cy="468.46" rx="4.86" ry="3.26" transform="translate(76.71 1072.43) rotate(-59.03)"/><path class="cls-15" d="M822.46,239.63a23,23,0,0,0-7.92-1.19l-15.3,6.74c-10.32,4.92-13.43,20.16-6.73,36.08,7.36,17.5,23.78,29.2,36.67,26.14,7.61-1.81,12.29-8.37,13.33-17a40.44,40.44,0,0,0-3.32-20.19c-5.15-12.21-14.7-21.61-24.38-25.12"/><path class="cls-14" d="M847.83,294.89c4.44-7.15,4.72-18.31-.12-29.83-4.15-9.85-11.16-17.87-18.8-22.45"/><path class="cls-5" d="M446.83,476.89l70.71-40.5a115.41,115.41,0,0,1,14.84-7.1"/><line class="cls-6" x1="407.51" y1="499.41" x2="442.11" y2="479.6"/><line class="cls-6" x1="285.31" y1="569.41" x2="393.86" y2="507.23"/><path class="cls-5" d="M314.49,750.86l-96.58-55.32c-42-24.07-42-63.46,0-87.53l60.91-34.88"/><line class="cls-6" x1="375.86" y1="786.01" x2="319.73" y2="753.86"/><path class="cls-6" d="M390.21,803.06a9,9,0,0,1,0-18"/><path class="cls-13" d="M395.83,787a9,9,0,0,1-.8,14.64"/><line class="cls-19" x1="877" y1="514.52" x2="877" y2="508.81"/><line class="cls-19" x1="877" y1="502.64" x2="877" y2="502.64"/><line class="cls-19" x1="910.71" y1="521.01" x2="910.71" y2="526.73"/><line class="cls-19" x1="910.71" y1="532.89" x2="910.71" y2="532.89"/><line class="cls-19" x1="885.43" y1="520.6" x2="885.43" y2="505.06"/><line class="cls-19" x1="885.43" y1="526.8" x2="885.43" y2="526.8"/><line class="cls-19" x1="902.28" y1="519.18" x2="902.28" y2="534.72"/><line class="cls-19" x1="902.28" y1="512.98" x2="902.28" y2="512.98"/><line class="cls-19" x1="893.86" y1="535.51" x2="893.86" y2="501.94"/><line class="cls-5" x1="625.27" y1="212.88" x2="642.98" y2="222.19"/><line class="cls-5" x1="625.27" y1="220.56" x2="638.89" y2="227.72"/><line class="cls-5" x1="625.27" y1="228.24" x2="642.1" y2="237.08"/><line class="cls-5" x1="635.76" y1="241.43" x2="625.27" y2="235.92"/><line class="cls-5" x1="704.53" y1="255.77" x2="722.24" y2="265.07"/><line class="cls-5" x1="704.53" y1="263.44" x2="718.15" y2="270.6"/><line class="cls-5" x1="704.53" y1="271.12" x2="721.36" y2="279.96"/><line class="cls-5" x1="715.02" y1="284.31" x2="704.53" y2="278.8"/><path class="cls-15" d="M921.37,262.06l17.92,10.13,12.63,7.14,6.87,3.88c2.88,1.63,5.24.26,5.24-3v-1.25a11.41,11.41,0,0,0-5.24-9L922,249.16"/><path class="cls-14" d="M937.48,307.69l3.94,2.26A7.85,7.85,0,0,1,945,316.1v43.65a2.74,2.74,0,0,1-.77,2.1l-1,.61"/><line class="cls-15" x1="923.88" y1="299.9" x2="933.69" y2="305.52"/><path class="cls-15" d="M923.88,307.91l10.26,5.88a7.87,7.87,0,0,1,3.57,6.15v43.65a2.19,2.19,0,0,1-3.57,2.07l-11.25-6.45"/><path class="cls-6" d="M792.29,417.81l5.6,2.94a.62.62,0,0,0,1-.6V398.61a2,2,0,0,0-1-1.64l-10.81-5.68"/><path class="cls-8" d="M331.83,245.17a9,9,0,1,1-18,0"/><path class="cls-20" d="M312.9,250.5a9,9,0,0,1-1.52-12.64"/><path class="cls-21" d="M317.1,234.52a9,9,0,1,1,.71,17.87"/><g class="cls-22"><path class="cls-23" d="M482,317.36a1.54,1.54,0,0,1-.88-.29c-25.74-18.72-51.57-43.48-76.78-73.59a1.5,1.5,0,1,1,2.3-1.92c25.05,29.92,50.71,54.51,76.25,73.08a1.5,1.5,0,0,1,.33,2.1A1.52,1.52,0,0,1,482,317.36Z"/><path class="cls-23" d="M463.82,282.8a1.51,1.51,0,0,1-1-.39,475.78,475.78,0,0,1-36.22-36.79c-3.56-4-7.17-8.19-10.71-12.43a1.5,1.5,0,1,1,2.3-1.92c3.52,4.21,7.11,8.37,10.65,12.36a471.67,471.67,0,0,0,36,36.56,1.5,1.5,0,0,1,.1,2.12A1.48,1.48,0,0,1,463.82,282.8Z"/><path class="cls-23" d="M491.84,345.84a1.56,1.56,0,0,1-.82-.24C454,321.27,416.84,284.73,380.64,237a1.5,1.5,0,1,1,2.39-1.81c36,47.47,72.88,83.77,109.64,107.91a1.5,1.5,0,0,1-.83,2.75Z"/><path class="cls-23" d="M494.83,369.39a1.42,1.42,0,0,1-.79-.23c-43.71-27.41-87.68-71.72-130.67-131.71a1.5,1.5,0,0,1,2.44-1.75c42.76,59.67,86.44,103.72,129.82,130.92a1.51,1.51,0,0,1,.48,2.07A1.52,1.52,0,0,1,494.83,369.39Z"/><path class="cls-23" d="M495.06,391.19a1.52,1.52,0,0,1-.79-.22c-49.14-30.16-98.91-81.73-147.92-153.3a1.5,1.5,0,0,1,2.47-1.69c48.77,71.21,98.24,122.5,147,152.43a1.5,1.5,0,0,1-.78,2.78Z"/><path class="cls-23" d="M493.56,412a1.49,1.49,0,0,1-.78-.22c-52.44-32-106.17-88.68-159.7-168.52a1.5,1.5,0,0,1,2.49-1.67c53.29,79.48,106.71,135.87,158.77,167.63a1.5,1.5,0,0,1-.78,2.78Z"/><path class="cls-23" d="M490,431.58a1.5,1.5,0,0,1-.79-.22C433.73,397.12,378.29,337.46,319.69,249a1.5,1.5,0,0,1,2.5-1.66c58.36,88.14,113.49,147.52,168.55,181.52a1.5,1.5,0,0,1-.78,2.77Z"/><path class="cls-23" d="M617.82,482.8a1.5,1.5,0,0,1-.24-3c4.67-.77,9.38-1.76,14-2.95a1.5,1.5,0,1,1,.75,2.91c-4.72,1.21-9.52,2.22-14.27,3Z"/><path class="cls-23" d="M485.11,450.47a1.47,1.47,0,0,1-.8-.24C409.39,402.92,347.78,317.64,308,257.62a1.5,1.5,0,0,1,2.5-1.66c39.67,59.8,101,144.73,175.45,191.74a1.5,1.5,0,0,1-.8,2.77Z"/><path class="cls-23" d="M601.94,505.16a1.5,1.5,0,0,1-.11-3,165.87,165.87,0,0,0,56-14.64,1.5,1.5,0,0,1,1.23,2.74,168.94,168.94,0,0,1-57,14.9Z"/><path class="cls-23" d="M480.51,469.56a1.5,1.5,0,0,1-.81-.24c-74.05-47.63-136.5-132.49-182.63-201.1a1.5,1.5,0,1,1,2.49-1.68c46,68.37,108.17,152.93,181.76,200.26a1.5,1.5,0,0,1-.81,2.76Z"/><path class="cls-23" d="M590.35,526.35a1.5,1.5,0,0,1,0-3c27-.39,53.75-7.9,79.58-22.31a1.5,1.5,0,0,1,1.47,2.62c-26.27,14.66-53.53,22.29-81,22.69Z"/><path class="cls-23" d="M480.35,491.57a1.54,1.54,0,0,1-.8-.23c-35.6-22.43-71.28-54.86-109.06-99.15C339.9,356.33,313.31,319,289.15,283.9a1.5,1.5,0,1,1,2.47-1.71C328.76,336.07,397.9,436.36,481.15,488.8a1.5,1.5,0,0,1,.47,2.07A1.52,1.52,0,0,1,480.35,491.57Z"/><path class="cls-23" d="M585.91,547.18q-5.48,0-11-.37a1.5,1.5,0,0,1,.2-3c35.73,2.47,70.89-7.37,104.48-29.24l2-1.32a1.5,1.5,0,0,1,1.63,2.52l-2,1.31C650.56,537.08,618.53,547.18,585.91,547.18Z"/><path class="cls-23" d="M486.43,517.39a1.44,1.44,0,0,1-.75-.21C400.27,467.4,327.83,365.65,288.91,311a1.5,1.5,0,0,1,2.45-1.74c38.79,54.48,111,155.89,195.83,205.35a1.5,1.5,0,0,1-.76,2.8Z"/><path class="cls-23" d="M583.79,568a167.67,167.67,0,0,1-37.59-4.35,1.5,1.5,0,0,1,.68-2.93c45.93,10.57,90.6,1.52,132.78-26.9q4.7-3.17,9.26-6.17a1.5,1.5,0,0,1,1.65,2.51q-4.56,3-9.24,6.15C650,557.43,617.34,568,583.79,568Z"/><path class="cls-23" d="M513,552.73a1.51,1.51,0,0,1-.58-.12C428.85,517.22,356,429.17,295.83,347.71a1.51,1.51,0,0,1,2.42-1.79c60,81.14,132.43,168.82,215.35,203.93a1.49,1.49,0,0,1,.79,2A1.51,1.51,0,0,1,513,552.73Z"/><path class="cls-23" d="M581.86,589.08c-101.64,0-193.93-97.85-260.34-181.32a1.5,1.5,0,0,1,.24-2.11,1.52,1.52,0,0,1,2.11.24C410.7,515,542.06,649,679.68,553.14c7.1-4.95,14.22-9.77,21.16-14.34a1.5,1.5,0,1,1,1.65,2.51c-6.92,4.55-14,9.36-21.09,14.29C647.63,579.13,614.27,589.08,581.86,589.08Z"/><path class="cls-23" d="M580,610c-24.62,0-50.11-5.77-76-17.22-47.45-21-97-61.1-151.51-122.53a1.5,1.5,0,0,1,2.25-2C409,529.38,458.21,569.22,505.25,590.06c29.21,12.93,57.93,18.51,85.36,16.59,30.57-2.14,60.55-13.65,89.1-34.23,11.36-8.18,22.7-16,33.73-23.15a1.5,1.5,0,0,1,1.64,2.52c-11,7.15-22.3,14.91-33.62,23.07-29,20.9-59.5,32.61-90.64,34.79Q585.45,610,580,610Z"/><path class="cls-23" d="M577.92,631.1c-22.94,0-46.67-5-70.75-14.93-47.24-19.49-96.78-57.89-151.48-117.4a1.5,1.5,0,1,1,2.21-2c54.39,59.18,103.59,97.34,150.42,116.65,28.84,11.9,57.16,16.61,84.16,14,30-2.89,59.35-14.9,87.26-35.69,17.31-12.9,34.55-24.75,51.23-35.2a1.5,1.5,0,0,1,1.59,2.54c-16.61,10.41-33.78,22.21-51,35.06-28.35,21.13-58.22,33.33-88.76,36.28Q585.41,631.1,577.92,631.1Z"/><path class="cls-23" d="M575.81,652.24c-23.25,0-47.36-5.13-71.87-15.33C456,617,405.17,577.45,348.56,516.1a1.5,1.5,0,0,1,2.2-2c56.31,61,106.79,100.29,154.33,120.07,29.56,12.29,58.48,17.12,86,14.34,30.59-3.1,60.43-15.71,88.7-37.49a682.07,682.07,0,0,1,73.82-50,1.5,1.5,0,1,1,1.5,2.6,679.43,679.43,0,0,0-73.49,49.79c-28.72,22.12-59.08,34.94-90.23,38.09A154.34,154.34,0,0,1,575.81,652.24Z"/><path class="cls-23" d="M573.68,673.46c-23.7,0-48.34-5.33-73.45-15.92-48.71-20.53-101-61.37-159.76-124.86a1.5,1.5,0,1,1,2.2-2c58.49,63.16,110.41,103.76,158.72,124.12,30.37,12.8,60,17.81,88,14.87,31.28-3.27,61.68-16.51,90.38-39.36,66.28-52.78,116.84-75.85,157.57-91.46a1.5,1.5,0,0,1,1.07,2.8c-40.51,15.53-90.81,38.49-156.77,91-29.15,23.21-60.08,36.66-91.93,40A155.39,155.39,0,0,1,573.68,673.46Z"/><path class="cls-23" d="M571.53,694.74c-24.21,0-49.44-5.55-75.23-16.57C446.11,656.71,393.85,615.65,331.83,549A1.5,1.5,0,0,1,334,546.9c61.73,66.39,113.67,107.22,163.46,128.51,31.23,13.35,61.58,18.55,90.21,15.48,32-3.45,63-17.35,92.13-41.32C759.35,584.11,820.17,562.35,860.41,548a1.5,1.5,0,1,1,1,2.82c-40,14.33-100.56,36-179.7,101.1-29.59,24.36-61.12,38.48-93.71,42A155.15,155.15,0,0,1,571.53,694.74Z"/><path class="cls-23" d="M569.35,716.11c-24.06,0-49.17-5.47-74.9-16.34a1.5,1.5,0,1,1,1.17-2.76c31.75,13.41,62.52,18.48,91.44,15.06,32.34-3.81,63.55-18.35,92.78-43.22,79.6-67.69,140.18-89,188.87-106.18l5.65-2a1.5,1.5,0,0,1,1,2.83l-5.66,2C821.25,582.57,761,603.8,681.79,671.14c-29.69,25.25-61.44,40-94.38,43.91A152.17,152.17,0,0,1,569.35,716.11Z"/><path class="cls-23" d="M440.3,669.56a1.54,1.54,0,0,1-.84-.26c-35.58-24.15-72.19-56.76-115.19-102.64a1.5,1.5,0,0,1,2.19-2.06c42.85,45.72,79.29,78.2,114.69,102.22a1.5,1.5,0,0,1-.85,2.74Z"/><path class="cls-23" d="M567.07,737.54a182.59,182.59,0,0,1-56.23-9.31,1.5,1.5,0,0,1,.93-2.85c29.08,9.4,57.29,11.57,83.86,6.47,29.32-5.64,57.66-20.35,84.24-43.71,79.31-69.71,141.66-91.39,191.76-108.81,5.37-1.87,10.45-3.63,15.46-5.43a1.5,1.5,0,0,1,1,2.83c-5,1.79-10.11,3.56-15.49,5.43C822.76,599.5,760.72,621.07,681.85,690.4c-27,23.71-55.8,38.65-85.66,44.39A153.86,153.86,0,0,1,567.07,737.54Z"/><path class="cls-23" d="M393.34,657.5a1.51,1.51,0,0,1-1-.35c-22.24-18.72-45.59-41-71.38-68a1.5,1.5,0,1,1,2.17-2.07c25.72,26.95,49,49.12,71.14,67.77a1.5,1.5,0,0,1-1,2.65Z"/><path class="cls-23" d="M564.79,759.05a180.3,180.3,0,0,1-50.4-7.48,1.5,1.5,0,0,1,.83-2.88c28.64,8.32,56.38,9.59,82.45,3.79,28.67-6.38,56.34-21.54,82.23-45.05C758.85,635.72,823,613.7,874.54,596c7.65-2.63,14.88-5.11,21.9-7.66a1.5,1.5,0,1,1,1,2.82c-7.05,2.56-14.29,5.05-22,7.68-51.28,17.61-115.1,39.52-193.6,110.81-26.27,23.87-54.4,39.26-83.59,45.76A153.92,153.92,0,0,1,564.79,759.05Z"/><path class="cls-23" d="M350.71,643.92a1.5,1.5,0,0,1-1-.42c-5.6-5.33-11.39-11-17.23-16.8a1.5,1.5,0,0,1,2.12-2.12c5.82,5.8,11.6,11.43,17.18,16.75a1.5,1.5,0,0,1-1,2.59Z"/><path class="cls-23" d="M722.5,694a1.5,1.5,0,0,1-.91-2.69C782.05,645,834.94,627.1,877.44,612.69c9-3,17.45-5.91,25.62-8.9a1.5,1.5,0,0,1,1,2.81c-8.21,3-16.7,5.89-25.69,8.93-42.29,14.34-94.92,32.17-155,78.12A1.47,1.47,0,0,1,722.5,694Z"/><path class="cls-23" d="M562.45,780.65a176.61,176.61,0,0,1-40.9-4.95,1.5,1.5,0,1,1,.69-2.92c27.17,6.46,53.48,6.49,78.2.1,27-7,53.07-21.89,77.46-44.28l2-1.88a1.5,1.5,0,0,1,2.06,2.19l-2.06,1.9c-24.74,22.73-51.23,37.86-78.73,45A154.05,154.05,0,0,1,562.45,780.65Z"/><path class="cls-23" d="M752.39,690.83a1.5,1.5,0,0,1-.83-2.76C799.94,656.3,842.65,642,880.34,629.4c7.82-2.62,15.21-5.09,22.42-7.64a1.5,1.5,0,0,1,1,2.83c-7.23,2.56-14.63,5-22.47,7.65-37.51,12.55-80,26.78-128.08,58.34A1.46,1.46,0,0,1,752.39,690.83Z"/><path class="cls-23" d="M559.93,802.34a163,163,0,0,1-16.88-.88,1.5,1.5,0,0,1,.3-3c40.56,4.17,78.83-6.89,113.73-32.9a1.49,1.49,0,0,1,2.1.31,1.51,1.51,0,0,1-.31,2.1C628.23,790.82,595,802.34,559.93,802.34Z"/><path class="cls-23" d="M774.88,694.82a1.5,1.5,0,0,1-.75-2.8c40-23.09,76.73-35.21,109.1-45.9l8.91-3a1.5,1.5,0,0,1,1,2.85l-8.91,3c-32.24,10.65-68.79,22.71-108.55,45.65A1.59,1.59,0,0,1,774.88,694.82Z"/><path class="cls-23" d="M584.77,821.78a1.5,1.5,0,0,1-.26-3,151.23,151.23,0,0,0,27.88-7.75,1.5,1.5,0,0,1,1.07,2.8A154.63,154.63,0,0,1,585,821.76Z"/><path class="cls-23" d="M808.74,695a1.5,1.5,0,0,1-.63-2.86c11.85-5.49,24.35-10.63,38.22-15.71a1.5,1.5,0,1,1,1,2.81c-13.78,5.06-26.21,10.17-38,15.62A1.41,1.41,0,0,1,808.74,695Z"/></g><path class="cls-24" d="M644.25,98.48a.64.64,0,1,0,0-1.27.64.64,0,1,0,0,1.27Zm4.81,0a.64.64,0,1,0-.64-.64A.63.63,0,0,0,649.06,98.48Zm0,4.79a.64.64,0,1,0,0-1.28.64.64,0,0,0-.64.64A.64.64,0,0,0,649.06,103.27Zm4.82,0a.64.64,0,0,0,.64-.64.64.64,0,0,0-.64-.64.64.64,0,1,0,0,1.28Zm0,4.79a.64.64,0,0,0,0-1.28.64.64,0,1,0,0,1.28Zm4.81,0a.64.64,0,1,0-.64-.64A.64.64,0,0,0,658.69,108.06Zm4.82,0a.64.64,0,0,0,0-1.28.64.64,0,1,0,0,1.28Zm-9.63,4.79a.64.64,0,0,0,0-1.28.64.64,0,1,0,0,1.28Zm4.81,0a.64.64,0,1,0-.64-.64A.64.64,0,0,0,658.69,112.85Zm4.82,0a.64.64,0,0,0,0-1.28.64.64,0,1,0,0,1.28Zm4.81,0a.64.64,0,1,0-.64-.64A.64.64,0,0,0,668.32,112.85Zm-9.63,4.79a.64.64,0,1,0-.64-.64A.64.64,0,0,0,658.69,117.64Zm4.82,0a.64.64,0,0,0,0-1.28.64.64,0,1,0,0,1.28Zm4.81,0a.64.64,0,1,0-.64-.64A.64.64,0,0,0,668.32,117.64Zm4.82,0a.64.64,0,0,0,0-1.28.64.64,0,1,0,0,1.28Zm-9.63,4.79a.64.64,0,0,0,0-1.28.64.64,0,1,0,0,1.28Zm4.81,0a.64.64,0,1,0-.64-.64A.64.64,0,0,0,668.32,122.43Zm4.82,0a.64.64,0,0,0,0-1.28.64.64,0,1,0,0,1.28Zm4.81,0a.64.64,0,1,0-.64-.64A.64.64,0,0,0,678,122.43Zm4.82,0a.64.64,0,0,0,0-1.28.64.64,0,1,0,0,1.28Zm-14.45,4.79a.64.64,0,0,0,.64-.64.64.64,0,1,0-1.28,0A.64.64,0,0,0,668.32,127.22Zm4.82,0a.64.64,0,0,0,.64-.64.64.64,0,1,0-.64.64Zm4.81,0a.64.64,0,0,0,.64-.64.64.64,0,1,0-1.28,0A.64.64,0,0,0,678,127.22Zm4.82,0a.64.64,0,0,0,.64-.64.64.64,0,1,0-.64.64Zm4.81,0a.64.64,0,0,0,.64-.64.64.64,0,0,0-1.28,0A.64.64,0,0,0,687.58,127.22Zm4.82,0a.64.64,0,1,0-.64-.64A.64.64,0,0,0,692.4,127.22ZM673.14,132a.64.64,0,1,0-.64-.63A.64.64,0,0,0,673.14,132Zm4.81,0a.64.64,0,1,0-.64-.63A.64.64,0,0,0,678,132Zm4.82,0a.64.64,0,1,0-.64-.63A.64.64,0,0,0,682.77,132Zm4.81,0a.64.64,0,1,0-.64-.63A.64.64,0,0,0,687.58,132Zm4.82,0a.64.64,0,1,0-.64-.63A.63.63,0,0,0,692.4,132Zm4.81,0a.64.64,0,1,0-.64-.63A.64.64,0,0,0,697.21,132Zm4.82,0a.64.64,0,1,0-.64-.63A.63.63,0,0,0,702,132Zm-19.26,4.79a.64.64,0,1,0,0-1.27.64.64,0,1,0,0,1.27Zm4.81,0a.64.64,0,1,0-.64-.64A.64.64,0,0,0,687.58,136.79Zm4.82,0a.64.64,0,1,0-.64-.64A.63.63,0,0,0,692.4,136.79Zm4.81,0a.64.64,0,1,0-.64-.64A.64.64,0,0,0,697.21,136.79Zm4.82,0a.64.64,0,1,0-.64-.64A.63.63,0,0,0,702,136.79Zm4.81,0a.64.64,0,1,0-.64-.64A.64.64,0,0,0,706.84,136.79Zm-19.26,4.79a.64.64,0,0,0,.64-.64.64.64,0,0,0-1.28,0A.64.64,0,0,0,687.58,141.58Zm4.82,0a.64.64,0,0,0,0-1.28.64.64,0,1,0,0,1.28Zm4.81,0a.64.64,0,0,0,.64-.64.64.64,0,1,0-1.28,0A.64.64,0,0,0,697.21,141.58Zm4.82,0a.64.64,0,0,0,0-1.28.64.64,0,1,0,0,1.28Zm4.81,0a.64.64,0,0,0,.64-.64.64.64,0,0,0-1.28,0A.64.64,0,0,0,706.84,141.58Zm4.82,0a.64.64,0,0,0,0-1.28.64.64,0,1,0,0,1.28Zm-14.45,4.79a.64.64,0,1,0-.64-.64A.64.64,0,0,0,697.21,146.37Zm4.82,0a.64.64,0,1,0-.64-.64A.64.64,0,0,0,702,146.37Zm4.81,0a.64.64,0,1,0-.64-.64A.64.64,0,0,0,706.84,146.37Zm4.82,0a.64.64,0,1,0-.64-.64A.64.64,0,0,0,711.66,146.37Zm4.81,0a.64.64,0,1,0-.64-.64A.64.64,0,0,0,716.47,146.37Zm4.82,0a.64.64,0,1,0-.64-.64A.64.64,0,0,0,721.29,146.37Zm-14.45,4.79a.64.64,0,1,0-.64-.64A.64.64,0,0,0,706.84,151.16Zm4.82,0a.64.64,0,1,0-.64-.64A.64.64,0,0,0,711.66,151.16Zm4.81,0a.64.64,0,1,0-.64-.64A.64.64,0,0,0,716.47,151.16Zm4.82,0a.64.64,0,1,0-.64-.64A.64.64,0,0,0,721.29,151.16Zm4.81,0a.64.64,0,1,0-.64-.64A.64.64,0,0,0,726.1,151.16Zm4.81,0a.64.64,0,1,0-.63-.64A.64.64,0,0,0,730.91,151.16ZM711.66,156a.64.64,0,1,0-.64-.64A.64.64,0,0,0,711.66,156Zm4.81,0a.64.64,0,1,0-.64-.64A.64.64,0,0,0,716.47,156Zm4.82,0a.64.64,0,1,0-.64-.64A.64.64,0,0,0,721.29,156Zm4.81,0a.64.64,0,1,0-.64-.64A.64.64,0,0,0,726.1,156Zm4.81,0a.64.64,0,1,0-.63-.64A.64.64,0,0,0,730.91,156Zm4.82,0a.64.64,0,1,0-.64-.64A.64.64,0,0,0,735.73,156Zm4.81,0a.64.64,0,1,0-.63-.64A.64.64,0,0,0,740.54,156Zm-14.44,4.79a.64.64,0,1,0-.64-.64A.64.64,0,0,0,726.1,160.74Zm4.81,0a.64.64,0,1,0-.63-.64A.64.64,0,0,0,730.91,160.74Zm4.82,0a.64.64,0,1,0-.64-.64A.64.64,0,0,0,735.73,160.74Zm4.81,0a.64.64,0,1,0-.63-.64A.64.64,0,0,0,740.54,160.74Zm4.82,0a.64.64,0,1,0-.64-.64A.64.64,0,0,0,745.36,160.74Zm4.81,0a.64.64,0,1,0-.63-.64A.64.64,0,0,0,750.17,160.74Zm-9.63,4.79a.64.64,0,0,0,0-1.28.64.64,0,0,0,0,1.28Zm4.82,0a.64.64,0,0,0,.64-.64.64.64,0,0,0-1.28,0A.64.64,0,0,0,745.36,165.53Zm4.81,0a.64.64,0,0,0,0-1.28.64.64,0,0,0,0,1.28Zm4.82,0a.64.64,0,0,0,.64-.64.64.64,0,1,0-1.28,0A.64.64,0,0,0,755,165.53Zm4.81,0a.64.64,0,0,0,0-1.28.64.64,0,0,0,0,1.28Zm4.82,0a.64.64,0,0,0,.64-.64.64.64,0,0,0-1.28,0A.64.64,0,0,0,764.62,165.53Zm-4.82,4.78a.64.64,0,1,0-.63-.63A.63.63,0,0,0,759.8,170.31Zm4.82,0a.64.64,0,1,0-.64-.63A.64.64,0,0,0,764.62,170.31Zm4.81,0a.64.64,0,1,0,0-1.27.64.64,0,1,0,0,1.27Zm0,4.79a.64.64,0,1,0-.64-.64A.63.63,0,0,0,769.43,175.1Zm4.82,0a.64.64,0,1,0-.64-.64A.64.64,0,0,0,774.25,175.1Zm4.81,0a.64.64,0,1,0-.64-.64A.63.63,0,0,0,779.06,175.1Zm-4.81,4.79a.64.64,0,0,0,.64-.64.64.64,0,0,0-1.28,0A.64.64,0,0,0,774.25,179.89Zm4.81,0a.64.64,0,0,0,0-1.28.64.64,0,0,0-.64.64A.64.64,0,0,0,779.06,179.89Zm4.82,0a.64.64,0,0,0,.64-.64.64.64,0,0,0-1.28,0A.64.64,0,0,0,783.88,179.89Zm4.81,0a.64.64,0,0,0,0-1.28.64.64,0,0,0-.64.64A.64.64,0,0,0,788.69,179.89Zm-9.63,4.79a.64.64,0,0,0,0-1.28.64.64,0,1,0,0,1.28Zm4.82,0a.64.64,0,1,0-.64-.64A.64.64,0,0,0,783.88,184.68Zm4.81,0a.64.64,0,0,0,0-1.28.64.64,0,1,0,0,1.28Zm4.82,0a.64.64,0,1,0-.64-.64A.64.64,0,0,0,793.51,184.68Zm-9.63,4.79a.64.64,0,1,0-.64-.64A.64.64,0,0,0,783.88,189.47Zm4.81,0a.64.64,0,0,0,0-1.28.64.64,0,1,0,0,1.28Zm4.82,0a.64.64,0,1,0-.64-.64A.64.64,0,0,0,793.51,189.47Zm4.81,0a.64.64,0,0,0,0-1.28.64.64,0,1,0,0,1.28Zm4.82,0a.64.64,0,0,0,0-1.28.64.64,0,1,0,0,1.28Zm-9.63,4.79a.64.64,0,1,0-.64-.64A.64.64,0,0,0,793.51,194.26Zm4.81,0a.64.64,0,0,0,0-1.28.64.64,0,1,0,0,1.28Zm4.82,0a.64.64,0,0,0,0-1.28.64.64,0,1,0,0,1.28Zm4.81,0a.64.64,0,0,0,0-1.28.64.64,0,1,0,0,1.28Zm-9.63,4.79a.64.64,0,0,0,0-1.28.64.64,0,1,0,0,1.28Zm4.82,0a.64.64,0,0,0,0-1.28.64.64,0,1,0,0,1.28Zm4.81,0a.64.64,0,0,0,0-1.28.64.64,0,1,0,0,1.28Zm4.82,0a.64.64,0,0,0,0-1.28.64.64,0,1,0,0,1.28Zm-9.63,4.79a.64.64,0,0,0,.64-.64.64.64,0,1,0-.64.64Zm4.81,0a.64.64,0,1,0-.64-.64A.64.64,0,0,0,808,203.84Zm4.82,0a.64.64,0,0,0,.64-.64.64.64,0,1,0-.64.64Zm4.81,0a.64.64,0,0,0,.64-.64.64.64,0,0,0-1.28,0A.64.64,0,0,0,817.58,203.84Zm4.82,0a.64.64,0,0,0,.64-.64.64.64,0,1,0-.64.64ZM808,208.62a.64.64,0,1,0,0-1.27.64.64,0,1,0,0,1.27Zm4.82,0a.64.64,0,1,0-.64-.63A.64.64,0,0,0,812.77,208.62Zm4.81,0a.64.64,0,1,0-.64-.63A.64.64,0,0,0,817.58,208.62Zm4.82,0a.64.64,0,1,0-.64-.63A.64.64,0,0,0,822.4,208.62Zm4.81,0a.64.64,0,1,0-.64-.63A.64.64,0,0,0,827.21,208.62Zm4.82,0a.64.64,0,1,0-.64-.63A.64.64,0,0,0,832,208.62Zm-14.45,4.79a.64.64,0,1,0-.64-.64A.64.64,0,0,0,817.58,213.41Zm4.82,0a.64.64,0,1,0,0-1.27.64.64,0,1,0,0,1.27Zm4.81,0a.64.64,0,1,0-.64-.64A.64.64,0,0,0,827.21,213.41Zm4.82,0a.64.64,0,1,0,0-1.27.64.64,0,1,0,0,1.27Zm4.81,0a.64.64,0,1,0-.64-.64A.64.64,0,0,0,836.84,213.41Zm4.82,0a.64.64,0,1,0,0-1.27.64.64,0,1,0,0,1.27Zm-14.45,4.79a.64.64,0,0,0,.64-.64.64.64,0,1,0-1.28,0A.64.64,0,0,0,827.21,218.2Zm4.82,0a.64.64,0,0,0,.64-.64.64.64,0,0,0-.64-.64.64.64,0,1,0,0,1.28Zm4.81,0a.64.64,0,0,0,.64-.64.64.64,0,0,0-1.28,0A.64.64,0,0,0,836.84,218.2Zm4.82,0a.64.64,0,0,0,.64-.64.64.64,0,0,0-.64-.64.64.64,0,1,0,0,1.28Zm4.81,0a.64.64,0,0,0,.64-.64.64.64,0,0,0-1.28,0A.64.64,0,0,0,846.47,218.2ZM836.84,223a.64.64,0,1,0-.64-.64A.64.64,0,0,0,836.84,223Zm4.82,0a.64.64,0,0,0,0-1.28.64.64,0,1,0,0,1.28Zm4.81,0a.64.64,0,1,0-.64-.64A.64.64,0,0,0,846.47,223Zm4.82,0a.64.64,0,1,0-.64-.64A.64.64,0,0,0,851.29,223Zm-9.63,4.79a.64.64,0,0,0,0-1.28.64.64,0,1,0,0,1.28Zm4.81,0a.64.64,0,1,0-.64-.64A.64.64,0,0,0,846.47,227.78Zm4.82,0a.64.64,0,1,0-.64-.64A.64.64,0,0,0,851.29,227.78Zm-4.82,4.79a.64.64,0,1,0-.64-.64A.64.64,0,0,0,846.47,232.57Zm4.82,0a.64.64,0,1,0-.64-.64A.64.64,0,0,0,851.29,232.57Zm4.81,0a.64.64,0,1,0-.64-.64A.64.64,0,0,0,856.1,232.57Zm-4.81,4.79a.64.64,0,1,0-.64-.64A.64.64,0,0,0,851.29,237.36Zm4.81,0a.64.64,0,0,0,.64-.64.64.64,0,0,0-1.28,0A.64.64,0,0,0,856.1,237.36Zm4.82,0a.64.64,0,1,0-.64-.64A.64.64,0,0,0,860.92,237.36Zm-4.82,4.78a.64.64,0,1,0-.64-.63A.64.64,0,0,0,856.1,242.14Zm4.82,0a.64.64,0,1,0-.64-.63A.63.63,0,0,0,860.92,242.14Zm-4.82,4.79a.64.64,0,1,0-.64-.64A.64.64,0,0,0,856.1,246.93Zm4.82,0a.64.64,0,1,0-.64-.64A.63.63,0,0,0,860.92,246.93Zm4.81,0a.64.64,0,1,0-.64-.64A.64.64,0,0,0,865.73,246.93Zm-4.81,4.79a.64.64,0,0,0,0-1.28.64.64,0,1,0,0,1.28Zm4.81,0a.64.64,0,0,0,.64-.64.64.64,0,1,0-1.28,0A.64.64,0,0,0,865.73,251.72Zm4.82,0a.64.64,0,0,0,0-1.28.64.64,0,1,0,0,1.28Zm-9.63,4.79a.64.64,0,1,0-.64-.64A.64.64,0,0,0,860.92,256.51Zm4.81,0a.64.64,0,1,0-.64-.64A.64.64,0,0,0,865.73,256.51Zm4.82,0a.64.64,0,1,0-.64-.64A.64.64,0,0,0,870.55,256.51Zm-9.63,4.79a.64.64,0,1,0-.64-.64A.64.64,0,0,0,860.92,261.3Zm4.81,0a.64.64,0,1,0-.64-.64A.64.64,0,0,0,865.73,261.3Zm4.82,0a.64.64,0,1,0-.64-.64A.64.64,0,0,0,870.55,261.3Zm4.81,0a.64.64,0,1,0-.64-.64A.64.64,0,0,0,875.36,261.3Zm-9.63,4.79a.64.64,0,1,0-.64-.64A.64.64,0,0,0,865.73,266.09Zm4.82,0a.64.64,0,1,0-.64-.64A.64.64,0,0,0,870.55,266.09Zm4.81,0a.64.64,0,1,0-.64-.64A.64.64,0,0,0,875.36,266.09Zm4.82,0a.64.64,0,1,0-.64-.64A.64.64,0,0,0,880.18,266.09Zm-19.26,4.79a.64.64,0,1,0-.64-.64A.64.64,0,0,0,860.92,270.88Zm4.81,0a.64.64,0,1,0-.64-.64A.64.64,0,0,0,865.73,270.88Zm4.82,0a.64.64,0,1,0-.64-.64A.64.64,0,0,0,870.55,270.88Zm4.81,0a.64.64,0,1,0-.64-.64A.64.64,0,0,0,875.36,270.88Zm4.82,0a.64.64,0,1,0-.64-.64A.64.64,0,0,0,880.18,270.88Zm-19.26,4.79a.64.64,0,1,0-.64-.64A.64.64,0,0,0,860.92,275.67Zm4.81,0a.64.64,0,0,0,.64-.64.64.64,0,0,0-1.28,0A.64.64,0,0,0,865.73,275.67Zm4.82,0a.64.64,0,1,0-.64-.64A.64.64,0,0,0,870.55,275.67Zm4.81,0A.64.64,0,0,0,876,275a.64.64,0,0,0-1.28,0A.64.64,0,0,0,875.36,275.67Zm4.82,0a.64.64,0,1,0-.64-.64A.64.64,0,0,0,880.18,275.67Zm-19.26,4.78a.64.64,0,1,0-.64-.63A.63.63,0,0,0,860.92,280.45Zm4.81,0a.64.64,0,1,0-.64-.63A.64.64,0,0,0,865.73,280.45Zm4.82,0a.64.64,0,1,0-.64-.63A.63.63,0,0,0,870.55,280.45Zm4.81,0a.64.64,0,1,0-.64-.63A.64.64,0,0,0,875.36,280.45Zm4.82,0a.64.64,0,1,0-.64-.63A.63.63,0,0,0,880.18,280.45Zm-19.26,4.79a.64.64,0,1,0-.64-.64A.63.63,0,0,0,860.92,285.24Zm4.81,0a.64.64,0,1,0-.64-.64A.64.64,0,0,0,865.73,285.24Zm4.82,0a.64.64,0,1,0-.64-.64A.63.63,0,0,0,870.55,285.24Zm4.81,0a.64.64,0,1,0-.64-.64A.64.64,0,0,0,875.36,285.24Zm4.82,0a.64.64,0,1,0-.64-.64A.63.63,0,0,0,880.18,285.24ZM865.73,290a.64.64,0,0,0,.64-.64.64.64,0,1,0-1.28,0A.64.64,0,0,0,865.73,290Zm4.82,0a.64.64,0,0,0,0-1.28.64.64,0,0,0,0,1.28Zm4.81,0a.64.64,0,0,0,.64-.64.64.64,0,0,0-1.28,0A.64.64,0,0,0,875.36,290Zm-9.63,4.79a.64.64,0,1,0-.64-.64A.64.64,0,0,0,865.73,294.82Zm4.82,0a.64.64,0,1,0-.64-.64A.64.64,0,0,0,870.55,294.82Zm4.81,0a.64.64,0,1,0-.64-.64A.64.64,0,0,0,875.36,294.82Zm-9.63,4.79a.64.64,0,1,0-.64-.64A.64.64,0,0,0,865.73,299.61Zm4.82,0a.64.64,0,1,0-.64-.64A.64.64,0,0,0,870.55,299.61Zm4.81,0a.64.64,0,1,0-.64-.64A.64.64,0,0,0,875.36,299.61Zm-9.63,4.79a.64.64,0,1,0-.64-.64A.64.64,0,0,0,865.73,304.4Zm4.82,0a.64.64,0,1,0-.64-.64A.64.64,0,0,0,870.55,304.4Zm4.81,0a.64.64,0,1,0-.64-.64A.64.64,0,0,0,875.36,304.4Zm-4.81,4.79a.64.64,0,1,0-.64-.64A.64.64,0,0,0,870.55,309.19Zm4.81,0a.64.64,0,1,0-.64-.64A.64.64,0,0,0,875.36,309.19Zm4.82,0a.64.64,0,1,0-.64-.64A.64.64,0,0,0,880.18,309.19ZM870.55,314a.64.64,0,1,0-.64-.64A.64.64,0,0,0,870.55,314Zm4.81,0a.64.64,0,0,0,.64-.64.64.64,0,0,0-1.28,0A.64.64,0,0,0,875.36,314Zm4.82,0a.64.64,0,1,0-.64-.64A.64.64,0,0,0,880.18,314Zm-4.82,4.78a.64.64,0,1,0-.64-.63A.64.64,0,0,0,875.36,318.76Zm4.82,0a.64.64,0,1,0-.64-.63A.63.63,0,0,0,880.18,318.76Zm4.81,0a.64.64,0,1,0-.64-.63A.64.64,0,0,0,885,318.76Zm-4.81,4.79a.64.64,0,1,0-.64-.64A.63.63,0,0,0,880.18,323.55Zm4.81,0a.64.64,0,1,0-.64-.64A.64.64,0,0,0,885,323.55Zm-4.81,4.79a.64.64,0,0,0,0-1.28.64.64,0,1,0,0,1.28Zm0,4.79a.64.64,0,1,0-.64-.64A.64.64,0,0,0,880.18,333.13Z"/><path class="cls-24" d="M932.5,630.69a.64.64,0,1,0-.64-.64A.64.64,0,0,0,932.5,630.69Zm4.81,0a.64.64,0,1,0-.63-.64A.64.64,0,0,0,937.31,630.69Zm-4.81,4.79a.64.64,0,1,0-.64-.64A.64.64,0,0,0,932.5,635.48Zm4.81,0a.64.64,0,1,0-.63-.64A.64.64,0,0,0,937.31,635.48Zm-9.62,4.79a.64.64,0,1,0-.64-.64A.64.64,0,0,0,927.69,640.27Zm4.81,0a.64.64,0,1,0-.64-.64A.64.64,0,0,0,932.5,640.27Zm4.81,0a.64.64,0,1,0-.63-.64A.64.64,0,0,0,937.31,640.27Zm-9.62,4.79a.64.64,0,1,0-.64-.64A.64.64,0,0,0,927.69,645.06Zm4.81,0a.64.64,0,1,0-.64-.64A.64.64,0,0,0,932.5,645.06Zm-9.63,4.79a.64.64,0,0,0,.64-.64.64.64,0,0,0-1.28,0A.64.64,0,0,0,922.87,649.85Zm4.82,0a.64.64,0,1,0-.64-.64A.64.64,0,0,0,927.69,649.85Zm4.81,0a.64.64,0,0,0,.64-.64.64.64,0,0,0-1.28,0A.64.64,0,0,0,932.5,649.85Zm-9.63,4.78a.64.64,0,1,0-.64-.63A.64.64,0,0,0,922.87,654.63Zm-9.63,4.79a.64.64,0,1,0-.64-.64A.64.64,0,0,0,913.24,659.42Zm4.82,0a.64.64,0,1,0-.64-.64A.63.63,0,0,0,918.06,659.42ZM884.35,669a.64.64,0,1,0-.64-.64A.64.64,0,0,0,884.35,669Zm4.82,0a.64.64,0,1,0-.64-.64A.64.64,0,0,0,889.17,669Zm4.81,0a.64.64,0,1,0-.64-.64A.64.64,0,0,0,894,669Zm-43.33,4.79a.64.64,0,0,0,0-1.28.64.64,0,0,0,0,1.28Zm4.81,0a.64.64,0,0,0,0-1.28.64.64,0,0,0,0,1.28Zm4.82,0a.64.64,0,0,0,0-1.28.64.64,0,0,0,0,1.28Zm4.81,0a.64.64,0,1,0-.64-.64A.64.64,0,0,0,865.09,673.79Zm4.82,0a.64.64,0,0,0,0-1.28.64.64,0,0,0,0,1.28Zm4.81,0a.64.64,0,1,0-.64-.64A.64.64,0,0,0,874.72,673.79Zm4.82,0a.64.64,0,0,0,0-1.28.64.64,0,0,0,0,1.28Zm4.81,0a.64.64,0,1,0-.64-.64A.64.64,0,0,0,884.35,673.79Zm-67.41,4.79a.64.64,0,1,0,0-1.28.64.64,0,1,0,0,1.28Zm19.26,0a.64.64,0,1,0,0-1.28.64.64,0,1,0,0,1.28Zm4.82,0a.64.64,0,1,0,0-1.28.64.64,0,1,0,0,1.28Zm4.81,0a.64.64,0,1,0,0-1.28.64.64,0,1,0,0,1.28Zm4.82,0a.64.64,0,1,0,0-1.28.64.64,0,1,0,0,1.28Zm4.81,0a.64.64,0,1,0,0-1.28.64.64,0,1,0,0,1.28Zm4.82,0a.64.64,0,1,0,0-1.28.64.64,0,1,0,0,1.28Zm-43.34,4.79a.64.64,0,0,0,0-1.28.64.64,0,1,0,0,1.28Zm4.82,0a.64.64,0,1,0-.64-.64A.64.64,0,0,0,821.76,683.37Zm4.81,0a.64.64,0,1,0,0-1.28.64.64,0,1,0,0,1.28Zm4.82,0a.64.64,0,1,0-.64-.64A.64.64,0,0,0,831.39,683.37Zm4.81,0a.64.64,0,0,0,0-1.28.64.64,0,1,0,0,1.28Zm4.82,0a.64.64,0,0,0,0-1.28.64.64,0,0,0,0,1.28Zm-48.15,4.79a.64.64,0,0,0,.64-.64.64.64,0,0,0-1.28,0A.64.64,0,0,0,792.87,688.16Zm4.81,0a.64.64,0,0,0,0-1.28.64.64,0,0,0,0,1.28Zm4.82,0a.64.64,0,0,0,.64-.64.64.64,0,0,0-1.28,0A.64.64,0,0,0,802.5,688.16Zm4.81,0a.64.64,0,0,0,0-1.28.64.64,0,0,0,0,1.28Zm4.82,0a.64.64,0,0,0,.64-.64.64.64,0,0,0-1.28,0A.64.64,0,0,0,812.13,688.16Zm4.81,0a.64.64,0,1,0-.64-.64A.64.64,0,0,0,816.94,688.16Zm4.82,0a.64.64,0,0,0,.64-.64.64.64,0,0,0-1.28,0A.64.64,0,0,0,821.76,688.16Zm4.81,0a.64.64,0,1,0-.64-.64A.64.64,0,0,0,826.57,688.16Zm4.82,0a.64.64,0,0,0,.64-.64.64.64,0,0,0-1.28,0A.64.64,0,0,0,831.39,688.16Zm4.81,0a.64.64,0,1,0-.64-.64A.64.64,0,0,0,836.2,688.16Zm-48.15,4.78a.64.64,0,1,0-.63-.63A.63.63,0,0,0,788.05,692.94Zm4.82,0a.64.64,0,1,0-.64-.63A.64.64,0,0,0,792.87,692.94Zm4.81,0a.64.64,0,1,0-.63-.63A.63.63,0,0,0,797.68,692.94Zm4.82,0a.64.64,0,1,0-.64-.63A.64.64,0,0,0,802.5,692.94Zm4.81,0a.64.64,0,1,0-.63-.63A.63.63,0,0,0,807.31,692.94Zm4.82,0a.64.64,0,1,0-.64-.63A.64.64,0,0,0,812.13,692.94Zm4.81,0a.64.64,0,1,0,0-1.27.64.64,0,1,0,0,1.27Zm4.82,0a.64.64,0,1,0-.64-.63A.64.64,0,0,0,821.76,692.94Zm4.81,0a.64.64,0,1,0,0-1.27.64.64,0,1,0,0,1.27Zm4.82,0a.64.64,0,1,0-.64-.63A.64.64,0,0,0,831.39,692.94Zm-43.34,4.79a.64.64,0,1,0-.63-.64A.63.63,0,0,0,788.05,697.73Zm4.82,0a.64.64,0,1,0-.64-.64A.64.64,0,0,0,792.87,697.73Zm4.81,0a.64.64,0,1,0-.63-.64A.63.63,0,0,0,797.68,697.73Zm4.82,0a.64.64,0,1,0-.64-.64A.64.64,0,0,0,802.5,697.73Zm4.81,0a.64.64,0,1,0-.63-.64A.63.63,0,0,0,807.31,697.73Zm19.26,0a.64.64,0,1,0-.64-.64A.63.63,0,0,0,826.57,697.73Zm-38.52,4.79a.64.64,0,1,0-.63-.64A.63.63,0,0,0,788.05,702.52Zm4.82,0a.64.64,0,0,0,.64-.64.64.64,0,0,0-1.28,0A.64.64,0,0,0,792.87,702.52Zm4.81,0a.64.64,0,1,0-.63-.64A.63.63,0,0,0,797.68,702.52Zm-19.26,4.79a.64.64,0,1,0-.63-.64A.64.64,0,0,0,778.42,707.31Zm4.82,0a.64.64,0,1,0-.64-.64A.64.64,0,0,0,783.24,707.31Zm4.81,0a.64.64,0,1,0-.63-.64A.64.64,0,0,0,788.05,707.31Zm-38.51,4.79a.64.64,0,1,0-.64-.64A.64.64,0,0,0,749.54,712.1Zm4.81,0a.64.64,0,1,0-.64-.64A.64.64,0,0,0,754.35,712.1Zm4.82,0a.64.64,0,1,0-.64-.64A.64.64,0,0,0,759.17,712.1Zm4.81,0a.64.64,0,1,0-.64-.64A.64.64,0,0,0,764,712.1Zm4.82,0a.64.64,0,1,0-.64-.64A.64.64,0,0,0,768.8,712.1Zm4.81,0a.64.64,0,1,0-.64-.64A.64.64,0,0,0,773.61,712.1Zm4.81,0a.64.64,0,1,0-.63-.64A.64.64,0,0,0,778.42,712.1Zm4.82,0a.64.64,0,1,0-.64-.64A.64.64,0,0,0,783.24,712.1Zm4.81,0a.64.64,0,1,0-.63-.64A.64.64,0,0,0,788.05,712.1Zm-43.33,4.79a.64.64,0,1,0-.64-.64A.64.64,0,0,0,744.72,716.89Zm4.82,0a.64.64,0,1,0-.64-.64A.64.64,0,0,0,749.54,716.89Zm4.81,0a.64.64,0,1,0-.64-.64A.64.64,0,0,0,754.35,716.89Zm4.82,0a.64.64,0,1,0-.64-.64A.64.64,0,0,0,759.17,716.89Zm4.81,0a.64.64,0,1,0-.64-.64A.64.64,0,0,0,764,716.89Zm4.82,0a.64.64,0,1,0-.64-.64A.64.64,0,0,0,768.8,716.89Zm4.81,0a.64.64,0,1,0-.64-.64A.64.64,0,0,0,773.61,716.89Zm4.81,0a.64.64,0,1,0-.63-.64A.64.64,0,0,0,778.42,716.89Zm4.82,0a.64.64,0,1,0-.64-.64A.64.64,0,0,0,783.24,716.89Zm-38.52,4.79a.64.64,0,0,0,.64-.64.64.64,0,0,0-1.28,0A.64.64,0,0,0,744.72,721.68Zm4.82,0a.64.64,0,1,0-.64-.64A.64.64,0,0,0,749.54,721.68Zm4.81,0A.64.64,0,0,0,755,721a.64.64,0,0,0-1.28,0A.64.64,0,0,0,754.35,721.68Zm4.82,0a.64.64,0,1,0-.64-.64A.64.64,0,0,0,759.17,721.68Zm4.81,0a.64.64,0,0,0,.64-.64.64.64,0,0,0-1.28,0A.64.64,0,0,0,764,721.68Zm4.82,0a.64.64,0,1,0-.64-.64A.64.64,0,0,0,768.8,721.68Zm4.81,0a.64.64,0,0,0,.64-.64.64.64,0,0,0-1.28,0A.64.64,0,0,0,773.61,721.68Zm4.81,0a.64.64,0,1,0,0-1.28.64.64,0,0,0,0,1.28Zm-33.7,4.79a.64.64,0,0,0,.64-.64.64.64,0,1,0-1.28,0A.64.64,0,0,0,744.72,726.47Zm4.82,0a.64.64,0,1,0-.64-.64A.64.64,0,0,0,749.54,726.47Zm4.81,0a.64.64,0,0,0,.64-.64.64.64,0,0,0-1.28,0A.64.64,0,0,0,754.35,726.47Zm-19.26,4.78a.64.64,0,1,0-.64-.64A.64.64,0,0,0,735.09,731.25Zm4.82,0a.64.64,0,1,0-.64-.64A.63.63,0,0,0,739.91,731.25Zm4.81,0a.64.64,0,1,0-.64-.64A.64.64,0,0,0,744.72,731.25Zm4.82,0a.64.64,0,1,0-.64-.64A.63.63,0,0,0,749.54,731.25ZM730.28,736a.64.64,0,0,0,0-1.28.64.64,0,0,0,0,1.28Zm4.81,0a.64.64,0,0,0,.64-.64.64.64,0,0,0-1.28,0A.64.64,0,0,0,735.09,736Zm4.82,0a.64.64,0,0,0,0-1.28.64.64,0,0,0,0,1.28Zm4.81,0a.64.64,0,0,0,.64-.64.64.64,0,1,0-1.28,0A.64.64,0,0,0,744.72,736Zm-14.44,4.79a.64.64,0,0,0,0-1.28.64.64,0,0,0,0,1.28Zm4.81,0a.64.64,0,0,0,.64-.64.64.64,0,0,0-1.28,0A.64.64,0,0,0,735.09,740.83Zm4.82,0a.64.64,0,0,0,0-1.28.64.64,0,1,0,0,1.28Zm-9.63,4.79a.64.64,0,1,0-.64-.64A.64.64,0,0,0,730.28,745.62Zm4.81,0a.64.64,0,1,0-.64-.64A.64.64,0,0,0,735.09,745.62Zm-4.81,4.79a.64.64,0,1,0-.64-.64A.64.64,0,0,0,730.28,750.41Zm4.81,0a.64.64,0,1,0-.64-.64A.64.64,0,0,0,735.09,750.41Zm-4.81,4.79a.64.64,0,1,0-.64-.64A.64.64,0,0,0,730.28,755.2Zm4.81,0a.64.64,0,1,0-.64-.64A.64.64,0,0,0,735.09,755.2ZM730.28,760a.64.64,0,1,0-.64-.64A.64.64,0,0,0,730.28,760Zm4.81,0a.64.64,0,0,0,.64-.64.64.64,0,0,0-1.28,0A.64.64,0,0,0,735.09,760Zm-9.63,4.78a.64.64,0,1,0-.64-.63A.64.64,0,0,0,725.46,764.77Zm4.82,0a.64.64,0,1,0-.64-.63A.63.63,0,0,0,730.28,764.77Zm-9.63,4.79a.64.64,0,1,0,0-1.27.64.64,0,1,0,0,1.27Zm4.81,0a.64.64,0,1,0-.64-.64A.64.64,0,0,0,725.46,769.56Zm-48.15,4.79a.64.64,0,0,0,0-1.28.64.64,0,0,0-.64.64A.64.64,0,0,0,677.31,774.35Zm4.82,0a.64.64,0,0,0,.64-.64.64.64,0,0,0-.64-.64.64.64,0,1,0,0,1.28Zm4.81,0a.64.64,0,0,0,0-1.28.64.64,0,0,0-.64.64A.64.64,0,0,0,686.94,774.35Zm4.82,0a.64.64,0,0,0,.64-.64.64.64,0,0,0-.64-.64.64.64,0,0,0,0,1.28Zm14.44,0a.64.64,0,0,0,.64-.64.64.64,0,1,0-1.28,0A.64.64,0,0,0,706.2,774.35Zm4.82,0a.64.64,0,0,0,.64-.64.64.64,0,0,0-.64-.64.64.64,0,0,0,0,1.28Zm4.81,0a.64.64,0,0,0,.64-.64.64.64,0,0,0-1.28,0A.64.64,0,0,0,715.83,774.35Zm-38.52,4.79a.64.64,0,0,0,0-1.28.64.64,0,0,0,0,1.28Zm4.82,0a.64.64,0,1,0,0-1.28.64.64,0,1,0,0,1.28Zm4.81,0a.64.64,0,0,0,0-1.28.64.64,0,1,0,0,1.28Zm4.82,0a.64.64,0,0,0,0-1.28.64.64,0,0,0,0,1.28Zm4.81,0a.64.64,0,1,0-.64-.64A.64.64,0,0,0,696.57,779.14Zm4.82,0a.64.64,0,1,0,0-1.28.64.64,0,1,0,0,1.28Zm4.81,0a.64.64,0,1,0-.64-.64A.64.64,0,0,0,706.2,779.14Zm-33.7,4.79a.64.64,0,1,0-.64-.64A.64.64,0,0,0,672.5,783.93Zm4.81,0a.64.64,0,0,0,0-1.28.64.64,0,0,0,0,1.28Zm4.82,0a.64.64,0,1,0,0-1.28.64.64,0,1,0,0,1.28Zm4.81,0a.64.64,0,0,0,0-1.28.64.64,0,1,0,0,1.28Zm-14.44,4.79a.64.64,0,1,0-.64-.64A.64.64,0,0,0,672.5,788.72Zm4.81,0a.64.64,0,0,0,0-1.28.64.64,0,0,0,0,1.28Zm-9.63,4.79a.64.64,0,0,0,0-1.28.64.64,0,0,0,0,1.28Zm4.82,0a.64.64,0,1,0-.64-.64A.64.64,0,0,0,672.5,793.51Zm4.81,0a.64.64,0,0,0,0-1.28.64.64,0,0,0,0,1.28Zm-62.59,4.79a.64.64,0,0,0,.64-.64.64.64,0,1,0-1.28,0A.64.64,0,0,0,614.72,798.3Zm4.81,0a.64.64,0,0,0,0-1.28.64.64,0,0,0,0,1.28Zm4.82,0a.64.64,0,0,0,.64-.64.64.64,0,0,0-1.28,0A.64.64,0,0,0,624.35,798.3Zm33.7,0a.64.64,0,1,0-.64-.64A.64.64,0,0,0,658.05,798.3Zm4.82,0a.64.64,0,0,0,.64-.64.64.64,0,0,0-1.28,0A.64.64,0,0,0,662.87,798.3Zm4.81,0a.64.64,0,1,0-.64-.64A.64.64,0,0,0,667.68,798.3Zm-57.78,4.78a.64.64,0,1,0-.63-.63A.63.63,0,0,0,609.9,803.08Zm4.82,0a.64.64,0,1,0-.64-.63A.64.64,0,0,0,614.72,803.08Zm4.81,0a.64.64,0,1,0-.63-.63A.63.63,0,0,0,619.53,803.08Zm4.82,0a.64.64,0,1,0-.64-.63A.64.64,0,0,0,624.35,803.08Zm4.81,0a.64.64,0,1,0-.63-.63A.63.63,0,0,0,629.16,803.08Zm4.82,0a.64.64,0,1,0-.64-.63A.64.64,0,0,0,634,803.08Zm4.81,0a.64.64,0,1,0-.63-.63A.63.63,0,0,0,638.79,803.08Zm4.82,0a.64.64,0,1,0-.64-.63A.64.64,0,0,0,643.61,803.08Zm4.81,0a.64.64,0,1,0-.63-.63A.63.63,0,0,0,648.42,803.08Zm4.82,0a.64.64,0,1,0-.64-.63A.64.64,0,0,0,653.24,803.08Zm4.81,0a.64.64,0,1,0,0-1.27.64.64,0,1,0,0,1.27Zm4.82,0a.64.64,0,1,0-.64-.63A.64.64,0,0,0,662.87,803.08ZM581,806.6a.64.64,0,1,0,.63.63A.63.63,0,0,0,581,806.6Zm-4.82,1.27a.64.64,0,1,0-.64-.64A.64.64,0,0,0,576.2,807.87Zm4.82,0a.64.64,0,1,0-.64-.64A.63.63,0,0,0,581,807.87Zm4.81,0a.64.64,0,1,0-.64-.64A.64.64,0,0,0,585.83,807.87Zm19.26,0a.64.64,0,1,0-.64-.64A.64.64,0,0,0,605.09,807.87Zm4.81,0a.64.64,0,1,0-.63-.64A.63.63,0,0,0,609.9,807.87Zm4.82,0a.64.64,0,1,0-.64-.64A.64.64,0,0,0,614.72,807.87Zm19.26,0a.64.64,0,1,0-.64-.64A.64.64,0,0,0,634,807.87Zm4.81,0a.64.64,0,1,0-.63-.64A.63.63,0,0,0,638.79,807.87Zm4.82,0a.64.64,0,1,0-.64-.64A.64.64,0,0,0,643.61,807.87Zm4.81,0a.64.64,0,1,0-.63-.64A.63.63,0,0,0,648.42,807.87Zm4.82,0a.64.64,0,1,0-.64-.64A.64.64,0,0,0,653.24,807.87ZM581,811.38a.64.64,0,0,0,0,1.28.64.64,0,0,0,0-1.28Zm-4.82,1.28a.64.64,0,0,0,.64-.64.64.64,0,1,0-1.28,0A.64.64,0,0,0,576.2,812.66Zm4.82,0a.64.64,0,0,0,0-1.28.64.64,0,0,0,0,1.28Zm4.81,0a.64.64,0,0,0,.64-.64.64.64,0,0,0-1.28,0A.64.64,0,0,0,585.83,812.66Zm4.82,0a.64.64,0,0,0,0-1.28.64.64,0,1,0,0,1.28Zm4.81,0a.64.64,0,0,0,.64-.64.64.64,0,0,0-1.28,0A.64.64,0,0,0,595.46,812.66Zm4.82,0a.64.64,0,0,0,0-1.28.64.64,0,0,0,0,1.28Zm4.81,0a.64.64,0,0,0,.64-.64.64.64,0,0,0-1.28,0A.64.64,0,0,0,605.09,812.66Zm4.81,0a.64.64,0,1,0-.63-.64A.63.63,0,0,0,609.9,812.66Zm4.82,0a.64.64,0,0,0,.64-.64.64.64,0,0,0-1.28,0A.64.64,0,0,0,614.72,812.66Zm-19.26,4.79a.64.64,0,1,0-.64-.64A.64.64,0,0,0,595.46,817.45Zm4.82,0a.64.64,0,1,0-.64-.64A.64.64,0,0,0,600.28,817.45Zm4.81,0a.64.64,0,1,0-.64-.64A.64.64,0,0,0,605.09,817.45Zm4.81,0a.64.64,0,1,0-.63-.64A.64.64,0,0,0,609.9,817.45Zm4.82,0a.64.64,0,1,0-.64-.64A.64.64,0,0,0,614.72,817.45Z"/><path class="cls-24" d="M339.57,596a.64.64,0,1,0-.63-.64A.63.63,0,0,0,339.57,596Zm-9.63,4.79a.64.64,0,1,0-.63-.64A.64.64,0,0,0,329.94,600.79Zm4.82,0a.64.64,0,1,0-.64-.64A.64.64,0,0,0,334.76,600.79Zm-9.63,4.79a.64.64,0,1,0-.64-.64A.64.64,0,0,0,325.13,605.58Zm4.81,0a.64.64,0,1,0-.63-.64A.64.64,0,0,0,329.94,605.58Zm-14.44,4.79a.64.64,0,1,0-.64-.64A.64.64,0,0,0,315.5,610.37Zm4.81,0a.64.64,0,1,0-.63-.64A.64.64,0,0,0,320.31,610.37Zm4.82,0a.64.64,0,1,0-.64-.64A.64.64,0,0,0,325.13,610.37Zm4.81,0a.64.64,0,1,0-.63-.64A.64.64,0,0,0,329.94,610.37Zm-14.44,4.79a.64.64,0,0,0,.64-.64.64.64,0,0,0-1.28,0A.64.64,0,0,0,315.5,615.16Zm4.81,0a.64.64,0,1,0,0-1.28.64.64,0,0,0,0,1.28Zm4.82,0a.64.64,0,0,0,.64-.64.64.64,0,0,0-1.28,0A.64.64,0,0,0,325.13,615.16Zm-14.45,4.78a.64.64,0,1,0-.63-.63A.63.63,0,0,0,310.68,619.94Zm4.82,0a.64.64,0,1,0-.64-.63A.64.64,0,0,0,315.5,619.94Zm4.81,0a.64.64,0,1,0-.63-.63A.63.63,0,0,0,320.31,619.94Zm-14.44,4.79a.64.64,0,1,0-.64-.64A.64.64,0,0,0,305.87,624.73Zm4.81,0a.64.64,0,1,0-.63-.64A.63.63,0,0,0,310.68,624.73Zm4.82,0a.64.64,0,1,0-.64-.64A.64.64,0,0,0,315.5,624.73Zm4.81,0a.64.64,0,1,0-.63-.64A.63.63,0,0,0,320.31,624.73Zm-14.44,4.79a.64.64,0,0,0,.64-.64.64.64,0,0,0-1.28,0A.64.64,0,0,0,305.87,629.52Zm4.81,0a.64.64,0,1,0-.63-.64A.63.63,0,0,0,310.68,629.52Zm4.82,0a.64.64,0,0,0,.64-.64.64.64,0,1,0-1.28,0A.64.64,0,0,0,315.5,629.52Zm4.81,0a.64.64,0,1,0-.63-.64A.63.63,0,0,0,320.31,629.52Zm4.82,0a.64.64,0,0,0,.64-.64.64.64,0,0,0-1.28,0A.64.64,0,0,0,325.13,629.52Zm-19.26,4.79a.64.64,0,1,0-.64-.64A.64.64,0,0,0,305.87,634.31Zm4.81,0a.64.64,0,1,0-.63-.64A.64.64,0,0,0,310.68,634.31Zm4.82,0a.64.64,0,1,0-.64-.64A.64.64,0,0,0,315.5,634.31Zm4.81,0a.64.64,0,1,0-.63-.64A.64.64,0,0,0,320.31,634.31Zm4.82,0a.64.64,0,1,0-.64-.64A.64.64,0,0,0,325.13,634.31Zm4.81,0a.64.64,0,1,0-.63-.64A.64.64,0,0,0,329.94,634.31Zm-19.26,4.79a.64.64,0,1,0-.63-.64A.64.64,0,0,0,310.68,639.1Zm4.82,0a.64.64,0,1,0-.64-.64A.64.64,0,0,0,315.5,639.1Zm4.81,0a.64.64,0,1,0-.63-.64A.64.64,0,0,0,320.31,639.1Zm4.82,0a.64.64,0,1,0-.64-.64A.64.64,0,0,0,325.13,639.1Zm4.81,0a.64.64,0,1,0-.63-.64A.64.64,0,0,0,329.94,639.1Zm4.82,0a.64.64,0,1,0-.64-.64A.64.64,0,0,0,334.76,639.1Zm4.81,0a.64.64,0,1,0-.63-.64A.64.64,0,0,0,339.57,639.1Zm4.82,0a.64.64,0,1,0-.64-.64A.64.64,0,0,0,344.39,639.1Zm-28.89,4.79a.64.64,0,1,0-.64-.64A.64.64,0,0,0,315.5,643.89Zm4.81,0a.64.64,0,1,0-.63-.64A.64.64,0,0,0,320.31,643.89Zm4.82,0a.64.64,0,1,0-.64-.64A.64.64,0,0,0,325.13,643.89Zm4.81,0a.64.64,0,1,0-.63-.64A.64.64,0,0,0,329.94,643.89Zm4.82,0a.64.64,0,1,0-.64-.64A.64.64,0,0,0,334.76,643.89Zm4.81,0a.64.64,0,1,0-.63-.64A.64.64,0,0,0,339.57,643.89Zm4.82,0a.64.64,0,1,0-.64-.64A.64.64,0,0,0,344.39,643.89Zm-28.89,4.79a.64.64,0,1,0-.64-.64A.64.64,0,0,0,315.5,648.68Zm4.81,0a.64.64,0,1,0-.63-.64A.64.64,0,0,0,320.31,648.68Zm4.82,0a.64.64,0,1,0-.64-.64A.64.64,0,0,0,325.13,648.68Zm4.81,0a.64.64,0,1,0-.63-.64A.64.64,0,0,0,329.94,648.68Zm4.82,0a.64.64,0,1,0-.64-.64A.64.64,0,0,0,334.76,648.68Zm4.81,0a.64.64,0,1,0-.63-.64A.64.64,0,0,0,339.57,648.68Zm4.82,0a.64.64,0,1,0-.64-.64A.64.64,0,0,0,344.39,648.68Zm-24.08,4.79a.64.64,0,0,0,0-1.28.64.64,0,0,0,0,1.28Zm4.82,0a.64.64,0,0,0,.64-.64.64.64,0,0,0-1.28,0A.64.64,0,0,0,325.13,653.47Zm4.81,0a.64.64,0,0,0,0-1.28.64.64,0,0,0,0,1.28Zm4.82,0a.64.64,0,0,0,.64-.64.64.64,0,1,0-1.28,0A.64.64,0,0,0,334.76,653.47Zm4.81,0a.64.64,0,0,0,0-1.28.64.64,0,0,0,0,1.28Zm4.82,0a.64.64,0,0,0,.64-.64.64.64,0,0,0-1.28,0A.64.64,0,0,0,344.39,653.47Zm-24.08,4.78a.64.64,0,1,0-.63-.63A.63.63,0,0,0,320.31,658.25Zm4.82,0a.64.64,0,1,0-.64-.63A.64.64,0,0,0,325.13,658.25Zm4.81,0a.64.64,0,1,0-.63-.63A.63.63,0,0,0,329.94,658.25Zm4.82,0a.64.64,0,1,0-.64-.63A.64.64,0,0,0,334.76,658.25Zm4.81,0a.64.64,0,1,0-.63-.63A.63.63,0,0,0,339.57,658.25Zm4.82,0a.64.64,0,1,0-.64-.63A.64.64,0,0,0,344.39,658.25Zm4.81,0a.64.64,0,1,0,0-1.27.64.64,0,1,0,0,1.27ZM320.31,663a.64.64,0,1,0-.63-.64A.63.63,0,0,0,320.31,663Zm4.82,0a.64.64,0,1,0-.64-.64A.64.64,0,0,0,325.13,663Zm4.81,0a.64.64,0,1,0-.63-.64A.63.63,0,0,0,329.94,663Zm4.82,0a.64.64,0,1,0-.64-.64A.64.64,0,0,0,334.76,663Zm4.81,0a.64.64,0,1,0-.63-.64A.63.63,0,0,0,339.57,663Zm4.82,0a.64.64,0,1,0-.64-.64A.64.64,0,0,0,344.39,663Zm4.81,0a.64.64,0,1,0-.64-.64A.63.63,0,0,0,349.2,663Zm-33.7,4.79a.64.64,0,0,0,.64-.64.64.64,0,0,0-1.28,0A.64.64,0,0,0,315.5,667.83Zm4.81,0a.64.64,0,1,0-.63-.64A.63.63,0,0,0,320.31,667.83Zm4.82,0a.64.64,0,0,0,.64-.64.64.64,0,0,0-1.28,0A.64.64,0,0,0,325.13,667.83Zm4.81,0a.64.64,0,1,0-.63-.64A.63.63,0,0,0,329.94,667.83Zm4.82,0a.64.64,0,0,0,.64-.64.64.64,0,0,0-1.28,0A.64.64,0,0,0,334.76,667.83Zm4.81,0a.64.64,0,1,0-.63-.64A.63.63,0,0,0,339.57,667.83Zm4.82,0a.64.64,0,0,0,.64-.64.64.64,0,0,0-1.28,0A.64.64,0,0,0,344.39,667.83Zm4.81,0a.64.64,0,1,0,0-1.28.64.64,0,0,0-.64.64A.64.64,0,0,0,349.2,667.83Zm-33.7,4.79a.64.64,0,1,0-.64-.64A.64.64,0,0,0,315.5,672.62Zm4.81,0a.64.64,0,1,0-.63-.64A.64.64,0,0,0,320.31,672.62Zm4.82,0a.64.64,0,1,0-.64-.64A.64.64,0,0,0,325.13,672.62Zm4.81,0a.64.64,0,1,0-.63-.64A.64.64,0,0,0,329.94,672.62Zm4.82,0a.64.64,0,1,0-.64-.64A.64.64,0,0,0,334.76,672.62Zm4.81,0a.64.64,0,1,0-.63-.64A.64.64,0,0,0,339.57,672.62Zm4.82,0a.64.64,0,1,0-.64-.64A.64.64,0,0,0,344.39,672.62Zm4.81,0a.64.64,0,1,0,0-1.28.64.64,0,1,0,0,1.28Zm-9.63,4.79a.64.64,0,1,0-.63-.64A.64.64,0,0,0,339.57,677.41Zm4.82,0a.64.64,0,1,0-.64-.64A.64.64,0,0,0,344.39,677.41Zm4.81,0a.64.64,0,1,0,0-1.28.64.64,0,1,0,0,1.28Zm4.82,0a.64.64,0,1,0-.64-.64A.64.64,0,0,0,354,677.41Zm-4.82,4.79a.64.64,0,0,0,0-1.28.64.64,0,0,0,0,1.28Zm4.82,0a.64.64,0,1,0-.64-.64A.64.64,0,0,0,354,682.2Zm0,4.79a.64.64,0,1,0-.64-.64A.64.64,0,0,0,354,687Zm4.81,0a.64.64,0,1,0,0-1.28.64.64,0,0,0,0,1.28ZM354,691.78a.64.64,0,0,0,.64-.64.64.64,0,0,0-1.28,0A.64.64,0,0,0,354,691.78Zm4.81,0a.64.64,0,1,0-.64-.64A.64.64,0,0,0,358.83,691.78Zm4.82,0a.64.64,0,0,0,.64-.64.64.64,0,0,0-1.28,0A.64.64,0,0,0,363.65,691.78Zm-4.82,4.78a.64.64,0,1,0,0-1.27.64.64,0,1,0,0,1.27Zm4.82,0a.64.64,0,1,0-.64-.63A.64.64,0,0,0,363.65,696.56Zm4.81,0a.64.64,0,1,0,0-1.27.64.64,0,1,0,0,1.27Zm-4.81,4.79a.64.64,0,1,0-.64-.64A.64.64,0,0,0,363.65,701.35Zm4.81,0a.64.64,0,1,0-.64-.64A.63.63,0,0,0,368.46,701.35Zm4.82,0a.64.64,0,1,0-.64-.64A.64.64,0,0,0,373.28,701.35Zm0,4.79a.64.64,0,0,0,.64-.64.64.64,0,0,0-1.28,0A.64.64,0,0,0,373.28,706.14Zm4.81,0a.64.64,0,1,0,0-1.28.64.64,0,0,0-.64.64A.64.64,0,0,0,378.09,706.14Zm4.82,0a.64.64,0,0,0,.64-.64.64.64,0,0,0-.64-.64.64.64,0,0,0,0,1.28Zm4.81,0a.64.64,0,0,0,0-1.28.64.64,0,0,0-.64.64A.64.64,0,0,0,387.72,706.14Zm9.63,4.79a.64.64,0,1,0-.64-.64A.64.64,0,0,0,397.35,710.93Zm4.82,0a.64.64,0,1,0,0-1.28.64.64,0,0,0,0,1.28Zm4.81,0a.64.64,0,1,0-.64-.64A.64.64,0,0,0,407,710.93Zm0,4.79a.64.64,0,1,0-.64-.64A.64.64,0,0,0,407,715.72Zm4.82,0a.64.64,0,0,0,0-1.28.64.64,0,0,0,0,1.28Zm4.81,0a.64.64,0,1,0-.64-.64A.64.64,0,0,0,416.61,715.72Zm-4.81,4.79a.64.64,0,0,0,0-1.28.64.64,0,0,0,0,1.28Zm4.81,0a.64.64,0,1,0-.64-.64A.64.64,0,0,0,416.61,720.51Zm4.82,0a.64.64,0,0,0,0-1.28.64.64,0,0,0,0,1.28Zm-4.82,4.79a.64.64,0,1,0-.64-.64A.64.64,0,0,0,416.61,725.3Zm4.82,0a.64.64,0,0,0,0-1.28.64.64,0,0,0,0,1.28Zm4.81,0a.64.64,0,1,0-.64-.64A.64.64,0,0,0,426.24,725.3Zm-4.81,4.79a.64.64,0,0,0,.64-.64.64.64,0,1,0-.64.64Zm4.81,0a.64.64,0,0,0,.64-.64.64.64,0,0,0-1.28,0A.64.64,0,0,0,426.24,730.09Zm4.82,4.78a.64.64,0,1,0-.64-.63A.63.63,0,0,0,431.06,734.87Zm4.81,4.79a.64.64,0,1,0-.64-.64A.64.64,0,0,0,435.87,739.66Zm4.82,4.79a.64.64,0,0,0,0-1.28.64.64,0,0,0,0,1.28Zm4.81,0a.64.64,0,0,0,.64-.64.64.64,0,0,0-1.28,0A.64.64,0,0,0,445.5,744.45Zm0,4.79a.64.64,0,1,0-.64-.64A.64.64,0,0,0,445.5,749.24Zm4.82,0a.64.64,0,1,0-.64-.64A.64.64,0,0,0,450.32,749.24Zm4.81,0a.64.64,0,1,0-.64-.64A.64.64,0,0,0,455.13,749.24ZM450.32,754a.64.64,0,1,0-.64-.64A.64.64,0,0,0,450.32,754Zm4.81,0a.64.64,0,1,0-.64-.64A.64.64,0,0,0,455.13,754Zm4.82,0a.64.64,0,1,0-.64-.64A.64.64,0,0,0,460,754Zm4.81,0a.64.64,0,1,0-.64-.64A.64.64,0,0,0,464.76,754ZM460,758.82a.64.64,0,1,0-.64-.64A.64.64,0,0,0,460,758.82Zm4.81,0a.64.64,0,1,0-.64-.64A.64.64,0,0,0,464.76,758.82Zm4.81,0a.64.64,0,1,0-.63-.64A.64.64,0,0,0,469.57,758.82Zm0,4.79a.64.64,0,0,0,0-1.28.64.64,0,0,0,0,1.28Zm4.82,0A.64.64,0,0,0,475,763a.64.64,0,0,0-1.28,0A.64.64,0,0,0,474.39,763.61Z"/><path class="cls-25" d="M85.34,471.32a3,3,0,0,1,1.44-2.39l27.47-14.43a.91.91,0,0,1,1.45.87v31.47a3,3,0,0,1-1.45,2.39L86.78,503.66a.9.9,0,0,1-1.44-.87Z"/><path class="cls-26" d="M63,462.42a1.06,1.06,0,0,1,.51-.85l9.73-5.11c.29-.15.52,0,.52.31v11.14a1,1,0,0,1-.52.85l-9.73,5.11c-.28.15-.51,0-.51-.31Z"/><ellipse class="cls-6" cx="119.91" cy="431.02" rx="7.15" ry="4.8" transform="translate(-311.36 312.03) rotate(-59.03)"/><ellipse class="cls-6" cx="75.46" cy="527.75" rx="4.86" ry="3.26" transform="translate(-415.88 320.87) rotate(-59.03)"/><path class="cls-7" d="M241.88,483.58c-3.15-4.36-8.75-6.5-14.13-6.46s-10.58,2-15.33,4.54A212.54,212.54,0,0,1,210,448.82c2.72-1,5.87-.25,8.31,1.34a27,27,0,0,1,6.11,6.18,200.85,200.85,0,0,0,18.89-16.07l-2.08.48a17.78,17.78,0,0,0-29.53-10.67l-3.21-5.67A21,21,0,0,0,202,428c-1.82,1.67-3,4.22-2.48,6.63.38,1.58,1.48,3.22.77,4.68-.53,1.08-1.81,1.49-2.94,1.89-9.27,3.22-16.06,11.56-19.67,20.69s-4.48,19.08-5.1,28.88c-.3,4.66-.49,9.64,1.9,13.66,2.28,3.85,6.61,6.13,11,7s8.92.41,13.37,0q2.67,14.53,4.24,29.25c.19,1.78.27,3.83-1,5s-3.19,1.06-4.86.71a27,27,0,0,1-14.38-8.26l-8.73,5.41c-3.58,2.22-7.44,4.81-8.57,8.87-1.63,5.84,3.2,11.5,8.28,14.81a29,29,0,0,0,12.69,4.92,16.63,16.63,0,0,0,12.8-3.78q1.14,5.85,2.29,11.72c5.35-1.59,10.52-6.31,9.81-11.85-.31-2.41-1.69-4.91-.71-7.14a7.67,7.67,0,0,1,2.36-2.62,90,90,0,0,0,31.59-58C245.31,494.63,245.29,488.3,241.88,483.58Zm-40.15,5.72a1.46,1.46,0,0,1-.65.4,7.25,7.25,0,0,1-6.53-1.26,12.65,12.65,0,0,1-4-5.58,20.4,20.4,0,0,1,8.75-25.18l.48.26q1.74,15.15,2.08,30.43A1.48,1.48,0,0,1,201.73,489.3Zm22.53,32.6c-2.36,6-6,11.31-9.65,16.6l-3.81-31.35,2.08-1.36c1.88-1.11,4-2.26,6.11-1.88,3,.53,4.66,3.73,5.58,6.63a14.21,14.21,0,0,1-.31,11.36Z"/><line class="cls-6" x1="191.72" y1="582.37" x2="199.83" y2="586.29"/><path class="cls-6" d="M178.77,530.45l-4.57-1.68-19.29,14a33,33,0,0,0,6.18,13.67"/><line class="cls-6" x1="189.02" y1="516.93" x2="189.02" y2="527.28"/><path class="cls-6" d="M182.87,434.32c-9.22,7.27-23.49,23-23.49,50.92,0,5.08,1,8.87,2.74,11.67l2.08,1.42"/><polyline class="cls-6" points="234.35 477.71 220.8 471.17 218 471.54"/><path class="cls-5" d="M230.77,543.49a73.57,73.57,0,0,0,12.59-42.3,20.85,20.85,0,0,0-3-11.48"/><path class="cls-6" d="M199.92,579.57,211,571.36V557a91.85,91.85,0,0,0,16.06-15.52"/><path class="cls-6" d="M199.92,515.54v28.37c-5.12,1-10.33-.93-14.82-9.64l-19.29,14s5.34,31.36,34.11,16.11v6.44"/><path class="cls-5" d="M178,458.51c-4.45,8.21-7.75,18.82-7.75,32.23,0,22.56,20.39,19.65,29.64,17.17"/><path class="cls-6" d="M216.87,425.41a36.41,36.41,0,0,0-5.86,2.9v-9.52l-11.09,7.73v9.1A59.29,59.29,0,0,0,180.77,454"/><path class="cls-6" d="M219,478a54.93,54.93,0,0,0-8,3.28v-33.7c2.42-1.2,7.24-2.29,10.35,5.68l20.69-14.54s-3.86-12.94-15-14.68l-7.87-4.52"/><path class="cls-6" d="M199.92,485.44c-3.58,1.07-12,2.23-12-10.54,0-10.53,7.06-16.93,12-20.12v23.77"/><path class="cls-6" d="M211,505.34c6.24-3.08,13.28-7.19,14.17,6.19.78,11.64-7.3,21.4-14.17,26.76V511.55"/><rect class="cls-2" x="567.29" y="-353.56" width="1440" height="1940"/><rect class="cls-2" x="567.29" y="-353.56" width="1440" height="1940"/><path class="cls-6" d="M772.21,326.15s17.83-1.83,12.67-17.83c0,0-2.42,3.42-7.17,0s-44.08-16-50.67,19.17"/><path class="cls-13" d="M727,333.74s-.16,29.41,26.34,27.25"/><path class="cls-6" d="M770.38,333.74v6.91s-6.59-4.5-9.67-.91-2.58,13,3.33,13.25"/></g></g></svg>